%TF.GenerationSoftware,KiCad,Pcbnew,6.0.6-3a73a75311~116~ubuntu21.10.1*%
%TF.CreationDate,2022-10-28T18:02:49+02:00*%
%TF.ProjectId,Keyboard,4b657962-6f61-4726-942e-6b696361645f,v1*%
%TF.SameCoordinates,Original*%
%TF.FileFunction,Paste,Bot*%
%TF.FilePolarity,Positive*%
%FSLAX46Y46*%
G04 Gerber Fmt 4.6, Leading zero omitted, Abs format (unit mm)*
G04 Created by KiCad (PCBNEW 6.0.6-3a73a75311~116~ubuntu21.10.1) date 2022-10-28 18:02:49*
%MOMM*%
%LPD*%
G01*
G04 APERTURE LIST*
%ADD10R,1.200000X0.900000*%
G04 APERTURE END LIST*
D10*
%TO.C,D61*%
X345100400Y-148009400D03*
X345100400Y-144709400D03*
%TD*%
%TO.C,D19*%
X166520500Y-90862700D03*
X166520500Y-87562700D03*
%TD*%
%TO.C,D5*%
X156999900Y-71815800D03*
X156999900Y-68515800D03*
%TD*%
%TO.C,D16*%
X109371500Y-90863000D03*
X109371500Y-87563000D03*
%TD*%
%TO.C,D52*%
X295097300Y-128960600D03*
X295097300Y-125660600D03*
%TD*%
%TO.C,D8*%
X214149900Y-71815800D03*
X214149900Y-68515800D03*
%TD*%
%TO.C,D44*%
X142707100Y-128960300D03*
X142707100Y-125660300D03*
%TD*%
%TO.C,D22*%
X223670500Y-90862700D03*
X223670500Y-87562700D03*
%TD*%
%TO.C,D42*%
X92704000Y-128960300D03*
X92704000Y-125660300D03*
%TD*%
%TO.C,D25*%
X280820500Y-90862700D03*
X280820500Y-87562700D03*
%TD*%
%TO.C,D24*%
X261770500Y-90862700D03*
X261770500Y-87562700D03*
%TD*%
%TO.C,D50*%
X256998500Y-128960600D03*
X256998500Y-125660600D03*
%TD*%
%TO.C,D45*%
X161755700Y-128960600D03*
X161755700Y-125660600D03*
%TD*%
%TO.C,D34*%
X190331500Y-109911500D03*
X190331500Y-106611500D03*
%TD*%
%TO.C,D41*%
X335576200Y-109911500D03*
X335576200Y-106611500D03*
%TD*%
%TO.C,D18*%
X147470500Y-90862700D03*
X147470500Y-87562700D03*
%TD*%
%TO.C,D2*%
X99849900Y-71815800D03*
X99849900Y-68515800D03*
%TD*%
%TO.C,D3*%
X118899900Y-71815800D03*
X118899900Y-68515800D03*
%TD*%
%TO.C,D55*%
X106990400Y-148009400D03*
X106990400Y-144709400D03*
%TD*%
%TO.C,D11*%
X271299900Y-71815800D03*
X271299900Y-68515800D03*
%TD*%
%TO.C,D13*%
X309399900Y-71815800D03*
X309399900Y-68515800D03*
%TD*%
%TO.C,D15*%
X85560500Y-90863000D03*
X85560500Y-87563000D03*
%TD*%
%TO.C,D49*%
X237948500Y-128960600D03*
X237948500Y-125660600D03*
%TD*%
%TO.C,D31*%
X133182500Y-109911800D03*
X133182500Y-106611800D03*
%TD*%
%TO.C,D38*%
X266531500Y-109911500D03*
X266531500Y-106611500D03*
%TD*%
%TO.C,D26*%
X299870500Y-90862700D03*
X299870500Y-87562700D03*
%TD*%
%TO.C,D46*%
X180798500Y-128960600D03*
X180798500Y-125660600D03*
%TD*%
%TO.C,D35*%
X209381500Y-109911500D03*
X209381500Y-106611500D03*
%TD*%
%TO.C,D17*%
X128420500Y-90862700D03*
X128420500Y-87562700D03*
%TD*%
%TO.C,D10*%
X252249900Y-71815800D03*
X252249900Y-68515800D03*
%TD*%
%TO.C,D20*%
X185570500Y-90862700D03*
X185570500Y-87562700D03*
%TD*%
%TO.C,D21*%
X204620500Y-90862700D03*
X204620500Y-87562700D03*
%TD*%
%TO.C,D1*%
X80799900Y-71815800D03*
X80799900Y-68515800D03*
%TD*%
%TO.C,D27*%
X318908500Y-90862700D03*
X318908500Y-87562700D03*
%TD*%
%TO.C,D48*%
X218898500Y-128898100D03*
X218898500Y-125598100D03*
%TD*%
%TO.C,D23*%
X242720500Y-90862700D03*
X242720500Y-87562700D03*
%TD*%
%TO.C,D56*%
X130801400Y-148009400D03*
X130801400Y-144709400D03*
%TD*%
%TO.C,D28*%
X342719500Y-90862700D03*
X342719500Y-87562700D03*
%TD*%
%TO.C,D6*%
X176049900Y-71815800D03*
X176049900Y-68515800D03*
%TD*%
%TO.C,D33*%
X171281500Y-109911500D03*
X171281500Y-106611500D03*
%TD*%
%TO.C,D40*%
X304631500Y-109911500D03*
X304631500Y-106611500D03*
%TD*%
%TO.C,D54*%
X83179600Y-148009100D03*
X83179600Y-144709100D03*
%TD*%
%TO.C,D39*%
X285581500Y-109911500D03*
X285581500Y-106611500D03*
%TD*%
%TO.C,D29*%
X87940100Y-109911800D03*
X87940100Y-106611800D03*
%TD*%
%TO.C,D60*%
X321289400Y-147946900D03*
X321289400Y-144646900D03*
%TD*%
%TO.C,D37*%
X247481500Y-109911500D03*
X247481500Y-106611500D03*
%TD*%
%TO.C,D4*%
X137949900Y-71815800D03*
X137949900Y-68515800D03*
%TD*%
%TO.C,D14*%
X337974900Y-71815800D03*
X337974900Y-68515800D03*
%TD*%
%TO.C,D47*%
X199848500Y-128960600D03*
X199848500Y-125660600D03*
%TD*%
%TO.C,D12*%
X290349900Y-71815800D03*
X290349900Y-68515800D03*
%TD*%
%TO.C,D57*%
X202234400Y-148009400D03*
X202234400Y-144709400D03*
%TD*%
%TO.C,D59*%
X297477100Y-148009100D03*
X297477100Y-144709100D03*
%TD*%
%TO.C,D30*%
X114133700Y-109911800D03*
X114133700Y-106611800D03*
%TD*%
%TO.C,D53*%
X330821400Y-128873800D03*
X330821400Y-125573800D03*
%TD*%
%TO.C,D9*%
X233199900Y-71815800D03*
X233199900Y-68515800D03*
%TD*%
%TO.C,D51*%
X276048500Y-128898100D03*
X276048500Y-125598100D03*
%TD*%
%TO.C,D58*%
X273667400Y-148009400D03*
X273667400Y-144709400D03*
%TD*%
%TO.C,D36*%
X228431500Y-109911500D03*
X228431500Y-106611500D03*
%TD*%
%TO.C,D7*%
X195099900Y-71815800D03*
X195099900Y-68515800D03*
%TD*%
%TO.C,D43*%
X123658100Y-128898100D03*
X123658100Y-125598100D03*
%TD*%
%TO.C,D32*%
X152231500Y-109911500D03*
X152231500Y-106611500D03*
%TD*%
M02*
