%TF.GenerationSoftware,KiCad,Pcbnew,6.0.6-3a73a75311~116~ubuntu21.10.1*%
%TF.CreationDate,2022-10-26T18:33:10+02:00*%
%TF.ProjectId,Keyboard,4b657962-6f61-4726-942e-6b696361645f,rev?*%
%TF.SameCoordinates,Original*%
%TF.FileFunction,Soldermask,Top*%
%TF.FilePolarity,Negative*%
%FSLAX46Y46*%
G04 Gerber Fmt 4.6, Leading zero omitted, Abs format (unit mm)*
G04 Created by KiCad (PCBNEW 6.0.6-3a73a75311~116~ubuntu21.10.1) date 2022-10-26 18:33:10*
%MOMM*%
%LPD*%
G01*
G04 APERTURE LIST*
%ADD10C,1.750000*%
%ADD11C,3.987800*%
%ADD12O,1.700000X1.700000*%
%ADD13R,1.700000X1.700000*%
G04 APERTURE END LIST*
D10*
%TO.C,SW9*%
X231294900Y-65403300D03*
D11*
X236374900Y-65403300D03*
D10*
X241454900Y-65403300D03*
%TD*%
%TO.C,SW33*%
X169376500Y-103499000D03*
X179536500Y-103499000D03*
D11*
X174456500Y-103499000D03*
%TD*%
D10*
%TO.C,SW4*%
X136044900Y-65403300D03*
D11*
X141124900Y-65403300D03*
D10*
X146204900Y-65403300D03*
%TD*%
%TO.C,SW30*%
X112228700Y-103499300D03*
X122388700Y-103499300D03*
D11*
X117308700Y-103499300D03*
%TD*%
D10*
%TO.C,SW42*%
X90799000Y-122547800D03*
X100959000Y-122547800D03*
D11*
X95879000Y-122547800D03*
%TD*%
D10*
%TO.C,SW25*%
X289075500Y-84450200D03*
X278915500Y-84450200D03*
D11*
X283995500Y-84450200D03*
%TD*%
D10*
%TO.C,SW28*%
X340814500Y-84450500D03*
X350974500Y-84450500D03*
D11*
X345894500Y-84450500D03*
%TD*%
%TO.C,SW49*%
X241123500Y-122548100D03*
D10*
X246203500Y-122548100D03*
X236043500Y-122548100D03*
%TD*%
%TO.C,SW12*%
X288444900Y-65403300D03*
D11*
X293524900Y-65403300D03*
D10*
X298604900Y-65403300D03*
%TD*%
D11*
%TO.C,SW20*%
X188745500Y-84450200D03*
D10*
X183665500Y-84450200D03*
X193825500Y-84450200D03*
%TD*%
%TO.C,SW11*%
X269394900Y-65403300D03*
X279554900Y-65403300D03*
D11*
X274474900Y-65403300D03*
%TD*%
D10*
%TO.C,SW40*%
X312886500Y-103499000D03*
X302726500Y-103499000D03*
D11*
X307806500Y-103499000D03*
%TD*%
D12*
%TO.C,U1*%
X75851000Y-57305400D03*
X78391000Y-57305400D03*
D13*
X80931000Y-57305400D03*
D12*
X83471000Y-57305400D03*
X86011000Y-57305400D03*
X88551000Y-57305400D03*
X91091000Y-57305400D03*
D13*
X93631000Y-57305400D03*
D12*
X96171000Y-57305400D03*
X98711000Y-57305400D03*
X101251000Y-57305400D03*
X103791000Y-57305400D03*
D13*
X106331000Y-57305400D03*
D12*
X108871000Y-57305400D03*
X111411000Y-57305400D03*
X113951000Y-57305400D03*
X116491000Y-57305400D03*
D13*
X119031000Y-57305400D03*
D12*
X121571000Y-57305400D03*
X124111000Y-57305400D03*
X124111000Y-75085400D03*
X121571000Y-75085400D03*
D13*
X119031000Y-75085400D03*
D12*
X116491000Y-75085400D03*
X113951000Y-75085400D03*
X111411000Y-75085400D03*
X108871000Y-75085400D03*
D13*
X106331000Y-75085400D03*
D12*
X103791000Y-75085400D03*
X101251000Y-75085400D03*
X98711000Y-75085400D03*
X96171000Y-75085400D03*
D13*
X93631000Y-75085400D03*
D12*
X91091000Y-75085400D03*
X88551000Y-75085400D03*
X86011000Y-75085400D03*
X83471000Y-75085400D03*
D13*
X80931000Y-75085400D03*
D12*
X78391000Y-75085400D03*
X75851000Y-75085400D03*
%TD*%
D10*
%TO.C,SW23*%
X250975500Y-84450200D03*
X240815500Y-84450200D03*
D11*
X245895500Y-84450200D03*
%TD*%
D10*
%TO.C,SW31*%
X131277500Y-103499300D03*
D11*
X136357500Y-103499300D03*
D10*
X141437500Y-103499300D03*
%TD*%
D11*
%TO.C,SW50*%
X260173500Y-122548100D03*
D10*
X265253500Y-122548100D03*
X255093500Y-122548100D03*
%TD*%
%TO.C,SW51*%
X284303500Y-122548100D03*
D11*
X279223500Y-122548100D03*
D10*
X274143500Y-122548100D03*
%TD*%
%TO.C,SW17*%
X126515500Y-84450200D03*
X136675500Y-84450200D03*
D11*
X131595500Y-84450200D03*
%TD*%
D10*
%TO.C,SW38*%
X274786500Y-103499000D03*
D11*
X269706500Y-103499000D03*
D10*
X264626500Y-103499000D03*
%TD*%
%TO.C,SW37*%
X245576500Y-103499000D03*
X255736500Y-103499000D03*
D11*
X250656500Y-103499000D03*
%TD*%
D10*
%TO.C,SW55*%
X115245400Y-141596900D03*
X105085400Y-141596900D03*
D11*
X110165400Y-141596900D03*
%TD*%
D10*
%TO.C,SW14*%
X346229900Y-65403300D03*
X336069900Y-65403300D03*
D11*
X341149900Y-65403300D03*
%TD*%
%TO.C,SW13*%
X312574900Y-65403300D03*
D10*
X317654900Y-65403300D03*
X307494900Y-65403300D03*
%TD*%
D11*
%TO.C,SW27*%
X322083500Y-84450200D03*
D10*
X317003500Y-84450200D03*
X327163500Y-84450200D03*
%TD*%
D11*
%TO.C,SW16*%
X112546500Y-84450500D03*
D10*
X117626500Y-84450500D03*
X107466500Y-84450500D03*
%TD*%
%TO.C,SW44*%
X140802100Y-122547800D03*
X150962100Y-122547800D03*
D11*
X145882100Y-122547800D03*
%TD*%
D10*
%TO.C,SW43*%
X131913100Y-122548100D03*
X121753100Y-122548100D03*
D11*
X126833100Y-122548100D03*
%TD*%
%TO.C,SW32*%
X155406500Y-103499000D03*
D10*
X150326500Y-103499000D03*
X160486500Y-103499000D03*
%TD*%
D11*
%TO.C,SW24*%
X264945500Y-84450200D03*
D10*
X259865500Y-84450200D03*
X270025500Y-84450200D03*
%TD*%
D11*
%TO.C,SW46*%
X183973500Y-122548100D03*
D10*
X178893500Y-122548100D03*
X189053500Y-122548100D03*
%TD*%
%TO.C,SW52*%
X303352300Y-122548100D03*
X293192300Y-122548100D03*
D11*
X298272300Y-122548100D03*
%TD*%
%TO.C,SW39*%
X288756500Y-103499000D03*
D10*
X283676500Y-103499000D03*
X293836500Y-103499000D03*
%TD*%
D11*
%TO.C,SW15*%
X88735500Y-84450500D03*
D10*
X83655500Y-84450500D03*
X93815500Y-84450500D03*
%TD*%
%TO.C,SW21*%
X202715500Y-84450200D03*
D11*
X207795500Y-84450200D03*
D10*
X212875500Y-84450200D03*
%TD*%
%TO.C,SW8*%
X222404900Y-65403300D03*
D11*
X217324900Y-65403300D03*
D10*
X212244900Y-65403300D03*
%TD*%
D11*
%TO.C,SW3*%
X122074900Y-65403300D03*
D10*
X127154900Y-65403300D03*
X116994900Y-65403300D03*
%TD*%
%TO.C,SW29*%
X86035100Y-103499300D03*
D11*
X91115100Y-103499300D03*
D10*
X96195100Y-103499300D03*
%TD*%
%TO.C,SW58*%
X271762400Y-141596900D03*
D11*
X276842400Y-141596900D03*
D10*
X281922400Y-141596900D03*
%TD*%
%TO.C,SW53*%
X339068800Y-122548100D03*
D11*
X333988800Y-122548100D03*
D10*
X328908800Y-122548100D03*
%TD*%
D11*
%TO.C,STAB4*%
X345895050Y-130803100D03*
X322082550Y-130803100D03*
%TD*%
D10*
%TO.C,SW61*%
X343195400Y-141596900D03*
D11*
X348275400Y-141596900D03*
D10*
X353355400Y-141596900D03*
%TD*%
D11*
%TO.C,SW60*%
X324464400Y-141596900D03*
D10*
X319384400Y-141596900D03*
X329544400Y-141596900D03*
%TD*%
D11*
%TO.C,SW18*%
X150645500Y-84450200D03*
D10*
X155725500Y-84450200D03*
X145565500Y-84450200D03*
%TD*%
%TO.C,SW26*%
X308125500Y-84450200D03*
X297965500Y-84450200D03*
D11*
X303045500Y-84450200D03*
%TD*%
%TO.C,STAB1*%
X329225850Y-73656700D03*
X353038350Y-73656700D03*
%TD*%
%TO.C,SW54*%
X86354600Y-141596600D03*
D10*
X81274600Y-141596600D03*
X91434600Y-141596600D03*
%TD*%
%TO.C,SW2*%
X108104900Y-65403300D03*
D11*
X103024900Y-65403300D03*
D10*
X97944900Y-65403300D03*
%TD*%
D11*
%TO.C,SW36*%
X231606500Y-103499000D03*
D10*
X226526500Y-103499000D03*
X236686500Y-103499000D03*
%TD*%
%TO.C,SW5*%
X155094900Y-65403300D03*
X165254900Y-65403300D03*
D11*
X160174900Y-65403300D03*
%TD*%
%TO.C,SW57*%
X205409400Y-141596900D03*
D10*
X210489400Y-141596900D03*
X200329400Y-141596900D03*
%TD*%
%TO.C,SW35*%
X217636500Y-103499000D03*
X207476500Y-103499000D03*
D11*
X212556500Y-103499000D03*
%TD*%
D10*
%TO.C,SW19*%
X164615500Y-84450200D03*
X174775500Y-84450200D03*
D11*
X169695500Y-84450200D03*
%TD*%
D10*
%TO.C,SW59*%
X305732100Y-141596600D03*
X295572100Y-141596600D03*
D11*
X300652100Y-141596600D03*
%TD*%
%TO.C,SW48*%
X222073500Y-122548100D03*
D10*
X227153500Y-122548100D03*
X216993500Y-122548100D03*
%TD*%
D11*
%TO.C,SW10*%
X255424900Y-65403300D03*
D10*
X260504900Y-65403300D03*
X250344900Y-65403300D03*
%TD*%
D11*
%TO.C,SW22*%
X226845500Y-84450200D03*
D10*
X231925500Y-84450200D03*
X221765500Y-84450200D03*
%TD*%
D11*
%TO.C,STAB3*%
X107785050Y-130803100D03*
X83972550Y-130803100D03*
%TD*%
D10*
%TO.C,SW34*%
X198586500Y-103499000D03*
X188426500Y-103499000D03*
D11*
X193506500Y-103499000D03*
%TD*%
%TO.C,STAB2*%
X350657250Y-111754300D03*
X326844750Y-111754300D03*
%TD*%
%TO.C,SW45*%
X164930700Y-122548100D03*
D10*
X159850700Y-122548100D03*
X170010700Y-122548100D03*
%TD*%
%TO.C,SW7*%
X203354900Y-65403300D03*
X193194900Y-65403300D03*
D11*
X198274900Y-65403300D03*
%TD*%
%TO.C,REF\u002A\u002A*%
X155403150Y-149851900D03*
X255415650Y-149851900D03*
%TD*%
D10*
%TO.C,SW41*%
X343831000Y-103499300D03*
D11*
X338751000Y-103499300D03*
D10*
X333671000Y-103499300D03*
%TD*%
%TO.C,SW1*%
X78894900Y-65403300D03*
D11*
X83974900Y-65403300D03*
D10*
X89054900Y-65403300D03*
%TD*%
%TO.C,SW6*%
X184304900Y-65403300D03*
D11*
X179224900Y-65403300D03*
D10*
X174144900Y-65403300D03*
%TD*%
%TO.C,SW47*%
X208103500Y-122548100D03*
X197943500Y-122548100D03*
D11*
X203023500Y-122548100D03*
%TD*%
D10*
%TO.C,SW56*%
X139056400Y-141596900D03*
D11*
X133976400Y-141596900D03*
D10*
X128896400Y-141596900D03*
%TD*%
M02*
