M48
; DRILL file {KiCad 6.0.6-3a73a75311~116~ubuntu21.10.1} date do 20 okt 2022 16:32:39 CEST
; FORMAT={-:-/ absolute / inch / decimal}
; #@! TF.CreationDate,2022-10-20T16:32:39+02:00
; #@! TF.GenerationSoftware,Kicad,Pcbnew,6.0.6-3a73a75311~116~ubuntu21.10.1
; #@! TF.FileFunction,NonPlated,1,2,NPTH
FMAT,2
INCH
; #@! TA.AperFunction,NonPlated,NPTH,ComponentDrill
T1C0.0689
; #@! TA.AperFunction,NonPlated,NPTH,ComponentDrill
T2C0.1570
%
G90
G05
T1
X0.8Y-1.0
X0.8937Y-3.9997
X0.9874Y-1.7499
X1.0811Y-2.4998
X1.2Y-1.0
X1.2687Y-3.2498
X1.2937Y-3.9997
X1.3874Y-1.7499
X1.4811Y-2.4998
X1.55Y-1.0
X1.6687Y-3.2498
X1.8311Y-3.9997
X1.9249Y-1.7499
X1.95Y-1.0
X2.1124Y-2.4998
X2.2311Y-3.9997
X2.3Y-1.0
X2.3249Y-1.7499
X2.4873Y-3.2498
X2.5124Y-2.4998
X2.6748Y-1.7499
X2.7Y-1.0
X2.7686Y-3.9997
X2.8623Y-2.4998
X2.8873Y-3.2498
X3.05Y-1.0
X3.0748Y-1.7499
X3.1686Y-3.9997
X3.2373Y-3.2498
X3.2623Y-2.4998
X3.4248Y-1.7499
X3.45Y-1.0
X3.6123Y-2.4998
X3.6373Y-3.2498
X3.8Y-1.0
X3.8248Y-1.7499
X3.9872Y-3.2498
X4.0123Y-2.4998
X4.1748Y-1.7499
X4.2Y-1.0
X4.3623Y-2.4998
X4.3872Y-3.2498
X4.55Y-1.0
X4.5748Y-1.7499
X4.737Y-3.2498
X4.7623Y-2.4998
X4.9248Y-1.7499
X4.95Y-1.0
X5.1123Y-2.4998
X5.137Y-3.2498
X5.3Y-1.0
X5.3248Y-1.7499
X5.487Y-3.2498
X5.5123Y-2.4998
X5.5809Y-3.9997
X5.6748Y-1.7499
X5.7Y-1.0
X5.8623Y-2.4998
X5.887Y-3.2498
X5.9809Y-3.9997
X6.05Y-1.0
X6.0748Y-1.7499
X6.237Y-3.2498
X6.2623Y-2.4998
X6.4248Y-1.7499
X6.45Y-1.0
X6.6123Y-2.4998
X6.637Y-3.2498
X6.8Y-1.0
X6.8248Y-1.7499
X6.987Y-3.2498
X7.0123Y-2.4998
X7.1748Y-1.7499
X7.2Y-1.0
X7.3623Y-2.4998
X7.387Y-3.2498
X7.55Y-1.0
X7.5748Y-1.7499
X7.737Y-3.2498
X7.7623Y-2.4998
X7.9248Y-1.7499
X7.95Y-1.0
X8.1123Y-2.4998
X8.137Y-3.2498
X8.3Y-1.0
X8.3248Y-1.7499
X8.3932Y-3.9997
X8.487Y-3.2498
X8.5123Y-2.4998
X8.6748Y-1.7499
X8.7Y-1.0
X8.7932Y-3.9997
X8.8623Y-2.4998
X8.887Y-3.2498
X9.05Y-1.0
X9.0748Y-1.7499
X9.2369Y-3.2498
X9.2623Y-2.4998
X9.3306Y-4.0022
X9.4248Y-1.7499
X9.45Y-1.0
X9.6123Y-2.4998
X9.6369Y-3.2498
X9.7306Y-4.0022
X9.8Y-1.0
X9.8248Y-1.7499
X10.0123Y-2.4998
X10.1744Y-1.7499
X10.2Y-1.0
X10.2681Y-4.0022
X10.5744Y-1.7499
X10.6434Y-3.2488
X10.6681Y-4.0022
X10.8306Y-2.4998
X10.925Y-1.0
X11.0434Y-3.2488
X11.1118Y-1.7499
X11.2056Y-4.0022
X11.2306Y-2.4998
X11.325Y-1.0
X11.5118Y-1.7499
X11.6056Y-4.0022
T2
X0.9999Y-3.5748
X1.0Y-1.0
X1.0937Y-3.9997
X1.1874Y-1.7499
X1.2811Y-2.4998
X1.4687Y-3.2498
X1.75Y-1.0
X1.9374Y-3.5748
X2.0311Y-3.9997
X2.1249Y-1.7499
X2.3124Y-2.4998
X2.5Y-1.0
X2.6873Y-3.2498
X2.8748Y-1.7499
X2.9686Y-3.9997
X3.0623Y-2.4998
X3.25Y-1.0
X3.4373Y-3.2498
X3.6248Y-1.7499
X3.8121Y-4.3247
X3.8123Y-2.4998
X4.0Y-1.0
X4.1872Y-3.2498
X4.3748Y-1.7499
X4.5623Y-2.4998
X4.75Y-1.0
X4.937Y-3.2498
X5.1248Y-1.7499
X5.3123Y-2.4998
X5.5Y-1.0
X5.687Y-3.2498
X5.7809Y-3.9997
X5.8748Y-1.7499
X6.0623Y-2.4998
X6.25Y-1.0
X6.437Y-3.2498
X6.6248Y-1.7499
X6.8123Y-2.4998
X7.0Y-1.0
X7.187Y-3.2498
X7.3748Y-1.7499
X7.5623Y-2.4998
X7.7496Y-4.3247
X7.75Y-1.0
X7.937Y-3.2498
X8.1248Y-1.7499
X8.3123Y-2.4998
X8.5Y-1.0
X8.5932Y-3.9997
X8.687Y-3.2498
X8.8748Y-1.7499
X9.0623Y-2.4998
X9.25Y-1.0
X9.4369Y-3.2498
X9.5306Y-4.0022
X9.6248Y-1.7499
X9.8123Y-2.4998
X10.0Y-1.0
X10.3744Y-1.7499
X10.3746Y-3.5738
X10.4681Y-4.0022
X10.5618Y-2.8248
X10.6555Y-1.3249
X10.8434Y-3.2488
X11.0306Y-2.4998
X11.125Y-1.0
X11.3118Y-1.7499
X11.3121Y-3.5738
X11.4056Y-4.0022
X11.4993Y-2.8248
X11.593Y-1.3249
T0
M30
