%TF.GenerationSoftware,KiCad,Pcbnew,6.0.6-3a73a75311~116~ubuntu21.10.1*%
%TF.CreationDate,2022-10-28T18:02:49+02:00*%
%TF.ProjectId,Keyboard,4b657962-6f61-4726-942e-6b696361645f,v1*%
%TF.SameCoordinates,Original*%
%TF.FileFunction,Soldermask,Bot*%
%TF.FilePolarity,Negative*%
%FSLAX46Y46*%
G04 Gerber Fmt 4.6, Leading zero omitted, Abs format (unit mm)*
G04 Created by KiCad (PCBNEW 6.0.6-3a73a75311~116~ubuntu21.10.1) date 2022-10-28 18:02:49*
%MOMM*%
%LPD*%
G01*
G04 APERTURE LIST*
%ADD10C,2.300000*%
%ADD11C,3.987800*%
%ADD12C,1.750000*%
%ADD13C,3.000000*%
%ADD14O,1.700000X1.700000*%
%ADD15R,1.700000X1.700000*%
%ADD16C,4.000000*%
%ADD17R,1.200000X0.900000*%
G04 APERTURE END LIST*
D10*
%TO.C,SW40*%
X310346500Y-98419000D03*
X303996500Y-100959000D03*
D11*
X307806500Y-103499000D03*
D12*
X302726500Y-103499000D03*
X312886500Y-103499000D03*
%TD*%
D13*
%TO.C,M2*%
X174614000Y-142866000D03*
%TD*%
%TO.C,M3*%
X319067400Y-103974700D03*
%TD*%
%TO.C,M1*%
X103974700Y-103974700D03*
%TD*%
D12*
%TO.C,SW9*%
X231294900Y-65403300D03*
D11*
X236374900Y-65403300D03*
D12*
X241454900Y-65403300D03*
D10*
X232564900Y-62863300D03*
X238914900Y-60323300D03*
%TD*%
D12*
%TO.C,SW33*%
X169376500Y-103499000D03*
X179536500Y-103499000D03*
D11*
X174456500Y-103499000D03*
D10*
X170646500Y-100959000D03*
X176996500Y-98419000D03*
%TD*%
D12*
%TO.C,SW4*%
X136044900Y-65403300D03*
D11*
X141124900Y-65403300D03*
D12*
X146204900Y-65403300D03*
D10*
X137314900Y-62863300D03*
X143664900Y-60323300D03*
%TD*%
D12*
%TO.C,SW30*%
X112228700Y-103499300D03*
X122388700Y-103499300D03*
D11*
X117308700Y-103499300D03*
D10*
X113498700Y-100959300D03*
X119848700Y-98419300D03*
%TD*%
D12*
%TO.C,SW42*%
X90799000Y-122547800D03*
X100959000Y-122547800D03*
D11*
X95879000Y-122547800D03*
D10*
X92069000Y-120007800D03*
X98419000Y-117467800D03*
%TD*%
D12*
%TO.C,SW25*%
X289075500Y-84450200D03*
X278915500Y-84450200D03*
D11*
X283995500Y-84450200D03*
D10*
X280185500Y-81910200D03*
X286535500Y-79370200D03*
%TD*%
D12*
%TO.C,SW28*%
X340814500Y-84450500D03*
X350974500Y-84450500D03*
D11*
X345894500Y-84450500D03*
D10*
X342084500Y-81910500D03*
X348434500Y-79370500D03*
%TD*%
D11*
%TO.C,SW49*%
X241123500Y-122548100D03*
D12*
X246203500Y-122548100D03*
X236043500Y-122548100D03*
D10*
X237313500Y-120008100D03*
X243663500Y-117468100D03*
%TD*%
D12*
%TO.C,SW12*%
X288444900Y-65403300D03*
D11*
X293524900Y-65403300D03*
D12*
X298604900Y-65403300D03*
D10*
X289714900Y-62863300D03*
X296064900Y-60323300D03*
%TD*%
D11*
%TO.C,SW20*%
X188745500Y-84450200D03*
D12*
X183665500Y-84450200D03*
X193825500Y-84450200D03*
D10*
X184935500Y-81910200D03*
X191285500Y-79370200D03*
%TD*%
D12*
%TO.C,SW11*%
X269394900Y-65403300D03*
X279554900Y-65403300D03*
D11*
X274474900Y-65403300D03*
D10*
X270664900Y-62863300D03*
X277014900Y-60323300D03*
%TD*%
D14*
%TO.C,U1*%
X75851000Y-75085400D03*
X78391000Y-75085400D03*
D15*
X80931000Y-75085400D03*
D14*
X83471000Y-75085400D03*
X86011000Y-75085400D03*
X88551000Y-75085400D03*
X91091000Y-75085400D03*
D15*
X93631000Y-75085400D03*
D14*
X96171000Y-75085400D03*
X98711000Y-75085400D03*
X101251000Y-75085400D03*
X103791000Y-75085400D03*
D15*
X106331000Y-75085400D03*
D14*
X108871000Y-75085400D03*
X111411000Y-75085400D03*
X113951000Y-75085400D03*
X116491000Y-75085400D03*
D15*
X119031000Y-75085400D03*
D14*
X121571000Y-75085400D03*
X124111000Y-75085400D03*
X124111000Y-57305400D03*
X121571000Y-57305400D03*
D15*
X119031000Y-57305400D03*
D14*
X116491000Y-57305400D03*
X113951000Y-57305400D03*
X111411000Y-57305400D03*
X108871000Y-57305400D03*
D15*
X106331000Y-57305400D03*
D14*
X103791000Y-57305400D03*
X101251000Y-57305400D03*
X98711000Y-57305400D03*
X96171000Y-57305400D03*
D15*
X93631000Y-57305400D03*
D14*
X91091000Y-57305400D03*
X88551000Y-57305400D03*
X86011000Y-57305400D03*
X83471000Y-57305400D03*
D15*
X80931000Y-57305400D03*
D14*
X78391000Y-57305400D03*
X75851000Y-57305400D03*
%TD*%
D12*
%TO.C,SW23*%
X250975500Y-84450200D03*
X240815500Y-84450200D03*
D11*
X245895500Y-84450200D03*
D10*
X242085500Y-81910200D03*
X248435500Y-79370200D03*
%TD*%
D12*
%TO.C,SW31*%
X131277500Y-103499300D03*
D11*
X136357500Y-103499300D03*
D12*
X141437500Y-103499300D03*
D10*
X132547500Y-100959300D03*
X138897500Y-98419300D03*
%TD*%
D11*
%TO.C,SW50*%
X260173500Y-122548100D03*
D12*
X265253500Y-122548100D03*
X255093500Y-122548100D03*
D10*
X256363500Y-120008100D03*
X262713500Y-117468100D03*
%TD*%
D12*
%TO.C,SW51*%
X284303500Y-122548100D03*
D11*
X279223500Y-122548100D03*
D12*
X274143500Y-122548100D03*
D10*
X275413500Y-120008100D03*
X281763500Y-117468100D03*
%TD*%
D12*
%TO.C,SW17*%
X126515500Y-84450200D03*
X136675500Y-84450200D03*
D11*
X131595500Y-84450200D03*
D10*
X127785500Y-81910200D03*
X134135500Y-79370200D03*
%TD*%
D12*
%TO.C,SW38*%
X274786500Y-103499000D03*
D11*
X269706500Y-103499000D03*
D12*
X264626500Y-103499000D03*
D10*
X265896500Y-100959000D03*
X272246500Y-98419000D03*
%TD*%
D12*
%TO.C,SW37*%
X245576500Y-103499000D03*
X255736500Y-103499000D03*
D11*
X250656500Y-103499000D03*
D10*
X246846500Y-100959000D03*
X253196500Y-98419000D03*
%TD*%
D12*
%TO.C,SW55*%
X115245400Y-141596900D03*
X105085400Y-141596900D03*
D11*
X110165400Y-141596900D03*
D10*
X106355400Y-139056900D03*
X112705400Y-136516900D03*
%TD*%
D12*
%TO.C,SW14*%
X346229900Y-65403300D03*
X336069900Y-65403300D03*
D11*
X341149900Y-65403300D03*
D10*
X337339900Y-62863300D03*
X343689900Y-60323300D03*
%TD*%
D11*
%TO.C,SW13*%
X312574900Y-65403300D03*
D12*
X317654900Y-65403300D03*
X307494900Y-65403300D03*
D10*
X308764900Y-62863300D03*
X315114900Y-60323300D03*
%TD*%
D11*
%TO.C,SW27*%
X322083500Y-84450200D03*
D12*
X317003500Y-84450200D03*
X327163500Y-84450200D03*
D10*
X318273500Y-81910200D03*
X324623500Y-79370200D03*
%TD*%
D11*
%TO.C,SW16*%
X112546500Y-84450500D03*
D12*
X117626500Y-84450500D03*
X107466500Y-84450500D03*
D10*
X108736500Y-81910500D03*
X115086500Y-79370500D03*
%TD*%
D12*
%TO.C,SW44*%
X140802100Y-122547800D03*
X150962100Y-122547800D03*
D11*
X145882100Y-122547800D03*
D10*
X142072100Y-120007800D03*
X148422100Y-117467800D03*
%TD*%
D12*
%TO.C,SW43*%
X131913100Y-122548100D03*
X121753100Y-122548100D03*
D11*
X126833100Y-122548100D03*
D10*
X123023100Y-120008100D03*
X129373100Y-117468100D03*
%TD*%
D11*
%TO.C,SW32*%
X155406500Y-103499000D03*
D12*
X150326500Y-103499000D03*
X160486500Y-103499000D03*
D10*
X151596500Y-100959000D03*
X157946500Y-98419000D03*
%TD*%
D11*
%TO.C,SW24*%
X264945500Y-84450200D03*
D12*
X259865500Y-84450200D03*
X270025500Y-84450200D03*
D10*
X261135500Y-81910200D03*
X267485500Y-79370200D03*
%TD*%
D11*
%TO.C,SW46*%
X183973500Y-122548100D03*
D12*
X178893500Y-122548100D03*
X189053500Y-122548100D03*
D10*
X180163500Y-120008100D03*
X186513500Y-117468100D03*
%TD*%
D12*
%TO.C,SW52*%
X303352300Y-122548100D03*
X293192300Y-122548100D03*
D11*
X298272300Y-122548100D03*
D10*
X294462300Y-120008100D03*
X300812300Y-117468100D03*
%TD*%
D11*
%TO.C,SW39*%
X288756500Y-103499000D03*
D12*
X283676500Y-103499000D03*
X293836500Y-103499000D03*
D10*
X284946500Y-100959000D03*
X291296500Y-98419000D03*
%TD*%
D11*
%TO.C,SW15*%
X88735500Y-84450500D03*
D12*
X83655500Y-84450500D03*
X93815500Y-84450500D03*
D10*
X84925500Y-81910500D03*
X91275500Y-79370500D03*
%TD*%
D12*
%TO.C,SW21*%
X202715500Y-84450200D03*
D11*
X207795500Y-84450200D03*
D12*
X212875500Y-84450200D03*
D10*
X203985500Y-81910200D03*
X210335500Y-79370200D03*
%TD*%
D12*
%TO.C,SW8*%
X222404900Y-65403300D03*
D11*
X217324900Y-65403300D03*
D12*
X212244900Y-65403300D03*
D10*
X213514900Y-62863300D03*
X219864900Y-60323300D03*
%TD*%
D11*
%TO.C,SW3*%
X122074900Y-65403300D03*
D12*
X127154900Y-65403300D03*
X116994900Y-65403300D03*
D10*
X118264900Y-62863300D03*
X124614900Y-60323300D03*
%TD*%
D12*
%TO.C,SW29*%
X86035100Y-103499300D03*
D11*
X91115100Y-103499300D03*
D12*
X96195100Y-103499300D03*
D10*
X87305100Y-100959300D03*
X93655100Y-98419300D03*
%TD*%
D12*
%TO.C,SW58*%
X271762400Y-141596900D03*
D11*
X276842400Y-141596900D03*
D12*
X281922400Y-141596900D03*
D10*
X273032400Y-139056900D03*
X279382400Y-136516900D03*
%TD*%
D12*
%TO.C,SW53*%
X339068800Y-122548100D03*
D11*
X333988800Y-122548100D03*
D12*
X328908800Y-122548100D03*
D10*
X330178800Y-120008100D03*
X336528800Y-117468100D03*
%TD*%
D11*
%TO.C,STAB4*%
X345895050Y-130803100D03*
D16*
X345895050Y-115563100D03*
X322082550Y-115563100D03*
D11*
X322082550Y-130803100D03*
%TD*%
D12*
%TO.C,SW61*%
X343195400Y-141596900D03*
D11*
X348275400Y-141596900D03*
D12*
X353355400Y-141596900D03*
D10*
X344465400Y-139056900D03*
X350815400Y-136516900D03*
%TD*%
D11*
%TO.C,SW60*%
X324464400Y-141596900D03*
D12*
X319384400Y-141596900D03*
X329544400Y-141596900D03*
D10*
X320654400Y-139056900D03*
X327004400Y-136516900D03*
%TD*%
D11*
%TO.C,SW18*%
X150645500Y-84450200D03*
D12*
X155725500Y-84450200D03*
X145565500Y-84450200D03*
D10*
X146835500Y-81910200D03*
X153185500Y-79370200D03*
%TD*%
D12*
%TO.C,SW26*%
X308125500Y-84450200D03*
X297965500Y-84450200D03*
D11*
X303045500Y-84450200D03*
D10*
X299235500Y-81910200D03*
X305585500Y-79370200D03*
%TD*%
D11*
%TO.C,STAB1*%
X329225850Y-73656700D03*
D16*
X353038350Y-58416700D03*
D11*
X353038350Y-73656700D03*
D16*
X329225850Y-58416700D03*
%TD*%
D11*
%TO.C,SW54*%
X86354600Y-141596600D03*
D12*
X81274600Y-141596600D03*
X91434600Y-141596600D03*
D10*
X82544600Y-139056600D03*
X88894600Y-136516600D03*
%TD*%
D12*
%TO.C,SW2*%
X108104900Y-65403300D03*
D11*
X103024900Y-65403300D03*
D12*
X97944900Y-65403300D03*
D10*
X99214900Y-62863300D03*
X105564900Y-60323300D03*
%TD*%
D11*
%TO.C,SW36*%
X231606500Y-103499000D03*
D12*
X226526500Y-103499000D03*
X236686500Y-103499000D03*
D10*
X227796500Y-100959000D03*
X234146500Y-98419000D03*
%TD*%
D12*
%TO.C,SW5*%
X155094900Y-65403300D03*
X165254900Y-65403300D03*
D11*
X160174900Y-65403300D03*
D10*
X156364900Y-62863300D03*
X162714900Y-60323300D03*
%TD*%
D11*
%TO.C,SW57*%
X205409400Y-141596900D03*
D12*
X210489400Y-141596900D03*
X200329400Y-141596900D03*
D10*
X201599400Y-139056900D03*
X207949400Y-136516900D03*
%TD*%
D12*
%TO.C,SW35*%
X217636500Y-103499000D03*
X207476500Y-103499000D03*
D11*
X212556500Y-103499000D03*
D10*
X208746500Y-100959000D03*
X215096500Y-98419000D03*
%TD*%
D12*
%TO.C,SW19*%
X164615500Y-84450200D03*
X174775500Y-84450200D03*
D11*
X169695500Y-84450200D03*
D10*
X165885500Y-81910200D03*
X172235500Y-79370200D03*
%TD*%
D12*
%TO.C,SW59*%
X305732100Y-141596600D03*
X295572100Y-141596600D03*
D11*
X300652100Y-141596600D03*
D10*
X296842100Y-139056600D03*
X303192100Y-136516600D03*
%TD*%
D11*
%TO.C,SW48*%
X222073500Y-122548100D03*
D12*
X227153500Y-122548100D03*
X216993500Y-122548100D03*
D10*
X218263500Y-120008100D03*
X224613500Y-117468100D03*
%TD*%
D11*
%TO.C,SW10*%
X255424900Y-65403300D03*
D12*
X260504900Y-65403300D03*
X250344900Y-65403300D03*
D10*
X251614900Y-62863300D03*
X257964900Y-60323300D03*
%TD*%
D11*
%TO.C,SW22*%
X226845500Y-84450200D03*
D12*
X231925500Y-84450200D03*
X221765500Y-84450200D03*
D10*
X223035500Y-81910200D03*
X229385500Y-79370200D03*
%TD*%
D16*
%TO.C,STAB3*%
X107785050Y-115563100D03*
D11*
X107785050Y-130803100D03*
X83972550Y-130803100D03*
D16*
X83972550Y-115563100D03*
%TD*%
D12*
%TO.C,SW34*%
X198586500Y-103499000D03*
X188426500Y-103499000D03*
D11*
X193506500Y-103499000D03*
D10*
X189696500Y-100959000D03*
X196046500Y-98419000D03*
%TD*%
D11*
%TO.C,STAB2*%
X350657250Y-111754300D03*
D16*
X350657250Y-96514300D03*
D11*
X326844750Y-111754300D03*
D16*
X326844750Y-96514300D03*
%TD*%
D11*
%TO.C,SW45*%
X164930700Y-122548100D03*
D12*
X159850700Y-122548100D03*
X170010700Y-122548100D03*
D10*
X161120700Y-120008100D03*
X167470700Y-117468100D03*
%TD*%
D12*
%TO.C,SW7*%
X203354900Y-65403300D03*
X193194900Y-65403300D03*
D11*
X198274900Y-65403300D03*
D10*
X194464900Y-62863300D03*
X200814900Y-60323300D03*
%TD*%
D11*
%TO.C,REF\u002A\u002A*%
X155403150Y-149851900D03*
D16*
X255415650Y-134611900D03*
X155403150Y-134611900D03*
D11*
X255415650Y-149851900D03*
%TD*%
D12*
%TO.C,SW41*%
X343831000Y-103499300D03*
D11*
X338751000Y-103499300D03*
D12*
X333671000Y-103499300D03*
D10*
X334941000Y-100959300D03*
X341291000Y-98419300D03*
%TD*%
D12*
%TO.C,SW1*%
X78894900Y-65403300D03*
D11*
X83974900Y-65403300D03*
D12*
X89054900Y-65403300D03*
D10*
X80164900Y-62863300D03*
X86514900Y-60323300D03*
%TD*%
D12*
%TO.C,SW6*%
X184304900Y-65403300D03*
D11*
X179224900Y-65403300D03*
D12*
X174144900Y-65403300D03*
D10*
X175414900Y-62863300D03*
X181764900Y-60323300D03*
%TD*%
D12*
%TO.C,SW47*%
X208103500Y-122548100D03*
X197943500Y-122548100D03*
D11*
X203023500Y-122548100D03*
D10*
X199213500Y-120008100D03*
X205563500Y-117468100D03*
%TD*%
D12*
%TO.C,SW56*%
X139056400Y-141596900D03*
D11*
X133976400Y-141596900D03*
D12*
X128896400Y-141596900D03*
D10*
X130166400Y-139056900D03*
X136516400Y-136516900D03*
%TD*%
D17*
%TO.C,D61*%
X345100400Y-148009400D03*
X345100400Y-144709400D03*
%TD*%
%TO.C,D19*%
X166520500Y-90862700D03*
X166520500Y-87562700D03*
%TD*%
%TO.C,D5*%
X156999900Y-71815800D03*
X156999900Y-68515800D03*
%TD*%
%TO.C,D16*%
X109371500Y-90863000D03*
X109371500Y-87563000D03*
%TD*%
%TO.C,D52*%
X295097300Y-128960600D03*
X295097300Y-125660600D03*
%TD*%
%TO.C,D8*%
X214149900Y-71815800D03*
X214149900Y-68515800D03*
%TD*%
%TO.C,D44*%
X142707100Y-128960300D03*
X142707100Y-125660300D03*
%TD*%
%TO.C,D22*%
X223670500Y-90862700D03*
X223670500Y-87562700D03*
%TD*%
%TO.C,D42*%
X92704000Y-128960300D03*
X92704000Y-125660300D03*
%TD*%
%TO.C,D25*%
X280820500Y-90862700D03*
X280820500Y-87562700D03*
%TD*%
%TO.C,D24*%
X261770500Y-90862700D03*
X261770500Y-87562700D03*
%TD*%
%TO.C,D50*%
X256998500Y-128960600D03*
X256998500Y-125660600D03*
%TD*%
%TO.C,D45*%
X161755700Y-128960600D03*
X161755700Y-125660600D03*
%TD*%
%TO.C,D34*%
X190331500Y-109911500D03*
X190331500Y-106611500D03*
%TD*%
%TO.C,D41*%
X335576200Y-109911500D03*
X335576200Y-106611500D03*
%TD*%
%TO.C,D18*%
X147470500Y-90862700D03*
X147470500Y-87562700D03*
%TD*%
%TO.C,D2*%
X99849900Y-71815800D03*
X99849900Y-68515800D03*
%TD*%
%TO.C,D3*%
X118899900Y-71815800D03*
X118899900Y-68515800D03*
%TD*%
%TO.C,D55*%
X106990400Y-148009400D03*
X106990400Y-144709400D03*
%TD*%
%TO.C,D11*%
X271299900Y-71815800D03*
X271299900Y-68515800D03*
%TD*%
%TO.C,D13*%
X309399900Y-71815800D03*
X309399900Y-68515800D03*
%TD*%
%TO.C,D15*%
X85560500Y-90863000D03*
X85560500Y-87563000D03*
%TD*%
%TO.C,D49*%
X237948500Y-128960600D03*
X237948500Y-125660600D03*
%TD*%
%TO.C,D31*%
X133182500Y-109911800D03*
X133182500Y-106611800D03*
%TD*%
%TO.C,D38*%
X266531500Y-109911500D03*
X266531500Y-106611500D03*
%TD*%
%TO.C,D26*%
X299870500Y-90862700D03*
X299870500Y-87562700D03*
%TD*%
%TO.C,D46*%
X180798500Y-128960600D03*
X180798500Y-125660600D03*
%TD*%
%TO.C,D35*%
X209381500Y-109911500D03*
X209381500Y-106611500D03*
%TD*%
%TO.C,D17*%
X128420500Y-90862700D03*
X128420500Y-87562700D03*
%TD*%
%TO.C,D10*%
X252249900Y-71815800D03*
X252249900Y-68515800D03*
%TD*%
%TO.C,D20*%
X185570500Y-90862700D03*
X185570500Y-87562700D03*
%TD*%
%TO.C,D21*%
X204620500Y-90862700D03*
X204620500Y-87562700D03*
%TD*%
%TO.C,D1*%
X80799900Y-71815800D03*
X80799900Y-68515800D03*
%TD*%
%TO.C,D27*%
X318908500Y-90862700D03*
X318908500Y-87562700D03*
%TD*%
%TO.C,D48*%
X218898500Y-128898100D03*
X218898500Y-125598100D03*
%TD*%
%TO.C,D23*%
X242720500Y-90862700D03*
X242720500Y-87562700D03*
%TD*%
%TO.C,D56*%
X130801400Y-148009400D03*
X130801400Y-144709400D03*
%TD*%
%TO.C,D28*%
X342719500Y-90862700D03*
X342719500Y-87562700D03*
%TD*%
%TO.C,D6*%
X176049900Y-71815800D03*
X176049900Y-68515800D03*
%TD*%
%TO.C,D33*%
X171281500Y-109911500D03*
X171281500Y-106611500D03*
%TD*%
%TO.C,D40*%
X304631500Y-109911500D03*
X304631500Y-106611500D03*
%TD*%
%TO.C,D54*%
X83179600Y-148009100D03*
X83179600Y-144709100D03*
%TD*%
%TO.C,D39*%
X285581500Y-109911500D03*
X285581500Y-106611500D03*
%TD*%
%TO.C,D29*%
X87940100Y-109911800D03*
X87940100Y-106611800D03*
%TD*%
%TO.C,D60*%
X321289400Y-147946900D03*
X321289400Y-144646900D03*
%TD*%
%TO.C,D37*%
X247481500Y-109911500D03*
X247481500Y-106611500D03*
%TD*%
%TO.C,D4*%
X137949900Y-71815800D03*
X137949900Y-68515800D03*
%TD*%
%TO.C,D14*%
X337974900Y-71815800D03*
X337974900Y-68515800D03*
%TD*%
%TO.C,D47*%
X199848500Y-128960600D03*
X199848500Y-125660600D03*
%TD*%
%TO.C,D12*%
X290349900Y-71815800D03*
X290349900Y-68515800D03*
%TD*%
%TO.C,D57*%
X202234400Y-148009400D03*
X202234400Y-144709400D03*
%TD*%
%TO.C,D59*%
X297477100Y-148009100D03*
X297477100Y-144709100D03*
%TD*%
%TO.C,D30*%
X114133700Y-109911800D03*
X114133700Y-106611800D03*
%TD*%
%TO.C,D53*%
X330821400Y-128873800D03*
X330821400Y-125573800D03*
%TD*%
%TO.C,D9*%
X233199900Y-71815800D03*
X233199900Y-68515800D03*
%TD*%
%TO.C,D51*%
X276048500Y-128898100D03*
X276048500Y-125598100D03*
%TD*%
%TO.C,D58*%
X273667400Y-148009400D03*
X273667400Y-144709400D03*
%TD*%
%TO.C,D36*%
X228431500Y-109911500D03*
X228431500Y-106611500D03*
%TD*%
%TO.C,D7*%
X195099900Y-71815800D03*
X195099900Y-68515800D03*
%TD*%
%TO.C,D43*%
X123658100Y-128898100D03*
X123658100Y-125598100D03*
%TD*%
%TO.C,D32*%
X152231500Y-109911500D03*
X152231500Y-106611500D03*
%TD*%
M02*
