%TF.GenerationSoftware,KiCad,Pcbnew,6.0.6-3a73a75311~116~ubuntu21.10.1*%
%TF.CreationDate,2022-10-26T18:33:10+02:00*%
%TF.ProjectId,Keyboard,4b657962-6f61-4726-942e-6b696361645f,rev?*%
%TF.SameCoordinates,Original*%
%TF.FileFunction,Copper,L2,Bot*%
%TF.FilePolarity,Positive*%
%FSLAX46Y46*%
G04 Gerber Fmt 4.6, Leading zero omitted, Abs format (unit mm)*
G04 Created by KiCad (PCBNEW 6.0.6-3a73a75311~116~ubuntu21.10.1) date 2022-10-26 18:33:10*
%MOMM*%
%LPD*%
G01*
G04 APERTURE LIST*
%TA.AperFunction,ComponentPad*%
%ADD10C,2.300000*%
%TD*%
%TA.AperFunction,ComponentPad*%
%ADD11O,1.700000X1.700000*%
%TD*%
%TA.AperFunction,ComponentPad*%
%ADD12R,1.700000X1.700000*%
%TD*%
%TA.AperFunction,ComponentPad*%
%ADD13C,4.000000*%
%TD*%
%TA.AperFunction,SMDPad,CuDef*%
%ADD14R,1.200000X0.900000*%
%TD*%
%TA.AperFunction,Conductor*%
%ADD15C,0.250000*%
%TD*%
G04 APERTURE END LIST*
D10*
%TO.P,SW9,1,1*%
%TO.N,Net-(D9-Pad2)*%
X232564900Y-62863300D03*
%TO.P,SW9,2,2*%
%TO.N,Col9*%
X238914900Y-60323300D03*
%TD*%
%TO.P,SW33,1,1*%
%TO.N,Net-(D33-Pad2)*%
X170646500Y-100959000D03*
%TO.P,SW33,2,2*%
%TO.N,Col5*%
X176996500Y-98419000D03*
%TD*%
%TO.P,SW4,1,1*%
%TO.N,Net-(D4-Pad2)*%
X137314900Y-62863300D03*
%TO.P,SW4,2,2*%
%TO.N,Col4*%
X143664900Y-60323300D03*
%TD*%
%TO.P,SW30,1,1*%
%TO.N,Net-(D30-Pad2)*%
X113498700Y-100959300D03*
%TO.P,SW30,2,2*%
%TO.N,Col2*%
X119848700Y-98419300D03*
%TD*%
%TO.P,SW42,1,1*%
%TO.N,Net-(D42-Pad2)*%
X92069000Y-120007800D03*
%TO.P,SW42,2,2*%
%TO.N,Col1*%
X98419000Y-117467800D03*
%TD*%
%TO.P,SW25,1,1*%
%TO.N,Net-(D25-Pad2)*%
X280185500Y-81910200D03*
%TO.P,SW25,2,2*%
%TO.N,Col11*%
X286535500Y-79370200D03*
%TD*%
%TO.P,SW28,1,1*%
%TO.N,Net-(D28-Pad2)*%
X342084500Y-81910500D03*
%TO.P,SW28,2,2*%
%TO.N,Col14*%
X348434500Y-79370500D03*
%TD*%
%TO.P,SW49,1,1*%
%TO.N,Net-(D49-Pad2)*%
X237313500Y-120008100D03*
%TO.P,SW49,2,2*%
%TO.N,Col8*%
X243663500Y-117468100D03*
%TD*%
%TO.P,SW12,1,1*%
%TO.N,Net-(D12-Pad2)*%
X289714900Y-62863300D03*
%TO.P,SW12,2,2*%
%TO.N,Col12*%
X296064900Y-60323300D03*
%TD*%
%TO.P,SW20,1,1*%
%TO.N,Net-(D20-Pad2)*%
X184935500Y-81910200D03*
%TO.P,SW20,2,2*%
%TO.N,Col6*%
X191285500Y-79370200D03*
%TD*%
%TO.P,SW11,1,1*%
%TO.N,Net-(D11-Pad2)*%
X270664900Y-62863300D03*
%TO.P,SW11,2,2*%
%TO.N,Col11*%
X277014900Y-60323300D03*
%TD*%
%TO.P,SW40,1,1*%
%TO.N,Net-(D40-Pad2)*%
X303996500Y-100959000D03*
%TO.P,SW40,2,2*%
%TO.N,Col12*%
X310346500Y-98419000D03*
%TD*%
D11*
%TO.P,U1,40,VBUS*%
%TO.N,unconnected-(U1-Pad40)*%
X75851000Y-57305400D03*
%TO.P,U1,39,VSYS*%
%TO.N,unconnected-(U1-Pad39)*%
X78391000Y-57305400D03*
D12*
%TO.P,U1,38,GND*%
%TO.N,unconnected-(U1-Pad38)*%
X80931000Y-57305400D03*
D11*
%TO.P,U1,37,3V3_EN*%
%TO.N,unconnected-(U1-Pad37)*%
X83471000Y-57305400D03*
%TO.P,U1,36,3V3*%
%TO.N,unconnected-(U1-Pad36)*%
X86011000Y-57305400D03*
%TO.P,U1,35,ADC_VREF*%
%TO.N,unconnected-(U1-Pad35)*%
X88551000Y-57305400D03*
%TO.P,U1,34,GPIO28_ADC2*%
%TO.N,unconnected-(U1-Pad34)*%
X91091000Y-57305400D03*
D12*
%TO.P,U1,33,AGND*%
%TO.N,unconnected-(U1-Pad33)*%
X93631000Y-57305400D03*
D11*
%TO.P,U1,32,GPIO27_ADC1*%
%TO.N,unconnected-(U1-Pad32)*%
X96171000Y-57305400D03*
%TO.P,U1,31,GPIO26_ADC0*%
%TO.N,unconnected-(U1-Pad31)*%
X98711000Y-57305400D03*
%TO.P,U1,30,RUN*%
%TO.N,unconnected-(U1-Pad30)*%
X101251000Y-57305400D03*
%TO.P,U1,29,GPIO22*%
%TO.N,unconnected-(U1-Pad29)*%
X103791000Y-57305400D03*
D12*
%TO.P,U1,28,GND*%
%TO.N,unconnected-(U1-Pad28)*%
X106331000Y-57305400D03*
D11*
%TO.P,U1,27,GPIO21*%
%TO.N,unconnected-(U1-Pad27)*%
X108871000Y-57305400D03*
%TO.P,U1,26,GPIO20*%
%TO.N,unconnected-(U1-Pad26)*%
X111411000Y-57305400D03*
%TO.P,U1,25,GPIO19*%
%TO.N,Col15*%
X113951000Y-57305400D03*
%TO.P,U1,24,GPIO18*%
%TO.N,Col14*%
X116491000Y-57305400D03*
D12*
%TO.P,U1,23,GND*%
%TO.N,unconnected-(U1-Pad23)*%
X119031000Y-57305400D03*
D11*
%TO.P,U1,22,GPIO17*%
%TO.N,Col13*%
X121571000Y-57305400D03*
%TO.P,U1,21,GPIO16*%
%TO.N,Col12*%
X124111000Y-57305400D03*
%TO.P,U1,20,GPIO15*%
%TO.N,Col11*%
X124111000Y-75085400D03*
%TO.P,U1,19,GPIO14*%
%TO.N,Col10*%
X121571000Y-75085400D03*
D12*
%TO.P,U1,18,GND*%
%TO.N,unconnected-(U1-Pad18)*%
X119031000Y-75085400D03*
D11*
%TO.P,U1,17,GPIO13*%
%TO.N,Col9*%
X116491000Y-75085400D03*
%TO.P,U1,16,GPIO12*%
%TO.N,Col8*%
X113951000Y-75085400D03*
%TO.P,U1,15,GPIO11*%
%TO.N,Col7*%
X111411000Y-75085400D03*
%TO.P,U1,14,GPIO10*%
%TO.N,Col6*%
X108871000Y-75085400D03*
D12*
%TO.P,U1,13,GND*%
%TO.N,unconnected-(U1-Pad13)*%
X106331000Y-75085400D03*
D11*
%TO.P,U1,12,GPIO9*%
%TO.N,Col5*%
X103791000Y-75085400D03*
%TO.P,U1,11,GPIO8*%
%TO.N,Col4*%
X101251000Y-75085400D03*
%TO.P,U1,10,GPIO7*%
%TO.N,Col3*%
X98711000Y-75085400D03*
%TO.P,U1,9,GPIO6*%
%TO.N,Col2*%
X96171000Y-75085400D03*
D12*
%TO.P,U1,8,GND*%
%TO.N,unconnected-(U1-Pad8)*%
X93631000Y-75085400D03*
D11*
%TO.P,U1,7,GPIO5*%
%TO.N,Col1*%
X91091000Y-75085400D03*
%TO.P,U1,6,GPIO4*%
%TO.N,Row5*%
X88551000Y-75085400D03*
%TO.P,U1,5,GPIO3*%
%TO.N,Row4*%
X86011000Y-75085400D03*
%TO.P,U1,4,GPIO2*%
%TO.N,Row3*%
X83471000Y-75085400D03*
D12*
%TO.P,U1,3,GND*%
%TO.N,unconnected-(U1-Pad3)*%
X80931000Y-75085400D03*
D11*
%TO.P,U1,2,GPIO1*%
%TO.N,Row2*%
X78391000Y-75085400D03*
%TO.P,U1,1,GPIO0*%
%TO.N,Row1*%
X75851000Y-75085400D03*
%TD*%
D10*
%TO.P,SW23,1,1*%
%TO.N,Net-(D23-Pad2)*%
X242085500Y-81910200D03*
%TO.P,SW23,2,2*%
%TO.N,Col9*%
X248435500Y-79370200D03*
%TD*%
%TO.P,SW31,1,1*%
%TO.N,Net-(D31-Pad2)*%
X132547500Y-100959300D03*
%TO.P,SW31,2,2*%
%TO.N,Col3*%
X138897500Y-98419300D03*
%TD*%
%TO.P,SW50,1,1*%
%TO.N,Net-(D50-Pad2)*%
X256363500Y-120008100D03*
%TO.P,SW50,2,2*%
%TO.N,Col9*%
X262713500Y-117468100D03*
%TD*%
%TO.P,SW51,1,1*%
%TO.N,Net-(D51-Pad2)*%
X275413500Y-120008100D03*
%TO.P,SW51,2,2*%
%TO.N,Col10*%
X281763500Y-117468100D03*
%TD*%
%TO.P,SW17,1,1*%
%TO.N,Net-(D17-Pad2)*%
X127785500Y-81910200D03*
%TO.P,SW17,2,2*%
%TO.N,Col3*%
X134135500Y-79370200D03*
%TD*%
%TO.P,SW38,1,1*%
%TO.N,Net-(D38-Pad2)*%
X265896500Y-100959000D03*
%TO.P,SW38,2,2*%
%TO.N,Col10*%
X272246500Y-98419000D03*
%TD*%
%TO.P,SW37,1,1*%
%TO.N,Net-(D37-Pad2)*%
X246846500Y-100959000D03*
%TO.P,SW37,2,2*%
%TO.N,Col9*%
X253196500Y-98419000D03*
%TD*%
%TO.P,SW55,1,1*%
%TO.N,Net-(D55-Pad2)*%
X106355400Y-139056900D03*
%TO.P,SW55,2,2*%
%TO.N,Col2*%
X112705400Y-136516900D03*
%TD*%
%TO.P,SW14,1,1*%
%TO.N,Net-(D14-Pad2)*%
X337339900Y-62863300D03*
%TO.P,SW14,2,2*%
%TO.N,Col14*%
X343689900Y-60323300D03*
%TD*%
%TO.P,SW13,1,1*%
%TO.N,Net-(D13-Pad2)*%
X308764900Y-62863300D03*
%TO.P,SW13,2,2*%
%TO.N,Col13*%
X315114900Y-60323300D03*
%TD*%
%TO.P,SW27,1,1*%
%TO.N,Net-(D27-Pad2)*%
X318273500Y-81910200D03*
%TO.P,SW27,2,2*%
%TO.N,Col13*%
X324623500Y-79370200D03*
%TD*%
%TO.P,SW16,1,1*%
%TO.N,Net-(D16-Pad2)*%
X108736500Y-81910500D03*
%TO.P,SW16,2,2*%
%TO.N,Col2*%
X115086500Y-79370500D03*
%TD*%
%TO.P,SW44,1,1*%
%TO.N,Net-(D44-Pad2)*%
X142072100Y-120007800D03*
%TO.P,SW44,2,2*%
%TO.N,Col3*%
X148422100Y-117467800D03*
%TD*%
%TO.P,SW43,1,1*%
%TO.N,Net-(D43-Pad2)*%
X123023100Y-120008100D03*
%TO.P,SW43,2,2*%
%TO.N,Col2*%
X129373100Y-117468100D03*
%TD*%
%TO.P,SW32,1,1*%
%TO.N,Net-(D32-Pad2)*%
X151596500Y-100959000D03*
%TO.P,SW32,2,2*%
%TO.N,Col4*%
X157946500Y-98419000D03*
%TD*%
%TO.P,SW24,1,1*%
%TO.N,Net-(D24-Pad2)*%
X261135500Y-81910200D03*
%TO.P,SW24,2,2*%
%TO.N,Col10*%
X267485500Y-79370200D03*
%TD*%
%TO.P,SW46,1,1*%
%TO.N,Net-(D46-Pad2)*%
X180163500Y-120008100D03*
%TO.P,SW46,2,2*%
%TO.N,Col5*%
X186513500Y-117468100D03*
%TD*%
%TO.P,SW52,1,1*%
%TO.N,Net-(D52-Pad2)*%
X294462300Y-120008100D03*
%TO.P,SW52,2,2*%
%TO.N,Col11*%
X300812300Y-117468100D03*
%TD*%
%TO.P,SW39,1,1*%
%TO.N,Net-(D39-Pad2)*%
X284946500Y-100959000D03*
%TO.P,SW39,2,2*%
%TO.N,Col11*%
X291296500Y-98419000D03*
%TD*%
%TO.P,SW15,1,1*%
%TO.N,Net-(D15-Pad2)*%
X84925500Y-81910500D03*
%TO.P,SW15,2,2*%
%TO.N,Col1*%
X91275500Y-79370500D03*
%TD*%
%TO.P,SW21,1,1*%
%TO.N,Net-(D21-Pad2)*%
X203985500Y-81910200D03*
%TO.P,SW21,2,2*%
%TO.N,Col7*%
X210335500Y-79370200D03*
%TD*%
%TO.P,SW8,1,1*%
%TO.N,Net-(D8-Pad2)*%
X213514900Y-62863300D03*
%TO.P,SW8,2,2*%
%TO.N,Col8*%
X219864900Y-60323300D03*
%TD*%
%TO.P,SW3,1,1*%
%TO.N,Net-(D3-Pad2)*%
X118264900Y-62863300D03*
%TO.P,SW3,2,2*%
%TO.N,Col3*%
X124614900Y-60323300D03*
%TD*%
%TO.P,SW29,1,1*%
%TO.N,Net-(D29-Pad2)*%
X87305100Y-100959300D03*
%TO.P,SW29,2,2*%
%TO.N,Col1*%
X93655100Y-98419300D03*
%TD*%
%TO.P,SW58,1,1*%
%TO.N,Net-(D58-Pad2)*%
X273032400Y-139056900D03*
%TO.P,SW58,2,2*%
%TO.N,Col9*%
X279382400Y-136516900D03*
%TD*%
%TO.P,SW53,1,1*%
%TO.N,Net-(D53-Pad2)*%
X330178800Y-120008100D03*
%TO.P,SW53,2,2*%
%TO.N,Col12*%
X336528800Y-117468100D03*
%TD*%
D13*
%TO.P,STAB4,*%
%TO.N,*%
X345895050Y-115563100D03*
X322082550Y-115563100D03*
%TD*%
D10*
%TO.P,SW61,1,1*%
%TO.N,Net-(D61-Pad2)*%
X344465400Y-139056900D03*
%TO.P,SW61,2,2*%
%TO.N,Col12*%
X350815400Y-136516900D03*
%TD*%
%TO.P,SW60,1,1*%
%TO.N,Net-(D60-Pad2)*%
X320654400Y-139056900D03*
%TO.P,SW60,2,2*%
%TO.N,Col11*%
X327004400Y-136516900D03*
%TD*%
%TO.P,SW18,1,1*%
%TO.N,Net-(D18-Pad2)*%
X146835500Y-81910200D03*
%TO.P,SW18,2,2*%
%TO.N,Col4*%
X153185500Y-79370200D03*
%TD*%
%TO.P,SW26,1,1*%
%TO.N,Net-(D26-Pad2)*%
X299235500Y-81910200D03*
%TO.P,SW26,2,2*%
%TO.N,Col12*%
X305585500Y-79370200D03*
%TD*%
D13*
%TO.P,STAB1,*%
%TO.N,*%
X353038350Y-58416700D03*
X329225850Y-58416700D03*
%TD*%
D10*
%TO.P,SW54,1,1*%
%TO.N,Net-(D54-Pad2)*%
X82544600Y-139056600D03*
%TO.P,SW54,2,2*%
%TO.N,Col1*%
X88894600Y-136516600D03*
%TD*%
%TO.P,SW2,1,1*%
%TO.N,Net-(D2-Pad2)*%
X99214900Y-62863300D03*
%TO.P,SW2,2,2*%
%TO.N,Col2*%
X105564900Y-60323300D03*
%TD*%
%TO.P,SW36,1,1*%
%TO.N,Net-(D36-Pad2)*%
X227796500Y-100959000D03*
%TO.P,SW36,2,2*%
%TO.N,Col8*%
X234146500Y-98419000D03*
%TD*%
%TO.P,SW5,1,1*%
%TO.N,Net-(D5-Pad2)*%
X156364900Y-62863300D03*
%TO.P,SW5,2,2*%
%TO.N,Col5*%
X162714900Y-60323300D03*
%TD*%
%TO.P,SW57,1,1*%
%TO.N,Net-(D57-Pad2)*%
X201599400Y-139056900D03*
%TO.P,SW57,2,2*%
%TO.N,Col4*%
X207949400Y-136516900D03*
%TD*%
%TO.P,SW35,1,1*%
%TO.N,Net-(D35-Pad2)*%
X208746500Y-100959000D03*
%TO.P,SW35,2,2*%
%TO.N,Col7*%
X215096500Y-98419000D03*
%TD*%
%TO.P,SW19,1,1*%
%TO.N,Net-(D19-Pad2)*%
X165885500Y-81910200D03*
%TO.P,SW19,2,2*%
%TO.N,Col5*%
X172235500Y-79370200D03*
%TD*%
%TO.P,SW59,1,1*%
%TO.N,Net-(D59-Pad2)*%
X296842100Y-139056600D03*
%TO.P,SW59,2,2*%
%TO.N,Col10*%
X303192100Y-136516600D03*
%TD*%
%TO.P,SW48,1,1*%
%TO.N,Net-(D48-Pad2)*%
X218263500Y-120008100D03*
%TO.P,SW48,2,2*%
%TO.N,Col7*%
X224613500Y-117468100D03*
%TD*%
%TO.P,SW10,1,1*%
%TO.N,Net-(D10-Pad2)*%
X251614900Y-62863300D03*
%TO.P,SW10,2,2*%
%TO.N,Col10*%
X257964900Y-60323300D03*
%TD*%
%TO.P,SW22,1,1*%
%TO.N,Net-(D22-Pad2)*%
X223035500Y-81910200D03*
%TO.P,SW22,2,2*%
%TO.N,Col8*%
X229385500Y-79370200D03*
%TD*%
D13*
%TO.P,STAB3,*%
%TO.N,*%
X107785050Y-115563100D03*
X83972550Y-115563100D03*
%TD*%
D10*
%TO.P,SW34,1,1*%
%TO.N,Net-(D34-Pad2)*%
X189696500Y-100959000D03*
%TO.P,SW34,2,2*%
%TO.N,Col6*%
X196046500Y-98419000D03*
%TD*%
D13*
%TO.P,STAB2,*%
%TO.N,*%
X350657250Y-96514300D03*
X326844750Y-96514300D03*
%TD*%
D10*
%TO.P,SW45,1,1*%
%TO.N,Net-(D45-Pad2)*%
X161120700Y-120008100D03*
%TO.P,SW45,2,2*%
%TO.N,Col4*%
X167470700Y-117468100D03*
%TD*%
%TO.P,SW7,1,1*%
%TO.N,Net-(D7-Pad2)*%
X194464900Y-62863300D03*
%TO.P,SW7,2,2*%
%TO.N,Col7*%
X200814900Y-60323300D03*
%TD*%
D13*
%TO.P,REF\u002A\u002A,*%
%TO.N,*%
X255415650Y-134611900D03*
X155403150Y-134611900D03*
%TD*%
D10*
%TO.P,SW41,1,1*%
%TO.N,Net-(D41-Pad2)*%
X334941000Y-100959300D03*
%TO.P,SW41,2,2*%
%TO.N,Col13*%
X341291000Y-98419300D03*
%TD*%
%TO.P,SW1,1,1*%
%TO.N,Net-(D1-Pad2)*%
X80164900Y-62863300D03*
%TO.P,SW1,2,2*%
%TO.N,Col1*%
X86514900Y-60323300D03*
%TD*%
%TO.P,SW6,1,1*%
%TO.N,Net-(D6-Pad2)*%
X175414900Y-62863300D03*
%TO.P,SW6,2,2*%
%TO.N,Col6*%
X181764900Y-60323300D03*
%TD*%
%TO.P,SW47,1,1*%
%TO.N,Net-(D47-Pad2)*%
X199213500Y-120008100D03*
%TO.P,SW47,2,2*%
%TO.N,Col6*%
X205563500Y-117468100D03*
%TD*%
%TO.P,SW56,1,1*%
%TO.N,Net-(D56-Pad2)*%
X130166400Y-139056900D03*
%TO.P,SW56,2,2*%
%TO.N,Col3*%
X136516400Y-136516900D03*
%TD*%
D14*
%TO.P,D61,1,K*%
%TO.N,Row5*%
X345100400Y-148009400D03*
%TO.P,D61,2,A*%
%TO.N,Net-(D61-Pad2)*%
X345100400Y-144709400D03*
%TD*%
%TO.P,D19,1,K*%
%TO.N,Row2*%
X166520500Y-90862700D03*
%TO.P,D19,2,A*%
%TO.N,Net-(D19-Pad2)*%
X166520500Y-87562700D03*
%TD*%
%TO.P,D5,1,K*%
%TO.N,Row1*%
X156999900Y-71815800D03*
%TO.P,D5,2,A*%
%TO.N,Net-(D5-Pad2)*%
X156999900Y-68515800D03*
%TD*%
%TO.P,D16,1,K*%
%TO.N,Row2*%
X109371500Y-90863000D03*
%TO.P,D16,2,A*%
%TO.N,Net-(D16-Pad2)*%
X109371500Y-87563000D03*
%TD*%
%TO.P,D52,1,K*%
%TO.N,Row4*%
X295097300Y-128960600D03*
%TO.P,D52,2,A*%
%TO.N,Net-(D52-Pad2)*%
X295097300Y-125660600D03*
%TD*%
%TO.P,D8,1,K*%
%TO.N,Row1*%
X214149900Y-71815800D03*
%TO.P,D8,2,A*%
%TO.N,Net-(D8-Pad2)*%
X214149900Y-68515800D03*
%TD*%
%TO.P,D44,1,K*%
%TO.N,Row4*%
X142707100Y-128960300D03*
%TO.P,D44,2,A*%
%TO.N,Net-(D44-Pad2)*%
X142707100Y-125660300D03*
%TD*%
%TO.P,D22,1,K*%
%TO.N,Row2*%
X223670500Y-90862700D03*
%TO.P,D22,2,A*%
%TO.N,Net-(D22-Pad2)*%
X223670500Y-87562700D03*
%TD*%
%TO.P,D42,1,K*%
%TO.N,Row4*%
X92704000Y-128960300D03*
%TO.P,D42,2,A*%
%TO.N,Net-(D42-Pad2)*%
X92704000Y-125660300D03*
%TD*%
%TO.P,D25,1,K*%
%TO.N,Row2*%
X280820500Y-90862700D03*
%TO.P,D25,2,A*%
%TO.N,Net-(D25-Pad2)*%
X280820500Y-87562700D03*
%TD*%
%TO.P,D24,1,K*%
%TO.N,Row2*%
X261770500Y-90862700D03*
%TO.P,D24,2,A*%
%TO.N,Net-(D24-Pad2)*%
X261770500Y-87562700D03*
%TD*%
%TO.P,D50,1,K*%
%TO.N,Row4*%
X256998500Y-128960600D03*
%TO.P,D50,2,A*%
%TO.N,Net-(D50-Pad2)*%
X256998500Y-125660600D03*
%TD*%
%TO.P,D45,1,K*%
%TO.N,Row4*%
X161755700Y-128960600D03*
%TO.P,D45,2,A*%
%TO.N,Net-(D45-Pad2)*%
X161755700Y-125660600D03*
%TD*%
%TO.P,D34,1,K*%
%TO.N,Row3*%
X190331500Y-109911500D03*
%TO.P,D34,2,A*%
%TO.N,Net-(D34-Pad2)*%
X190331500Y-106611500D03*
%TD*%
%TO.P,D41,1,K*%
%TO.N,Row3*%
X335576200Y-109911500D03*
%TO.P,D41,2,A*%
%TO.N,Net-(D41-Pad2)*%
X335576200Y-106611500D03*
%TD*%
%TO.P,D18,1,K*%
%TO.N,Row2*%
X147470500Y-90862700D03*
%TO.P,D18,2,A*%
%TO.N,Net-(D18-Pad2)*%
X147470500Y-87562700D03*
%TD*%
%TO.P,D2,1,K*%
%TO.N,Row1*%
X99849900Y-71815800D03*
%TO.P,D2,2,A*%
%TO.N,Net-(D2-Pad2)*%
X99849900Y-68515800D03*
%TD*%
%TO.P,D3,1,K*%
%TO.N,Row1*%
X118899900Y-71815800D03*
%TO.P,D3,2,A*%
%TO.N,Net-(D3-Pad2)*%
X118899900Y-68515800D03*
%TD*%
%TO.P,D55,1,K*%
%TO.N,Row5*%
X106990400Y-148009400D03*
%TO.P,D55,2,A*%
%TO.N,Net-(D55-Pad2)*%
X106990400Y-144709400D03*
%TD*%
%TO.P,D11,1,K*%
%TO.N,Row1*%
X271299900Y-71815800D03*
%TO.P,D11,2,A*%
%TO.N,Net-(D11-Pad2)*%
X271299900Y-68515800D03*
%TD*%
%TO.P,D13,1,K*%
%TO.N,Row1*%
X309399900Y-71815800D03*
%TO.P,D13,2,A*%
%TO.N,Net-(D13-Pad2)*%
X309399900Y-68515800D03*
%TD*%
%TO.P,D15,1,K*%
%TO.N,Row2*%
X85560500Y-90863000D03*
%TO.P,D15,2,A*%
%TO.N,Net-(D15-Pad2)*%
X85560500Y-87563000D03*
%TD*%
%TO.P,D49,1,K*%
%TO.N,Row4*%
X237948500Y-128960600D03*
%TO.P,D49,2,A*%
%TO.N,Net-(D49-Pad2)*%
X237948500Y-125660600D03*
%TD*%
%TO.P,D31,1,K*%
%TO.N,Row3*%
X133182500Y-109911800D03*
%TO.P,D31,2,A*%
%TO.N,Net-(D31-Pad2)*%
X133182500Y-106611800D03*
%TD*%
%TO.P,D38,1,K*%
%TO.N,Row3*%
X266531500Y-109911500D03*
%TO.P,D38,2,A*%
%TO.N,Net-(D38-Pad2)*%
X266531500Y-106611500D03*
%TD*%
%TO.P,D26,1,K*%
%TO.N,Row2*%
X299870500Y-90862700D03*
%TO.P,D26,2,A*%
%TO.N,Net-(D26-Pad2)*%
X299870500Y-87562700D03*
%TD*%
%TO.P,D46,1,K*%
%TO.N,Row4*%
X180798500Y-128960600D03*
%TO.P,D46,2,A*%
%TO.N,Net-(D46-Pad2)*%
X180798500Y-125660600D03*
%TD*%
%TO.P,D35,1,K*%
%TO.N,Row3*%
X209381500Y-109911500D03*
%TO.P,D35,2,A*%
%TO.N,Net-(D35-Pad2)*%
X209381500Y-106611500D03*
%TD*%
%TO.P,D17,1,K*%
%TO.N,Row2*%
X128420500Y-90862700D03*
%TO.P,D17,2,A*%
%TO.N,Net-(D17-Pad2)*%
X128420500Y-87562700D03*
%TD*%
%TO.P,D10,1,K*%
%TO.N,Row1*%
X252249900Y-71815800D03*
%TO.P,D10,2,A*%
%TO.N,Net-(D10-Pad2)*%
X252249900Y-68515800D03*
%TD*%
%TO.P,D20,1,K*%
%TO.N,Row2*%
X185570500Y-90862700D03*
%TO.P,D20,2,A*%
%TO.N,Net-(D20-Pad2)*%
X185570500Y-87562700D03*
%TD*%
%TO.P,D21,1,K*%
%TO.N,Row2*%
X204620500Y-90862700D03*
%TO.P,D21,2,A*%
%TO.N,Net-(D21-Pad2)*%
X204620500Y-87562700D03*
%TD*%
%TO.P,D1,1,K*%
%TO.N,Row1*%
X80799900Y-71815800D03*
%TO.P,D1,2,A*%
%TO.N,Net-(D1-Pad2)*%
X80799900Y-68515800D03*
%TD*%
%TO.P,D27,1,K*%
%TO.N,Row2*%
X318908500Y-90862700D03*
%TO.P,D27,2,A*%
%TO.N,Net-(D27-Pad2)*%
X318908500Y-87562700D03*
%TD*%
%TO.P,D48,1,K*%
%TO.N,Row4*%
X218898500Y-128898100D03*
%TO.P,D48,2,A*%
%TO.N,Net-(D48-Pad2)*%
X218898500Y-125598100D03*
%TD*%
%TO.P,D23,1,K*%
%TO.N,Row2*%
X242720500Y-90862700D03*
%TO.P,D23,2,A*%
%TO.N,Net-(D23-Pad2)*%
X242720500Y-87562700D03*
%TD*%
%TO.P,D56,1,K*%
%TO.N,Row5*%
X130801400Y-148009400D03*
%TO.P,D56,2,A*%
%TO.N,Net-(D56-Pad2)*%
X130801400Y-144709400D03*
%TD*%
%TO.P,D28,1,K*%
%TO.N,Row2*%
X342719500Y-90862700D03*
%TO.P,D28,2,A*%
%TO.N,Net-(D28-Pad2)*%
X342719500Y-87562700D03*
%TD*%
%TO.P,D6,1,K*%
%TO.N,Row1*%
X176049900Y-71815800D03*
%TO.P,D6,2,A*%
%TO.N,Net-(D6-Pad2)*%
X176049900Y-68515800D03*
%TD*%
%TO.P,D33,1,K*%
%TO.N,Row3*%
X171281500Y-109911500D03*
%TO.P,D33,2,A*%
%TO.N,Net-(D33-Pad2)*%
X171281500Y-106611500D03*
%TD*%
%TO.P,D40,1,K*%
%TO.N,Row3*%
X304631500Y-109911500D03*
%TO.P,D40,2,A*%
%TO.N,Net-(D40-Pad2)*%
X304631500Y-106611500D03*
%TD*%
%TO.P,D54,1,K*%
%TO.N,Row5*%
X83179600Y-148009100D03*
%TO.P,D54,2,A*%
%TO.N,Net-(D54-Pad2)*%
X83179600Y-144709100D03*
%TD*%
%TO.P,D39,1,K*%
%TO.N,Row3*%
X285581500Y-109911500D03*
%TO.P,D39,2,A*%
%TO.N,Net-(D39-Pad2)*%
X285581500Y-106611500D03*
%TD*%
%TO.P,D29,1,K*%
%TO.N,Row3*%
X87940100Y-109911800D03*
%TO.P,D29,2,A*%
%TO.N,Net-(D29-Pad2)*%
X87940100Y-106611800D03*
%TD*%
%TO.P,D60,1,K*%
%TO.N,Row5*%
X321289400Y-147946900D03*
%TO.P,D60,2,A*%
%TO.N,Net-(D60-Pad2)*%
X321289400Y-144646900D03*
%TD*%
%TO.P,D37,1,K*%
%TO.N,Row3*%
X247481500Y-109911500D03*
%TO.P,D37,2,A*%
%TO.N,Net-(D37-Pad2)*%
X247481500Y-106611500D03*
%TD*%
%TO.P,D4,1,K*%
%TO.N,Row1*%
X137949900Y-71815800D03*
%TO.P,D4,2,A*%
%TO.N,Net-(D4-Pad2)*%
X137949900Y-68515800D03*
%TD*%
%TO.P,D14,1,K*%
%TO.N,Row1*%
X337974900Y-71815800D03*
%TO.P,D14,2,A*%
%TO.N,Net-(D14-Pad2)*%
X337974900Y-68515800D03*
%TD*%
%TO.P,D47,1,K*%
%TO.N,Row4*%
X199848500Y-128960600D03*
%TO.P,D47,2,A*%
%TO.N,Net-(D47-Pad2)*%
X199848500Y-125660600D03*
%TD*%
%TO.P,D12,1,K*%
%TO.N,Row1*%
X290349900Y-71815800D03*
%TO.P,D12,2,A*%
%TO.N,Net-(D12-Pad2)*%
X290349900Y-68515800D03*
%TD*%
%TO.P,D57,1,K*%
%TO.N,Row5*%
X202234400Y-148009400D03*
%TO.P,D57,2,A*%
%TO.N,Net-(D57-Pad2)*%
X202234400Y-144709400D03*
%TD*%
%TO.P,D59,1,K*%
%TO.N,Row5*%
X297477100Y-148009100D03*
%TO.P,D59,2,A*%
%TO.N,Net-(D59-Pad2)*%
X297477100Y-144709100D03*
%TD*%
%TO.P,D30,1,K*%
%TO.N,Row3*%
X114133700Y-109911800D03*
%TO.P,D30,2,A*%
%TO.N,Net-(D30-Pad2)*%
X114133700Y-106611800D03*
%TD*%
%TO.P,D53,1,K*%
%TO.N,Row4*%
X330821400Y-128873800D03*
%TO.P,D53,2,A*%
%TO.N,Net-(D53-Pad2)*%
X330821400Y-125573800D03*
%TD*%
%TO.P,D9,1,K*%
%TO.N,Row1*%
X233199900Y-71815800D03*
%TO.P,D9,2,A*%
%TO.N,Net-(D9-Pad2)*%
X233199900Y-68515800D03*
%TD*%
%TO.P,D51,1,K*%
%TO.N,Row4*%
X276048500Y-128898100D03*
%TO.P,D51,2,A*%
%TO.N,Net-(D51-Pad2)*%
X276048500Y-125598100D03*
%TD*%
%TO.P,D58,1,K*%
%TO.N,Row5*%
X273667400Y-148009400D03*
%TO.P,D58,2,A*%
%TO.N,Net-(D58-Pad2)*%
X273667400Y-144709400D03*
%TD*%
%TO.P,D36,1,K*%
%TO.N,Row3*%
X228431500Y-109911500D03*
%TO.P,D36,2,A*%
%TO.N,Net-(D36-Pad2)*%
X228431500Y-106611500D03*
%TD*%
%TO.P,D7,1,K*%
%TO.N,Row1*%
X195099900Y-71815800D03*
%TO.P,D7,2,A*%
%TO.N,Net-(D7-Pad2)*%
X195099900Y-68515800D03*
%TD*%
%TO.P,D43,1,K*%
%TO.N,Row4*%
X123658100Y-128898100D03*
%TO.P,D43,2,A*%
%TO.N,Net-(D43-Pad2)*%
X123658100Y-125598100D03*
%TD*%
%TO.P,D32,1,K*%
%TO.N,Row3*%
X152231500Y-109911500D03*
%TO.P,D32,2,A*%
%TO.N,Net-(D32-Pad2)*%
X152231500Y-106611500D03*
%TD*%
D15*
%TO.N,Row5*%
X88551000Y-75085400D02*
X86925400Y-73459800D01*
X86925400Y-73459800D02*
X83369300Y-73459800D01*
X83369300Y-73459800D02*
X82106400Y-74722700D01*
X82106400Y-74722700D02*
X82106400Y-76465400D01*
X82106400Y-76465400D02*
X81584800Y-76987000D01*
X81584800Y-76987000D02*
X81584800Y-133771800D01*
X81584800Y-133771800D02*
X84019600Y-136206600D01*
X84019600Y-136206600D02*
X84019600Y-139667566D01*
X84019600Y-139667566D02*
X83179600Y-140507566D01*
X83179600Y-140507566D02*
X83179600Y-142503500D01*
X84105000Y-143428900D02*
X84105000Y-148009100D01*
X83179600Y-142503500D02*
X84105000Y-143428900D01*
%TO.N,Row3*%
X86400500Y-81299534D02*
X85560700Y-80459734D01*
X86540200Y-73910100D02*
X85520300Y-73910100D01*
X87226300Y-75770300D02*
X87226300Y-74596200D01*
X87940100Y-109136500D02*
X84599000Y-105795400D01*
X84646300Y-74784100D02*
X84646300Y-75085400D01*
X86400500Y-82521466D02*
X86400500Y-81299534D01*
X85560700Y-83361266D02*
X86400500Y-82521466D01*
X86498600Y-88349900D02*
X86498600Y-86295500D01*
X84599000Y-90249500D02*
X86498600Y-88349900D01*
X85560700Y-77435900D02*
X87226300Y-75770300D01*
X84599000Y-105795400D02*
X84599000Y-90249500D01*
X85560700Y-85357600D02*
X85560700Y-83361266D01*
X86498600Y-86295500D02*
X85560700Y-85357600D01*
X85560700Y-80459734D02*
X85560700Y-77435900D01*
X87940100Y-109911800D02*
X87940100Y-109136500D01*
X87226300Y-74596200D02*
X86540200Y-73910100D01*
X85520300Y-73910100D02*
X84646300Y-74784100D01*
X84646300Y-75085400D02*
X83471000Y-75085400D01*
%TO.N,Row4*%
X92704000Y-128960300D02*
X92704000Y-128185000D01*
X92704000Y-128185000D02*
X87014700Y-122495700D01*
X87014700Y-122495700D02*
X87014700Y-114964600D01*
X87014700Y-114964600D02*
X82385900Y-110335800D01*
X82385900Y-110335800D02*
X82385900Y-79885800D01*
X82385900Y-79885800D02*
X86011000Y-76260700D01*
X86011000Y-76260700D02*
X86011000Y-75085400D01*
%TO.N,Row1*%
X337974900Y-71815800D02*
X337049600Y-71815800D01*
X337049600Y-71815800D02*
X336191400Y-70957600D01*
X336191400Y-70957600D02*
X311183400Y-70957600D01*
X311183400Y-70957600D02*
X310325200Y-71815800D01*
X310325200Y-71815800D02*
X309399900Y-71815800D01*
%TO.N,Row3*%
X304631500Y-109911500D02*
X305556800Y-109911500D01*
X305556800Y-109911500D02*
X306413100Y-109055200D01*
X306413100Y-109055200D02*
X333794600Y-109055200D01*
X333794600Y-109055200D02*
X334650900Y-109911500D01*
X334650900Y-109911500D02*
X335576200Y-109911500D01*
%TO.N,Row4*%
X330821400Y-128873800D02*
X329896100Y-128873800D01*
X296022600Y-128960600D02*
X295097300Y-128960600D01*
X329896100Y-128873800D02*
X329126300Y-128104000D01*
X329126300Y-128104000D02*
X296879200Y-128104000D01*
X296879200Y-128104000D02*
X296022600Y-128960600D01*
X123658100Y-128898100D02*
X122732800Y-128898100D01*
X122732800Y-128898100D02*
X121145000Y-127310300D01*
X93629300Y-128960300D02*
X92704000Y-128960300D01*
X121145000Y-127310300D02*
X95279300Y-127310300D01*
X95279300Y-127310300D02*
X93629300Y-128960300D01*
%TO.N,Row5*%
X202234400Y-148009400D02*
X201309100Y-148009400D01*
X201309100Y-148009400D02*
X200452500Y-147152800D01*
X200452500Y-147152800D02*
X132583300Y-147152800D01*
X132583300Y-147152800D02*
X131726700Y-148009400D01*
X131726700Y-148009400D02*
X130801400Y-148009400D01*
X273667400Y-148009400D02*
X272742100Y-148009400D01*
X272742100Y-148009400D02*
X271885500Y-147152800D01*
X204016300Y-147152800D02*
X203159700Y-148009400D01*
X271885500Y-147152800D02*
X204016300Y-147152800D01*
X203159700Y-148009400D02*
X202234400Y-148009400D01*
%TO.N,Col12*%
X350815400Y-131754700D02*
X336528800Y-117468100D01*
X350815400Y-136516900D02*
X350815400Y-131754700D01*
X293047000Y-57305400D02*
X124111000Y-57305400D01*
X296064900Y-60323300D02*
X293047000Y-57305400D01*
%TO.N,Col11*%
X282250700Y-75085400D02*
X286535500Y-79370200D01*
X124111000Y-75085400D02*
X282250700Y-75085400D01*
%TO.N,Col10*%
X122746300Y-75452800D02*
X122746300Y-75085400D01*
X123554200Y-76260700D02*
X122746300Y-75452800D01*
X264376000Y-76260700D02*
X123554200Y-76260700D01*
X267485500Y-79370200D02*
X264376000Y-76260700D01*
X121571000Y-75085400D02*
X122746300Y-75085400D01*
%TO.N,Col9*%
X116491000Y-75085400D02*
X117666300Y-75085400D01*
X246059600Y-76994300D02*
X248435500Y-79370200D01*
X118767100Y-76994300D02*
X246059600Y-76994300D01*
X117666300Y-75893500D02*
X118767100Y-76994300D01*
X117666300Y-75085400D02*
X117666300Y-75893500D01*
%TO.N,Col8*%
X113951000Y-75085400D02*
X115126300Y-75085400D01*
X115126300Y-75452700D02*
X115126300Y-75085400D01*
X117118200Y-77444600D02*
X115126300Y-75452700D01*
X227459900Y-77444600D02*
X117118200Y-77444600D01*
X229385500Y-79370200D02*
X227459900Y-77444600D01*
%TO.N,Col7*%
X112586300Y-75452700D02*
X112586300Y-75085400D01*
X115028500Y-77894900D02*
X112586300Y-75452700D01*
X208860200Y-77894900D02*
X115028500Y-77894900D01*
X210335500Y-79370200D02*
X208860200Y-77894900D01*
X111411000Y-75085400D02*
X112586300Y-75085400D01*
%TO.N,Col1*%
X91091000Y-79186000D02*
X91091000Y-75085400D01*
X91275500Y-79370500D02*
X91091000Y-79186000D01*
%TO.N,Net-(D61-Pad2)*%
X344465400Y-143299100D02*
X344465400Y-139056900D01*
X345100400Y-143934100D02*
X344465400Y-143299100D01*
X345100400Y-144709400D02*
X345100400Y-143934100D01*
%TO.N,Net-(D60-Pad2)*%
X320654400Y-143236600D02*
X320654400Y-139056900D01*
X321289400Y-143871600D02*
X320654400Y-143236600D01*
X321289400Y-144646900D02*
X321289400Y-143871600D01*
%TO.N,Net-(D59-Pad2)*%
X296842100Y-143298800D02*
X296842100Y-139056600D01*
X297477100Y-143933800D02*
X296842100Y-143298800D01*
X297477100Y-144709100D02*
X297477100Y-143933800D01*
%TO.N,Row5*%
X344112600Y-147946900D02*
X344175100Y-148009400D01*
X321289400Y-147946900D02*
X344112600Y-147946900D01*
X345100400Y-148009400D02*
X344175100Y-148009400D01*
X320301900Y-148009100D02*
X320364100Y-147946900D01*
X297477100Y-148009100D02*
X320301900Y-148009100D01*
X321289400Y-147946900D02*
X320364100Y-147946900D01*
X297477100Y-148009100D02*
X296551800Y-148009100D01*
X130801400Y-148009400D02*
X106990400Y-148009400D01*
X83179600Y-148009100D02*
X83992300Y-148009100D01*
X83992300Y-148009100D02*
X84105000Y-148009100D01*
X106064800Y-148009100D02*
X106065100Y-148009400D01*
X84105000Y-148009100D02*
X106064800Y-148009100D01*
X106990400Y-148009400D02*
X106065100Y-148009400D01*
X296551500Y-148009400D02*
X273667400Y-148009400D01*
X296551800Y-148009100D02*
X296551500Y-148009400D01*
%TO.N,Net-(D58-Pad2)*%
X273032400Y-143299100D02*
X273032400Y-139056900D01*
X273667400Y-143934100D02*
X273032400Y-143299100D01*
X273667400Y-144709400D02*
X273667400Y-143934100D01*
%TO.N,Net-(D57-Pad2)*%
X201599400Y-143299100D02*
X201599400Y-139056900D01*
X202234400Y-143934100D02*
X201599400Y-143299100D01*
X202234400Y-144709400D02*
X202234400Y-143934100D01*
%TO.N,Net-(D56-Pad2)*%
X130166400Y-143299100D02*
X130166400Y-139056900D01*
X130801400Y-143934100D02*
X130166400Y-143299100D01*
X130801400Y-144709400D02*
X130801400Y-143934100D01*
%TO.N,Net-(D55-Pad2)*%
X106355400Y-143299100D02*
X106355400Y-139056900D01*
X106990400Y-143934100D02*
X106355400Y-143299100D01*
X106990400Y-144709400D02*
X106990400Y-143934100D01*
%TO.N,Net-(D54-Pad2)*%
X82544600Y-143298800D02*
X82544600Y-139056600D01*
X83179600Y-143933800D02*
X82544600Y-143298800D01*
X83179600Y-144709100D02*
X83179600Y-143933800D01*
%TO.N,Net-(D53-Pad2)*%
X330178800Y-124155900D02*
X330178800Y-120008100D01*
X330821400Y-124798500D02*
X330178800Y-124155900D01*
X330821400Y-125573800D02*
X330821400Y-124798500D01*
%TO.N,Net-(D52-Pad2)*%
X294462300Y-124250300D02*
X294462300Y-120008100D01*
X295097300Y-124885300D02*
X294462300Y-124250300D01*
X295097300Y-125660600D02*
X295097300Y-124885300D01*
%TO.N,Net-(D51-Pad2)*%
X275413500Y-124187800D02*
X275413500Y-120008100D01*
X276048500Y-124822800D02*
X275413500Y-124187800D01*
X276048500Y-125598100D02*
X276048500Y-124822800D01*
%TO.N,Net-(D50-Pad2)*%
X256363500Y-124250300D02*
X256363500Y-120008100D01*
X256998500Y-124885300D02*
X256363500Y-124250300D01*
X256998500Y-125660600D02*
X256998500Y-124885300D01*
%TO.N,Net-(D49-Pad2)*%
X237313500Y-124250300D02*
X237313500Y-120008100D01*
X237948500Y-124885300D02*
X237313500Y-124250300D01*
X237948500Y-125660600D02*
X237948500Y-124885300D01*
%TO.N,Net-(D48-Pad2)*%
X218263500Y-124187800D02*
X218263500Y-120008100D01*
X218898500Y-124822800D02*
X218263500Y-124187800D01*
X218898500Y-125598100D02*
X218898500Y-124822800D01*
%TO.N,Net-(D47-Pad2)*%
X199213500Y-124250300D02*
X199213500Y-120008100D01*
X199848500Y-124885300D02*
X199213500Y-124250300D01*
X199848500Y-125660600D02*
X199848500Y-124885300D01*
%TO.N,Net-(D46-Pad2)*%
X180163500Y-124250300D02*
X180163500Y-120008100D01*
X180798500Y-124885300D02*
X180163500Y-124250300D01*
X180798500Y-125660600D02*
X180798500Y-124885300D01*
%TO.N,Net-(D45-Pad2)*%
X161120700Y-124250300D02*
X161120700Y-120008100D01*
X161755700Y-124885300D02*
X161120700Y-124250300D01*
X161755700Y-125660600D02*
X161755700Y-124885300D01*
%TO.N,Row4*%
X142707100Y-128960300D02*
X141781800Y-128960300D01*
X294109500Y-128898100D02*
X294172000Y-128960600D01*
X276048500Y-128898100D02*
X294109500Y-128898100D01*
X295097300Y-128960600D02*
X294172000Y-128960600D01*
X236960700Y-128898100D02*
X237023200Y-128960600D01*
X218898500Y-128898100D02*
X236960700Y-128898100D01*
X237485900Y-128960600D02*
X237023200Y-128960600D01*
X237485900Y-128960600D02*
X237948500Y-128960600D01*
X180798500Y-128960600D02*
X161755700Y-128960600D01*
X143632700Y-128960600D02*
X143632400Y-128960300D01*
X161755700Y-128960600D02*
X143632700Y-128960600D01*
X142707100Y-128960300D02*
X143632400Y-128960300D01*
X237948500Y-128960600D02*
X256998500Y-128960600D01*
X275060700Y-128960600D02*
X275123200Y-128898100D01*
X256998500Y-128960600D02*
X275060700Y-128960600D01*
X276048500Y-128898100D02*
X275123200Y-128898100D01*
X180798500Y-128960600D02*
X199848500Y-128960600D01*
X217910700Y-128960600D02*
X217973200Y-128898100D01*
X199848500Y-128960600D02*
X217910700Y-128960600D01*
X218898500Y-128898100D02*
X217973200Y-128898100D01*
X141719600Y-128898100D02*
X123658100Y-128898100D01*
X141781800Y-128960300D02*
X141719600Y-128898100D01*
%TO.N,Net-(D44-Pad2)*%
X142072100Y-124250000D02*
X142072100Y-120007800D01*
X142707100Y-124885000D02*
X142072100Y-124250000D01*
X142707100Y-125660300D02*
X142707100Y-124885000D01*
%TO.N,Net-(D43-Pad2)*%
X123023100Y-124187800D02*
X123023100Y-120008100D01*
X123658100Y-124822800D02*
X123023100Y-124187800D01*
X123658100Y-125598100D02*
X123658100Y-124822800D01*
%TO.N,Net-(D42-Pad2)*%
X92069000Y-124250000D02*
X92069000Y-120007800D01*
X92704000Y-124885000D02*
X92069000Y-124250000D01*
X92704000Y-125660300D02*
X92704000Y-124885000D01*
%TO.N,Net-(D41-Pad2)*%
X334941000Y-105201000D02*
X334941000Y-100959300D01*
X335576200Y-105836200D02*
X334941000Y-105201000D01*
X335576200Y-106611500D02*
X335576200Y-105836200D01*
%TO.N,Net-(D40-Pad2)*%
X303996500Y-105201200D02*
X303996500Y-100959000D01*
X304631500Y-105836200D02*
X303996500Y-105201200D01*
X304631500Y-106611500D02*
X304631500Y-105836200D01*
%TO.N,Net-(D39-Pad2)*%
X284946500Y-105201200D02*
X284946500Y-100959000D01*
X285581500Y-105836200D02*
X284946500Y-105201200D01*
X285581500Y-106611500D02*
X285581500Y-105836200D01*
%TO.N,Net-(D38-Pad2)*%
X265896500Y-105201200D02*
X265896500Y-100959000D01*
X266531500Y-105836200D02*
X265896500Y-105201200D01*
X266531500Y-106611500D02*
X266531500Y-105836200D01*
%TO.N,Net-(D37-Pad2)*%
X246846500Y-105201200D02*
X246846500Y-100959000D01*
X247481500Y-105836200D02*
X246846500Y-105201200D01*
X247481500Y-106611500D02*
X247481500Y-105836200D01*
%TO.N,Net-(D36-Pad2)*%
X227796500Y-105201200D02*
X227796500Y-100959000D01*
X228431500Y-105836200D02*
X227796500Y-105201200D01*
X228431500Y-106611500D02*
X228431500Y-105836200D01*
%TO.N,Net-(D35-Pad2)*%
X208746500Y-105201200D02*
X208746500Y-100959000D01*
X209381500Y-105836200D02*
X208746500Y-105201200D01*
X209381500Y-106611500D02*
X209381500Y-105836200D01*
%TO.N,Net-(D34-Pad2)*%
X189696500Y-105201200D02*
X189696500Y-100959000D01*
X190331500Y-105836200D02*
X189696500Y-105201200D01*
X190331500Y-106611500D02*
X190331500Y-105836200D01*
%TO.N,Net-(D33-Pad2)*%
X170646500Y-105201200D02*
X170646500Y-100959000D01*
X171281500Y-105836200D02*
X170646500Y-105201200D01*
X171281500Y-106611500D02*
X171281500Y-105836200D01*
%TO.N,Net-(D32-Pad2)*%
X151596500Y-105201200D02*
X151596500Y-100959000D01*
X152231500Y-105836200D02*
X151596500Y-105201200D01*
X152231500Y-106611500D02*
X152231500Y-105836200D01*
%TO.N,Net-(D31-Pad2)*%
X132547500Y-105201500D02*
X132547500Y-100959300D01*
X133182500Y-105836500D02*
X132547500Y-105201500D01*
X133182500Y-106611800D02*
X133182500Y-105836500D01*
%TO.N,Row3*%
X285581500Y-109911500D02*
X266531500Y-109911500D01*
X152231500Y-109911500D02*
X171281500Y-109911500D01*
X228431500Y-109911500D02*
X247481500Y-109911500D01*
X247481500Y-109911500D02*
X266531500Y-109911500D01*
X228431500Y-109911500D02*
X209381500Y-109911500D01*
X209381500Y-109911500D02*
X190331500Y-109911500D01*
X151305900Y-109911800D02*
X151306200Y-109911500D01*
X133182500Y-109911800D02*
X151305900Y-109911800D01*
X152231500Y-109911500D02*
X151306200Y-109911500D01*
X171281500Y-109911500D02*
X190331500Y-109911500D01*
X285581500Y-109911500D02*
X304631500Y-109911500D01*
X133182500Y-109911800D02*
X114133700Y-109911800D01*
X114133700Y-109911800D02*
X87940100Y-109911800D01*
%TO.N,Net-(D30-Pad2)*%
X113498700Y-105201500D02*
X113498700Y-100959300D01*
X114133700Y-105836500D02*
X113498700Y-105201500D01*
X114133700Y-106611800D02*
X114133700Y-105836500D01*
%TO.N,Net-(D29-Pad2)*%
X87305100Y-105201500D02*
X87305100Y-100959300D01*
X87940100Y-105836500D02*
X87305100Y-105201500D01*
X87940100Y-106611800D02*
X87940100Y-105836500D01*
%TO.N,Net-(D28-Pad2)*%
X342084500Y-86152400D02*
X342084500Y-81910500D01*
X342719500Y-86787400D02*
X342084500Y-86152400D01*
X342719500Y-87562700D02*
X342719500Y-86787400D01*
%TO.N,Net-(D27-Pad2)*%
X318273500Y-86152400D02*
X318273500Y-81910200D01*
X318908500Y-86787400D02*
X318273500Y-86152400D01*
X318908500Y-87562700D02*
X318908500Y-86787400D01*
%TO.N,Net-(D26-Pad2)*%
X299235500Y-86152400D02*
X299235500Y-81910200D01*
X299870500Y-86787400D02*
X299235500Y-86152400D01*
X299870500Y-87562700D02*
X299870500Y-86787400D01*
%TO.N,Net-(D25-Pad2)*%
X280185500Y-86152400D02*
X280185500Y-81910200D01*
X280820500Y-86787400D02*
X280185500Y-86152400D01*
X280820500Y-87562700D02*
X280820500Y-86787400D01*
%TO.N,Net-(D24-Pad2)*%
X261135500Y-86152400D02*
X261135500Y-81910200D01*
X261770500Y-86787400D02*
X261135500Y-86152400D01*
X261770500Y-87562700D02*
X261770500Y-86787400D01*
%TO.N,Net-(D23-Pad2)*%
X242085500Y-86152400D02*
X242085500Y-81910200D01*
X242720500Y-86787400D02*
X242085500Y-86152400D01*
X242720500Y-87562700D02*
X242720500Y-86787400D01*
%TO.N,Net-(D22-Pad2)*%
X223035500Y-86152400D02*
X223035500Y-81910200D01*
X223670500Y-86787400D02*
X223035500Y-86152400D01*
X223670500Y-87562700D02*
X223670500Y-86787400D01*
%TO.N,Net-(D21-Pad2)*%
X203985500Y-86152400D02*
X203985500Y-81910200D01*
X204620500Y-86787400D02*
X203985500Y-86152400D01*
X204620500Y-87562700D02*
X204620500Y-86787400D01*
%TO.N,Net-(D20-Pad2)*%
X184935500Y-86152400D02*
X184935500Y-81910200D01*
X185570500Y-86787400D02*
X184935500Y-86152400D01*
X185570500Y-87562700D02*
X185570500Y-86787400D01*
%TO.N,Net-(D19-Pad2)*%
X165885500Y-86152400D02*
X165885500Y-81910200D01*
X166520500Y-86787400D02*
X165885500Y-86152400D01*
X166520500Y-87562700D02*
X166520500Y-86787400D01*
%TO.N,Net-(D18-Pad2)*%
X146835500Y-86152400D02*
X146835500Y-81910200D01*
X147470500Y-86787400D02*
X146835500Y-86152400D01*
X147470500Y-87562700D02*
X147470500Y-86787400D01*
%TO.N,Net-(D17-Pad2)*%
X127785500Y-86152400D02*
X127785500Y-81910200D01*
X128420500Y-86787400D02*
X127785500Y-86152400D01*
X128420500Y-87562700D02*
X128420500Y-86787400D01*
%TO.N,Net-(D16-Pad2)*%
X108736500Y-86152700D02*
X108736500Y-81910500D01*
X109371500Y-86787700D02*
X108736500Y-86152700D01*
X109371500Y-87563000D02*
X109371500Y-86787700D01*
%TO.N,Row2*%
X342719500Y-90862700D02*
X318908500Y-90862700D01*
X128420500Y-90862700D02*
X127495200Y-90862700D01*
X205545800Y-90862700D02*
X223670500Y-90862700D01*
X204620500Y-90862700D02*
X205545800Y-90862700D01*
X280820500Y-90862700D02*
X279895200Y-90862700D01*
X317983200Y-90862700D02*
X300795800Y-90862700D01*
X318908500Y-90862700D02*
X317983200Y-90862700D01*
X242720500Y-90862700D02*
X223670500Y-90862700D01*
X279895200Y-90862700D02*
X262695800Y-90862700D01*
X262233200Y-90862700D02*
X262695800Y-90862700D01*
X262233200Y-90862700D02*
X261770500Y-90862700D01*
X261770500Y-90862700D02*
X242720500Y-90862700D01*
X300333200Y-90862700D02*
X300795800Y-90862700D01*
X300333200Y-90862700D02*
X299870500Y-90862700D01*
X299870500Y-90862700D02*
X280820500Y-90862700D01*
X110297100Y-90862700D02*
X110296800Y-90863000D01*
X127495200Y-90862700D02*
X110297100Y-90862700D01*
X109371500Y-90863000D02*
X110296800Y-90863000D01*
X78391000Y-75085400D02*
X79566300Y-75085400D01*
X79566300Y-74277400D02*
X79566300Y-75085400D01*
X80874300Y-72969400D02*
X79566300Y-74277400D01*
X88155400Y-72969400D02*
X80874300Y-72969400D01*
X89726500Y-74540500D02*
X88155400Y-72969400D01*
X89726500Y-81101600D02*
X89726500Y-74540500D01*
X91114200Y-82489300D02*
X89726500Y-81101600D01*
X91114200Y-90863000D02*
X91114200Y-82489300D01*
X109371500Y-90863000D02*
X91114200Y-90863000D01*
X91114200Y-90863000D02*
X85560500Y-90863000D01*
X204620500Y-90862700D02*
X185570500Y-90862700D01*
X185570500Y-90862700D02*
X166520500Y-90862700D01*
X128420500Y-90862700D02*
X147470500Y-90862700D01*
X147470500Y-90862700D02*
X166520500Y-90862700D01*
%TO.N,Net-(D15-Pad2)*%
X84925500Y-86152700D02*
X84925500Y-81910500D01*
X85560500Y-86787700D02*
X84925500Y-86152700D01*
X85560500Y-87563000D02*
X85560500Y-86787700D01*
%TO.N,Net-(D14-Pad2)*%
X337339900Y-67105500D02*
X337339900Y-62863300D01*
X337974900Y-67740500D02*
X337339900Y-67105500D01*
X337974900Y-68515800D02*
X337974900Y-67740500D01*
%TO.N,Net-(D13-Pad2)*%
X308764900Y-67105500D02*
X308764900Y-62863300D01*
X309399900Y-67740500D02*
X308764900Y-67105500D01*
X309399900Y-68515800D02*
X309399900Y-67740500D01*
%TO.N,Net-(D12-Pad2)*%
X289714900Y-67105500D02*
X289714900Y-62863300D01*
X290349900Y-67740500D02*
X289714900Y-67105500D01*
X290349900Y-68515800D02*
X290349900Y-67740500D01*
%TO.N,Net-(D11-Pad2)*%
X270664900Y-67105500D02*
X270664900Y-62863300D01*
X271299900Y-67740500D02*
X270664900Y-67105500D01*
X271299900Y-68515800D02*
X271299900Y-67740500D01*
%TO.N,Net-(D10-Pad2)*%
X251614900Y-67105500D02*
X251614900Y-62863300D01*
X252249900Y-67740500D02*
X251614900Y-67105500D01*
X252249900Y-68515800D02*
X252249900Y-67740500D01*
%TO.N,Net-(D9-Pad2)*%
X232564900Y-67105500D02*
X232564900Y-62863300D01*
X233199900Y-67740500D02*
X232564900Y-67105500D01*
X233199900Y-68515800D02*
X233199900Y-67740500D01*
%TO.N,Net-(D8-Pad2)*%
X213514900Y-67105500D02*
X213514900Y-62863300D01*
X214149900Y-67740500D02*
X213514900Y-67105500D01*
X214149900Y-68515800D02*
X214149900Y-67740500D01*
%TO.N,Net-(D7-Pad2)*%
X194464900Y-67105500D02*
X194464900Y-62863300D01*
X195099900Y-67740500D02*
X194464900Y-67105500D01*
X195099900Y-68515800D02*
X195099900Y-67740500D01*
%TO.N,Net-(D6-Pad2)*%
X175414900Y-67105500D02*
X175414900Y-62863300D01*
X176049900Y-67740500D02*
X175414900Y-67105500D01*
X176049900Y-68515800D02*
X176049900Y-67740500D01*
%TO.N,Net-(D5-Pad2)*%
X156364900Y-67105500D02*
X156364900Y-62863300D01*
X156999900Y-67740500D02*
X156364900Y-67105500D01*
X156999900Y-68515800D02*
X156999900Y-67740500D01*
%TO.N,Net-(D4-Pad2)*%
X137314900Y-67105500D02*
X137314900Y-62863300D01*
X137949900Y-67740500D02*
X137314900Y-67105500D01*
X137949900Y-68515800D02*
X137949900Y-67740500D01*
%TO.N,Net-(D3-Pad2)*%
X118264900Y-67105500D02*
X118264900Y-62863300D01*
X118899900Y-67740500D02*
X118264900Y-67105500D01*
X118899900Y-68515800D02*
X118899900Y-67740500D01*
%TO.N,Net-(D2-Pad2)*%
X99214900Y-67105500D02*
X99214900Y-62863300D01*
X99849900Y-67740500D02*
X99214900Y-67105500D01*
X99849900Y-68515800D02*
X99849900Y-67740500D01*
%TO.N,Net-(D1-Pad2)*%
X80164900Y-67105500D02*
X80164900Y-62863300D01*
X80799900Y-67740500D02*
X80164900Y-67105500D01*
X80799900Y-68515800D02*
X80799900Y-67740500D01*
%TO.N,Row1*%
X77026300Y-74664100D02*
X77026300Y-75085400D01*
X79874600Y-71815800D02*
X77026300Y-74664100D01*
X75851000Y-75085400D02*
X77026300Y-75085400D01*
X80799900Y-71815800D02*
X79874600Y-71815800D01*
X118899900Y-71815800D02*
X99849900Y-71815800D01*
X99849900Y-71815800D02*
X80799900Y-71815800D01*
X195099900Y-71815800D02*
X176049900Y-71815800D01*
X156999900Y-71815800D02*
X157925200Y-71815800D01*
X290349900Y-71815800D02*
X291275200Y-71815800D01*
X156999900Y-71815800D02*
X137949900Y-71815800D01*
X137949900Y-71815800D02*
X118899900Y-71815800D01*
X157925200Y-71815800D02*
X175124600Y-71815800D01*
X176049900Y-71815800D02*
X175124600Y-71815800D01*
X291275200Y-71815800D02*
X309399900Y-71815800D01*
X233199900Y-71815800D02*
X252249900Y-71815800D01*
X252249900Y-71815800D02*
X271299900Y-71815800D01*
X271299900Y-71815800D02*
X290349900Y-71815800D01*
X195099900Y-71815800D02*
X214149900Y-71815800D01*
X214149900Y-71815800D02*
X233199900Y-71815800D01*
%TD*%
M02*
