%TF.GenerationSoftware,KiCad,Pcbnew,6.0.6-3a73a75311~116~ubuntu21.10.1*%
%TF.CreationDate,2022-10-28T18:02:49+02:00*%
%TF.ProjectId,Keyboard,4b657962-6f61-4726-942e-6b696361645f,v1*%
%TF.SameCoordinates,Original*%
%TF.FileFunction,Legend,Bot*%
%TF.FilePolarity,Positive*%
%FSLAX46Y46*%
G04 Gerber Fmt 4.6, Leading zero omitted, Abs format (unit mm)*
G04 Created by KiCad (PCBNEW 6.0.6-3a73a75311~116~ubuntu21.10.1) date 2022-10-28 18:02:49*
%MOMM*%
%LPD*%
G01*
G04 APERTURE LIST*
%ADD10C,0.150000*%
%ADD11C,0.120000*%
G04 APERTURE END LIST*
D10*
%TO.C,D61*%
X347552780Y-145145114D02*
X346552780Y-145145114D01*
X346552780Y-145383209D01*
X346600400Y-145526066D01*
X346695638Y-145621304D01*
X346790876Y-145668923D01*
X346981352Y-145716542D01*
X347124209Y-145716542D01*
X347314685Y-145668923D01*
X347409923Y-145621304D01*
X347505161Y-145526066D01*
X347552780Y-145383209D01*
X347552780Y-145145114D01*
X346552780Y-146573685D02*
X346552780Y-146383209D01*
X346600400Y-146287971D01*
X346648019Y-146240352D01*
X346790876Y-146145114D01*
X346981352Y-146097495D01*
X347362304Y-146097495D01*
X347457542Y-146145114D01*
X347505161Y-146192733D01*
X347552780Y-146287971D01*
X347552780Y-146478447D01*
X347505161Y-146573685D01*
X347457542Y-146621304D01*
X347362304Y-146668923D01*
X347124209Y-146668923D01*
X347028971Y-146621304D01*
X346981352Y-146573685D01*
X346933733Y-146478447D01*
X346933733Y-146287971D01*
X346981352Y-146192733D01*
X347028971Y-146145114D01*
X347124209Y-146097495D01*
X347552780Y-147621304D02*
X347552780Y-147049876D01*
X347552780Y-147335590D02*
X346552780Y-147335590D01*
X346695638Y-147240352D01*
X346790876Y-147145114D01*
X346838495Y-147049876D01*
%TO.C,D19*%
X168972880Y-87998414D02*
X167972880Y-87998414D01*
X167972880Y-88236509D01*
X168020500Y-88379366D01*
X168115738Y-88474604D01*
X168210976Y-88522223D01*
X168401452Y-88569842D01*
X168544309Y-88569842D01*
X168734785Y-88522223D01*
X168830023Y-88474604D01*
X168925261Y-88379366D01*
X168972880Y-88236509D01*
X168972880Y-87998414D01*
X168972880Y-89522223D02*
X168972880Y-88950795D01*
X168972880Y-89236509D02*
X167972880Y-89236509D01*
X168115738Y-89141271D01*
X168210976Y-89046033D01*
X168258595Y-88950795D01*
X168972880Y-89998414D02*
X168972880Y-90188890D01*
X168925261Y-90284128D01*
X168877642Y-90331747D01*
X168734785Y-90426985D01*
X168544309Y-90474604D01*
X168163357Y-90474604D01*
X168068119Y-90426985D01*
X168020500Y-90379366D01*
X167972880Y-90284128D01*
X167972880Y-90093652D01*
X168020500Y-89998414D01*
X168068119Y-89950795D01*
X168163357Y-89903176D01*
X168401452Y-89903176D01*
X168496690Y-89950795D01*
X168544309Y-89998414D01*
X168591928Y-90093652D01*
X168591928Y-90284128D01*
X168544309Y-90379366D01*
X168496690Y-90426985D01*
X168401452Y-90474604D01*
%TO.C,D5*%
X159452280Y-69427704D02*
X158452280Y-69427704D01*
X158452280Y-69665800D01*
X158499900Y-69808657D01*
X158595138Y-69903895D01*
X158690376Y-69951514D01*
X158880852Y-69999133D01*
X159023709Y-69999133D01*
X159214185Y-69951514D01*
X159309423Y-69903895D01*
X159404661Y-69808657D01*
X159452280Y-69665800D01*
X159452280Y-69427704D01*
X158452280Y-70903895D02*
X158452280Y-70427704D01*
X158928471Y-70380085D01*
X158880852Y-70427704D01*
X158833233Y-70522942D01*
X158833233Y-70761038D01*
X158880852Y-70856276D01*
X158928471Y-70903895D01*
X159023709Y-70951514D01*
X159261804Y-70951514D01*
X159357042Y-70903895D01*
X159404661Y-70856276D01*
X159452280Y-70761038D01*
X159452280Y-70522942D01*
X159404661Y-70427704D01*
X159357042Y-70380085D01*
%TO.C,D16*%
X111823880Y-87998714D02*
X110823880Y-87998714D01*
X110823880Y-88236809D01*
X110871500Y-88379666D01*
X110966738Y-88474904D01*
X111061976Y-88522523D01*
X111252452Y-88570142D01*
X111395309Y-88570142D01*
X111585785Y-88522523D01*
X111681023Y-88474904D01*
X111776261Y-88379666D01*
X111823880Y-88236809D01*
X111823880Y-87998714D01*
X111823880Y-89522523D02*
X111823880Y-88951095D01*
X111823880Y-89236809D02*
X110823880Y-89236809D01*
X110966738Y-89141571D01*
X111061976Y-89046333D01*
X111109595Y-88951095D01*
X110823880Y-90379666D02*
X110823880Y-90189190D01*
X110871500Y-90093952D01*
X110919119Y-90046333D01*
X111061976Y-89951095D01*
X111252452Y-89903476D01*
X111633404Y-89903476D01*
X111728642Y-89951095D01*
X111776261Y-89998714D01*
X111823880Y-90093952D01*
X111823880Y-90284428D01*
X111776261Y-90379666D01*
X111728642Y-90427285D01*
X111633404Y-90474904D01*
X111395309Y-90474904D01*
X111300071Y-90427285D01*
X111252452Y-90379666D01*
X111204833Y-90284428D01*
X111204833Y-90093952D01*
X111252452Y-89998714D01*
X111300071Y-89951095D01*
X111395309Y-89903476D01*
%TO.C,D52*%
X297549680Y-126096314D02*
X296549680Y-126096314D01*
X296549680Y-126334409D01*
X296597300Y-126477266D01*
X296692538Y-126572504D01*
X296787776Y-126620123D01*
X296978252Y-126667742D01*
X297121109Y-126667742D01*
X297311585Y-126620123D01*
X297406823Y-126572504D01*
X297502061Y-126477266D01*
X297549680Y-126334409D01*
X297549680Y-126096314D01*
X296549680Y-127572504D02*
X296549680Y-127096314D01*
X297025871Y-127048695D01*
X296978252Y-127096314D01*
X296930633Y-127191552D01*
X296930633Y-127429647D01*
X296978252Y-127524885D01*
X297025871Y-127572504D01*
X297121109Y-127620123D01*
X297359204Y-127620123D01*
X297454442Y-127572504D01*
X297502061Y-127524885D01*
X297549680Y-127429647D01*
X297549680Y-127191552D01*
X297502061Y-127096314D01*
X297454442Y-127048695D01*
X296644919Y-128001076D02*
X296597300Y-128048695D01*
X296549680Y-128143933D01*
X296549680Y-128382028D01*
X296597300Y-128477266D01*
X296644919Y-128524885D01*
X296740157Y-128572504D01*
X296835395Y-128572504D01*
X296978252Y-128524885D01*
X297549680Y-127953457D01*
X297549680Y-128572504D01*
%TO.C,D8*%
X216602280Y-69427704D02*
X215602280Y-69427704D01*
X215602280Y-69665800D01*
X215649900Y-69808657D01*
X215745138Y-69903895D01*
X215840376Y-69951514D01*
X216030852Y-69999133D01*
X216173709Y-69999133D01*
X216364185Y-69951514D01*
X216459423Y-69903895D01*
X216554661Y-69808657D01*
X216602280Y-69665800D01*
X216602280Y-69427704D01*
X216030852Y-70570561D02*
X215983233Y-70475323D01*
X215935614Y-70427704D01*
X215840376Y-70380085D01*
X215792757Y-70380085D01*
X215697519Y-70427704D01*
X215649900Y-70475323D01*
X215602280Y-70570561D01*
X215602280Y-70761038D01*
X215649900Y-70856276D01*
X215697519Y-70903895D01*
X215792757Y-70951514D01*
X215840376Y-70951514D01*
X215935614Y-70903895D01*
X215983233Y-70856276D01*
X216030852Y-70761038D01*
X216030852Y-70570561D01*
X216078471Y-70475323D01*
X216126090Y-70427704D01*
X216221328Y-70380085D01*
X216411804Y-70380085D01*
X216507042Y-70427704D01*
X216554661Y-70475323D01*
X216602280Y-70570561D01*
X216602280Y-70761038D01*
X216554661Y-70856276D01*
X216507042Y-70903895D01*
X216411804Y-70951514D01*
X216221328Y-70951514D01*
X216126090Y-70903895D01*
X216078471Y-70856276D01*
X216030852Y-70761038D01*
%TO.C,D44*%
X145159480Y-126096014D02*
X144159480Y-126096014D01*
X144159480Y-126334109D01*
X144207100Y-126476966D01*
X144302338Y-126572204D01*
X144397576Y-126619823D01*
X144588052Y-126667442D01*
X144730909Y-126667442D01*
X144921385Y-126619823D01*
X145016623Y-126572204D01*
X145111861Y-126476966D01*
X145159480Y-126334109D01*
X145159480Y-126096014D01*
X144492814Y-127524585D02*
X145159480Y-127524585D01*
X144111861Y-127286490D02*
X144826147Y-127048395D01*
X144826147Y-127667442D01*
X144492814Y-128476966D02*
X145159480Y-128476966D01*
X144111861Y-128238871D02*
X144826147Y-128000776D01*
X144826147Y-128619823D01*
%TO.C,D22*%
X226122880Y-87998414D02*
X225122880Y-87998414D01*
X225122880Y-88236509D01*
X225170500Y-88379366D01*
X225265738Y-88474604D01*
X225360976Y-88522223D01*
X225551452Y-88569842D01*
X225694309Y-88569842D01*
X225884785Y-88522223D01*
X225980023Y-88474604D01*
X226075261Y-88379366D01*
X226122880Y-88236509D01*
X226122880Y-87998414D01*
X225218119Y-88950795D02*
X225170500Y-88998414D01*
X225122880Y-89093652D01*
X225122880Y-89331747D01*
X225170500Y-89426985D01*
X225218119Y-89474604D01*
X225313357Y-89522223D01*
X225408595Y-89522223D01*
X225551452Y-89474604D01*
X226122880Y-88903176D01*
X226122880Y-89522223D01*
X225218119Y-89903176D02*
X225170500Y-89950795D01*
X225122880Y-90046033D01*
X225122880Y-90284128D01*
X225170500Y-90379366D01*
X225218119Y-90426985D01*
X225313357Y-90474604D01*
X225408595Y-90474604D01*
X225551452Y-90426985D01*
X226122880Y-89855557D01*
X226122880Y-90474604D01*
%TO.C,D42*%
X95156380Y-126096014D02*
X94156380Y-126096014D01*
X94156380Y-126334109D01*
X94204000Y-126476966D01*
X94299238Y-126572204D01*
X94394476Y-126619823D01*
X94584952Y-126667442D01*
X94727809Y-126667442D01*
X94918285Y-126619823D01*
X95013523Y-126572204D01*
X95108761Y-126476966D01*
X95156380Y-126334109D01*
X95156380Y-126096014D01*
X94489714Y-127524585D02*
X95156380Y-127524585D01*
X94108761Y-127286490D02*
X94823047Y-127048395D01*
X94823047Y-127667442D01*
X94251619Y-128000776D02*
X94204000Y-128048395D01*
X94156380Y-128143633D01*
X94156380Y-128381728D01*
X94204000Y-128476966D01*
X94251619Y-128524585D01*
X94346857Y-128572204D01*
X94442095Y-128572204D01*
X94584952Y-128524585D01*
X95156380Y-127953157D01*
X95156380Y-128572204D01*
%TO.C,D25*%
X283272880Y-87998414D02*
X282272880Y-87998414D01*
X282272880Y-88236509D01*
X282320500Y-88379366D01*
X282415738Y-88474604D01*
X282510976Y-88522223D01*
X282701452Y-88569842D01*
X282844309Y-88569842D01*
X283034785Y-88522223D01*
X283130023Y-88474604D01*
X283225261Y-88379366D01*
X283272880Y-88236509D01*
X283272880Y-87998414D01*
X282368119Y-88950795D02*
X282320500Y-88998414D01*
X282272880Y-89093652D01*
X282272880Y-89331747D01*
X282320500Y-89426985D01*
X282368119Y-89474604D01*
X282463357Y-89522223D01*
X282558595Y-89522223D01*
X282701452Y-89474604D01*
X283272880Y-88903176D01*
X283272880Y-89522223D01*
X282272880Y-90426985D02*
X282272880Y-89950795D01*
X282749071Y-89903176D01*
X282701452Y-89950795D01*
X282653833Y-90046033D01*
X282653833Y-90284128D01*
X282701452Y-90379366D01*
X282749071Y-90426985D01*
X282844309Y-90474604D01*
X283082404Y-90474604D01*
X283177642Y-90426985D01*
X283225261Y-90379366D01*
X283272880Y-90284128D01*
X283272880Y-90046033D01*
X283225261Y-89950795D01*
X283177642Y-89903176D01*
%TO.C,D24*%
X264222880Y-87998414D02*
X263222880Y-87998414D01*
X263222880Y-88236509D01*
X263270500Y-88379366D01*
X263365738Y-88474604D01*
X263460976Y-88522223D01*
X263651452Y-88569842D01*
X263794309Y-88569842D01*
X263984785Y-88522223D01*
X264080023Y-88474604D01*
X264175261Y-88379366D01*
X264222880Y-88236509D01*
X264222880Y-87998414D01*
X263318119Y-88950795D02*
X263270500Y-88998414D01*
X263222880Y-89093652D01*
X263222880Y-89331747D01*
X263270500Y-89426985D01*
X263318119Y-89474604D01*
X263413357Y-89522223D01*
X263508595Y-89522223D01*
X263651452Y-89474604D01*
X264222880Y-88903176D01*
X264222880Y-89522223D01*
X263556214Y-90379366D02*
X264222880Y-90379366D01*
X263175261Y-90141271D02*
X263889547Y-89903176D01*
X263889547Y-90522223D01*
%TO.C,D50*%
X259450880Y-126096314D02*
X258450880Y-126096314D01*
X258450880Y-126334409D01*
X258498500Y-126477266D01*
X258593738Y-126572504D01*
X258688976Y-126620123D01*
X258879452Y-126667742D01*
X259022309Y-126667742D01*
X259212785Y-126620123D01*
X259308023Y-126572504D01*
X259403261Y-126477266D01*
X259450880Y-126334409D01*
X259450880Y-126096314D01*
X258450880Y-127572504D02*
X258450880Y-127096314D01*
X258927071Y-127048695D01*
X258879452Y-127096314D01*
X258831833Y-127191552D01*
X258831833Y-127429647D01*
X258879452Y-127524885D01*
X258927071Y-127572504D01*
X259022309Y-127620123D01*
X259260404Y-127620123D01*
X259355642Y-127572504D01*
X259403261Y-127524885D01*
X259450880Y-127429647D01*
X259450880Y-127191552D01*
X259403261Y-127096314D01*
X259355642Y-127048695D01*
X258450880Y-128239171D02*
X258450880Y-128334409D01*
X258498500Y-128429647D01*
X258546119Y-128477266D01*
X258641357Y-128524885D01*
X258831833Y-128572504D01*
X259069928Y-128572504D01*
X259260404Y-128524885D01*
X259355642Y-128477266D01*
X259403261Y-128429647D01*
X259450880Y-128334409D01*
X259450880Y-128239171D01*
X259403261Y-128143933D01*
X259355642Y-128096314D01*
X259260404Y-128048695D01*
X259069928Y-128001076D01*
X258831833Y-128001076D01*
X258641357Y-128048695D01*
X258546119Y-128096314D01*
X258498500Y-128143933D01*
X258450880Y-128239171D01*
%TO.C,D45*%
X164208080Y-126096314D02*
X163208080Y-126096314D01*
X163208080Y-126334409D01*
X163255700Y-126477266D01*
X163350938Y-126572504D01*
X163446176Y-126620123D01*
X163636652Y-126667742D01*
X163779509Y-126667742D01*
X163969985Y-126620123D01*
X164065223Y-126572504D01*
X164160461Y-126477266D01*
X164208080Y-126334409D01*
X164208080Y-126096314D01*
X163541414Y-127524885D02*
X164208080Y-127524885D01*
X163160461Y-127286790D02*
X163874747Y-127048695D01*
X163874747Y-127667742D01*
X163208080Y-128524885D02*
X163208080Y-128048695D01*
X163684271Y-128001076D01*
X163636652Y-128048695D01*
X163589033Y-128143933D01*
X163589033Y-128382028D01*
X163636652Y-128477266D01*
X163684271Y-128524885D01*
X163779509Y-128572504D01*
X164017604Y-128572504D01*
X164112842Y-128524885D01*
X164160461Y-128477266D01*
X164208080Y-128382028D01*
X164208080Y-128143933D01*
X164160461Y-128048695D01*
X164112842Y-128001076D01*
%TO.C,D34*%
X192783880Y-107047214D02*
X191783880Y-107047214D01*
X191783880Y-107285309D01*
X191831500Y-107428166D01*
X191926738Y-107523404D01*
X192021976Y-107571023D01*
X192212452Y-107618642D01*
X192355309Y-107618642D01*
X192545785Y-107571023D01*
X192641023Y-107523404D01*
X192736261Y-107428166D01*
X192783880Y-107285309D01*
X192783880Y-107047214D01*
X191783880Y-107951976D02*
X191783880Y-108571023D01*
X192164833Y-108237690D01*
X192164833Y-108380547D01*
X192212452Y-108475785D01*
X192260071Y-108523404D01*
X192355309Y-108571023D01*
X192593404Y-108571023D01*
X192688642Y-108523404D01*
X192736261Y-108475785D01*
X192783880Y-108380547D01*
X192783880Y-108094833D01*
X192736261Y-107999595D01*
X192688642Y-107951976D01*
X192117214Y-109428166D02*
X192783880Y-109428166D01*
X191736261Y-109190071D02*
X192450547Y-108951976D01*
X192450547Y-109571023D01*
%TO.C,D41*%
X338028580Y-107047214D02*
X337028580Y-107047214D01*
X337028580Y-107285309D01*
X337076200Y-107428166D01*
X337171438Y-107523404D01*
X337266676Y-107571023D01*
X337457152Y-107618642D01*
X337600009Y-107618642D01*
X337790485Y-107571023D01*
X337885723Y-107523404D01*
X337980961Y-107428166D01*
X338028580Y-107285309D01*
X338028580Y-107047214D01*
X337361914Y-108475785D02*
X338028580Y-108475785D01*
X336980961Y-108237690D02*
X337695247Y-107999595D01*
X337695247Y-108618642D01*
X338028580Y-109523404D02*
X338028580Y-108951976D01*
X338028580Y-109237690D02*
X337028580Y-109237690D01*
X337171438Y-109142452D01*
X337266676Y-109047214D01*
X337314295Y-108951976D01*
%TO.C,D18*%
X149922880Y-87998414D02*
X148922880Y-87998414D01*
X148922880Y-88236509D01*
X148970500Y-88379366D01*
X149065738Y-88474604D01*
X149160976Y-88522223D01*
X149351452Y-88569842D01*
X149494309Y-88569842D01*
X149684785Y-88522223D01*
X149780023Y-88474604D01*
X149875261Y-88379366D01*
X149922880Y-88236509D01*
X149922880Y-87998414D01*
X149922880Y-89522223D02*
X149922880Y-88950795D01*
X149922880Y-89236509D02*
X148922880Y-89236509D01*
X149065738Y-89141271D01*
X149160976Y-89046033D01*
X149208595Y-88950795D01*
X149351452Y-90093652D02*
X149303833Y-89998414D01*
X149256214Y-89950795D01*
X149160976Y-89903176D01*
X149113357Y-89903176D01*
X149018119Y-89950795D01*
X148970500Y-89998414D01*
X148922880Y-90093652D01*
X148922880Y-90284128D01*
X148970500Y-90379366D01*
X149018119Y-90426985D01*
X149113357Y-90474604D01*
X149160976Y-90474604D01*
X149256214Y-90426985D01*
X149303833Y-90379366D01*
X149351452Y-90284128D01*
X149351452Y-90093652D01*
X149399071Y-89998414D01*
X149446690Y-89950795D01*
X149541928Y-89903176D01*
X149732404Y-89903176D01*
X149827642Y-89950795D01*
X149875261Y-89998414D01*
X149922880Y-90093652D01*
X149922880Y-90284128D01*
X149875261Y-90379366D01*
X149827642Y-90426985D01*
X149732404Y-90474604D01*
X149541928Y-90474604D01*
X149446690Y-90426985D01*
X149399071Y-90379366D01*
X149351452Y-90284128D01*
%TO.C,D2*%
X102302280Y-69427704D02*
X101302280Y-69427704D01*
X101302280Y-69665800D01*
X101349900Y-69808657D01*
X101445138Y-69903895D01*
X101540376Y-69951514D01*
X101730852Y-69999133D01*
X101873709Y-69999133D01*
X102064185Y-69951514D01*
X102159423Y-69903895D01*
X102254661Y-69808657D01*
X102302280Y-69665800D01*
X102302280Y-69427704D01*
X101397519Y-70380085D02*
X101349900Y-70427704D01*
X101302280Y-70522942D01*
X101302280Y-70761038D01*
X101349900Y-70856276D01*
X101397519Y-70903895D01*
X101492757Y-70951514D01*
X101587995Y-70951514D01*
X101730852Y-70903895D01*
X102302280Y-70332466D01*
X102302280Y-70951514D01*
%TO.C,D3*%
X121352280Y-69427704D02*
X120352280Y-69427704D01*
X120352280Y-69665800D01*
X120399900Y-69808657D01*
X120495138Y-69903895D01*
X120590376Y-69951514D01*
X120780852Y-69999133D01*
X120923709Y-69999133D01*
X121114185Y-69951514D01*
X121209423Y-69903895D01*
X121304661Y-69808657D01*
X121352280Y-69665800D01*
X121352280Y-69427704D01*
X120352280Y-70332466D02*
X120352280Y-70951514D01*
X120733233Y-70618180D01*
X120733233Y-70761038D01*
X120780852Y-70856276D01*
X120828471Y-70903895D01*
X120923709Y-70951514D01*
X121161804Y-70951514D01*
X121257042Y-70903895D01*
X121304661Y-70856276D01*
X121352280Y-70761038D01*
X121352280Y-70475323D01*
X121304661Y-70380085D01*
X121257042Y-70332466D01*
%TO.C,D55*%
X109442780Y-145145114D02*
X108442780Y-145145114D01*
X108442780Y-145383209D01*
X108490400Y-145526066D01*
X108585638Y-145621304D01*
X108680876Y-145668923D01*
X108871352Y-145716542D01*
X109014209Y-145716542D01*
X109204685Y-145668923D01*
X109299923Y-145621304D01*
X109395161Y-145526066D01*
X109442780Y-145383209D01*
X109442780Y-145145114D01*
X108442780Y-146621304D02*
X108442780Y-146145114D01*
X108918971Y-146097495D01*
X108871352Y-146145114D01*
X108823733Y-146240352D01*
X108823733Y-146478447D01*
X108871352Y-146573685D01*
X108918971Y-146621304D01*
X109014209Y-146668923D01*
X109252304Y-146668923D01*
X109347542Y-146621304D01*
X109395161Y-146573685D01*
X109442780Y-146478447D01*
X109442780Y-146240352D01*
X109395161Y-146145114D01*
X109347542Y-146097495D01*
X108442780Y-147573685D02*
X108442780Y-147097495D01*
X108918971Y-147049876D01*
X108871352Y-147097495D01*
X108823733Y-147192733D01*
X108823733Y-147430828D01*
X108871352Y-147526066D01*
X108918971Y-147573685D01*
X109014209Y-147621304D01*
X109252304Y-147621304D01*
X109347542Y-147573685D01*
X109395161Y-147526066D01*
X109442780Y-147430828D01*
X109442780Y-147192733D01*
X109395161Y-147097495D01*
X109347542Y-147049876D01*
%TO.C,D11*%
X273752280Y-68951514D02*
X272752280Y-68951514D01*
X272752280Y-69189609D01*
X272799900Y-69332466D01*
X272895138Y-69427704D01*
X272990376Y-69475323D01*
X273180852Y-69522942D01*
X273323709Y-69522942D01*
X273514185Y-69475323D01*
X273609423Y-69427704D01*
X273704661Y-69332466D01*
X273752280Y-69189609D01*
X273752280Y-68951514D01*
X273752280Y-70475323D02*
X273752280Y-69903895D01*
X273752280Y-70189609D02*
X272752280Y-70189609D01*
X272895138Y-70094371D01*
X272990376Y-69999133D01*
X273037995Y-69903895D01*
X273752280Y-71427704D02*
X273752280Y-70856276D01*
X273752280Y-71141990D02*
X272752280Y-71141990D01*
X272895138Y-71046752D01*
X272990376Y-70951514D01*
X273037995Y-70856276D01*
%TO.C,D13*%
X311852280Y-68951514D02*
X310852280Y-68951514D01*
X310852280Y-69189609D01*
X310899900Y-69332466D01*
X310995138Y-69427704D01*
X311090376Y-69475323D01*
X311280852Y-69522942D01*
X311423709Y-69522942D01*
X311614185Y-69475323D01*
X311709423Y-69427704D01*
X311804661Y-69332466D01*
X311852280Y-69189609D01*
X311852280Y-68951514D01*
X311852280Y-70475323D02*
X311852280Y-69903895D01*
X311852280Y-70189609D02*
X310852280Y-70189609D01*
X310995138Y-70094371D01*
X311090376Y-69999133D01*
X311137995Y-69903895D01*
X310852280Y-70808657D02*
X310852280Y-71427704D01*
X311233233Y-71094371D01*
X311233233Y-71237228D01*
X311280852Y-71332466D01*
X311328471Y-71380085D01*
X311423709Y-71427704D01*
X311661804Y-71427704D01*
X311757042Y-71380085D01*
X311804661Y-71332466D01*
X311852280Y-71237228D01*
X311852280Y-70951514D01*
X311804661Y-70856276D01*
X311757042Y-70808657D01*
%TO.C,D15*%
X88012880Y-87998714D02*
X87012880Y-87998714D01*
X87012880Y-88236809D01*
X87060500Y-88379666D01*
X87155738Y-88474904D01*
X87250976Y-88522523D01*
X87441452Y-88570142D01*
X87584309Y-88570142D01*
X87774785Y-88522523D01*
X87870023Y-88474904D01*
X87965261Y-88379666D01*
X88012880Y-88236809D01*
X88012880Y-87998714D01*
X88012880Y-89522523D02*
X88012880Y-88951095D01*
X88012880Y-89236809D02*
X87012880Y-89236809D01*
X87155738Y-89141571D01*
X87250976Y-89046333D01*
X87298595Y-88951095D01*
X87012880Y-90427285D02*
X87012880Y-89951095D01*
X87489071Y-89903476D01*
X87441452Y-89951095D01*
X87393833Y-90046333D01*
X87393833Y-90284428D01*
X87441452Y-90379666D01*
X87489071Y-90427285D01*
X87584309Y-90474904D01*
X87822404Y-90474904D01*
X87917642Y-90427285D01*
X87965261Y-90379666D01*
X88012880Y-90284428D01*
X88012880Y-90046333D01*
X87965261Y-89951095D01*
X87917642Y-89903476D01*
%TO.C,D49*%
X240400880Y-126096314D02*
X239400880Y-126096314D01*
X239400880Y-126334409D01*
X239448500Y-126477266D01*
X239543738Y-126572504D01*
X239638976Y-126620123D01*
X239829452Y-126667742D01*
X239972309Y-126667742D01*
X240162785Y-126620123D01*
X240258023Y-126572504D01*
X240353261Y-126477266D01*
X240400880Y-126334409D01*
X240400880Y-126096314D01*
X239734214Y-127524885D02*
X240400880Y-127524885D01*
X239353261Y-127286790D02*
X240067547Y-127048695D01*
X240067547Y-127667742D01*
X240400880Y-128096314D02*
X240400880Y-128286790D01*
X240353261Y-128382028D01*
X240305642Y-128429647D01*
X240162785Y-128524885D01*
X239972309Y-128572504D01*
X239591357Y-128572504D01*
X239496119Y-128524885D01*
X239448500Y-128477266D01*
X239400880Y-128382028D01*
X239400880Y-128191552D01*
X239448500Y-128096314D01*
X239496119Y-128048695D01*
X239591357Y-128001076D01*
X239829452Y-128001076D01*
X239924690Y-128048695D01*
X239972309Y-128096314D01*
X240019928Y-128191552D01*
X240019928Y-128382028D01*
X239972309Y-128477266D01*
X239924690Y-128524885D01*
X239829452Y-128572504D01*
%TO.C,D31*%
X135634880Y-107047514D02*
X134634880Y-107047514D01*
X134634880Y-107285609D01*
X134682500Y-107428466D01*
X134777738Y-107523704D01*
X134872976Y-107571323D01*
X135063452Y-107618942D01*
X135206309Y-107618942D01*
X135396785Y-107571323D01*
X135492023Y-107523704D01*
X135587261Y-107428466D01*
X135634880Y-107285609D01*
X135634880Y-107047514D01*
X134634880Y-107952276D02*
X134634880Y-108571323D01*
X135015833Y-108237990D01*
X135015833Y-108380847D01*
X135063452Y-108476085D01*
X135111071Y-108523704D01*
X135206309Y-108571323D01*
X135444404Y-108571323D01*
X135539642Y-108523704D01*
X135587261Y-108476085D01*
X135634880Y-108380847D01*
X135634880Y-108095133D01*
X135587261Y-107999895D01*
X135539642Y-107952276D01*
X135634880Y-109523704D02*
X135634880Y-108952276D01*
X135634880Y-109237990D02*
X134634880Y-109237990D01*
X134777738Y-109142752D01*
X134872976Y-109047514D01*
X134920595Y-108952276D01*
%TO.C,D38*%
X268983880Y-107047214D02*
X267983880Y-107047214D01*
X267983880Y-107285309D01*
X268031500Y-107428166D01*
X268126738Y-107523404D01*
X268221976Y-107571023D01*
X268412452Y-107618642D01*
X268555309Y-107618642D01*
X268745785Y-107571023D01*
X268841023Y-107523404D01*
X268936261Y-107428166D01*
X268983880Y-107285309D01*
X268983880Y-107047214D01*
X267983880Y-107951976D02*
X267983880Y-108571023D01*
X268364833Y-108237690D01*
X268364833Y-108380547D01*
X268412452Y-108475785D01*
X268460071Y-108523404D01*
X268555309Y-108571023D01*
X268793404Y-108571023D01*
X268888642Y-108523404D01*
X268936261Y-108475785D01*
X268983880Y-108380547D01*
X268983880Y-108094833D01*
X268936261Y-107999595D01*
X268888642Y-107951976D01*
X268412452Y-109142452D02*
X268364833Y-109047214D01*
X268317214Y-108999595D01*
X268221976Y-108951976D01*
X268174357Y-108951976D01*
X268079119Y-108999595D01*
X268031500Y-109047214D01*
X267983880Y-109142452D01*
X267983880Y-109332928D01*
X268031500Y-109428166D01*
X268079119Y-109475785D01*
X268174357Y-109523404D01*
X268221976Y-109523404D01*
X268317214Y-109475785D01*
X268364833Y-109428166D01*
X268412452Y-109332928D01*
X268412452Y-109142452D01*
X268460071Y-109047214D01*
X268507690Y-108999595D01*
X268602928Y-108951976D01*
X268793404Y-108951976D01*
X268888642Y-108999595D01*
X268936261Y-109047214D01*
X268983880Y-109142452D01*
X268983880Y-109332928D01*
X268936261Y-109428166D01*
X268888642Y-109475785D01*
X268793404Y-109523404D01*
X268602928Y-109523404D01*
X268507690Y-109475785D01*
X268460071Y-109428166D01*
X268412452Y-109332928D01*
%TO.C,D26*%
X302322880Y-87998414D02*
X301322880Y-87998414D01*
X301322880Y-88236509D01*
X301370500Y-88379366D01*
X301465738Y-88474604D01*
X301560976Y-88522223D01*
X301751452Y-88569842D01*
X301894309Y-88569842D01*
X302084785Y-88522223D01*
X302180023Y-88474604D01*
X302275261Y-88379366D01*
X302322880Y-88236509D01*
X302322880Y-87998414D01*
X301418119Y-88950795D02*
X301370500Y-88998414D01*
X301322880Y-89093652D01*
X301322880Y-89331747D01*
X301370500Y-89426985D01*
X301418119Y-89474604D01*
X301513357Y-89522223D01*
X301608595Y-89522223D01*
X301751452Y-89474604D01*
X302322880Y-88903176D01*
X302322880Y-89522223D01*
X301322880Y-90379366D02*
X301322880Y-90188890D01*
X301370500Y-90093652D01*
X301418119Y-90046033D01*
X301560976Y-89950795D01*
X301751452Y-89903176D01*
X302132404Y-89903176D01*
X302227642Y-89950795D01*
X302275261Y-89998414D01*
X302322880Y-90093652D01*
X302322880Y-90284128D01*
X302275261Y-90379366D01*
X302227642Y-90426985D01*
X302132404Y-90474604D01*
X301894309Y-90474604D01*
X301799071Y-90426985D01*
X301751452Y-90379366D01*
X301703833Y-90284128D01*
X301703833Y-90093652D01*
X301751452Y-89998414D01*
X301799071Y-89950795D01*
X301894309Y-89903176D01*
%TO.C,D46*%
X183250880Y-126096314D02*
X182250880Y-126096314D01*
X182250880Y-126334409D01*
X182298500Y-126477266D01*
X182393738Y-126572504D01*
X182488976Y-126620123D01*
X182679452Y-126667742D01*
X182822309Y-126667742D01*
X183012785Y-126620123D01*
X183108023Y-126572504D01*
X183203261Y-126477266D01*
X183250880Y-126334409D01*
X183250880Y-126096314D01*
X182584214Y-127524885D02*
X183250880Y-127524885D01*
X182203261Y-127286790D02*
X182917547Y-127048695D01*
X182917547Y-127667742D01*
X182250880Y-128477266D02*
X182250880Y-128286790D01*
X182298500Y-128191552D01*
X182346119Y-128143933D01*
X182488976Y-128048695D01*
X182679452Y-128001076D01*
X183060404Y-128001076D01*
X183155642Y-128048695D01*
X183203261Y-128096314D01*
X183250880Y-128191552D01*
X183250880Y-128382028D01*
X183203261Y-128477266D01*
X183155642Y-128524885D01*
X183060404Y-128572504D01*
X182822309Y-128572504D01*
X182727071Y-128524885D01*
X182679452Y-128477266D01*
X182631833Y-128382028D01*
X182631833Y-128191552D01*
X182679452Y-128096314D01*
X182727071Y-128048695D01*
X182822309Y-128001076D01*
%TO.C,D35*%
X211833880Y-107047214D02*
X210833880Y-107047214D01*
X210833880Y-107285309D01*
X210881500Y-107428166D01*
X210976738Y-107523404D01*
X211071976Y-107571023D01*
X211262452Y-107618642D01*
X211405309Y-107618642D01*
X211595785Y-107571023D01*
X211691023Y-107523404D01*
X211786261Y-107428166D01*
X211833880Y-107285309D01*
X211833880Y-107047214D01*
X210833880Y-107951976D02*
X210833880Y-108571023D01*
X211214833Y-108237690D01*
X211214833Y-108380547D01*
X211262452Y-108475785D01*
X211310071Y-108523404D01*
X211405309Y-108571023D01*
X211643404Y-108571023D01*
X211738642Y-108523404D01*
X211786261Y-108475785D01*
X211833880Y-108380547D01*
X211833880Y-108094833D01*
X211786261Y-107999595D01*
X211738642Y-107951976D01*
X210833880Y-109475785D02*
X210833880Y-108999595D01*
X211310071Y-108951976D01*
X211262452Y-108999595D01*
X211214833Y-109094833D01*
X211214833Y-109332928D01*
X211262452Y-109428166D01*
X211310071Y-109475785D01*
X211405309Y-109523404D01*
X211643404Y-109523404D01*
X211738642Y-109475785D01*
X211786261Y-109428166D01*
X211833880Y-109332928D01*
X211833880Y-109094833D01*
X211786261Y-108999595D01*
X211738642Y-108951976D01*
%TO.C,D17*%
X130872880Y-87998414D02*
X129872880Y-87998414D01*
X129872880Y-88236509D01*
X129920500Y-88379366D01*
X130015738Y-88474604D01*
X130110976Y-88522223D01*
X130301452Y-88569842D01*
X130444309Y-88569842D01*
X130634785Y-88522223D01*
X130730023Y-88474604D01*
X130825261Y-88379366D01*
X130872880Y-88236509D01*
X130872880Y-87998414D01*
X130872880Y-89522223D02*
X130872880Y-88950795D01*
X130872880Y-89236509D02*
X129872880Y-89236509D01*
X130015738Y-89141271D01*
X130110976Y-89046033D01*
X130158595Y-88950795D01*
X129872880Y-89855557D02*
X129872880Y-90522223D01*
X130872880Y-90093652D01*
%TO.C,D10*%
X254702280Y-68951514D02*
X253702280Y-68951514D01*
X253702280Y-69189609D01*
X253749900Y-69332466D01*
X253845138Y-69427704D01*
X253940376Y-69475323D01*
X254130852Y-69522942D01*
X254273709Y-69522942D01*
X254464185Y-69475323D01*
X254559423Y-69427704D01*
X254654661Y-69332466D01*
X254702280Y-69189609D01*
X254702280Y-68951514D01*
X254702280Y-70475323D02*
X254702280Y-69903895D01*
X254702280Y-70189609D02*
X253702280Y-70189609D01*
X253845138Y-70094371D01*
X253940376Y-69999133D01*
X253987995Y-69903895D01*
X253702280Y-71094371D02*
X253702280Y-71189609D01*
X253749900Y-71284847D01*
X253797519Y-71332466D01*
X253892757Y-71380085D01*
X254083233Y-71427704D01*
X254321328Y-71427704D01*
X254511804Y-71380085D01*
X254607042Y-71332466D01*
X254654661Y-71284847D01*
X254702280Y-71189609D01*
X254702280Y-71094371D01*
X254654661Y-70999133D01*
X254607042Y-70951514D01*
X254511804Y-70903895D01*
X254321328Y-70856276D01*
X254083233Y-70856276D01*
X253892757Y-70903895D01*
X253797519Y-70951514D01*
X253749900Y-70999133D01*
X253702280Y-71094371D01*
%TO.C,D20*%
X188022880Y-87998414D02*
X187022880Y-87998414D01*
X187022880Y-88236509D01*
X187070500Y-88379366D01*
X187165738Y-88474604D01*
X187260976Y-88522223D01*
X187451452Y-88569842D01*
X187594309Y-88569842D01*
X187784785Y-88522223D01*
X187880023Y-88474604D01*
X187975261Y-88379366D01*
X188022880Y-88236509D01*
X188022880Y-87998414D01*
X187118119Y-88950795D02*
X187070500Y-88998414D01*
X187022880Y-89093652D01*
X187022880Y-89331747D01*
X187070500Y-89426985D01*
X187118119Y-89474604D01*
X187213357Y-89522223D01*
X187308595Y-89522223D01*
X187451452Y-89474604D01*
X188022880Y-88903176D01*
X188022880Y-89522223D01*
X187022880Y-90141271D02*
X187022880Y-90236509D01*
X187070500Y-90331747D01*
X187118119Y-90379366D01*
X187213357Y-90426985D01*
X187403833Y-90474604D01*
X187641928Y-90474604D01*
X187832404Y-90426985D01*
X187927642Y-90379366D01*
X187975261Y-90331747D01*
X188022880Y-90236509D01*
X188022880Y-90141271D01*
X187975261Y-90046033D01*
X187927642Y-89998414D01*
X187832404Y-89950795D01*
X187641928Y-89903176D01*
X187403833Y-89903176D01*
X187213357Y-89950795D01*
X187118119Y-89998414D01*
X187070500Y-90046033D01*
X187022880Y-90141271D01*
%TO.C,D21*%
X207072880Y-87998414D02*
X206072880Y-87998414D01*
X206072880Y-88236509D01*
X206120500Y-88379366D01*
X206215738Y-88474604D01*
X206310976Y-88522223D01*
X206501452Y-88569842D01*
X206644309Y-88569842D01*
X206834785Y-88522223D01*
X206930023Y-88474604D01*
X207025261Y-88379366D01*
X207072880Y-88236509D01*
X207072880Y-87998414D01*
X206168119Y-88950795D02*
X206120500Y-88998414D01*
X206072880Y-89093652D01*
X206072880Y-89331747D01*
X206120500Y-89426985D01*
X206168119Y-89474604D01*
X206263357Y-89522223D01*
X206358595Y-89522223D01*
X206501452Y-89474604D01*
X207072880Y-88903176D01*
X207072880Y-89522223D01*
X207072880Y-90474604D02*
X207072880Y-89903176D01*
X207072880Y-90188890D02*
X206072880Y-90188890D01*
X206215738Y-90093652D01*
X206310976Y-89998414D01*
X206358595Y-89903176D01*
%TO.C,D1*%
X83252280Y-69427704D02*
X82252280Y-69427704D01*
X82252280Y-69665800D01*
X82299900Y-69808657D01*
X82395138Y-69903895D01*
X82490376Y-69951514D01*
X82680852Y-69999133D01*
X82823709Y-69999133D01*
X83014185Y-69951514D01*
X83109423Y-69903895D01*
X83204661Y-69808657D01*
X83252280Y-69665800D01*
X83252280Y-69427704D01*
X83252280Y-70951514D02*
X83252280Y-70380085D01*
X83252280Y-70665800D02*
X82252280Y-70665800D01*
X82395138Y-70570561D01*
X82490376Y-70475323D01*
X82537995Y-70380085D01*
%TO.C,D27*%
X321360880Y-87998414D02*
X320360880Y-87998414D01*
X320360880Y-88236509D01*
X320408500Y-88379366D01*
X320503738Y-88474604D01*
X320598976Y-88522223D01*
X320789452Y-88569842D01*
X320932309Y-88569842D01*
X321122785Y-88522223D01*
X321218023Y-88474604D01*
X321313261Y-88379366D01*
X321360880Y-88236509D01*
X321360880Y-87998414D01*
X320456119Y-88950795D02*
X320408500Y-88998414D01*
X320360880Y-89093652D01*
X320360880Y-89331747D01*
X320408500Y-89426985D01*
X320456119Y-89474604D01*
X320551357Y-89522223D01*
X320646595Y-89522223D01*
X320789452Y-89474604D01*
X321360880Y-88903176D01*
X321360880Y-89522223D01*
X320360880Y-89855557D02*
X320360880Y-90522223D01*
X321360880Y-90093652D01*
%TO.C,D48*%
X221350880Y-126033814D02*
X220350880Y-126033814D01*
X220350880Y-126271909D01*
X220398500Y-126414766D01*
X220493738Y-126510004D01*
X220588976Y-126557623D01*
X220779452Y-126605242D01*
X220922309Y-126605242D01*
X221112785Y-126557623D01*
X221208023Y-126510004D01*
X221303261Y-126414766D01*
X221350880Y-126271909D01*
X221350880Y-126033814D01*
X220684214Y-127462385D02*
X221350880Y-127462385D01*
X220303261Y-127224290D02*
X221017547Y-126986195D01*
X221017547Y-127605242D01*
X220779452Y-128129052D02*
X220731833Y-128033814D01*
X220684214Y-127986195D01*
X220588976Y-127938576D01*
X220541357Y-127938576D01*
X220446119Y-127986195D01*
X220398500Y-128033814D01*
X220350880Y-128129052D01*
X220350880Y-128319528D01*
X220398500Y-128414766D01*
X220446119Y-128462385D01*
X220541357Y-128510004D01*
X220588976Y-128510004D01*
X220684214Y-128462385D01*
X220731833Y-128414766D01*
X220779452Y-128319528D01*
X220779452Y-128129052D01*
X220827071Y-128033814D01*
X220874690Y-127986195D01*
X220969928Y-127938576D01*
X221160404Y-127938576D01*
X221255642Y-127986195D01*
X221303261Y-128033814D01*
X221350880Y-128129052D01*
X221350880Y-128319528D01*
X221303261Y-128414766D01*
X221255642Y-128462385D01*
X221160404Y-128510004D01*
X220969928Y-128510004D01*
X220874690Y-128462385D01*
X220827071Y-128414766D01*
X220779452Y-128319528D01*
%TO.C,D23*%
X245172880Y-87998414D02*
X244172880Y-87998414D01*
X244172880Y-88236509D01*
X244220500Y-88379366D01*
X244315738Y-88474604D01*
X244410976Y-88522223D01*
X244601452Y-88569842D01*
X244744309Y-88569842D01*
X244934785Y-88522223D01*
X245030023Y-88474604D01*
X245125261Y-88379366D01*
X245172880Y-88236509D01*
X245172880Y-87998414D01*
X244268119Y-88950795D02*
X244220500Y-88998414D01*
X244172880Y-89093652D01*
X244172880Y-89331747D01*
X244220500Y-89426985D01*
X244268119Y-89474604D01*
X244363357Y-89522223D01*
X244458595Y-89522223D01*
X244601452Y-89474604D01*
X245172880Y-88903176D01*
X245172880Y-89522223D01*
X244172880Y-89855557D02*
X244172880Y-90474604D01*
X244553833Y-90141271D01*
X244553833Y-90284128D01*
X244601452Y-90379366D01*
X244649071Y-90426985D01*
X244744309Y-90474604D01*
X244982404Y-90474604D01*
X245077642Y-90426985D01*
X245125261Y-90379366D01*
X245172880Y-90284128D01*
X245172880Y-89998414D01*
X245125261Y-89903176D01*
X245077642Y-89855557D01*
%TO.C,D56*%
X133253780Y-145145114D02*
X132253780Y-145145114D01*
X132253780Y-145383209D01*
X132301400Y-145526066D01*
X132396638Y-145621304D01*
X132491876Y-145668923D01*
X132682352Y-145716542D01*
X132825209Y-145716542D01*
X133015685Y-145668923D01*
X133110923Y-145621304D01*
X133206161Y-145526066D01*
X133253780Y-145383209D01*
X133253780Y-145145114D01*
X132253780Y-146621304D02*
X132253780Y-146145114D01*
X132729971Y-146097495D01*
X132682352Y-146145114D01*
X132634733Y-146240352D01*
X132634733Y-146478447D01*
X132682352Y-146573685D01*
X132729971Y-146621304D01*
X132825209Y-146668923D01*
X133063304Y-146668923D01*
X133158542Y-146621304D01*
X133206161Y-146573685D01*
X133253780Y-146478447D01*
X133253780Y-146240352D01*
X133206161Y-146145114D01*
X133158542Y-146097495D01*
X132253780Y-147526066D02*
X132253780Y-147335590D01*
X132301400Y-147240352D01*
X132349019Y-147192733D01*
X132491876Y-147097495D01*
X132682352Y-147049876D01*
X133063304Y-147049876D01*
X133158542Y-147097495D01*
X133206161Y-147145114D01*
X133253780Y-147240352D01*
X133253780Y-147430828D01*
X133206161Y-147526066D01*
X133158542Y-147573685D01*
X133063304Y-147621304D01*
X132825209Y-147621304D01*
X132729971Y-147573685D01*
X132682352Y-147526066D01*
X132634733Y-147430828D01*
X132634733Y-147240352D01*
X132682352Y-147145114D01*
X132729971Y-147097495D01*
X132825209Y-147049876D01*
%TO.C,D28*%
X345171880Y-87998414D02*
X344171880Y-87998414D01*
X344171880Y-88236509D01*
X344219500Y-88379366D01*
X344314738Y-88474604D01*
X344409976Y-88522223D01*
X344600452Y-88569842D01*
X344743309Y-88569842D01*
X344933785Y-88522223D01*
X345029023Y-88474604D01*
X345124261Y-88379366D01*
X345171880Y-88236509D01*
X345171880Y-87998414D01*
X344267119Y-88950795D02*
X344219500Y-88998414D01*
X344171880Y-89093652D01*
X344171880Y-89331747D01*
X344219500Y-89426985D01*
X344267119Y-89474604D01*
X344362357Y-89522223D01*
X344457595Y-89522223D01*
X344600452Y-89474604D01*
X345171880Y-88903176D01*
X345171880Y-89522223D01*
X344600452Y-90093652D02*
X344552833Y-89998414D01*
X344505214Y-89950795D01*
X344409976Y-89903176D01*
X344362357Y-89903176D01*
X344267119Y-89950795D01*
X344219500Y-89998414D01*
X344171880Y-90093652D01*
X344171880Y-90284128D01*
X344219500Y-90379366D01*
X344267119Y-90426985D01*
X344362357Y-90474604D01*
X344409976Y-90474604D01*
X344505214Y-90426985D01*
X344552833Y-90379366D01*
X344600452Y-90284128D01*
X344600452Y-90093652D01*
X344648071Y-89998414D01*
X344695690Y-89950795D01*
X344790928Y-89903176D01*
X344981404Y-89903176D01*
X345076642Y-89950795D01*
X345124261Y-89998414D01*
X345171880Y-90093652D01*
X345171880Y-90284128D01*
X345124261Y-90379366D01*
X345076642Y-90426985D01*
X344981404Y-90474604D01*
X344790928Y-90474604D01*
X344695690Y-90426985D01*
X344648071Y-90379366D01*
X344600452Y-90284128D01*
%TO.C,D6*%
X178502280Y-69427704D02*
X177502280Y-69427704D01*
X177502280Y-69665800D01*
X177549900Y-69808657D01*
X177645138Y-69903895D01*
X177740376Y-69951514D01*
X177930852Y-69999133D01*
X178073709Y-69999133D01*
X178264185Y-69951514D01*
X178359423Y-69903895D01*
X178454661Y-69808657D01*
X178502280Y-69665800D01*
X178502280Y-69427704D01*
X177502280Y-70856276D02*
X177502280Y-70665800D01*
X177549900Y-70570561D01*
X177597519Y-70522942D01*
X177740376Y-70427704D01*
X177930852Y-70380085D01*
X178311804Y-70380085D01*
X178407042Y-70427704D01*
X178454661Y-70475323D01*
X178502280Y-70570561D01*
X178502280Y-70761038D01*
X178454661Y-70856276D01*
X178407042Y-70903895D01*
X178311804Y-70951514D01*
X178073709Y-70951514D01*
X177978471Y-70903895D01*
X177930852Y-70856276D01*
X177883233Y-70761038D01*
X177883233Y-70570561D01*
X177930852Y-70475323D01*
X177978471Y-70427704D01*
X178073709Y-70380085D01*
%TO.C,D33*%
X173733880Y-107047214D02*
X172733880Y-107047214D01*
X172733880Y-107285309D01*
X172781500Y-107428166D01*
X172876738Y-107523404D01*
X172971976Y-107571023D01*
X173162452Y-107618642D01*
X173305309Y-107618642D01*
X173495785Y-107571023D01*
X173591023Y-107523404D01*
X173686261Y-107428166D01*
X173733880Y-107285309D01*
X173733880Y-107047214D01*
X172733880Y-107951976D02*
X172733880Y-108571023D01*
X173114833Y-108237690D01*
X173114833Y-108380547D01*
X173162452Y-108475785D01*
X173210071Y-108523404D01*
X173305309Y-108571023D01*
X173543404Y-108571023D01*
X173638642Y-108523404D01*
X173686261Y-108475785D01*
X173733880Y-108380547D01*
X173733880Y-108094833D01*
X173686261Y-107999595D01*
X173638642Y-107951976D01*
X172733880Y-108904357D02*
X172733880Y-109523404D01*
X173114833Y-109190071D01*
X173114833Y-109332928D01*
X173162452Y-109428166D01*
X173210071Y-109475785D01*
X173305309Y-109523404D01*
X173543404Y-109523404D01*
X173638642Y-109475785D01*
X173686261Y-109428166D01*
X173733880Y-109332928D01*
X173733880Y-109047214D01*
X173686261Y-108951976D01*
X173638642Y-108904357D01*
%TO.C,D40*%
X307083880Y-107047214D02*
X306083880Y-107047214D01*
X306083880Y-107285309D01*
X306131500Y-107428166D01*
X306226738Y-107523404D01*
X306321976Y-107571023D01*
X306512452Y-107618642D01*
X306655309Y-107618642D01*
X306845785Y-107571023D01*
X306941023Y-107523404D01*
X307036261Y-107428166D01*
X307083880Y-107285309D01*
X307083880Y-107047214D01*
X306417214Y-108475785D02*
X307083880Y-108475785D01*
X306036261Y-108237690D02*
X306750547Y-107999595D01*
X306750547Y-108618642D01*
X306083880Y-109190071D02*
X306083880Y-109285309D01*
X306131500Y-109380547D01*
X306179119Y-109428166D01*
X306274357Y-109475785D01*
X306464833Y-109523404D01*
X306702928Y-109523404D01*
X306893404Y-109475785D01*
X306988642Y-109428166D01*
X307036261Y-109380547D01*
X307083880Y-109285309D01*
X307083880Y-109190071D01*
X307036261Y-109094833D01*
X306988642Y-109047214D01*
X306893404Y-108999595D01*
X306702928Y-108951976D01*
X306464833Y-108951976D01*
X306274357Y-108999595D01*
X306179119Y-109047214D01*
X306131500Y-109094833D01*
X306083880Y-109190071D01*
%TO.C,D54*%
X85631980Y-145144814D02*
X84631980Y-145144814D01*
X84631980Y-145382909D01*
X84679600Y-145525766D01*
X84774838Y-145621004D01*
X84870076Y-145668623D01*
X85060552Y-145716242D01*
X85203409Y-145716242D01*
X85393885Y-145668623D01*
X85489123Y-145621004D01*
X85584361Y-145525766D01*
X85631980Y-145382909D01*
X85631980Y-145144814D01*
X84631980Y-146621004D02*
X84631980Y-146144814D01*
X85108171Y-146097195D01*
X85060552Y-146144814D01*
X85012933Y-146240052D01*
X85012933Y-146478147D01*
X85060552Y-146573385D01*
X85108171Y-146621004D01*
X85203409Y-146668623D01*
X85441504Y-146668623D01*
X85536742Y-146621004D01*
X85584361Y-146573385D01*
X85631980Y-146478147D01*
X85631980Y-146240052D01*
X85584361Y-146144814D01*
X85536742Y-146097195D01*
X84965314Y-147525766D02*
X85631980Y-147525766D01*
X84584361Y-147287671D02*
X85298647Y-147049576D01*
X85298647Y-147668623D01*
%TO.C,D39*%
X288033880Y-107047214D02*
X287033880Y-107047214D01*
X287033880Y-107285309D01*
X287081500Y-107428166D01*
X287176738Y-107523404D01*
X287271976Y-107571023D01*
X287462452Y-107618642D01*
X287605309Y-107618642D01*
X287795785Y-107571023D01*
X287891023Y-107523404D01*
X287986261Y-107428166D01*
X288033880Y-107285309D01*
X288033880Y-107047214D01*
X287033880Y-107951976D02*
X287033880Y-108571023D01*
X287414833Y-108237690D01*
X287414833Y-108380547D01*
X287462452Y-108475785D01*
X287510071Y-108523404D01*
X287605309Y-108571023D01*
X287843404Y-108571023D01*
X287938642Y-108523404D01*
X287986261Y-108475785D01*
X288033880Y-108380547D01*
X288033880Y-108094833D01*
X287986261Y-107999595D01*
X287938642Y-107951976D01*
X288033880Y-109047214D02*
X288033880Y-109237690D01*
X287986261Y-109332928D01*
X287938642Y-109380547D01*
X287795785Y-109475785D01*
X287605309Y-109523404D01*
X287224357Y-109523404D01*
X287129119Y-109475785D01*
X287081500Y-109428166D01*
X287033880Y-109332928D01*
X287033880Y-109142452D01*
X287081500Y-109047214D01*
X287129119Y-108999595D01*
X287224357Y-108951976D01*
X287462452Y-108951976D01*
X287557690Y-108999595D01*
X287605309Y-109047214D01*
X287652928Y-109142452D01*
X287652928Y-109332928D01*
X287605309Y-109428166D01*
X287557690Y-109475785D01*
X287462452Y-109523404D01*
%TO.C,D29*%
X90392480Y-107047514D02*
X89392480Y-107047514D01*
X89392480Y-107285609D01*
X89440100Y-107428466D01*
X89535338Y-107523704D01*
X89630576Y-107571323D01*
X89821052Y-107618942D01*
X89963909Y-107618942D01*
X90154385Y-107571323D01*
X90249623Y-107523704D01*
X90344861Y-107428466D01*
X90392480Y-107285609D01*
X90392480Y-107047514D01*
X89487719Y-107999895D02*
X89440100Y-108047514D01*
X89392480Y-108142752D01*
X89392480Y-108380847D01*
X89440100Y-108476085D01*
X89487719Y-108523704D01*
X89582957Y-108571323D01*
X89678195Y-108571323D01*
X89821052Y-108523704D01*
X90392480Y-107952276D01*
X90392480Y-108571323D01*
X90392480Y-109047514D02*
X90392480Y-109237990D01*
X90344861Y-109333228D01*
X90297242Y-109380847D01*
X90154385Y-109476085D01*
X89963909Y-109523704D01*
X89582957Y-109523704D01*
X89487719Y-109476085D01*
X89440100Y-109428466D01*
X89392480Y-109333228D01*
X89392480Y-109142752D01*
X89440100Y-109047514D01*
X89487719Y-108999895D01*
X89582957Y-108952276D01*
X89821052Y-108952276D01*
X89916290Y-108999895D01*
X89963909Y-109047514D01*
X90011528Y-109142752D01*
X90011528Y-109333228D01*
X89963909Y-109428466D01*
X89916290Y-109476085D01*
X89821052Y-109523704D01*
%TO.C,D60*%
X323741780Y-145082614D02*
X322741780Y-145082614D01*
X322741780Y-145320709D01*
X322789400Y-145463566D01*
X322884638Y-145558804D01*
X322979876Y-145606423D01*
X323170352Y-145654042D01*
X323313209Y-145654042D01*
X323503685Y-145606423D01*
X323598923Y-145558804D01*
X323694161Y-145463566D01*
X323741780Y-145320709D01*
X323741780Y-145082614D01*
X322741780Y-146511185D02*
X322741780Y-146320709D01*
X322789400Y-146225471D01*
X322837019Y-146177852D01*
X322979876Y-146082614D01*
X323170352Y-146034995D01*
X323551304Y-146034995D01*
X323646542Y-146082614D01*
X323694161Y-146130233D01*
X323741780Y-146225471D01*
X323741780Y-146415947D01*
X323694161Y-146511185D01*
X323646542Y-146558804D01*
X323551304Y-146606423D01*
X323313209Y-146606423D01*
X323217971Y-146558804D01*
X323170352Y-146511185D01*
X323122733Y-146415947D01*
X323122733Y-146225471D01*
X323170352Y-146130233D01*
X323217971Y-146082614D01*
X323313209Y-146034995D01*
X322741780Y-147225471D02*
X322741780Y-147320709D01*
X322789400Y-147415947D01*
X322837019Y-147463566D01*
X322932257Y-147511185D01*
X323122733Y-147558804D01*
X323360828Y-147558804D01*
X323551304Y-147511185D01*
X323646542Y-147463566D01*
X323694161Y-147415947D01*
X323741780Y-147320709D01*
X323741780Y-147225471D01*
X323694161Y-147130233D01*
X323646542Y-147082614D01*
X323551304Y-147034995D01*
X323360828Y-146987376D01*
X323122733Y-146987376D01*
X322932257Y-147034995D01*
X322837019Y-147082614D01*
X322789400Y-147130233D01*
X322741780Y-147225471D01*
%TO.C,D37*%
X249933880Y-107047214D02*
X248933880Y-107047214D01*
X248933880Y-107285309D01*
X248981500Y-107428166D01*
X249076738Y-107523404D01*
X249171976Y-107571023D01*
X249362452Y-107618642D01*
X249505309Y-107618642D01*
X249695785Y-107571023D01*
X249791023Y-107523404D01*
X249886261Y-107428166D01*
X249933880Y-107285309D01*
X249933880Y-107047214D01*
X248933880Y-107951976D02*
X248933880Y-108571023D01*
X249314833Y-108237690D01*
X249314833Y-108380547D01*
X249362452Y-108475785D01*
X249410071Y-108523404D01*
X249505309Y-108571023D01*
X249743404Y-108571023D01*
X249838642Y-108523404D01*
X249886261Y-108475785D01*
X249933880Y-108380547D01*
X249933880Y-108094833D01*
X249886261Y-107999595D01*
X249838642Y-107951976D01*
X248933880Y-108904357D02*
X248933880Y-109571023D01*
X249933880Y-109142452D01*
%TO.C,D4*%
X140402280Y-69427704D02*
X139402280Y-69427704D01*
X139402280Y-69665800D01*
X139449900Y-69808657D01*
X139545138Y-69903895D01*
X139640376Y-69951514D01*
X139830852Y-69999133D01*
X139973709Y-69999133D01*
X140164185Y-69951514D01*
X140259423Y-69903895D01*
X140354661Y-69808657D01*
X140402280Y-69665800D01*
X140402280Y-69427704D01*
X139735614Y-70856276D02*
X140402280Y-70856276D01*
X139354661Y-70618180D02*
X140068947Y-70380085D01*
X140068947Y-70999133D01*
%TO.C,D14*%
X340427280Y-68951514D02*
X339427280Y-68951514D01*
X339427280Y-69189609D01*
X339474900Y-69332466D01*
X339570138Y-69427704D01*
X339665376Y-69475323D01*
X339855852Y-69522942D01*
X339998709Y-69522942D01*
X340189185Y-69475323D01*
X340284423Y-69427704D01*
X340379661Y-69332466D01*
X340427280Y-69189609D01*
X340427280Y-68951514D01*
X340427280Y-70475323D02*
X340427280Y-69903895D01*
X340427280Y-70189609D02*
X339427280Y-70189609D01*
X339570138Y-70094371D01*
X339665376Y-69999133D01*
X339712995Y-69903895D01*
X339760614Y-71332466D02*
X340427280Y-71332466D01*
X339379661Y-71094371D02*
X340093947Y-70856276D01*
X340093947Y-71475323D01*
%TO.C,D47*%
X202300880Y-126096314D02*
X201300880Y-126096314D01*
X201300880Y-126334409D01*
X201348500Y-126477266D01*
X201443738Y-126572504D01*
X201538976Y-126620123D01*
X201729452Y-126667742D01*
X201872309Y-126667742D01*
X202062785Y-126620123D01*
X202158023Y-126572504D01*
X202253261Y-126477266D01*
X202300880Y-126334409D01*
X202300880Y-126096314D01*
X201634214Y-127524885D02*
X202300880Y-127524885D01*
X201253261Y-127286790D02*
X201967547Y-127048695D01*
X201967547Y-127667742D01*
X201300880Y-127953457D02*
X201300880Y-128620123D01*
X202300880Y-128191552D01*
%TO.C,D12*%
X292802280Y-68951514D02*
X291802280Y-68951514D01*
X291802280Y-69189609D01*
X291849900Y-69332466D01*
X291945138Y-69427704D01*
X292040376Y-69475323D01*
X292230852Y-69522942D01*
X292373709Y-69522942D01*
X292564185Y-69475323D01*
X292659423Y-69427704D01*
X292754661Y-69332466D01*
X292802280Y-69189609D01*
X292802280Y-68951514D01*
X292802280Y-70475323D02*
X292802280Y-69903895D01*
X292802280Y-70189609D02*
X291802280Y-70189609D01*
X291945138Y-70094371D01*
X292040376Y-69999133D01*
X292087995Y-69903895D01*
X291897519Y-70856276D02*
X291849900Y-70903895D01*
X291802280Y-70999133D01*
X291802280Y-71237228D01*
X291849900Y-71332466D01*
X291897519Y-71380085D01*
X291992757Y-71427704D01*
X292087995Y-71427704D01*
X292230852Y-71380085D01*
X292802280Y-70808657D01*
X292802280Y-71427704D01*
%TO.C,D57*%
X204686780Y-145145114D02*
X203686780Y-145145114D01*
X203686780Y-145383209D01*
X203734400Y-145526066D01*
X203829638Y-145621304D01*
X203924876Y-145668923D01*
X204115352Y-145716542D01*
X204258209Y-145716542D01*
X204448685Y-145668923D01*
X204543923Y-145621304D01*
X204639161Y-145526066D01*
X204686780Y-145383209D01*
X204686780Y-145145114D01*
X203686780Y-146621304D02*
X203686780Y-146145114D01*
X204162971Y-146097495D01*
X204115352Y-146145114D01*
X204067733Y-146240352D01*
X204067733Y-146478447D01*
X204115352Y-146573685D01*
X204162971Y-146621304D01*
X204258209Y-146668923D01*
X204496304Y-146668923D01*
X204591542Y-146621304D01*
X204639161Y-146573685D01*
X204686780Y-146478447D01*
X204686780Y-146240352D01*
X204639161Y-146145114D01*
X204591542Y-146097495D01*
X203686780Y-147002257D02*
X203686780Y-147668923D01*
X204686780Y-147240352D01*
%TO.C,D59*%
X299929480Y-145144814D02*
X298929480Y-145144814D01*
X298929480Y-145382909D01*
X298977100Y-145525766D01*
X299072338Y-145621004D01*
X299167576Y-145668623D01*
X299358052Y-145716242D01*
X299500909Y-145716242D01*
X299691385Y-145668623D01*
X299786623Y-145621004D01*
X299881861Y-145525766D01*
X299929480Y-145382909D01*
X299929480Y-145144814D01*
X298929480Y-146621004D02*
X298929480Y-146144814D01*
X299405671Y-146097195D01*
X299358052Y-146144814D01*
X299310433Y-146240052D01*
X299310433Y-146478147D01*
X299358052Y-146573385D01*
X299405671Y-146621004D01*
X299500909Y-146668623D01*
X299739004Y-146668623D01*
X299834242Y-146621004D01*
X299881861Y-146573385D01*
X299929480Y-146478147D01*
X299929480Y-146240052D01*
X299881861Y-146144814D01*
X299834242Y-146097195D01*
X299929480Y-147144814D02*
X299929480Y-147335290D01*
X299881861Y-147430528D01*
X299834242Y-147478147D01*
X299691385Y-147573385D01*
X299500909Y-147621004D01*
X299119957Y-147621004D01*
X299024719Y-147573385D01*
X298977100Y-147525766D01*
X298929480Y-147430528D01*
X298929480Y-147240052D01*
X298977100Y-147144814D01*
X299024719Y-147097195D01*
X299119957Y-147049576D01*
X299358052Y-147049576D01*
X299453290Y-147097195D01*
X299500909Y-147144814D01*
X299548528Y-147240052D01*
X299548528Y-147430528D01*
X299500909Y-147525766D01*
X299453290Y-147573385D01*
X299358052Y-147621004D01*
%TO.C,D30*%
X116586080Y-107047514D02*
X115586080Y-107047514D01*
X115586080Y-107285609D01*
X115633700Y-107428466D01*
X115728938Y-107523704D01*
X115824176Y-107571323D01*
X116014652Y-107618942D01*
X116157509Y-107618942D01*
X116347985Y-107571323D01*
X116443223Y-107523704D01*
X116538461Y-107428466D01*
X116586080Y-107285609D01*
X116586080Y-107047514D01*
X115586080Y-107952276D02*
X115586080Y-108571323D01*
X115967033Y-108237990D01*
X115967033Y-108380847D01*
X116014652Y-108476085D01*
X116062271Y-108523704D01*
X116157509Y-108571323D01*
X116395604Y-108571323D01*
X116490842Y-108523704D01*
X116538461Y-108476085D01*
X116586080Y-108380847D01*
X116586080Y-108095133D01*
X116538461Y-107999895D01*
X116490842Y-107952276D01*
X115586080Y-109190371D02*
X115586080Y-109285609D01*
X115633700Y-109380847D01*
X115681319Y-109428466D01*
X115776557Y-109476085D01*
X115967033Y-109523704D01*
X116205128Y-109523704D01*
X116395604Y-109476085D01*
X116490842Y-109428466D01*
X116538461Y-109380847D01*
X116586080Y-109285609D01*
X116586080Y-109190371D01*
X116538461Y-109095133D01*
X116490842Y-109047514D01*
X116395604Y-108999895D01*
X116205128Y-108952276D01*
X115967033Y-108952276D01*
X115776557Y-108999895D01*
X115681319Y-109047514D01*
X115633700Y-109095133D01*
X115586080Y-109190371D01*
%TO.C,D53*%
X333273780Y-126009514D02*
X332273780Y-126009514D01*
X332273780Y-126247609D01*
X332321400Y-126390466D01*
X332416638Y-126485704D01*
X332511876Y-126533323D01*
X332702352Y-126580942D01*
X332845209Y-126580942D01*
X333035685Y-126533323D01*
X333130923Y-126485704D01*
X333226161Y-126390466D01*
X333273780Y-126247609D01*
X333273780Y-126009514D01*
X332273780Y-127485704D02*
X332273780Y-127009514D01*
X332749971Y-126961895D01*
X332702352Y-127009514D01*
X332654733Y-127104752D01*
X332654733Y-127342847D01*
X332702352Y-127438085D01*
X332749971Y-127485704D01*
X332845209Y-127533323D01*
X333083304Y-127533323D01*
X333178542Y-127485704D01*
X333226161Y-127438085D01*
X333273780Y-127342847D01*
X333273780Y-127104752D01*
X333226161Y-127009514D01*
X333178542Y-126961895D01*
X332273780Y-127866657D02*
X332273780Y-128485704D01*
X332654733Y-128152371D01*
X332654733Y-128295228D01*
X332702352Y-128390466D01*
X332749971Y-128438085D01*
X332845209Y-128485704D01*
X333083304Y-128485704D01*
X333178542Y-128438085D01*
X333226161Y-128390466D01*
X333273780Y-128295228D01*
X333273780Y-128009514D01*
X333226161Y-127914276D01*
X333178542Y-127866657D01*
%TO.C,D9*%
X235652280Y-69427704D02*
X234652280Y-69427704D01*
X234652280Y-69665800D01*
X234699900Y-69808657D01*
X234795138Y-69903895D01*
X234890376Y-69951514D01*
X235080852Y-69999133D01*
X235223709Y-69999133D01*
X235414185Y-69951514D01*
X235509423Y-69903895D01*
X235604661Y-69808657D01*
X235652280Y-69665800D01*
X235652280Y-69427704D01*
X235652280Y-70475323D02*
X235652280Y-70665800D01*
X235604661Y-70761038D01*
X235557042Y-70808657D01*
X235414185Y-70903895D01*
X235223709Y-70951514D01*
X234842757Y-70951514D01*
X234747519Y-70903895D01*
X234699900Y-70856276D01*
X234652280Y-70761038D01*
X234652280Y-70570561D01*
X234699900Y-70475323D01*
X234747519Y-70427704D01*
X234842757Y-70380085D01*
X235080852Y-70380085D01*
X235176090Y-70427704D01*
X235223709Y-70475323D01*
X235271328Y-70570561D01*
X235271328Y-70761038D01*
X235223709Y-70856276D01*
X235176090Y-70903895D01*
X235080852Y-70951514D01*
%TO.C,D51*%
X278500880Y-126033814D02*
X277500880Y-126033814D01*
X277500880Y-126271909D01*
X277548500Y-126414766D01*
X277643738Y-126510004D01*
X277738976Y-126557623D01*
X277929452Y-126605242D01*
X278072309Y-126605242D01*
X278262785Y-126557623D01*
X278358023Y-126510004D01*
X278453261Y-126414766D01*
X278500880Y-126271909D01*
X278500880Y-126033814D01*
X277500880Y-127510004D02*
X277500880Y-127033814D01*
X277977071Y-126986195D01*
X277929452Y-127033814D01*
X277881833Y-127129052D01*
X277881833Y-127367147D01*
X277929452Y-127462385D01*
X277977071Y-127510004D01*
X278072309Y-127557623D01*
X278310404Y-127557623D01*
X278405642Y-127510004D01*
X278453261Y-127462385D01*
X278500880Y-127367147D01*
X278500880Y-127129052D01*
X278453261Y-127033814D01*
X278405642Y-126986195D01*
X278500880Y-128510004D02*
X278500880Y-127938576D01*
X278500880Y-128224290D02*
X277500880Y-128224290D01*
X277643738Y-128129052D01*
X277738976Y-128033814D01*
X277786595Y-127938576D01*
%TO.C,D58*%
X276119780Y-145145114D02*
X275119780Y-145145114D01*
X275119780Y-145383209D01*
X275167400Y-145526066D01*
X275262638Y-145621304D01*
X275357876Y-145668923D01*
X275548352Y-145716542D01*
X275691209Y-145716542D01*
X275881685Y-145668923D01*
X275976923Y-145621304D01*
X276072161Y-145526066D01*
X276119780Y-145383209D01*
X276119780Y-145145114D01*
X275119780Y-146621304D02*
X275119780Y-146145114D01*
X275595971Y-146097495D01*
X275548352Y-146145114D01*
X275500733Y-146240352D01*
X275500733Y-146478447D01*
X275548352Y-146573685D01*
X275595971Y-146621304D01*
X275691209Y-146668923D01*
X275929304Y-146668923D01*
X276024542Y-146621304D01*
X276072161Y-146573685D01*
X276119780Y-146478447D01*
X276119780Y-146240352D01*
X276072161Y-146145114D01*
X276024542Y-146097495D01*
X275548352Y-147240352D02*
X275500733Y-147145114D01*
X275453114Y-147097495D01*
X275357876Y-147049876D01*
X275310257Y-147049876D01*
X275215019Y-147097495D01*
X275167400Y-147145114D01*
X275119780Y-147240352D01*
X275119780Y-147430828D01*
X275167400Y-147526066D01*
X275215019Y-147573685D01*
X275310257Y-147621304D01*
X275357876Y-147621304D01*
X275453114Y-147573685D01*
X275500733Y-147526066D01*
X275548352Y-147430828D01*
X275548352Y-147240352D01*
X275595971Y-147145114D01*
X275643590Y-147097495D01*
X275738828Y-147049876D01*
X275929304Y-147049876D01*
X276024542Y-147097495D01*
X276072161Y-147145114D01*
X276119780Y-147240352D01*
X276119780Y-147430828D01*
X276072161Y-147526066D01*
X276024542Y-147573685D01*
X275929304Y-147621304D01*
X275738828Y-147621304D01*
X275643590Y-147573685D01*
X275595971Y-147526066D01*
X275548352Y-147430828D01*
%TO.C,D36*%
X230883880Y-107047214D02*
X229883880Y-107047214D01*
X229883880Y-107285309D01*
X229931500Y-107428166D01*
X230026738Y-107523404D01*
X230121976Y-107571023D01*
X230312452Y-107618642D01*
X230455309Y-107618642D01*
X230645785Y-107571023D01*
X230741023Y-107523404D01*
X230836261Y-107428166D01*
X230883880Y-107285309D01*
X230883880Y-107047214D01*
X229883880Y-107951976D02*
X229883880Y-108571023D01*
X230264833Y-108237690D01*
X230264833Y-108380547D01*
X230312452Y-108475785D01*
X230360071Y-108523404D01*
X230455309Y-108571023D01*
X230693404Y-108571023D01*
X230788642Y-108523404D01*
X230836261Y-108475785D01*
X230883880Y-108380547D01*
X230883880Y-108094833D01*
X230836261Y-107999595D01*
X230788642Y-107951976D01*
X229883880Y-109428166D02*
X229883880Y-109237690D01*
X229931500Y-109142452D01*
X229979119Y-109094833D01*
X230121976Y-108999595D01*
X230312452Y-108951976D01*
X230693404Y-108951976D01*
X230788642Y-108999595D01*
X230836261Y-109047214D01*
X230883880Y-109142452D01*
X230883880Y-109332928D01*
X230836261Y-109428166D01*
X230788642Y-109475785D01*
X230693404Y-109523404D01*
X230455309Y-109523404D01*
X230360071Y-109475785D01*
X230312452Y-109428166D01*
X230264833Y-109332928D01*
X230264833Y-109142452D01*
X230312452Y-109047214D01*
X230360071Y-108999595D01*
X230455309Y-108951976D01*
%TO.C,D7*%
X197552280Y-69427704D02*
X196552280Y-69427704D01*
X196552280Y-69665800D01*
X196599900Y-69808657D01*
X196695138Y-69903895D01*
X196790376Y-69951514D01*
X196980852Y-69999133D01*
X197123709Y-69999133D01*
X197314185Y-69951514D01*
X197409423Y-69903895D01*
X197504661Y-69808657D01*
X197552280Y-69665800D01*
X197552280Y-69427704D01*
X196552280Y-70332466D02*
X196552280Y-70999133D01*
X197552280Y-70570561D01*
%TO.C,D43*%
X126110480Y-126033814D02*
X125110480Y-126033814D01*
X125110480Y-126271909D01*
X125158100Y-126414766D01*
X125253338Y-126510004D01*
X125348576Y-126557623D01*
X125539052Y-126605242D01*
X125681909Y-126605242D01*
X125872385Y-126557623D01*
X125967623Y-126510004D01*
X126062861Y-126414766D01*
X126110480Y-126271909D01*
X126110480Y-126033814D01*
X125443814Y-127462385D02*
X126110480Y-127462385D01*
X125062861Y-127224290D02*
X125777147Y-126986195D01*
X125777147Y-127605242D01*
X125110480Y-127890957D02*
X125110480Y-128510004D01*
X125491433Y-128176671D01*
X125491433Y-128319528D01*
X125539052Y-128414766D01*
X125586671Y-128462385D01*
X125681909Y-128510004D01*
X125920004Y-128510004D01*
X126015242Y-128462385D01*
X126062861Y-128414766D01*
X126110480Y-128319528D01*
X126110480Y-128033814D01*
X126062861Y-127938576D01*
X126015242Y-127890957D01*
%TO.C,D32*%
X154683880Y-107047214D02*
X153683880Y-107047214D01*
X153683880Y-107285309D01*
X153731500Y-107428166D01*
X153826738Y-107523404D01*
X153921976Y-107571023D01*
X154112452Y-107618642D01*
X154255309Y-107618642D01*
X154445785Y-107571023D01*
X154541023Y-107523404D01*
X154636261Y-107428166D01*
X154683880Y-107285309D01*
X154683880Y-107047214D01*
X153683880Y-107951976D02*
X153683880Y-108571023D01*
X154064833Y-108237690D01*
X154064833Y-108380547D01*
X154112452Y-108475785D01*
X154160071Y-108523404D01*
X154255309Y-108571023D01*
X154493404Y-108571023D01*
X154588642Y-108523404D01*
X154636261Y-108475785D01*
X154683880Y-108380547D01*
X154683880Y-108094833D01*
X154636261Y-107999595D01*
X154588642Y-107951976D01*
X153779119Y-108951976D02*
X153731500Y-108999595D01*
X153683880Y-109094833D01*
X153683880Y-109332928D01*
X153731500Y-109428166D01*
X153779119Y-109475785D01*
X153874357Y-109523404D01*
X153969595Y-109523404D01*
X154112452Y-109475785D01*
X154683880Y-108904357D01*
X154683880Y-109523404D01*
D11*
%TO.C,D61*%
X344100400Y-148609400D02*
X344100400Y-144709400D01*
X346100400Y-148609400D02*
X346100400Y-144709400D01*
X346100400Y-148609400D02*
X344100400Y-148609400D01*
%TO.C,D19*%
X167520500Y-91462700D02*
X167520500Y-87562700D01*
X167520500Y-91462700D02*
X165520500Y-91462700D01*
X165520500Y-91462700D02*
X165520500Y-87562700D01*
%TO.C,D5*%
X155999900Y-72415800D02*
X155999900Y-68515800D01*
X157999900Y-72415800D02*
X157999900Y-68515800D01*
X157999900Y-72415800D02*
X155999900Y-72415800D01*
%TO.C,D16*%
X110371500Y-91463000D02*
X108371500Y-91463000D01*
X108371500Y-91463000D02*
X108371500Y-87563000D01*
X110371500Y-91463000D02*
X110371500Y-87563000D01*
%TO.C,D52*%
X294097300Y-129560600D02*
X294097300Y-125660600D01*
X296097300Y-129560600D02*
X294097300Y-129560600D01*
X296097300Y-129560600D02*
X296097300Y-125660600D01*
%TO.C,D8*%
X215149900Y-72415800D02*
X215149900Y-68515800D01*
X215149900Y-72415800D02*
X213149900Y-72415800D01*
X213149900Y-72415800D02*
X213149900Y-68515800D01*
%TO.C,D44*%
X143707100Y-129560300D02*
X143707100Y-125660300D01*
X141707100Y-129560300D02*
X141707100Y-125660300D01*
X143707100Y-129560300D02*
X141707100Y-129560300D01*
%TO.C,D22*%
X222670500Y-91462700D02*
X222670500Y-87562700D01*
X224670500Y-91462700D02*
X224670500Y-87562700D01*
X224670500Y-91462700D02*
X222670500Y-91462700D01*
%TO.C,D42*%
X93704000Y-129560300D02*
X93704000Y-125660300D01*
X93704000Y-129560300D02*
X91704000Y-129560300D01*
X91704000Y-129560300D02*
X91704000Y-125660300D01*
%TO.C,D25*%
X281820500Y-91462700D02*
X279820500Y-91462700D01*
X279820500Y-91462700D02*
X279820500Y-87562700D01*
X281820500Y-91462700D02*
X281820500Y-87562700D01*
%TO.C,D24*%
X260770500Y-91462700D02*
X260770500Y-87562700D01*
X262770500Y-91462700D02*
X260770500Y-91462700D01*
X262770500Y-91462700D02*
X262770500Y-87562700D01*
%TO.C,D50*%
X255998500Y-129560600D02*
X255998500Y-125660600D01*
X257998500Y-129560600D02*
X257998500Y-125660600D01*
X257998500Y-129560600D02*
X255998500Y-129560600D01*
%TO.C,D45*%
X160755700Y-129560600D02*
X160755700Y-125660600D01*
X162755700Y-129560600D02*
X160755700Y-129560600D01*
X162755700Y-129560600D02*
X162755700Y-125660600D01*
%TO.C,D34*%
X191331500Y-110511500D02*
X189331500Y-110511500D01*
X191331500Y-110511500D02*
X191331500Y-106611500D01*
X189331500Y-110511500D02*
X189331500Y-106611500D01*
%TO.C,D41*%
X336576200Y-110511500D02*
X334576200Y-110511500D01*
X334576200Y-110511500D02*
X334576200Y-106611500D01*
X336576200Y-110511500D02*
X336576200Y-106611500D01*
%TO.C,D18*%
X148470500Y-91462700D02*
X146470500Y-91462700D01*
X146470500Y-91462700D02*
X146470500Y-87562700D01*
X148470500Y-91462700D02*
X148470500Y-87562700D01*
%TO.C,D2*%
X98849900Y-72415800D02*
X98849900Y-68515800D01*
X100849900Y-72415800D02*
X100849900Y-68515800D01*
X100849900Y-72415800D02*
X98849900Y-72415800D01*
%TO.C,D3*%
X119899900Y-72415800D02*
X117899900Y-72415800D01*
X117899900Y-72415800D02*
X117899900Y-68515800D01*
X119899900Y-72415800D02*
X119899900Y-68515800D01*
%TO.C,D55*%
X107990400Y-148609400D02*
X105990400Y-148609400D01*
X107990400Y-148609400D02*
X107990400Y-144709400D01*
X105990400Y-148609400D02*
X105990400Y-144709400D01*
%TO.C,D11*%
X272299900Y-72415800D02*
X272299900Y-68515800D01*
X272299900Y-72415800D02*
X270299900Y-72415800D01*
X270299900Y-72415800D02*
X270299900Y-68515800D01*
%TO.C,D13*%
X310399900Y-72415800D02*
X308399900Y-72415800D01*
X310399900Y-72415800D02*
X310399900Y-68515800D01*
X308399900Y-72415800D02*
X308399900Y-68515800D01*
%TO.C,D15*%
X86560500Y-91463000D02*
X86560500Y-87563000D01*
X86560500Y-91463000D02*
X84560500Y-91463000D01*
X84560500Y-91463000D02*
X84560500Y-87563000D01*
%TO.C,D49*%
X236948500Y-129560600D02*
X236948500Y-125660600D01*
X238948500Y-129560600D02*
X238948500Y-125660600D01*
X238948500Y-129560600D02*
X236948500Y-129560600D01*
%TO.C,D31*%
X134182500Y-110511800D02*
X132182500Y-110511800D01*
X134182500Y-110511800D02*
X134182500Y-106611800D01*
X132182500Y-110511800D02*
X132182500Y-106611800D01*
%TO.C,D38*%
X265531500Y-110511500D02*
X265531500Y-106611500D01*
X267531500Y-110511500D02*
X265531500Y-110511500D01*
X267531500Y-110511500D02*
X267531500Y-106611500D01*
%TO.C,D26*%
X300870500Y-91462700D02*
X298870500Y-91462700D01*
X300870500Y-91462700D02*
X300870500Y-87562700D01*
X298870500Y-91462700D02*
X298870500Y-87562700D01*
%TO.C,D46*%
X181798500Y-129560600D02*
X179798500Y-129560600D01*
X181798500Y-129560600D02*
X181798500Y-125660600D01*
X179798500Y-129560600D02*
X179798500Y-125660600D01*
%TO.C,D35*%
X208381500Y-110511500D02*
X208381500Y-106611500D01*
X210381500Y-110511500D02*
X208381500Y-110511500D01*
X210381500Y-110511500D02*
X210381500Y-106611500D01*
%TO.C,D17*%
X127420500Y-91462700D02*
X127420500Y-87562700D01*
X129420500Y-91462700D02*
X127420500Y-91462700D01*
X129420500Y-91462700D02*
X129420500Y-87562700D01*
%TO.C,D10*%
X253249900Y-72415800D02*
X253249900Y-68515800D01*
X251249900Y-72415800D02*
X251249900Y-68515800D01*
X253249900Y-72415800D02*
X251249900Y-72415800D01*
%TO.C,D20*%
X186570500Y-91462700D02*
X186570500Y-87562700D01*
X184570500Y-91462700D02*
X184570500Y-87562700D01*
X186570500Y-91462700D02*
X184570500Y-91462700D01*
%TO.C,D21*%
X205620500Y-91462700D02*
X205620500Y-87562700D01*
X203620500Y-91462700D02*
X203620500Y-87562700D01*
X205620500Y-91462700D02*
X203620500Y-91462700D01*
%TO.C,D1*%
X79799900Y-72415800D02*
X79799900Y-68515800D01*
X81799900Y-72415800D02*
X81799900Y-68515800D01*
X81799900Y-72415800D02*
X79799900Y-72415800D01*
%TO.C,D27*%
X319908500Y-91462700D02*
X317908500Y-91462700D01*
X317908500Y-91462700D02*
X317908500Y-87562700D01*
X319908500Y-91462700D02*
X319908500Y-87562700D01*
%TO.C,D48*%
X217898500Y-129498100D02*
X217898500Y-125598100D01*
X219898500Y-129498100D02*
X219898500Y-125598100D01*
X219898500Y-129498100D02*
X217898500Y-129498100D01*
%TO.C,D23*%
X241720500Y-91462700D02*
X241720500Y-87562700D01*
X243720500Y-91462700D02*
X241720500Y-91462700D01*
X243720500Y-91462700D02*
X243720500Y-87562700D01*
%TO.C,D56*%
X129801400Y-148609400D02*
X129801400Y-144709400D01*
X131801400Y-148609400D02*
X131801400Y-144709400D01*
X131801400Y-148609400D02*
X129801400Y-148609400D01*
%TO.C,D28*%
X343719500Y-91462700D02*
X343719500Y-87562700D01*
X343719500Y-91462700D02*
X341719500Y-91462700D01*
X341719500Y-91462700D02*
X341719500Y-87562700D01*
%TO.C,D6*%
X177049900Y-72415800D02*
X175049900Y-72415800D01*
X175049900Y-72415800D02*
X175049900Y-68515800D01*
X177049900Y-72415800D02*
X177049900Y-68515800D01*
%TO.C,D33*%
X172281500Y-110511500D02*
X172281500Y-106611500D01*
X172281500Y-110511500D02*
X170281500Y-110511500D01*
X170281500Y-110511500D02*
X170281500Y-106611500D01*
%TO.C,D40*%
X305631500Y-110511500D02*
X303631500Y-110511500D01*
X305631500Y-110511500D02*
X305631500Y-106611500D01*
X303631500Y-110511500D02*
X303631500Y-106611500D01*
%TO.C,D54*%
X84179600Y-148609100D02*
X82179600Y-148609100D01*
X84179600Y-148609100D02*
X84179600Y-144709100D01*
X82179600Y-148609100D02*
X82179600Y-144709100D01*
%TO.C,D39*%
X286581500Y-110511500D02*
X284581500Y-110511500D01*
X284581500Y-110511500D02*
X284581500Y-106611500D01*
X286581500Y-110511500D02*
X286581500Y-106611500D01*
%TO.C,D29*%
X88940100Y-110511800D02*
X86940100Y-110511800D01*
X88940100Y-110511800D02*
X88940100Y-106611800D01*
X86940100Y-110511800D02*
X86940100Y-106611800D01*
%TO.C,D60*%
X322289400Y-148546900D02*
X322289400Y-144646900D01*
X322289400Y-148546900D02*
X320289400Y-148546900D01*
X320289400Y-148546900D02*
X320289400Y-144646900D01*
%TO.C,D37*%
X248481500Y-110511500D02*
X246481500Y-110511500D01*
X246481500Y-110511500D02*
X246481500Y-106611500D01*
X248481500Y-110511500D02*
X248481500Y-106611500D01*
%TO.C,D4*%
X138949900Y-72415800D02*
X138949900Y-68515800D01*
X138949900Y-72415800D02*
X136949900Y-72415800D01*
X136949900Y-72415800D02*
X136949900Y-68515800D01*
%TO.C,D14*%
X338974900Y-72415800D02*
X338974900Y-68515800D01*
X336974900Y-72415800D02*
X336974900Y-68515800D01*
X338974900Y-72415800D02*
X336974900Y-72415800D01*
%TO.C,D47*%
X200848500Y-129560600D02*
X200848500Y-125660600D01*
X200848500Y-129560600D02*
X198848500Y-129560600D01*
X198848500Y-129560600D02*
X198848500Y-125660600D01*
%TO.C,D12*%
X289349900Y-72415800D02*
X289349900Y-68515800D01*
X291349900Y-72415800D02*
X291349900Y-68515800D01*
X291349900Y-72415800D02*
X289349900Y-72415800D01*
%TO.C,D57*%
X203234400Y-148609400D02*
X201234400Y-148609400D01*
X201234400Y-148609400D02*
X201234400Y-144709400D01*
X203234400Y-148609400D02*
X203234400Y-144709400D01*
%TO.C,D59*%
X298477100Y-148609100D02*
X296477100Y-148609100D01*
X298477100Y-148609100D02*
X298477100Y-144709100D01*
X296477100Y-148609100D02*
X296477100Y-144709100D01*
%TO.C,D30*%
X115133700Y-110511800D02*
X115133700Y-106611800D01*
X115133700Y-110511800D02*
X113133700Y-110511800D01*
X113133700Y-110511800D02*
X113133700Y-106611800D01*
%TO.C,D53*%
X331821400Y-129473800D02*
X329821400Y-129473800D01*
X329821400Y-129473800D02*
X329821400Y-125573800D01*
X331821400Y-129473800D02*
X331821400Y-125573800D01*
%TO.C,D9*%
X234199900Y-72415800D02*
X232199900Y-72415800D01*
X234199900Y-72415800D02*
X234199900Y-68515800D01*
X232199900Y-72415800D02*
X232199900Y-68515800D01*
%TO.C,D51*%
X275048500Y-129498100D02*
X275048500Y-125598100D01*
X277048500Y-129498100D02*
X277048500Y-125598100D01*
X277048500Y-129498100D02*
X275048500Y-129498100D01*
%TO.C,D58*%
X272667400Y-148609400D02*
X272667400Y-144709400D01*
X274667400Y-148609400D02*
X274667400Y-144709400D01*
X274667400Y-148609400D02*
X272667400Y-148609400D01*
%TO.C,D36*%
X229431500Y-110511500D02*
X229431500Y-106611500D01*
X227431500Y-110511500D02*
X227431500Y-106611500D01*
X229431500Y-110511500D02*
X227431500Y-110511500D01*
%TO.C,D7*%
X196099900Y-72415800D02*
X194099900Y-72415800D01*
X194099900Y-72415800D02*
X194099900Y-68515800D01*
X196099900Y-72415800D02*
X196099900Y-68515800D01*
%TO.C,D43*%
X122658100Y-129498100D02*
X122658100Y-125598100D01*
X124658100Y-129498100D02*
X124658100Y-125598100D01*
X124658100Y-129498100D02*
X122658100Y-129498100D01*
%TO.C,D32*%
X153231500Y-110511500D02*
X153231500Y-106611500D01*
X153231500Y-110511500D02*
X151231500Y-110511500D01*
X151231500Y-110511500D02*
X151231500Y-106611500D01*
%TD*%
M02*
