M48
; DRILL file {KiCad 6.0.6-3a73a75311~116~ubuntu21.10.1} date vr 28 okt 2022 18:02:52 CEST
; FORMAT={-:-/ absolute / inch / decimal}
; #@! TF.CreationDate,2022-10-28T18:02:52+02:00
; #@! TF.GenerationSoftware,Kicad,Pcbnew,6.0.6-3a73a75311~116~ubuntu21.10.1
; #@! TF.FileFunction,NonPlated,1,2,NPTH
FMAT,2
INCH
; #@! TA.AperFunction,NonPlated,NPTH,ComponentDrill
T1C0.0689
; #@! TA.AperFunction,NonPlated,NPTH,ComponentDrill
T2C0.1181
; #@! TA.AperFunction,NonPlated,NPTH,ComponentDrill
T3C0.1570
%
G90
G05
T1
X3.1061Y-2.5749
X3.1998Y-5.5747
X3.2935Y-3.3248
X3.3872Y-4.0748
X3.5061Y-2.5749
X3.5748Y-4.8247
X3.5998Y-5.5747
X3.6935Y-3.3248
X3.7872Y-4.0748
X3.8561Y-2.5749
X3.9748Y-4.8247
X4.1372Y-5.5747
X4.231Y-3.3248
X4.2561Y-2.5749
X4.4185Y-4.0748
X4.5372Y-5.5747
X4.6061Y-2.5749
X4.631Y-3.3248
X4.7934Y-4.8247
X4.8185Y-4.0748
X4.9809Y-3.3248
X5.0061Y-2.5749
X5.0747Y-5.5747
X5.1684Y-4.0748
X5.1934Y-4.8247
X5.3561Y-2.5749
X5.3809Y-3.3248
X5.4747Y-5.5747
X5.5434Y-4.8247
X5.5684Y-4.0748
X5.7309Y-3.3248
X5.7561Y-2.5749
X5.9184Y-4.0748
X5.9434Y-4.8247
X6.1061Y-2.5749
X6.1309Y-3.3248
X6.2933Y-4.8247
X6.3184Y-4.0748
X6.4809Y-3.3248
X6.5061Y-2.5749
X6.6684Y-4.0748
X6.6933Y-4.8247
X6.8561Y-2.5749
X6.8809Y-3.3248
X7.0431Y-4.8247
X7.0684Y-4.0748
X7.2309Y-3.3248
X7.2561Y-2.5749
X7.4184Y-4.0748
X7.4431Y-4.8247
X7.6061Y-2.5749
X7.6309Y-3.3248
X7.7931Y-4.8247
X7.8184Y-4.0748
X7.887Y-5.5747
X7.9809Y-3.3248
X8.0061Y-2.5749
X8.1684Y-4.0748
X8.1931Y-4.8247
X8.287Y-5.5747
X8.3561Y-2.5749
X8.3809Y-3.3248
X8.5431Y-4.8247
X8.5684Y-4.0748
X8.7309Y-3.3248
X8.7561Y-2.5749
X8.9184Y-4.0748
X8.9431Y-4.8247
X9.1061Y-2.5749
X9.1309Y-3.3248
X9.2931Y-4.8247
X9.3184Y-4.0748
X9.4809Y-3.3248
X9.5061Y-2.5749
X9.6684Y-4.0748
X9.6931Y-4.8247
X9.8561Y-2.5749
X9.8809Y-3.3248
X10.0431Y-4.8247
X10.0684Y-4.0748
X10.2309Y-3.3248
X10.2561Y-2.5749
X10.4184Y-4.0748
X10.4431Y-4.8247
X10.6061Y-2.5749
X10.6309Y-3.3248
X10.6993Y-5.5747
X10.7931Y-4.8247
X10.8184Y-4.0748
X10.9809Y-3.3248
X11.0061Y-2.5749
X11.0993Y-5.5747
X11.1684Y-4.0748
X11.1931Y-4.8247
X11.3561Y-2.5749
X11.3809Y-3.3248
X11.543Y-4.8247
X11.5684Y-4.0748
X11.6367Y-5.5747
X11.7309Y-3.3248
X11.7561Y-2.5749
X11.9184Y-4.0748
X11.943Y-4.8247
X12.0367Y-5.5747
X12.1061Y-2.5749
X12.1309Y-3.3248
X12.3184Y-4.0748
X12.4805Y-3.3248
X12.5061Y-2.5749
X12.5742Y-5.5747
X12.8805Y-3.3248
X12.9492Y-4.8247
X12.9742Y-5.5747
X13.1367Y-4.0748
X13.2311Y-2.5749
X13.3492Y-4.8247
X13.4179Y-3.3248
X13.5116Y-5.5747
X13.5367Y-4.0748
X13.6311Y-2.5749
X13.8179Y-3.3248
X13.9116Y-5.5747
T2
X4.0935Y-4.0935
X6.8746Y-5.6246
X12.5617Y-4.0935
T3
X3.306Y-5.1497
X3.3061Y-2.5749
X3.3998Y-5.5747
X3.4935Y-3.3248
X3.5872Y-4.0748
X3.7748Y-4.8247
X4.0561Y-2.5749
X4.2435Y-5.1497
X4.3372Y-5.5747
X4.431Y-3.3248
X4.6185Y-4.0748
X4.8061Y-2.5749
X4.9934Y-4.8247
X5.1809Y-3.3248
X5.2747Y-5.5747
X5.3684Y-4.0748
X5.5561Y-2.5749
X5.7434Y-4.8247
X5.9309Y-3.3248
X6.1182Y-5.8997
X6.1184Y-4.0748
X6.3061Y-2.5749
X6.4933Y-4.8247
X6.6809Y-3.3248
X6.8684Y-4.0748
X7.0561Y-2.5749
X7.2431Y-4.8247
X7.4309Y-3.3248
X7.6184Y-4.0748
X7.8061Y-2.5749
X7.9931Y-4.8247
X8.087Y-5.5747
X8.1809Y-3.3248
X8.3684Y-4.0748
X8.5561Y-2.5749
X8.7431Y-4.8247
X8.9309Y-3.3248
X9.1184Y-4.0748
X9.3061Y-2.5749
X9.4931Y-4.8247
X9.6809Y-3.3248
X9.8684Y-4.0748
X10.0557Y-5.8997
X10.0561Y-2.5749
X10.2431Y-4.8247
X10.4309Y-3.3248
X10.6184Y-4.0748
X10.8061Y-2.5749
X10.8993Y-5.5747
X10.9931Y-4.8247
X11.1809Y-3.3248
X11.3684Y-4.0748
X11.5561Y-2.5749
X11.743Y-4.8247
X11.8367Y-5.5747
X11.9309Y-3.3248
X12.1184Y-4.0748
X12.3061Y-2.5749
X12.6804Y-5.1497
X12.6805Y-3.3248
X12.7742Y-5.5747
X12.8679Y-4.3998
X12.9616Y-2.8999
X13.1492Y-4.8247
X13.3367Y-4.0748
X13.4311Y-2.5749
X13.6179Y-3.3248
X13.6179Y-5.1497
X13.7116Y-5.5747
X13.8054Y-4.3998
X13.8991Y-2.8999
T0
M30
