%TF.GenerationSoftware,KiCad,Pcbnew,6.0.6-3a73a75311~116~ubuntu21.10.1*%
%TF.CreationDate,2022-10-20T16:32:42+02:00*%
%TF.ProjectId,Keyboard,4b657962-6f61-4726-942e-6b696361645f,rev?*%
%TF.SameCoordinates,Original*%
%TF.FileFunction,Legend,Bot*%
%TF.FilePolarity,Positive*%
%FSLAX46Y46*%
G04 Gerber Fmt 4.6, Leading zero omitted, Abs format (unit mm)*
G04 Created by KiCad (PCBNEW 6.0.6-3a73a75311~116~ubuntu21.10.1) date 2022-10-20 16:32:42*
%MOMM*%
%LPD*%
G01*
G04 APERTURE LIST*
%ADD10C,0.150000*%
%ADD11C,0.120000*%
G04 APERTURE END LIST*
D10*
%TO.C,D61*%
X288979580Y-105204014D02*
X287979580Y-105204014D01*
X287979580Y-105442109D01*
X288027200Y-105584966D01*
X288122438Y-105680204D01*
X288217676Y-105727823D01*
X288408152Y-105775442D01*
X288551009Y-105775442D01*
X288741485Y-105727823D01*
X288836723Y-105680204D01*
X288931961Y-105584966D01*
X288979580Y-105442109D01*
X288979580Y-105204014D01*
X287979580Y-106632585D02*
X287979580Y-106442109D01*
X288027200Y-106346871D01*
X288074819Y-106299252D01*
X288217676Y-106204014D01*
X288408152Y-106156395D01*
X288789104Y-106156395D01*
X288884342Y-106204014D01*
X288931961Y-106251633D01*
X288979580Y-106346871D01*
X288979580Y-106537347D01*
X288931961Y-106632585D01*
X288884342Y-106680204D01*
X288789104Y-106727823D01*
X288551009Y-106727823D01*
X288455771Y-106680204D01*
X288408152Y-106632585D01*
X288360533Y-106537347D01*
X288360533Y-106346871D01*
X288408152Y-106251633D01*
X288455771Y-106204014D01*
X288551009Y-106156395D01*
X288979580Y-107680204D02*
X288979580Y-107108776D01*
X288979580Y-107394490D02*
X287979580Y-107394490D01*
X288122438Y-107299252D01*
X288217676Y-107204014D01*
X288265295Y-107108776D01*
%TO.C,D19*%
X110397980Y-47995114D02*
X109397980Y-47995114D01*
X109397980Y-48233209D01*
X109445600Y-48376066D01*
X109540838Y-48471304D01*
X109636076Y-48518923D01*
X109826552Y-48566542D01*
X109969409Y-48566542D01*
X110159885Y-48518923D01*
X110255123Y-48471304D01*
X110350361Y-48376066D01*
X110397980Y-48233209D01*
X110397980Y-47995114D01*
X110397980Y-49518923D02*
X110397980Y-48947495D01*
X110397980Y-49233209D02*
X109397980Y-49233209D01*
X109540838Y-49137971D01*
X109636076Y-49042733D01*
X109683695Y-48947495D01*
X110397980Y-49995114D02*
X110397980Y-50185590D01*
X110350361Y-50280828D01*
X110302742Y-50328447D01*
X110159885Y-50423685D01*
X109969409Y-50471304D01*
X109588457Y-50471304D01*
X109493219Y-50423685D01*
X109445600Y-50376066D01*
X109397980Y-50280828D01*
X109397980Y-50090352D01*
X109445600Y-49995114D01*
X109493219Y-49947495D01*
X109588457Y-49899876D01*
X109826552Y-49899876D01*
X109921790Y-49947495D01*
X109969409Y-49995114D01*
X110017028Y-50090352D01*
X110017028Y-50280828D01*
X109969409Y-50376066D01*
X109921790Y-50423685D01*
X109826552Y-50471304D01*
%TO.C,D5*%
X100877380Y-29424404D02*
X99877380Y-29424404D01*
X99877380Y-29662500D01*
X99925000Y-29805357D01*
X100020238Y-29900595D01*
X100115476Y-29948214D01*
X100305952Y-29995833D01*
X100448809Y-29995833D01*
X100639285Y-29948214D01*
X100734523Y-29900595D01*
X100829761Y-29805357D01*
X100877380Y-29662500D01*
X100877380Y-29424404D01*
X99877380Y-30900595D02*
X99877380Y-30424404D01*
X100353571Y-30376785D01*
X100305952Y-30424404D01*
X100258333Y-30519642D01*
X100258333Y-30757738D01*
X100305952Y-30852976D01*
X100353571Y-30900595D01*
X100448809Y-30948214D01*
X100686904Y-30948214D01*
X100782142Y-30900595D01*
X100829761Y-30852976D01*
X100877380Y-30757738D01*
X100877380Y-30519642D01*
X100829761Y-30424404D01*
X100782142Y-30376785D01*
%TO.C,D16*%
X53248980Y-47995414D02*
X52248980Y-47995414D01*
X52248980Y-48233509D01*
X52296600Y-48376366D01*
X52391838Y-48471604D01*
X52487076Y-48519223D01*
X52677552Y-48566842D01*
X52820409Y-48566842D01*
X53010885Y-48519223D01*
X53106123Y-48471604D01*
X53201361Y-48376366D01*
X53248980Y-48233509D01*
X53248980Y-47995414D01*
X53248980Y-49519223D02*
X53248980Y-48947795D01*
X53248980Y-49233509D02*
X52248980Y-49233509D01*
X52391838Y-49138271D01*
X52487076Y-49043033D01*
X52534695Y-48947795D01*
X52248980Y-50376366D02*
X52248980Y-50185890D01*
X52296600Y-50090652D01*
X52344219Y-50043033D01*
X52487076Y-49947795D01*
X52677552Y-49900176D01*
X53058504Y-49900176D01*
X53153742Y-49947795D01*
X53201361Y-49995414D01*
X53248980Y-50090652D01*
X53248980Y-50281128D01*
X53201361Y-50376366D01*
X53153742Y-50423985D01*
X53058504Y-50471604D01*
X52820409Y-50471604D01*
X52725171Y-50423985D01*
X52677552Y-50376366D01*
X52629933Y-50281128D01*
X52629933Y-50090652D01*
X52677552Y-49995414D01*
X52725171Y-49947795D01*
X52820409Y-49900176D01*
%TO.C,D52*%
X238974780Y-86093014D02*
X237974780Y-86093014D01*
X237974780Y-86331109D01*
X238022400Y-86473966D01*
X238117638Y-86569204D01*
X238212876Y-86616823D01*
X238403352Y-86664442D01*
X238546209Y-86664442D01*
X238736685Y-86616823D01*
X238831923Y-86569204D01*
X238927161Y-86473966D01*
X238974780Y-86331109D01*
X238974780Y-86093014D01*
X237974780Y-87569204D02*
X237974780Y-87093014D01*
X238450971Y-87045395D01*
X238403352Y-87093014D01*
X238355733Y-87188252D01*
X238355733Y-87426347D01*
X238403352Y-87521585D01*
X238450971Y-87569204D01*
X238546209Y-87616823D01*
X238784304Y-87616823D01*
X238879542Y-87569204D01*
X238927161Y-87521585D01*
X238974780Y-87426347D01*
X238974780Y-87188252D01*
X238927161Y-87093014D01*
X238879542Y-87045395D01*
X238070019Y-87997776D02*
X238022400Y-88045395D01*
X237974780Y-88140633D01*
X237974780Y-88378728D01*
X238022400Y-88473966D01*
X238070019Y-88521585D01*
X238165257Y-88569204D01*
X238260495Y-88569204D01*
X238403352Y-88521585D01*
X238974780Y-87950157D01*
X238974780Y-88569204D01*
%TO.C,D8*%
X158027380Y-29424404D02*
X157027380Y-29424404D01*
X157027380Y-29662500D01*
X157075000Y-29805357D01*
X157170238Y-29900595D01*
X157265476Y-29948214D01*
X157455952Y-29995833D01*
X157598809Y-29995833D01*
X157789285Y-29948214D01*
X157884523Y-29900595D01*
X157979761Y-29805357D01*
X158027380Y-29662500D01*
X158027380Y-29424404D01*
X157455952Y-30567261D02*
X157408333Y-30472023D01*
X157360714Y-30424404D01*
X157265476Y-30376785D01*
X157217857Y-30376785D01*
X157122619Y-30424404D01*
X157075000Y-30472023D01*
X157027380Y-30567261D01*
X157027380Y-30757738D01*
X157075000Y-30852976D01*
X157122619Y-30900595D01*
X157217857Y-30948214D01*
X157265476Y-30948214D01*
X157360714Y-30900595D01*
X157408333Y-30852976D01*
X157455952Y-30757738D01*
X157455952Y-30567261D01*
X157503571Y-30472023D01*
X157551190Y-30424404D01*
X157646428Y-30376785D01*
X157836904Y-30376785D01*
X157932142Y-30424404D01*
X157979761Y-30472023D01*
X158027380Y-30567261D01*
X158027380Y-30757738D01*
X157979761Y-30852976D01*
X157932142Y-30900595D01*
X157836904Y-30948214D01*
X157646428Y-30948214D01*
X157551190Y-30900595D01*
X157503571Y-30852976D01*
X157455952Y-30757738D01*
%TO.C,D44*%
X86584580Y-86092714D02*
X85584580Y-86092714D01*
X85584580Y-86330809D01*
X85632200Y-86473666D01*
X85727438Y-86568904D01*
X85822676Y-86616523D01*
X86013152Y-86664142D01*
X86156009Y-86664142D01*
X86346485Y-86616523D01*
X86441723Y-86568904D01*
X86536961Y-86473666D01*
X86584580Y-86330809D01*
X86584580Y-86092714D01*
X85917914Y-87521285D02*
X86584580Y-87521285D01*
X85536961Y-87283190D02*
X86251247Y-87045095D01*
X86251247Y-87664142D01*
X85917914Y-88473666D02*
X86584580Y-88473666D01*
X85536961Y-88235571D02*
X86251247Y-87997476D01*
X86251247Y-88616523D01*
%TO.C,D22*%
X167547980Y-47995114D02*
X166547980Y-47995114D01*
X166547980Y-48233209D01*
X166595600Y-48376066D01*
X166690838Y-48471304D01*
X166786076Y-48518923D01*
X166976552Y-48566542D01*
X167119409Y-48566542D01*
X167309885Y-48518923D01*
X167405123Y-48471304D01*
X167500361Y-48376066D01*
X167547980Y-48233209D01*
X167547980Y-47995114D01*
X166643219Y-48947495D02*
X166595600Y-48995114D01*
X166547980Y-49090352D01*
X166547980Y-49328447D01*
X166595600Y-49423685D01*
X166643219Y-49471304D01*
X166738457Y-49518923D01*
X166833695Y-49518923D01*
X166976552Y-49471304D01*
X167547980Y-48899876D01*
X167547980Y-49518923D01*
X166643219Y-49899876D02*
X166595600Y-49947495D01*
X166547980Y-50042733D01*
X166547980Y-50280828D01*
X166595600Y-50376066D01*
X166643219Y-50423685D01*
X166738457Y-50471304D01*
X166833695Y-50471304D01*
X166976552Y-50423685D01*
X167547980Y-49852257D01*
X167547980Y-50471304D01*
%TO.C,D42*%
X36581480Y-86092714D02*
X35581480Y-86092714D01*
X35581480Y-86330809D01*
X35629100Y-86473666D01*
X35724338Y-86568904D01*
X35819576Y-86616523D01*
X36010052Y-86664142D01*
X36152909Y-86664142D01*
X36343385Y-86616523D01*
X36438623Y-86568904D01*
X36533861Y-86473666D01*
X36581480Y-86330809D01*
X36581480Y-86092714D01*
X35914814Y-87521285D02*
X36581480Y-87521285D01*
X35533861Y-87283190D02*
X36248147Y-87045095D01*
X36248147Y-87664142D01*
X35676719Y-87997476D02*
X35629100Y-88045095D01*
X35581480Y-88140333D01*
X35581480Y-88378428D01*
X35629100Y-88473666D01*
X35676719Y-88521285D01*
X35771957Y-88568904D01*
X35867195Y-88568904D01*
X36010052Y-88521285D01*
X36581480Y-87949857D01*
X36581480Y-88568904D01*
%TO.C,D25*%
X224697980Y-47995114D02*
X223697980Y-47995114D01*
X223697980Y-48233209D01*
X223745600Y-48376066D01*
X223840838Y-48471304D01*
X223936076Y-48518923D01*
X224126552Y-48566542D01*
X224269409Y-48566542D01*
X224459885Y-48518923D01*
X224555123Y-48471304D01*
X224650361Y-48376066D01*
X224697980Y-48233209D01*
X224697980Y-47995114D01*
X223793219Y-48947495D02*
X223745600Y-48995114D01*
X223697980Y-49090352D01*
X223697980Y-49328447D01*
X223745600Y-49423685D01*
X223793219Y-49471304D01*
X223888457Y-49518923D01*
X223983695Y-49518923D01*
X224126552Y-49471304D01*
X224697980Y-48899876D01*
X224697980Y-49518923D01*
X223697980Y-50423685D02*
X223697980Y-49947495D01*
X224174171Y-49899876D01*
X224126552Y-49947495D01*
X224078933Y-50042733D01*
X224078933Y-50280828D01*
X224126552Y-50376066D01*
X224174171Y-50423685D01*
X224269409Y-50471304D01*
X224507504Y-50471304D01*
X224602742Y-50423685D01*
X224650361Y-50376066D01*
X224697980Y-50280828D01*
X224697980Y-50042733D01*
X224650361Y-49947495D01*
X224602742Y-49899876D01*
%TO.C,D24*%
X205647980Y-47995114D02*
X204647980Y-47995114D01*
X204647980Y-48233209D01*
X204695600Y-48376066D01*
X204790838Y-48471304D01*
X204886076Y-48518923D01*
X205076552Y-48566542D01*
X205219409Y-48566542D01*
X205409885Y-48518923D01*
X205505123Y-48471304D01*
X205600361Y-48376066D01*
X205647980Y-48233209D01*
X205647980Y-47995114D01*
X204743219Y-48947495D02*
X204695600Y-48995114D01*
X204647980Y-49090352D01*
X204647980Y-49328447D01*
X204695600Y-49423685D01*
X204743219Y-49471304D01*
X204838457Y-49518923D01*
X204933695Y-49518923D01*
X205076552Y-49471304D01*
X205647980Y-48899876D01*
X205647980Y-49518923D01*
X204981314Y-50376066D02*
X205647980Y-50376066D01*
X204600361Y-50137971D02*
X205314647Y-49899876D01*
X205314647Y-50518923D01*
%TO.C,D50*%
X200875980Y-86093014D02*
X199875980Y-86093014D01*
X199875980Y-86331109D01*
X199923600Y-86473966D01*
X200018838Y-86569204D01*
X200114076Y-86616823D01*
X200304552Y-86664442D01*
X200447409Y-86664442D01*
X200637885Y-86616823D01*
X200733123Y-86569204D01*
X200828361Y-86473966D01*
X200875980Y-86331109D01*
X200875980Y-86093014D01*
X199875980Y-87569204D02*
X199875980Y-87093014D01*
X200352171Y-87045395D01*
X200304552Y-87093014D01*
X200256933Y-87188252D01*
X200256933Y-87426347D01*
X200304552Y-87521585D01*
X200352171Y-87569204D01*
X200447409Y-87616823D01*
X200685504Y-87616823D01*
X200780742Y-87569204D01*
X200828361Y-87521585D01*
X200875980Y-87426347D01*
X200875980Y-87188252D01*
X200828361Y-87093014D01*
X200780742Y-87045395D01*
X199875980Y-88235871D02*
X199875980Y-88331109D01*
X199923600Y-88426347D01*
X199971219Y-88473966D01*
X200066457Y-88521585D01*
X200256933Y-88569204D01*
X200495028Y-88569204D01*
X200685504Y-88521585D01*
X200780742Y-88473966D01*
X200828361Y-88426347D01*
X200875980Y-88331109D01*
X200875980Y-88235871D01*
X200828361Y-88140633D01*
X200780742Y-88093014D01*
X200685504Y-88045395D01*
X200495028Y-87997776D01*
X200256933Y-87997776D01*
X200066457Y-88045395D01*
X199971219Y-88093014D01*
X199923600Y-88140633D01*
X199875980Y-88235871D01*
%TO.C,D45*%
X105633180Y-86093014D02*
X104633180Y-86093014D01*
X104633180Y-86331109D01*
X104680800Y-86473966D01*
X104776038Y-86569204D01*
X104871276Y-86616823D01*
X105061752Y-86664442D01*
X105204609Y-86664442D01*
X105395085Y-86616823D01*
X105490323Y-86569204D01*
X105585561Y-86473966D01*
X105633180Y-86331109D01*
X105633180Y-86093014D01*
X104966514Y-87521585D02*
X105633180Y-87521585D01*
X104585561Y-87283490D02*
X105299847Y-87045395D01*
X105299847Y-87664442D01*
X104633180Y-88521585D02*
X104633180Y-88045395D01*
X105109371Y-87997776D01*
X105061752Y-88045395D01*
X105014133Y-88140633D01*
X105014133Y-88378728D01*
X105061752Y-88473966D01*
X105109371Y-88521585D01*
X105204609Y-88569204D01*
X105442704Y-88569204D01*
X105537942Y-88521585D01*
X105585561Y-88473966D01*
X105633180Y-88378728D01*
X105633180Y-88140633D01*
X105585561Y-88045395D01*
X105537942Y-87997776D01*
%TO.C,D34*%
X134208980Y-67043914D02*
X133208980Y-67043914D01*
X133208980Y-67282009D01*
X133256600Y-67424866D01*
X133351838Y-67520104D01*
X133447076Y-67567723D01*
X133637552Y-67615342D01*
X133780409Y-67615342D01*
X133970885Y-67567723D01*
X134066123Y-67520104D01*
X134161361Y-67424866D01*
X134208980Y-67282009D01*
X134208980Y-67043914D01*
X133208980Y-67948676D02*
X133208980Y-68567723D01*
X133589933Y-68234390D01*
X133589933Y-68377247D01*
X133637552Y-68472485D01*
X133685171Y-68520104D01*
X133780409Y-68567723D01*
X134018504Y-68567723D01*
X134113742Y-68520104D01*
X134161361Y-68472485D01*
X134208980Y-68377247D01*
X134208980Y-68091533D01*
X134161361Y-67996295D01*
X134113742Y-67948676D01*
X133542314Y-69424866D02*
X134208980Y-69424866D01*
X133161361Y-69186771D02*
X133875647Y-68948676D01*
X133875647Y-69567723D01*
%TO.C,D41*%
X279453680Y-67043914D02*
X278453680Y-67043914D01*
X278453680Y-67282009D01*
X278501300Y-67424866D01*
X278596538Y-67520104D01*
X278691776Y-67567723D01*
X278882252Y-67615342D01*
X279025109Y-67615342D01*
X279215585Y-67567723D01*
X279310823Y-67520104D01*
X279406061Y-67424866D01*
X279453680Y-67282009D01*
X279453680Y-67043914D01*
X278787014Y-68472485D02*
X279453680Y-68472485D01*
X278406061Y-68234390D02*
X279120347Y-67996295D01*
X279120347Y-68615342D01*
X279453680Y-69520104D02*
X279453680Y-68948676D01*
X279453680Y-69234390D02*
X278453680Y-69234390D01*
X278596538Y-69139152D01*
X278691776Y-69043914D01*
X278739395Y-68948676D01*
%TO.C,D18*%
X91347980Y-47995114D02*
X90347980Y-47995114D01*
X90347980Y-48233209D01*
X90395600Y-48376066D01*
X90490838Y-48471304D01*
X90586076Y-48518923D01*
X90776552Y-48566542D01*
X90919409Y-48566542D01*
X91109885Y-48518923D01*
X91205123Y-48471304D01*
X91300361Y-48376066D01*
X91347980Y-48233209D01*
X91347980Y-47995114D01*
X91347980Y-49518923D02*
X91347980Y-48947495D01*
X91347980Y-49233209D02*
X90347980Y-49233209D01*
X90490838Y-49137971D01*
X90586076Y-49042733D01*
X90633695Y-48947495D01*
X90776552Y-50090352D02*
X90728933Y-49995114D01*
X90681314Y-49947495D01*
X90586076Y-49899876D01*
X90538457Y-49899876D01*
X90443219Y-49947495D01*
X90395600Y-49995114D01*
X90347980Y-50090352D01*
X90347980Y-50280828D01*
X90395600Y-50376066D01*
X90443219Y-50423685D01*
X90538457Y-50471304D01*
X90586076Y-50471304D01*
X90681314Y-50423685D01*
X90728933Y-50376066D01*
X90776552Y-50280828D01*
X90776552Y-50090352D01*
X90824171Y-49995114D01*
X90871790Y-49947495D01*
X90967028Y-49899876D01*
X91157504Y-49899876D01*
X91252742Y-49947495D01*
X91300361Y-49995114D01*
X91347980Y-50090352D01*
X91347980Y-50280828D01*
X91300361Y-50376066D01*
X91252742Y-50423685D01*
X91157504Y-50471304D01*
X90967028Y-50471304D01*
X90871790Y-50423685D01*
X90824171Y-50376066D01*
X90776552Y-50280828D01*
%TO.C,D2*%
X43727380Y-29424404D02*
X42727380Y-29424404D01*
X42727380Y-29662500D01*
X42775000Y-29805357D01*
X42870238Y-29900595D01*
X42965476Y-29948214D01*
X43155952Y-29995833D01*
X43298809Y-29995833D01*
X43489285Y-29948214D01*
X43584523Y-29900595D01*
X43679761Y-29805357D01*
X43727380Y-29662500D01*
X43727380Y-29424404D01*
X42822619Y-30376785D02*
X42775000Y-30424404D01*
X42727380Y-30519642D01*
X42727380Y-30757738D01*
X42775000Y-30852976D01*
X42822619Y-30900595D01*
X42917857Y-30948214D01*
X43013095Y-30948214D01*
X43155952Y-30900595D01*
X43727380Y-30329166D01*
X43727380Y-30948214D01*
%TO.C,D3*%
X62777380Y-29424404D02*
X61777380Y-29424404D01*
X61777380Y-29662500D01*
X61825000Y-29805357D01*
X61920238Y-29900595D01*
X62015476Y-29948214D01*
X62205952Y-29995833D01*
X62348809Y-29995833D01*
X62539285Y-29948214D01*
X62634523Y-29900595D01*
X62729761Y-29805357D01*
X62777380Y-29662500D01*
X62777380Y-29424404D01*
X61777380Y-30329166D02*
X61777380Y-30948214D01*
X62158333Y-30614880D01*
X62158333Y-30757738D01*
X62205952Y-30852976D01*
X62253571Y-30900595D01*
X62348809Y-30948214D01*
X62586904Y-30948214D01*
X62682142Y-30900595D01*
X62729761Y-30852976D01*
X62777380Y-30757738D01*
X62777380Y-30472023D01*
X62729761Y-30376785D01*
X62682142Y-30329166D01*
%TO.C,D55*%
X50867880Y-105141814D02*
X49867880Y-105141814D01*
X49867880Y-105379909D01*
X49915500Y-105522766D01*
X50010738Y-105618004D01*
X50105976Y-105665623D01*
X50296452Y-105713242D01*
X50439309Y-105713242D01*
X50629785Y-105665623D01*
X50725023Y-105618004D01*
X50820261Y-105522766D01*
X50867880Y-105379909D01*
X50867880Y-105141814D01*
X49867880Y-106618004D02*
X49867880Y-106141814D01*
X50344071Y-106094195D01*
X50296452Y-106141814D01*
X50248833Y-106237052D01*
X50248833Y-106475147D01*
X50296452Y-106570385D01*
X50344071Y-106618004D01*
X50439309Y-106665623D01*
X50677404Y-106665623D01*
X50772642Y-106618004D01*
X50820261Y-106570385D01*
X50867880Y-106475147D01*
X50867880Y-106237052D01*
X50820261Y-106141814D01*
X50772642Y-106094195D01*
X49867880Y-107570385D02*
X49867880Y-107094195D01*
X50344071Y-107046576D01*
X50296452Y-107094195D01*
X50248833Y-107189433D01*
X50248833Y-107427528D01*
X50296452Y-107522766D01*
X50344071Y-107570385D01*
X50439309Y-107618004D01*
X50677404Y-107618004D01*
X50772642Y-107570385D01*
X50820261Y-107522766D01*
X50867880Y-107427528D01*
X50867880Y-107189433D01*
X50820261Y-107094195D01*
X50772642Y-107046576D01*
%TO.C,D11*%
X215177380Y-28948214D02*
X214177380Y-28948214D01*
X214177380Y-29186309D01*
X214225000Y-29329166D01*
X214320238Y-29424404D01*
X214415476Y-29472023D01*
X214605952Y-29519642D01*
X214748809Y-29519642D01*
X214939285Y-29472023D01*
X215034523Y-29424404D01*
X215129761Y-29329166D01*
X215177380Y-29186309D01*
X215177380Y-28948214D01*
X215177380Y-30472023D02*
X215177380Y-29900595D01*
X215177380Y-30186309D02*
X214177380Y-30186309D01*
X214320238Y-30091071D01*
X214415476Y-29995833D01*
X214463095Y-29900595D01*
X215177380Y-31424404D02*
X215177380Y-30852976D01*
X215177380Y-31138690D02*
X214177380Y-31138690D01*
X214320238Y-31043452D01*
X214415476Y-30948214D01*
X214463095Y-30852976D01*
%TO.C,D13*%
X253277380Y-28948214D02*
X252277380Y-28948214D01*
X252277380Y-29186309D01*
X252325000Y-29329166D01*
X252420238Y-29424404D01*
X252515476Y-29472023D01*
X252705952Y-29519642D01*
X252848809Y-29519642D01*
X253039285Y-29472023D01*
X253134523Y-29424404D01*
X253229761Y-29329166D01*
X253277380Y-29186309D01*
X253277380Y-28948214D01*
X253277380Y-30472023D02*
X253277380Y-29900595D01*
X253277380Y-30186309D02*
X252277380Y-30186309D01*
X252420238Y-30091071D01*
X252515476Y-29995833D01*
X252563095Y-29900595D01*
X252277380Y-30805357D02*
X252277380Y-31424404D01*
X252658333Y-31091071D01*
X252658333Y-31233928D01*
X252705952Y-31329166D01*
X252753571Y-31376785D01*
X252848809Y-31424404D01*
X253086904Y-31424404D01*
X253182142Y-31376785D01*
X253229761Y-31329166D01*
X253277380Y-31233928D01*
X253277380Y-30948214D01*
X253229761Y-30852976D01*
X253182142Y-30805357D01*
%TO.C,D15*%
X29437980Y-47995414D02*
X28437980Y-47995414D01*
X28437980Y-48233509D01*
X28485600Y-48376366D01*
X28580838Y-48471604D01*
X28676076Y-48519223D01*
X28866552Y-48566842D01*
X29009409Y-48566842D01*
X29199885Y-48519223D01*
X29295123Y-48471604D01*
X29390361Y-48376366D01*
X29437980Y-48233509D01*
X29437980Y-47995414D01*
X29437980Y-49519223D02*
X29437980Y-48947795D01*
X29437980Y-49233509D02*
X28437980Y-49233509D01*
X28580838Y-49138271D01*
X28676076Y-49043033D01*
X28723695Y-48947795D01*
X28437980Y-50423985D02*
X28437980Y-49947795D01*
X28914171Y-49900176D01*
X28866552Y-49947795D01*
X28818933Y-50043033D01*
X28818933Y-50281128D01*
X28866552Y-50376366D01*
X28914171Y-50423985D01*
X29009409Y-50471604D01*
X29247504Y-50471604D01*
X29342742Y-50423985D01*
X29390361Y-50376366D01*
X29437980Y-50281128D01*
X29437980Y-50043033D01*
X29390361Y-49947795D01*
X29342742Y-49900176D01*
%TO.C,D49*%
X181825980Y-86093014D02*
X180825980Y-86093014D01*
X180825980Y-86331109D01*
X180873600Y-86473966D01*
X180968838Y-86569204D01*
X181064076Y-86616823D01*
X181254552Y-86664442D01*
X181397409Y-86664442D01*
X181587885Y-86616823D01*
X181683123Y-86569204D01*
X181778361Y-86473966D01*
X181825980Y-86331109D01*
X181825980Y-86093014D01*
X181159314Y-87521585D02*
X181825980Y-87521585D01*
X180778361Y-87283490D02*
X181492647Y-87045395D01*
X181492647Y-87664442D01*
X181825980Y-88093014D02*
X181825980Y-88283490D01*
X181778361Y-88378728D01*
X181730742Y-88426347D01*
X181587885Y-88521585D01*
X181397409Y-88569204D01*
X181016457Y-88569204D01*
X180921219Y-88521585D01*
X180873600Y-88473966D01*
X180825980Y-88378728D01*
X180825980Y-88188252D01*
X180873600Y-88093014D01*
X180921219Y-88045395D01*
X181016457Y-87997776D01*
X181254552Y-87997776D01*
X181349790Y-88045395D01*
X181397409Y-88093014D01*
X181445028Y-88188252D01*
X181445028Y-88378728D01*
X181397409Y-88473966D01*
X181349790Y-88521585D01*
X181254552Y-88569204D01*
%TO.C,D31*%
X77059980Y-67044214D02*
X76059980Y-67044214D01*
X76059980Y-67282309D01*
X76107600Y-67425166D01*
X76202838Y-67520404D01*
X76298076Y-67568023D01*
X76488552Y-67615642D01*
X76631409Y-67615642D01*
X76821885Y-67568023D01*
X76917123Y-67520404D01*
X77012361Y-67425166D01*
X77059980Y-67282309D01*
X77059980Y-67044214D01*
X76059980Y-67948976D02*
X76059980Y-68568023D01*
X76440933Y-68234690D01*
X76440933Y-68377547D01*
X76488552Y-68472785D01*
X76536171Y-68520404D01*
X76631409Y-68568023D01*
X76869504Y-68568023D01*
X76964742Y-68520404D01*
X77012361Y-68472785D01*
X77059980Y-68377547D01*
X77059980Y-68091833D01*
X77012361Y-67996595D01*
X76964742Y-67948976D01*
X77059980Y-69520404D02*
X77059980Y-68948976D01*
X77059980Y-69234690D02*
X76059980Y-69234690D01*
X76202838Y-69139452D01*
X76298076Y-69044214D01*
X76345695Y-68948976D01*
%TO.C,D38*%
X210408980Y-67043914D02*
X209408980Y-67043914D01*
X209408980Y-67282009D01*
X209456600Y-67424866D01*
X209551838Y-67520104D01*
X209647076Y-67567723D01*
X209837552Y-67615342D01*
X209980409Y-67615342D01*
X210170885Y-67567723D01*
X210266123Y-67520104D01*
X210361361Y-67424866D01*
X210408980Y-67282009D01*
X210408980Y-67043914D01*
X209408980Y-67948676D02*
X209408980Y-68567723D01*
X209789933Y-68234390D01*
X209789933Y-68377247D01*
X209837552Y-68472485D01*
X209885171Y-68520104D01*
X209980409Y-68567723D01*
X210218504Y-68567723D01*
X210313742Y-68520104D01*
X210361361Y-68472485D01*
X210408980Y-68377247D01*
X210408980Y-68091533D01*
X210361361Y-67996295D01*
X210313742Y-67948676D01*
X209837552Y-69139152D02*
X209789933Y-69043914D01*
X209742314Y-68996295D01*
X209647076Y-68948676D01*
X209599457Y-68948676D01*
X209504219Y-68996295D01*
X209456600Y-69043914D01*
X209408980Y-69139152D01*
X209408980Y-69329628D01*
X209456600Y-69424866D01*
X209504219Y-69472485D01*
X209599457Y-69520104D01*
X209647076Y-69520104D01*
X209742314Y-69472485D01*
X209789933Y-69424866D01*
X209837552Y-69329628D01*
X209837552Y-69139152D01*
X209885171Y-69043914D01*
X209932790Y-68996295D01*
X210028028Y-68948676D01*
X210218504Y-68948676D01*
X210313742Y-68996295D01*
X210361361Y-69043914D01*
X210408980Y-69139152D01*
X210408980Y-69329628D01*
X210361361Y-69424866D01*
X210313742Y-69472485D01*
X210218504Y-69520104D01*
X210028028Y-69520104D01*
X209932790Y-69472485D01*
X209885171Y-69424866D01*
X209837552Y-69329628D01*
%TO.C,D26*%
X243747980Y-47995114D02*
X242747980Y-47995114D01*
X242747980Y-48233209D01*
X242795600Y-48376066D01*
X242890838Y-48471304D01*
X242986076Y-48518923D01*
X243176552Y-48566542D01*
X243319409Y-48566542D01*
X243509885Y-48518923D01*
X243605123Y-48471304D01*
X243700361Y-48376066D01*
X243747980Y-48233209D01*
X243747980Y-47995114D01*
X242843219Y-48947495D02*
X242795600Y-48995114D01*
X242747980Y-49090352D01*
X242747980Y-49328447D01*
X242795600Y-49423685D01*
X242843219Y-49471304D01*
X242938457Y-49518923D01*
X243033695Y-49518923D01*
X243176552Y-49471304D01*
X243747980Y-48899876D01*
X243747980Y-49518923D01*
X242747980Y-50376066D02*
X242747980Y-50185590D01*
X242795600Y-50090352D01*
X242843219Y-50042733D01*
X242986076Y-49947495D01*
X243176552Y-49899876D01*
X243557504Y-49899876D01*
X243652742Y-49947495D01*
X243700361Y-49995114D01*
X243747980Y-50090352D01*
X243747980Y-50280828D01*
X243700361Y-50376066D01*
X243652742Y-50423685D01*
X243557504Y-50471304D01*
X243319409Y-50471304D01*
X243224171Y-50423685D01*
X243176552Y-50376066D01*
X243128933Y-50280828D01*
X243128933Y-50090352D01*
X243176552Y-49995114D01*
X243224171Y-49947495D01*
X243319409Y-49899876D01*
%TO.C,D46*%
X124675980Y-86093014D02*
X123675980Y-86093014D01*
X123675980Y-86331109D01*
X123723600Y-86473966D01*
X123818838Y-86569204D01*
X123914076Y-86616823D01*
X124104552Y-86664442D01*
X124247409Y-86664442D01*
X124437885Y-86616823D01*
X124533123Y-86569204D01*
X124628361Y-86473966D01*
X124675980Y-86331109D01*
X124675980Y-86093014D01*
X124009314Y-87521585D02*
X124675980Y-87521585D01*
X123628361Y-87283490D02*
X124342647Y-87045395D01*
X124342647Y-87664442D01*
X123675980Y-88473966D02*
X123675980Y-88283490D01*
X123723600Y-88188252D01*
X123771219Y-88140633D01*
X123914076Y-88045395D01*
X124104552Y-87997776D01*
X124485504Y-87997776D01*
X124580742Y-88045395D01*
X124628361Y-88093014D01*
X124675980Y-88188252D01*
X124675980Y-88378728D01*
X124628361Y-88473966D01*
X124580742Y-88521585D01*
X124485504Y-88569204D01*
X124247409Y-88569204D01*
X124152171Y-88521585D01*
X124104552Y-88473966D01*
X124056933Y-88378728D01*
X124056933Y-88188252D01*
X124104552Y-88093014D01*
X124152171Y-88045395D01*
X124247409Y-87997776D01*
%TO.C,D35*%
X153258980Y-67043914D02*
X152258980Y-67043914D01*
X152258980Y-67282009D01*
X152306600Y-67424866D01*
X152401838Y-67520104D01*
X152497076Y-67567723D01*
X152687552Y-67615342D01*
X152830409Y-67615342D01*
X153020885Y-67567723D01*
X153116123Y-67520104D01*
X153211361Y-67424866D01*
X153258980Y-67282009D01*
X153258980Y-67043914D01*
X152258980Y-67948676D02*
X152258980Y-68567723D01*
X152639933Y-68234390D01*
X152639933Y-68377247D01*
X152687552Y-68472485D01*
X152735171Y-68520104D01*
X152830409Y-68567723D01*
X153068504Y-68567723D01*
X153163742Y-68520104D01*
X153211361Y-68472485D01*
X153258980Y-68377247D01*
X153258980Y-68091533D01*
X153211361Y-67996295D01*
X153163742Y-67948676D01*
X152258980Y-69472485D02*
X152258980Y-68996295D01*
X152735171Y-68948676D01*
X152687552Y-68996295D01*
X152639933Y-69091533D01*
X152639933Y-69329628D01*
X152687552Y-69424866D01*
X152735171Y-69472485D01*
X152830409Y-69520104D01*
X153068504Y-69520104D01*
X153163742Y-69472485D01*
X153211361Y-69424866D01*
X153258980Y-69329628D01*
X153258980Y-69091533D01*
X153211361Y-68996295D01*
X153163742Y-68948676D01*
%TO.C,D17*%
X72297980Y-47995114D02*
X71297980Y-47995114D01*
X71297980Y-48233209D01*
X71345600Y-48376066D01*
X71440838Y-48471304D01*
X71536076Y-48518923D01*
X71726552Y-48566542D01*
X71869409Y-48566542D01*
X72059885Y-48518923D01*
X72155123Y-48471304D01*
X72250361Y-48376066D01*
X72297980Y-48233209D01*
X72297980Y-47995114D01*
X72297980Y-49518923D02*
X72297980Y-48947495D01*
X72297980Y-49233209D02*
X71297980Y-49233209D01*
X71440838Y-49137971D01*
X71536076Y-49042733D01*
X71583695Y-48947495D01*
X71297980Y-49852257D02*
X71297980Y-50518923D01*
X72297980Y-50090352D01*
%TO.C,D10*%
X196127380Y-28948214D02*
X195127380Y-28948214D01*
X195127380Y-29186309D01*
X195175000Y-29329166D01*
X195270238Y-29424404D01*
X195365476Y-29472023D01*
X195555952Y-29519642D01*
X195698809Y-29519642D01*
X195889285Y-29472023D01*
X195984523Y-29424404D01*
X196079761Y-29329166D01*
X196127380Y-29186309D01*
X196127380Y-28948214D01*
X196127380Y-30472023D02*
X196127380Y-29900595D01*
X196127380Y-30186309D02*
X195127380Y-30186309D01*
X195270238Y-30091071D01*
X195365476Y-29995833D01*
X195413095Y-29900595D01*
X195127380Y-31091071D02*
X195127380Y-31186309D01*
X195175000Y-31281547D01*
X195222619Y-31329166D01*
X195317857Y-31376785D01*
X195508333Y-31424404D01*
X195746428Y-31424404D01*
X195936904Y-31376785D01*
X196032142Y-31329166D01*
X196079761Y-31281547D01*
X196127380Y-31186309D01*
X196127380Y-31091071D01*
X196079761Y-30995833D01*
X196032142Y-30948214D01*
X195936904Y-30900595D01*
X195746428Y-30852976D01*
X195508333Y-30852976D01*
X195317857Y-30900595D01*
X195222619Y-30948214D01*
X195175000Y-30995833D01*
X195127380Y-31091071D01*
%TO.C,D20*%
X129447980Y-47995114D02*
X128447980Y-47995114D01*
X128447980Y-48233209D01*
X128495600Y-48376066D01*
X128590838Y-48471304D01*
X128686076Y-48518923D01*
X128876552Y-48566542D01*
X129019409Y-48566542D01*
X129209885Y-48518923D01*
X129305123Y-48471304D01*
X129400361Y-48376066D01*
X129447980Y-48233209D01*
X129447980Y-47995114D01*
X128543219Y-48947495D02*
X128495600Y-48995114D01*
X128447980Y-49090352D01*
X128447980Y-49328447D01*
X128495600Y-49423685D01*
X128543219Y-49471304D01*
X128638457Y-49518923D01*
X128733695Y-49518923D01*
X128876552Y-49471304D01*
X129447980Y-48899876D01*
X129447980Y-49518923D01*
X128447980Y-50137971D02*
X128447980Y-50233209D01*
X128495600Y-50328447D01*
X128543219Y-50376066D01*
X128638457Y-50423685D01*
X128828933Y-50471304D01*
X129067028Y-50471304D01*
X129257504Y-50423685D01*
X129352742Y-50376066D01*
X129400361Y-50328447D01*
X129447980Y-50233209D01*
X129447980Y-50137971D01*
X129400361Y-50042733D01*
X129352742Y-49995114D01*
X129257504Y-49947495D01*
X129067028Y-49899876D01*
X128828933Y-49899876D01*
X128638457Y-49947495D01*
X128543219Y-49995114D01*
X128495600Y-50042733D01*
X128447980Y-50137971D01*
%TO.C,D21*%
X148497980Y-47995114D02*
X147497980Y-47995114D01*
X147497980Y-48233209D01*
X147545600Y-48376066D01*
X147640838Y-48471304D01*
X147736076Y-48518923D01*
X147926552Y-48566542D01*
X148069409Y-48566542D01*
X148259885Y-48518923D01*
X148355123Y-48471304D01*
X148450361Y-48376066D01*
X148497980Y-48233209D01*
X148497980Y-47995114D01*
X147593219Y-48947495D02*
X147545600Y-48995114D01*
X147497980Y-49090352D01*
X147497980Y-49328447D01*
X147545600Y-49423685D01*
X147593219Y-49471304D01*
X147688457Y-49518923D01*
X147783695Y-49518923D01*
X147926552Y-49471304D01*
X148497980Y-48899876D01*
X148497980Y-49518923D01*
X148497980Y-50471304D02*
X148497980Y-49899876D01*
X148497980Y-50185590D02*
X147497980Y-50185590D01*
X147640838Y-50090352D01*
X147736076Y-49995114D01*
X147783695Y-49899876D01*
%TO.C,D1*%
X24677380Y-29424404D02*
X23677380Y-29424404D01*
X23677380Y-29662500D01*
X23725000Y-29805357D01*
X23820238Y-29900595D01*
X23915476Y-29948214D01*
X24105952Y-29995833D01*
X24248809Y-29995833D01*
X24439285Y-29948214D01*
X24534523Y-29900595D01*
X24629761Y-29805357D01*
X24677380Y-29662500D01*
X24677380Y-29424404D01*
X24677380Y-30948214D02*
X24677380Y-30376785D01*
X24677380Y-30662500D02*
X23677380Y-30662500D01*
X23820238Y-30567261D01*
X23915476Y-30472023D01*
X23963095Y-30376785D01*
%TO.C,D27*%
X262785980Y-47995114D02*
X261785980Y-47995114D01*
X261785980Y-48233209D01*
X261833600Y-48376066D01*
X261928838Y-48471304D01*
X262024076Y-48518923D01*
X262214552Y-48566542D01*
X262357409Y-48566542D01*
X262547885Y-48518923D01*
X262643123Y-48471304D01*
X262738361Y-48376066D01*
X262785980Y-48233209D01*
X262785980Y-47995114D01*
X261881219Y-48947495D02*
X261833600Y-48995114D01*
X261785980Y-49090352D01*
X261785980Y-49328447D01*
X261833600Y-49423685D01*
X261881219Y-49471304D01*
X261976457Y-49518923D01*
X262071695Y-49518923D01*
X262214552Y-49471304D01*
X262785980Y-48899876D01*
X262785980Y-49518923D01*
X261785980Y-49852257D02*
X261785980Y-50518923D01*
X262785980Y-50090352D01*
%TO.C,D48*%
X162775980Y-86030514D02*
X161775980Y-86030514D01*
X161775980Y-86268609D01*
X161823600Y-86411466D01*
X161918838Y-86506704D01*
X162014076Y-86554323D01*
X162204552Y-86601942D01*
X162347409Y-86601942D01*
X162537885Y-86554323D01*
X162633123Y-86506704D01*
X162728361Y-86411466D01*
X162775980Y-86268609D01*
X162775980Y-86030514D01*
X162109314Y-87459085D02*
X162775980Y-87459085D01*
X161728361Y-87220990D02*
X162442647Y-86982895D01*
X162442647Y-87601942D01*
X162204552Y-88125752D02*
X162156933Y-88030514D01*
X162109314Y-87982895D01*
X162014076Y-87935276D01*
X161966457Y-87935276D01*
X161871219Y-87982895D01*
X161823600Y-88030514D01*
X161775980Y-88125752D01*
X161775980Y-88316228D01*
X161823600Y-88411466D01*
X161871219Y-88459085D01*
X161966457Y-88506704D01*
X162014076Y-88506704D01*
X162109314Y-88459085D01*
X162156933Y-88411466D01*
X162204552Y-88316228D01*
X162204552Y-88125752D01*
X162252171Y-88030514D01*
X162299790Y-87982895D01*
X162395028Y-87935276D01*
X162585504Y-87935276D01*
X162680742Y-87982895D01*
X162728361Y-88030514D01*
X162775980Y-88125752D01*
X162775980Y-88316228D01*
X162728361Y-88411466D01*
X162680742Y-88459085D01*
X162585504Y-88506704D01*
X162395028Y-88506704D01*
X162299790Y-88459085D01*
X162252171Y-88411466D01*
X162204552Y-88316228D01*
%TO.C,D23*%
X186597980Y-47995114D02*
X185597980Y-47995114D01*
X185597980Y-48233209D01*
X185645600Y-48376066D01*
X185740838Y-48471304D01*
X185836076Y-48518923D01*
X186026552Y-48566542D01*
X186169409Y-48566542D01*
X186359885Y-48518923D01*
X186455123Y-48471304D01*
X186550361Y-48376066D01*
X186597980Y-48233209D01*
X186597980Y-47995114D01*
X185693219Y-48947495D02*
X185645600Y-48995114D01*
X185597980Y-49090352D01*
X185597980Y-49328447D01*
X185645600Y-49423685D01*
X185693219Y-49471304D01*
X185788457Y-49518923D01*
X185883695Y-49518923D01*
X186026552Y-49471304D01*
X186597980Y-48899876D01*
X186597980Y-49518923D01*
X185597980Y-49852257D02*
X185597980Y-50471304D01*
X185978933Y-50137971D01*
X185978933Y-50280828D01*
X186026552Y-50376066D01*
X186074171Y-50423685D01*
X186169409Y-50471304D01*
X186407504Y-50471304D01*
X186502742Y-50423685D01*
X186550361Y-50376066D01*
X186597980Y-50280828D01*
X186597980Y-49995114D01*
X186550361Y-49899876D01*
X186502742Y-49852257D01*
%TO.C,D56*%
X74678880Y-105141814D02*
X73678880Y-105141814D01*
X73678880Y-105379909D01*
X73726500Y-105522766D01*
X73821738Y-105618004D01*
X73916976Y-105665623D01*
X74107452Y-105713242D01*
X74250309Y-105713242D01*
X74440785Y-105665623D01*
X74536023Y-105618004D01*
X74631261Y-105522766D01*
X74678880Y-105379909D01*
X74678880Y-105141814D01*
X73678880Y-106618004D02*
X73678880Y-106141814D01*
X74155071Y-106094195D01*
X74107452Y-106141814D01*
X74059833Y-106237052D01*
X74059833Y-106475147D01*
X74107452Y-106570385D01*
X74155071Y-106618004D01*
X74250309Y-106665623D01*
X74488404Y-106665623D01*
X74583642Y-106618004D01*
X74631261Y-106570385D01*
X74678880Y-106475147D01*
X74678880Y-106237052D01*
X74631261Y-106141814D01*
X74583642Y-106094195D01*
X73678880Y-107522766D02*
X73678880Y-107332290D01*
X73726500Y-107237052D01*
X73774119Y-107189433D01*
X73916976Y-107094195D01*
X74107452Y-107046576D01*
X74488404Y-107046576D01*
X74583642Y-107094195D01*
X74631261Y-107141814D01*
X74678880Y-107237052D01*
X74678880Y-107427528D01*
X74631261Y-107522766D01*
X74583642Y-107570385D01*
X74488404Y-107618004D01*
X74250309Y-107618004D01*
X74155071Y-107570385D01*
X74107452Y-107522766D01*
X74059833Y-107427528D01*
X74059833Y-107237052D01*
X74107452Y-107141814D01*
X74155071Y-107094195D01*
X74250309Y-107046576D01*
%TO.C,D28*%
X286596980Y-47995114D02*
X285596980Y-47995114D01*
X285596980Y-48233209D01*
X285644600Y-48376066D01*
X285739838Y-48471304D01*
X285835076Y-48518923D01*
X286025552Y-48566542D01*
X286168409Y-48566542D01*
X286358885Y-48518923D01*
X286454123Y-48471304D01*
X286549361Y-48376066D01*
X286596980Y-48233209D01*
X286596980Y-47995114D01*
X285692219Y-48947495D02*
X285644600Y-48995114D01*
X285596980Y-49090352D01*
X285596980Y-49328447D01*
X285644600Y-49423685D01*
X285692219Y-49471304D01*
X285787457Y-49518923D01*
X285882695Y-49518923D01*
X286025552Y-49471304D01*
X286596980Y-48899876D01*
X286596980Y-49518923D01*
X286025552Y-50090352D02*
X285977933Y-49995114D01*
X285930314Y-49947495D01*
X285835076Y-49899876D01*
X285787457Y-49899876D01*
X285692219Y-49947495D01*
X285644600Y-49995114D01*
X285596980Y-50090352D01*
X285596980Y-50280828D01*
X285644600Y-50376066D01*
X285692219Y-50423685D01*
X285787457Y-50471304D01*
X285835076Y-50471304D01*
X285930314Y-50423685D01*
X285977933Y-50376066D01*
X286025552Y-50280828D01*
X286025552Y-50090352D01*
X286073171Y-49995114D01*
X286120790Y-49947495D01*
X286216028Y-49899876D01*
X286406504Y-49899876D01*
X286501742Y-49947495D01*
X286549361Y-49995114D01*
X286596980Y-50090352D01*
X286596980Y-50280828D01*
X286549361Y-50376066D01*
X286501742Y-50423685D01*
X286406504Y-50471304D01*
X286216028Y-50471304D01*
X286120790Y-50423685D01*
X286073171Y-50376066D01*
X286025552Y-50280828D01*
%TO.C,D6*%
X119927380Y-29424404D02*
X118927380Y-29424404D01*
X118927380Y-29662500D01*
X118975000Y-29805357D01*
X119070238Y-29900595D01*
X119165476Y-29948214D01*
X119355952Y-29995833D01*
X119498809Y-29995833D01*
X119689285Y-29948214D01*
X119784523Y-29900595D01*
X119879761Y-29805357D01*
X119927380Y-29662500D01*
X119927380Y-29424404D01*
X118927380Y-30852976D02*
X118927380Y-30662500D01*
X118975000Y-30567261D01*
X119022619Y-30519642D01*
X119165476Y-30424404D01*
X119355952Y-30376785D01*
X119736904Y-30376785D01*
X119832142Y-30424404D01*
X119879761Y-30472023D01*
X119927380Y-30567261D01*
X119927380Y-30757738D01*
X119879761Y-30852976D01*
X119832142Y-30900595D01*
X119736904Y-30948214D01*
X119498809Y-30948214D01*
X119403571Y-30900595D01*
X119355952Y-30852976D01*
X119308333Y-30757738D01*
X119308333Y-30567261D01*
X119355952Y-30472023D01*
X119403571Y-30424404D01*
X119498809Y-30376785D01*
%TO.C,D33*%
X115158980Y-67043914D02*
X114158980Y-67043914D01*
X114158980Y-67282009D01*
X114206600Y-67424866D01*
X114301838Y-67520104D01*
X114397076Y-67567723D01*
X114587552Y-67615342D01*
X114730409Y-67615342D01*
X114920885Y-67567723D01*
X115016123Y-67520104D01*
X115111361Y-67424866D01*
X115158980Y-67282009D01*
X115158980Y-67043914D01*
X114158980Y-67948676D02*
X114158980Y-68567723D01*
X114539933Y-68234390D01*
X114539933Y-68377247D01*
X114587552Y-68472485D01*
X114635171Y-68520104D01*
X114730409Y-68567723D01*
X114968504Y-68567723D01*
X115063742Y-68520104D01*
X115111361Y-68472485D01*
X115158980Y-68377247D01*
X115158980Y-68091533D01*
X115111361Y-67996295D01*
X115063742Y-67948676D01*
X114158980Y-68901057D02*
X114158980Y-69520104D01*
X114539933Y-69186771D01*
X114539933Y-69329628D01*
X114587552Y-69424866D01*
X114635171Y-69472485D01*
X114730409Y-69520104D01*
X114968504Y-69520104D01*
X115063742Y-69472485D01*
X115111361Y-69424866D01*
X115158980Y-69329628D01*
X115158980Y-69043914D01*
X115111361Y-68948676D01*
X115063742Y-68901057D01*
%TO.C,D40*%
X248508980Y-67043914D02*
X247508980Y-67043914D01*
X247508980Y-67282009D01*
X247556600Y-67424866D01*
X247651838Y-67520104D01*
X247747076Y-67567723D01*
X247937552Y-67615342D01*
X248080409Y-67615342D01*
X248270885Y-67567723D01*
X248366123Y-67520104D01*
X248461361Y-67424866D01*
X248508980Y-67282009D01*
X248508980Y-67043914D01*
X247842314Y-68472485D02*
X248508980Y-68472485D01*
X247461361Y-68234390D02*
X248175647Y-67996295D01*
X248175647Y-68615342D01*
X247508980Y-69186771D02*
X247508980Y-69282009D01*
X247556600Y-69377247D01*
X247604219Y-69424866D01*
X247699457Y-69472485D01*
X247889933Y-69520104D01*
X248128028Y-69520104D01*
X248318504Y-69472485D01*
X248413742Y-69424866D01*
X248461361Y-69377247D01*
X248508980Y-69282009D01*
X248508980Y-69186771D01*
X248461361Y-69091533D01*
X248413742Y-69043914D01*
X248318504Y-68996295D01*
X248128028Y-68948676D01*
X247889933Y-68948676D01*
X247699457Y-68996295D01*
X247604219Y-69043914D01*
X247556600Y-69091533D01*
X247508980Y-69186771D01*
%TO.C,D54*%
X27057080Y-105141514D02*
X26057080Y-105141514D01*
X26057080Y-105379609D01*
X26104700Y-105522466D01*
X26199938Y-105617704D01*
X26295176Y-105665323D01*
X26485652Y-105712942D01*
X26628509Y-105712942D01*
X26818985Y-105665323D01*
X26914223Y-105617704D01*
X27009461Y-105522466D01*
X27057080Y-105379609D01*
X27057080Y-105141514D01*
X26057080Y-106617704D02*
X26057080Y-106141514D01*
X26533271Y-106093895D01*
X26485652Y-106141514D01*
X26438033Y-106236752D01*
X26438033Y-106474847D01*
X26485652Y-106570085D01*
X26533271Y-106617704D01*
X26628509Y-106665323D01*
X26866604Y-106665323D01*
X26961842Y-106617704D01*
X27009461Y-106570085D01*
X27057080Y-106474847D01*
X27057080Y-106236752D01*
X27009461Y-106141514D01*
X26961842Y-106093895D01*
X26390414Y-107522466D02*
X27057080Y-107522466D01*
X26009461Y-107284371D02*
X26723747Y-107046276D01*
X26723747Y-107665323D01*
%TO.C,D39*%
X229458980Y-67043914D02*
X228458980Y-67043914D01*
X228458980Y-67282009D01*
X228506600Y-67424866D01*
X228601838Y-67520104D01*
X228697076Y-67567723D01*
X228887552Y-67615342D01*
X229030409Y-67615342D01*
X229220885Y-67567723D01*
X229316123Y-67520104D01*
X229411361Y-67424866D01*
X229458980Y-67282009D01*
X229458980Y-67043914D01*
X228458980Y-67948676D02*
X228458980Y-68567723D01*
X228839933Y-68234390D01*
X228839933Y-68377247D01*
X228887552Y-68472485D01*
X228935171Y-68520104D01*
X229030409Y-68567723D01*
X229268504Y-68567723D01*
X229363742Y-68520104D01*
X229411361Y-68472485D01*
X229458980Y-68377247D01*
X229458980Y-68091533D01*
X229411361Y-67996295D01*
X229363742Y-67948676D01*
X229458980Y-69043914D02*
X229458980Y-69234390D01*
X229411361Y-69329628D01*
X229363742Y-69377247D01*
X229220885Y-69472485D01*
X229030409Y-69520104D01*
X228649457Y-69520104D01*
X228554219Y-69472485D01*
X228506600Y-69424866D01*
X228458980Y-69329628D01*
X228458980Y-69139152D01*
X228506600Y-69043914D01*
X228554219Y-68996295D01*
X228649457Y-68948676D01*
X228887552Y-68948676D01*
X228982790Y-68996295D01*
X229030409Y-69043914D01*
X229078028Y-69139152D01*
X229078028Y-69329628D01*
X229030409Y-69424866D01*
X228982790Y-69472485D01*
X228887552Y-69520104D01*
%TO.C,D29*%
X31817580Y-67044214D02*
X30817580Y-67044214D01*
X30817580Y-67282309D01*
X30865200Y-67425166D01*
X30960438Y-67520404D01*
X31055676Y-67568023D01*
X31246152Y-67615642D01*
X31389009Y-67615642D01*
X31579485Y-67568023D01*
X31674723Y-67520404D01*
X31769961Y-67425166D01*
X31817580Y-67282309D01*
X31817580Y-67044214D01*
X30912819Y-67996595D02*
X30865200Y-68044214D01*
X30817580Y-68139452D01*
X30817580Y-68377547D01*
X30865200Y-68472785D01*
X30912819Y-68520404D01*
X31008057Y-68568023D01*
X31103295Y-68568023D01*
X31246152Y-68520404D01*
X31817580Y-67948976D01*
X31817580Y-68568023D01*
X31817580Y-69044214D02*
X31817580Y-69234690D01*
X31769961Y-69329928D01*
X31722342Y-69377547D01*
X31579485Y-69472785D01*
X31389009Y-69520404D01*
X31008057Y-69520404D01*
X30912819Y-69472785D01*
X30865200Y-69425166D01*
X30817580Y-69329928D01*
X30817580Y-69139452D01*
X30865200Y-69044214D01*
X30912819Y-68996595D01*
X31008057Y-68948976D01*
X31246152Y-68948976D01*
X31341390Y-68996595D01*
X31389009Y-69044214D01*
X31436628Y-69139452D01*
X31436628Y-69329928D01*
X31389009Y-69425166D01*
X31341390Y-69472785D01*
X31246152Y-69520404D01*
%TO.C,D60*%
X265167080Y-105141514D02*
X264167080Y-105141514D01*
X264167080Y-105379609D01*
X264214700Y-105522466D01*
X264309938Y-105617704D01*
X264405176Y-105665323D01*
X264595652Y-105712942D01*
X264738509Y-105712942D01*
X264928985Y-105665323D01*
X265024223Y-105617704D01*
X265119461Y-105522466D01*
X265167080Y-105379609D01*
X265167080Y-105141514D01*
X264167080Y-106570085D02*
X264167080Y-106379609D01*
X264214700Y-106284371D01*
X264262319Y-106236752D01*
X264405176Y-106141514D01*
X264595652Y-106093895D01*
X264976604Y-106093895D01*
X265071842Y-106141514D01*
X265119461Y-106189133D01*
X265167080Y-106284371D01*
X265167080Y-106474847D01*
X265119461Y-106570085D01*
X265071842Y-106617704D01*
X264976604Y-106665323D01*
X264738509Y-106665323D01*
X264643271Y-106617704D01*
X264595652Y-106570085D01*
X264548033Y-106474847D01*
X264548033Y-106284371D01*
X264595652Y-106189133D01*
X264643271Y-106141514D01*
X264738509Y-106093895D01*
X264167080Y-107284371D02*
X264167080Y-107379609D01*
X264214700Y-107474847D01*
X264262319Y-107522466D01*
X264357557Y-107570085D01*
X264548033Y-107617704D01*
X264786128Y-107617704D01*
X264976604Y-107570085D01*
X265071842Y-107522466D01*
X265119461Y-107474847D01*
X265167080Y-107379609D01*
X265167080Y-107284371D01*
X265119461Y-107189133D01*
X265071842Y-107141514D01*
X264976604Y-107093895D01*
X264786128Y-107046276D01*
X264548033Y-107046276D01*
X264357557Y-107093895D01*
X264262319Y-107141514D01*
X264214700Y-107189133D01*
X264167080Y-107284371D01*
%TO.C,D37*%
X191358980Y-67043914D02*
X190358980Y-67043914D01*
X190358980Y-67282009D01*
X190406600Y-67424866D01*
X190501838Y-67520104D01*
X190597076Y-67567723D01*
X190787552Y-67615342D01*
X190930409Y-67615342D01*
X191120885Y-67567723D01*
X191216123Y-67520104D01*
X191311361Y-67424866D01*
X191358980Y-67282009D01*
X191358980Y-67043914D01*
X190358980Y-67948676D02*
X190358980Y-68567723D01*
X190739933Y-68234390D01*
X190739933Y-68377247D01*
X190787552Y-68472485D01*
X190835171Y-68520104D01*
X190930409Y-68567723D01*
X191168504Y-68567723D01*
X191263742Y-68520104D01*
X191311361Y-68472485D01*
X191358980Y-68377247D01*
X191358980Y-68091533D01*
X191311361Y-67996295D01*
X191263742Y-67948676D01*
X190358980Y-68901057D02*
X190358980Y-69567723D01*
X191358980Y-69139152D01*
%TO.C,D4*%
X81827380Y-29424404D02*
X80827380Y-29424404D01*
X80827380Y-29662500D01*
X80875000Y-29805357D01*
X80970238Y-29900595D01*
X81065476Y-29948214D01*
X81255952Y-29995833D01*
X81398809Y-29995833D01*
X81589285Y-29948214D01*
X81684523Y-29900595D01*
X81779761Y-29805357D01*
X81827380Y-29662500D01*
X81827380Y-29424404D01*
X81160714Y-30852976D02*
X81827380Y-30852976D01*
X80779761Y-30614880D02*
X81494047Y-30376785D01*
X81494047Y-30995833D01*
%TO.C,D14*%
X281852380Y-28948214D02*
X280852380Y-28948214D01*
X280852380Y-29186309D01*
X280900000Y-29329166D01*
X280995238Y-29424404D01*
X281090476Y-29472023D01*
X281280952Y-29519642D01*
X281423809Y-29519642D01*
X281614285Y-29472023D01*
X281709523Y-29424404D01*
X281804761Y-29329166D01*
X281852380Y-29186309D01*
X281852380Y-28948214D01*
X281852380Y-30472023D02*
X281852380Y-29900595D01*
X281852380Y-30186309D02*
X280852380Y-30186309D01*
X280995238Y-30091071D01*
X281090476Y-29995833D01*
X281138095Y-29900595D01*
X281185714Y-31329166D02*
X281852380Y-31329166D01*
X280804761Y-31091071D02*
X281519047Y-30852976D01*
X281519047Y-31472023D01*
%TO.C,D47*%
X143725980Y-86093014D02*
X142725980Y-86093014D01*
X142725980Y-86331109D01*
X142773600Y-86473966D01*
X142868838Y-86569204D01*
X142964076Y-86616823D01*
X143154552Y-86664442D01*
X143297409Y-86664442D01*
X143487885Y-86616823D01*
X143583123Y-86569204D01*
X143678361Y-86473966D01*
X143725980Y-86331109D01*
X143725980Y-86093014D01*
X143059314Y-87521585D02*
X143725980Y-87521585D01*
X142678361Y-87283490D02*
X143392647Y-87045395D01*
X143392647Y-87664442D01*
X142725980Y-87950157D02*
X142725980Y-88616823D01*
X143725980Y-88188252D01*
%TO.C,D12*%
X234227380Y-28948214D02*
X233227380Y-28948214D01*
X233227380Y-29186309D01*
X233275000Y-29329166D01*
X233370238Y-29424404D01*
X233465476Y-29472023D01*
X233655952Y-29519642D01*
X233798809Y-29519642D01*
X233989285Y-29472023D01*
X234084523Y-29424404D01*
X234179761Y-29329166D01*
X234227380Y-29186309D01*
X234227380Y-28948214D01*
X234227380Y-30472023D02*
X234227380Y-29900595D01*
X234227380Y-30186309D02*
X233227380Y-30186309D01*
X233370238Y-30091071D01*
X233465476Y-29995833D01*
X233513095Y-29900595D01*
X233322619Y-30852976D02*
X233275000Y-30900595D01*
X233227380Y-30995833D01*
X233227380Y-31233928D01*
X233275000Y-31329166D01*
X233322619Y-31376785D01*
X233417857Y-31424404D01*
X233513095Y-31424404D01*
X233655952Y-31376785D01*
X234227380Y-30805357D01*
X234227380Y-31424404D01*
%TO.C,D57*%
X146111880Y-105141814D02*
X145111880Y-105141814D01*
X145111880Y-105379909D01*
X145159500Y-105522766D01*
X145254738Y-105618004D01*
X145349976Y-105665623D01*
X145540452Y-105713242D01*
X145683309Y-105713242D01*
X145873785Y-105665623D01*
X145969023Y-105618004D01*
X146064261Y-105522766D01*
X146111880Y-105379909D01*
X146111880Y-105141814D01*
X145111880Y-106618004D02*
X145111880Y-106141814D01*
X145588071Y-106094195D01*
X145540452Y-106141814D01*
X145492833Y-106237052D01*
X145492833Y-106475147D01*
X145540452Y-106570385D01*
X145588071Y-106618004D01*
X145683309Y-106665623D01*
X145921404Y-106665623D01*
X146016642Y-106618004D01*
X146064261Y-106570385D01*
X146111880Y-106475147D01*
X146111880Y-106237052D01*
X146064261Y-106141814D01*
X146016642Y-106094195D01*
X145111880Y-106998957D02*
X145111880Y-107665623D01*
X146111880Y-107237052D01*
%TO.C,D59*%
X241354580Y-105204014D02*
X240354580Y-105204014D01*
X240354580Y-105442109D01*
X240402200Y-105584966D01*
X240497438Y-105680204D01*
X240592676Y-105727823D01*
X240783152Y-105775442D01*
X240926009Y-105775442D01*
X241116485Y-105727823D01*
X241211723Y-105680204D01*
X241306961Y-105584966D01*
X241354580Y-105442109D01*
X241354580Y-105204014D01*
X240354580Y-106680204D02*
X240354580Y-106204014D01*
X240830771Y-106156395D01*
X240783152Y-106204014D01*
X240735533Y-106299252D01*
X240735533Y-106537347D01*
X240783152Y-106632585D01*
X240830771Y-106680204D01*
X240926009Y-106727823D01*
X241164104Y-106727823D01*
X241259342Y-106680204D01*
X241306961Y-106632585D01*
X241354580Y-106537347D01*
X241354580Y-106299252D01*
X241306961Y-106204014D01*
X241259342Y-106156395D01*
X241354580Y-107204014D02*
X241354580Y-107394490D01*
X241306961Y-107489728D01*
X241259342Y-107537347D01*
X241116485Y-107632585D01*
X240926009Y-107680204D01*
X240545057Y-107680204D01*
X240449819Y-107632585D01*
X240402200Y-107584966D01*
X240354580Y-107489728D01*
X240354580Y-107299252D01*
X240402200Y-107204014D01*
X240449819Y-107156395D01*
X240545057Y-107108776D01*
X240783152Y-107108776D01*
X240878390Y-107156395D01*
X240926009Y-107204014D01*
X240973628Y-107299252D01*
X240973628Y-107489728D01*
X240926009Y-107584966D01*
X240878390Y-107632585D01*
X240783152Y-107680204D01*
%TO.C,D30*%
X58011180Y-67044214D02*
X57011180Y-67044214D01*
X57011180Y-67282309D01*
X57058800Y-67425166D01*
X57154038Y-67520404D01*
X57249276Y-67568023D01*
X57439752Y-67615642D01*
X57582609Y-67615642D01*
X57773085Y-67568023D01*
X57868323Y-67520404D01*
X57963561Y-67425166D01*
X58011180Y-67282309D01*
X58011180Y-67044214D01*
X57011180Y-67948976D02*
X57011180Y-68568023D01*
X57392133Y-68234690D01*
X57392133Y-68377547D01*
X57439752Y-68472785D01*
X57487371Y-68520404D01*
X57582609Y-68568023D01*
X57820704Y-68568023D01*
X57915942Y-68520404D01*
X57963561Y-68472785D01*
X58011180Y-68377547D01*
X58011180Y-68091833D01*
X57963561Y-67996595D01*
X57915942Y-67948976D01*
X57011180Y-69187071D02*
X57011180Y-69282309D01*
X57058800Y-69377547D01*
X57106419Y-69425166D01*
X57201657Y-69472785D01*
X57392133Y-69520404D01*
X57630228Y-69520404D01*
X57820704Y-69472785D01*
X57915942Y-69425166D01*
X57963561Y-69377547D01*
X58011180Y-69282309D01*
X58011180Y-69187071D01*
X57963561Y-69091833D01*
X57915942Y-69044214D01*
X57820704Y-68996595D01*
X57630228Y-68948976D01*
X57392133Y-68948976D01*
X57201657Y-68996595D01*
X57106419Y-69044214D01*
X57058800Y-69091833D01*
X57011180Y-69187071D01*
%TO.C,D53*%
X274698880Y-86006214D02*
X273698880Y-86006214D01*
X273698880Y-86244309D01*
X273746500Y-86387166D01*
X273841738Y-86482404D01*
X273936976Y-86530023D01*
X274127452Y-86577642D01*
X274270309Y-86577642D01*
X274460785Y-86530023D01*
X274556023Y-86482404D01*
X274651261Y-86387166D01*
X274698880Y-86244309D01*
X274698880Y-86006214D01*
X273698880Y-87482404D02*
X273698880Y-87006214D01*
X274175071Y-86958595D01*
X274127452Y-87006214D01*
X274079833Y-87101452D01*
X274079833Y-87339547D01*
X274127452Y-87434785D01*
X274175071Y-87482404D01*
X274270309Y-87530023D01*
X274508404Y-87530023D01*
X274603642Y-87482404D01*
X274651261Y-87434785D01*
X274698880Y-87339547D01*
X274698880Y-87101452D01*
X274651261Y-87006214D01*
X274603642Y-86958595D01*
X273698880Y-87863357D02*
X273698880Y-88482404D01*
X274079833Y-88149071D01*
X274079833Y-88291928D01*
X274127452Y-88387166D01*
X274175071Y-88434785D01*
X274270309Y-88482404D01*
X274508404Y-88482404D01*
X274603642Y-88434785D01*
X274651261Y-88387166D01*
X274698880Y-88291928D01*
X274698880Y-88006214D01*
X274651261Y-87910976D01*
X274603642Y-87863357D01*
%TO.C,D9*%
X177077380Y-29424404D02*
X176077380Y-29424404D01*
X176077380Y-29662500D01*
X176125000Y-29805357D01*
X176220238Y-29900595D01*
X176315476Y-29948214D01*
X176505952Y-29995833D01*
X176648809Y-29995833D01*
X176839285Y-29948214D01*
X176934523Y-29900595D01*
X177029761Y-29805357D01*
X177077380Y-29662500D01*
X177077380Y-29424404D01*
X177077380Y-30472023D02*
X177077380Y-30662500D01*
X177029761Y-30757738D01*
X176982142Y-30805357D01*
X176839285Y-30900595D01*
X176648809Y-30948214D01*
X176267857Y-30948214D01*
X176172619Y-30900595D01*
X176125000Y-30852976D01*
X176077380Y-30757738D01*
X176077380Y-30567261D01*
X176125000Y-30472023D01*
X176172619Y-30424404D01*
X176267857Y-30376785D01*
X176505952Y-30376785D01*
X176601190Y-30424404D01*
X176648809Y-30472023D01*
X176696428Y-30567261D01*
X176696428Y-30757738D01*
X176648809Y-30852976D01*
X176601190Y-30900595D01*
X176505952Y-30948214D01*
%TO.C,D51*%
X219925980Y-86030514D02*
X218925980Y-86030514D01*
X218925980Y-86268609D01*
X218973600Y-86411466D01*
X219068838Y-86506704D01*
X219164076Y-86554323D01*
X219354552Y-86601942D01*
X219497409Y-86601942D01*
X219687885Y-86554323D01*
X219783123Y-86506704D01*
X219878361Y-86411466D01*
X219925980Y-86268609D01*
X219925980Y-86030514D01*
X218925980Y-87506704D02*
X218925980Y-87030514D01*
X219402171Y-86982895D01*
X219354552Y-87030514D01*
X219306933Y-87125752D01*
X219306933Y-87363847D01*
X219354552Y-87459085D01*
X219402171Y-87506704D01*
X219497409Y-87554323D01*
X219735504Y-87554323D01*
X219830742Y-87506704D01*
X219878361Y-87459085D01*
X219925980Y-87363847D01*
X219925980Y-87125752D01*
X219878361Y-87030514D01*
X219830742Y-86982895D01*
X219925980Y-88506704D02*
X219925980Y-87935276D01*
X219925980Y-88220990D02*
X218925980Y-88220990D01*
X219068838Y-88125752D01*
X219164076Y-88030514D01*
X219211695Y-87935276D01*
%TO.C,D58*%
X217544880Y-105141814D02*
X216544880Y-105141814D01*
X216544880Y-105379909D01*
X216592500Y-105522766D01*
X216687738Y-105618004D01*
X216782976Y-105665623D01*
X216973452Y-105713242D01*
X217116309Y-105713242D01*
X217306785Y-105665623D01*
X217402023Y-105618004D01*
X217497261Y-105522766D01*
X217544880Y-105379909D01*
X217544880Y-105141814D01*
X216544880Y-106618004D02*
X216544880Y-106141814D01*
X217021071Y-106094195D01*
X216973452Y-106141814D01*
X216925833Y-106237052D01*
X216925833Y-106475147D01*
X216973452Y-106570385D01*
X217021071Y-106618004D01*
X217116309Y-106665623D01*
X217354404Y-106665623D01*
X217449642Y-106618004D01*
X217497261Y-106570385D01*
X217544880Y-106475147D01*
X217544880Y-106237052D01*
X217497261Y-106141814D01*
X217449642Y-106094195D01*
X216973452Y-107237052D02*
X216925833Y-107141814D01*
X216878214Y-107094195D01*
X216782976Y-107046576D01*
X216735357Y-107046576D01*
X216640119Y-107094195D01*
X216592500Y-107141814D01*
X216544880Y-107237052D01*
X216544880Y-107427528D01*
X216592500Y-107522766D01*
X216640119Y-107570385D01*
X216735357Y-107618004D01*
X216782976Y-107618004D01*
X216878214Y-107570385D01*
X216925833Y-107522766D01*
X216973452Y-107427528D01*
X216973452Y-107237052D01*
X217021071Y-107141814D01*
X217068690Y-107094195D01*
X217163928Y-107046576D01*
X217354404Y-107046576D01*
X217449642Y-107094195D01*
X217497261Y-107141814D01*
X217544880Y-107237052D01*
X217544880Y-107427528D01*
X217497261Y-107522766D01*
X217449642Y-107570385D01*
X217354404Y-107618004D01*
X217163928Y-107618004D01*
X217068690Y-107570385D01*
X217021071Y-107522766D01*
X216973452Y-107427528D01*
%TO.C,D36*%
X172308980Y-67043914D02*
X171308980Y-67043914D01*
X171308980Y-67282009D01*
X171356600Y-67424866D01*
X171451838Y-67520104D01*
X171547076Y-67567723D01*
X171737552Y-67615342D01*
X171880409Y-67615342D01*
X172070885Y-67567723D01*
X172166123Y-67520104D01*
X172261361Y-67424866D01*
X172308980Y-67282009D01*
X172308980Y-67043914D01*
X171308980Y-67948676D02*
X171308980Y-68567723D01*
X171689933Y-68234390D01*
X171689933Y-68377247D01*
X171737552Y-68472485D01*
X171785171Y-68520104D01*
X171880409Y-68567723D01*
X172118504Y-68567723D01*
X172213742Y-68520104D01*
X172261361Y-68472485D01*
X172308980Y-68377247D01*
X172308980Y-68091533D01*
X172261361Y-67996295D01*
X172213742Y-67948676D01*
X171308980Y-69424866D02*
X171308980Y-69234390D01*
X171356600Y-69139152D01*
X171404219Y-69091533D01*
X171547076Y-68996295D01*
X171737552Y-68948676D01*
X172118504Y-68948676D01*
X172213742Y-68996295D01*
X172261361Y-69043914D01*
X172308980Y-69139152D01*
X172308980Y-69329628D01*
X172261361Y-69424866D01*
X172213742Y-69472485D01*
X172118504Y-69520104D01*
X171880409Y-69520104D01*
X171785171Y-69472485D01*
X171737552Y-69424866D01*
X171689933Y-69329628D01*
X171689933Y-69139152D01*
X171737552Y-69043914D01*
X171785171Y-68996295D01*
X171880409Y-68948676D01*
%TO.C,D7*%
X138977380Y-29424404D02*
X137977380Y-29424404D01*
X137977380Y-29662500D01*
X138025000Y-29805357D01*
X138120238Y-29900595D01*
X138215476Y-29948214D01*
X138405952Y-29995833D01*
X138548809Y-29995833D01*
X138739285Y-29948214D01*
X138834523Y-29900595D01*
X138929761Y-29805357D01*
X138977380Y-29662500D01*
X138977380Y-29424404D01*
X137977380Y-30329166D02*
X137977380Y-30995833D01*
X138977380Y-30567261D01*
%TO.C,D43*%
X67535580Y-86030514D02*
X66535580Y-86030514D01*
X66535580Y-86268609D01*
X66583200Y-86411466D01*
X66678438Y-86506704D01*
X66773676Y-86554323D01*
X66964152Y-86601942D01*
X67107009Y-86601942D01*
X67297485Y-86554323D01*
X67392723Y-86506704D01*
X67487961Y-86411466D01*
X67535580Y-86268609D01*
X67535580Y-86030514D01*
X66868914Y-87459085D02*
X67535580Y-87459085D01*
X66487961Y-87220990D02*
X67202247Y-86982895D01*
X67202247Y-87601942D01*
X66535580Y-87887657D02*
X66535580Y-88506704D01*
X66916533Y-88173371D01*
X66916533Y-88316228D01*
X66964152Y-88411466D01*
X67011771Y-88459085D01*
X67107009Y-88506704D01*
X67345104Y-88506704D01*
X67440342Y-88459085D01*
X67487961Y-88411466D01*
X67535580Y-88316228D01*
X67535580Y-88030514D01*
X67487961Y-87935276D01*
X67440342Y-87887657D01*
%TO.C,D32*%
X96108980Y-67043914D02*
X95108980Y-67043914D01*
X95108980Y-67282009D01*
X95156600Y-67424866D01*
X95251838Y-67520104D01*
X95347076Y-67567723D01*
X95537552Y-67615342D01*
X95680409Y-67615342D01*
X95870885Y-67567723D01*
X95966123Y-67520104D01*
X96061361Y-67424866D01*
X96108980Y-67282009D01*
X96108980Y-67043914D01*
X95108980Y-67948676D02*
X95108980Y-68567723D01*
X95489933Y-68234390D01*
X95489933Y-68377247D01*
X95537552Y-68472485D01*
X95585171Y-68520104D01*
X95680409Y-68567723D01*
X95918504Y-68567723D01*
X96013742Y-68520104D01*
X96061361Y-68472485D01*
X96108980Y-68377247D01*
X96108980Y-68091533D01*
X96061361Y-67996295D01*
X96013742Y-67948676D01*
X95204219Y-68948676D02*
X95156600Y-68996295D01*
X95108980Y-69091533D01*
X95108980Y-69329628D01*
X95156600Y-69424866D01*
X95204219Y-69472485D01*
X95299457Y-69520104D01*
X95394695Y-69520104D01*
X95537552Y-69472485D01*
X96108980Y-68901057D01*
X96108980Y-69520104D01*
D11*
%TO.C,D61*%
X287527200Y-108668300D02*
X285527200Y-108668300D01*
X287527200Y-108668300D02*
X287527200Y-104768300D01*
X285527200Y-108668300D02*
X285527200Y-104768300D01*
%TO.C,D19*%
X108945600Y-51459400D02*
X108945600Y-47559400D01*
X108945600Y-51459400D02*
X106945600Y-51459400D01*
X106945600Y-51459400D02*
X106945600Y-47559400D01*
%TO.C,D5*%
X97425000Y-32412500D02*
X97425000Y-28512500D01*
X99425000Y-32412500D02*
X99425000Y-28512500D01*
X99425000Y-32412500D02*
X97425000Y-32412500D01*
%TO.C,D16*%
X51796600Y-51459700D02*
X49796600Y-51459700D01*
X49796600Y-51459700D02*
X49796600Y-47559700D01*
X51796600Y-51459700D02*
X51796600Y-47559700D01*
%TO.C,D52*%
X235522400Y-89557300D02*
X235522400Y-85657300D01*
X237522400Y-89557300D02*
X235522400Y-89557300D01*
X237522400Y-89557300D02*
X237522400Y-85657300D01*
%TO.C,D8*%
X156575000Y-32412500D02*
X156575000Y-28512500D01*
X156575000Y-32412500D02*
X154575000Y-32412500D01*
X154575000Y-32412500D02*
X154575000Y-28512500D01*
%TO.C,D44*%
X85132200Y-89557000D02*
X83132200Y-89557000D01*
X83132200Y-89557000D02*
X83132200Y-85657000D01*
X85132200Y-89557000D02*
X85132200Y-85657000D01*
%TO.C,D22*%
X164095600Y-51459400D02*
X164095600Y-47559400D01*
X166095600Y-51459400D02*
X166095600Y-47559400D01*
X166095600Y-51459400D02*
X164095600Y-51459400D01*
%TO.C,D42*%
X33129100Y-89557000D02*
X33129100Y-85657000D01*
X35129100Y-89557000D02*
X33129100Y-89557000D01*
X35129100Y-89557000D02*
X35129100Y-85657000D01*
%TO.C,D25*%
X223245600Y-51459400D02*
X221245600Y-51459400D01*
X221245600Y-51459400D02*
X221245600Y-47559400D01*
X223245600Y-51459400D02*
X223245600Y-47559400D01*
%TO.C,D24*%
X202195600Y-51459400D02*
X202195600Y-47559400D01*
X204195600Y-51459400D02*
X202195600Y-51459400D01*
X204195600Y-51459400D02*
X204195600Y-47559400D01*
%TO.C,D50*%
X197423600Y-89557300D02*
X197423600Y-85657300D01*
X199423600Y-89557300D02*
X199423600Y-85657300D01*
X199423600Y-89557300D02*
X197423600Y-89557300D01*
%TO.C,D45*%
X104180800Y-89557300D02*
X104180800Y-85657300D01*
X104180800Y-89557300D02*
X102180800Y-89557300D01*
X102180800Y-89557300D02*
X102180800Y-85657300D01*
%TO.C,D34*%
X130756600Y-70508200D02*
X130756600Y-66608200D01*
X132756600Y-70508200D02*
X132756600Y-66608200D01*
X132756600Y-70508200D02*
X130756600Y-70508200D01*
%TO.C,D41*%
X278001300Y-70508200D02*
X278001300Y-66608200D01*
X276001300Y-70508200D02*
X276001300Y-66608200D01*
X278001300Y-70508200D02*
X276001300Y-70508200D01*
%TO.C,D18*%
X89895600Y-51459400D02*
X87895600Y-51459400D01*
X87895600Y-51459400D02*
X87895600Y-47559400D01*
X89895600Y-51459400D02*
X89895600Y-47559400D01*
%TO.C,D2*%
X40275000Y-32412500D02*
X40275000Y-28512500D01*
X42275000Y-32412500D02*
X42275000Y-28512500D01*
X42275000Y-32412500D02*
X40275000Y-32412500D01*
%TO.C,D3*%
X61325000Y-32412500D02*
X61325000Y-28512500D01*
X59325000Y-32412500D02*
X59325000Y-28512500D01*
X61325000Y-32412500D02*
X59325000Y-32412500D01*
%TO.C,D55*%
X47415500Y-108606100D02*
X47415500Y-104706100D01*
X49415500Y-108606100D02*
X49415500Y-104706100D01*
X49415500Y-108606100D02*
X47415500Y-108606100D01*
%TO.C,D11*%
X213725000Y-32412500D02*
X213725000Y-28512500D01*
X213725000Y-32412500D02*
X211725000Y-32412500D01*
X211725000Y-32412500D02*
X211725000Y-28512500D01*
%TO.C,D13*%
X251825000Y-32412500D02*
X249825000Y-32412500D01*
X251825000Y-32412500D02*
X251825000Y-28512500D01*
X249825000Y-32412500D02*
X249825000Y-28512500D01*
%TO.C,D15*%
X25985600Y-51459700D02*
X25985600Y-47559700D01*
X27985600Y-51459700D02*
X25985600Y-51459700D01*
X27985600Y-51459700D02*
X27985600Y-47559700D01*
%TO.C,D49*%
X178373600Y-89557300D02*
X178373600Y-85657300D01*
X180373600Y-89557300D02*
X180373600Y-85657300D01*
X180373600Y-89557300D02*
X178373600Y-89557300D01*
%TO.C,D31*%
X73607600Y-70508500D02*
X73607600Y-66608500D01*
X75607600Y-70508500D02*
X75607600Y-66608500D01*
X75607600Y-70508500D02*
X73607600Y-70508500D01*
%TO.C,D38*%
X208956600Y-70508200D02*
X208956600Y-66608200D01*
X208956600Y-70508200D02*
X206956600Y-70508200D01*
X206956600Y-70508200D02*
X206956600Y-66608200D01*
%TO.C,D26*%
X242295600Y-51459400D02*
X240295600Y-51459400D01*
X242295600Y-51459400D02*
X242295600Y-47559400D01*
X240295600Y-51459400D02*
X240295600Y-47559400D01*
%TO.C,D46*%
X123223600Y-89557300D02*
X121223600Y-89557300D01*
X123223600Y-89557300D02*
X123223600Y-85657300D01*
X121223600Y-89557300D02*
X121223600Y-85657300D01*
%TO.C,D35*%
X151806600Y-70508200D02*
X151806600Y-66608200D01*
X151806600Y-70508200D02*
X149806600Y-70508200D01*
X149806600Y-70508200D02*
X149806600Y-66608200D01*
%TO.C,D17*%
X68845600Y-51459400D02*
X68845600Y-47559400D01*
X70845600Y-51459400D02*
X68845600Y-51459400D01*
X70845600Y-51459400D02*
X70845600Y-47559400D01*
%TO.C,D10*%
X194675000Y-32412500D02*
X194675000Y-28512500D01*
X192675000Y-32412500D02*
X192675000Y-28512500D01*
X194675000Y-32412500D02*
X192675000Y-32412500D01*
%TO.C,D20*%
X127995600Y-51459400D02*
X127995600Y-47559400D01*
X125995600Y-51459400D02*
X125995600Y-47559400D01*
X127995600Y-51459400D02*
X125995600Y-51459400D01*
%TO.C,D21*%
X147045600Y-51459400D02*
X147045600Y-47559400D01*
X145045600Y-51459400D02*
X145045600Y-47559400D01*
X147045600Y-51459400D02*
X145045600Y-51459400D01*
%TO.C,D1*%
X21225000Y-32412500D02*
X21225000Y-28512500D01*
X23225000Y-32412500D02*
X23225000Y-28512500D01*
X23225000Y-32412500D02*
X21225000Y-32412500D01*
%TO.C,D27*%
X261333600Y-51459400D02*
X261333600Y-47559400D01*
X259333600Y-51459400D02*
X259333600Y-47559400D01*
X261333600Y-51459400D02*
X259333600Y-51459400D01*
%TO.C,D48*%
X159323600Y-89494800D02*
X159323600Y-85594800D01*
X161323600Y-89494800D02*
X161323600Y-85594800D01*
X161323600Y-89494800D02*
X159323600Y-89494800D01*
%TO.C,D23*%
X183145600Y-51459400D02*
X183145600Y-47559400D01*
X185145600Y-51459400D02*
X183145600Y-51459400D01*
X185145600Y-51459400D02*
X185145600Y-47559400D01*
%TO.C,D56*%
X73226500Y-108606100D02*
X71226500Y-108606100D01*
X73226500Y-108606100D02*
X73226500Y-104706100D01*
X71226500Y-108606100D02*
X71226500Y-104706100D01*
%TO.C,D28*%
X283144600Y-51459400D02*
X283144600Y-47559400D01*
X285144600Y-51459400D02*
X283144600Y-51459400D01*
X285144600Y-51459400D02*
X285144600Y-47559400D01*
%TO.C,D6*%
X118475000Y-32412500D02*
X116475000Y-32412500D01*
X116475000Y-32412500D02*
X116475000Y-28512500D01*
X118475000Y-32412500D02*
X118475000Y-28512500D01*
%TO.C,D33*%
X111706600Y-70508200D02*
X111706600Y-66608200D01*
X113706600Y-70508200D02*
X111706600Y-70508200D01*
X113706600Y-70508200D02*
X113706600Y-66608200D01*
%TO.C,D40*%
X245056600Y-70508200D02*
X245056600Y-66608200D01*
X247056600Y-70508200D02*
X247056600Y-66608200D01*
X247056600Y-70508200D02*
X245056600Y-70508200D01*
%TO.C,D54*%
X23604700Y-108605800D02*
X23604700Y-104705800D01*
X25604700Y-108605800D02*
X25604700Y-104705800D01*
X25604700Y-108605800D02*
X23604700Y-108605800D01*
%TO.C,D39*%
X228006600Y-70508200D02*
X228006600Y-66608200D01*
X226006600Y-70508200D02*
X226006600Y-66608200D01*
X228006600Y-70508200D02*
X226006600Y-70508200D01*
%TO.C,D29*%
X28365200Y-70508500D02*
X28365200Y-66608500D01*
X30365200Y-70508500D02*
X30365200Y-66608500D01*
X30365200Y-70508500D02*
X28365200Y-70508500D01*
%TO.C,D60*%
X261714700Y-108605800D02*
X261714700Y-104705800D01*
X263714700Y-108605800D02*
X261714700Y-108605800D01*
X263714700Y-108605800D02*
X263714700Y-104705800D01*
%TO.C,D37*%
X189906600Y-70508200D02*
X189906600Y-66608200D01*
X187906600Y-70508200D02*
X187906600Y-66608200D01*
X189906600Y-70508200D02*
X187906600Y-70508200D01*
%TO.C,D4*%
X80375000Y-32412500D02*
X80375000Y-28512500D01*
X80375000Y-32412500D02*
X78375000Y-32412500D01*
X78375000Y-32412500D02*
X78375000Y-28512500D01*
%TO.C,D14*%
X280400000Y-32412500D02*
X280400000Y-28512500D01*
X278400000Y-32412500D02*
X278400000Y-28512500D01*
X280400000Y-32412500D02*
X278400000Y-32412500D01*
%TO.C,D47*%
X142273600Y-89557300D02*
X142273600Y-85657300D01*
X142273600Y-89557300D02*
X140273600Y-89557300D01*
X140273600Y-89557300D02*
X140273600Y-85657300D01*
%TO.C,D12*%
X230775000Y-32412500D02*
X230775000Y-28512500D01*
X232775000Y-32412500D02*
X232775000Y-28512500D01*
X232775000Y-32412500D02*
X230775000Y-32412500D01*
%TO.C,D57*%
X144659500Y-108606100D02*
X144659500Y-104706100D01*
X142659500Y-108606100D02*
X142659500Y-104706100D01*
X144659500Y-108606100D02*
X142659500Y-108606100D01*
%TO.C,D59*%
X237902200Y-108668300D02*
X237902200Y-104768300D01*
X239902200Y-108668300D02*
X239902200Y-104768300D01*
X239902200Y-108668300D02*
X237902200Y-108668300D01*
%TO.C,D30*%
X54558800Y-70508500D02*
X54558800Y-66608500D01*
X56558800Y-70508500D02*
X54558800Y-70508500D01*
X56558800Y-70508500D02*
X56558800Y-66608500D01*
%TO.C,D53*%
X273246500Y-89470500D02*
X271246500Y-89470500D01*
X271246500Y-89470500D02*
X271246500Y-85570500D01*
X273246500Y-89470500D02*
X273246500Y-85570500D01*
%TO.C,D9*%
X175625000Y-32412500D02*
X173625000Y-32412500D01*
X175625000Y-32412500D02*
X175625000Y-28512500D01*
X173625000Y-32412500D02*
X173625000Y-28512500D01*
%TO.C,D51*%
X216473600Y-89494800D02*
X216473600Y-85594800D01*
X218473600Y-89494800D02*
X218473600Y-85594800D01*
X218473600Y-89494800D02*
X216473600Y-89494800D01*
%TO.C,D58*%
X216092500Y-108606100D02*
X214092500Y-108606100D01*
X216092500Y-108606100D02*
X216092500Y-104706100D01*
X214092500Y-108606100D02*
X214092500Y-104706100D01*
%TO.C,D36*%
X170856600Y-70508200D02*
X168856600Y-70508200D01*
X168856600Y-70508200D02*
X168856600Y-66608200D01*
X170856600Y-70508200D02*
X170856600Y-66608200D01*
%TO.C,D7*%
X137525000Y-32412500D02*
X135525000Y-32412500D01*
X135525000Y-32412500D02*
X135525000Y-28512500D01*
X137525000Y-32412500D02*
X137525000Y-28512500D01*
%TO.C,D43*%
X66083200Y-89494800D02*
X64083200Y-89494800D01*
X66083200Y-89494800D02*
X66083200Y-85594800D01*
X64083200Y-89494800D02*
X64083200Y-85594800D01*
%TO.C,D32*%
X92656600Y-70508200D02*
X92656600Y-66608200D01*
X94656600Y-70508200D02*
X92656600Y-70508200D01*
X94656600Y-70508200D02*
X94656600Y-66608200D01*
%TD*%
M02*
