%TF.GenerationSoftware,KiCad,Pcbnew,6.0.6-3a73a75311~116~ubuntu21.10.1*%
%TF.CreationDate,2022-10-26T18:33:10+02:00*%
%TF.ProjectId,Keyboard,4b657962-6f61-4726-942e-6b696361645f,rev?*%
%TF.SameCoordinates,Original*%
%TF.FileFunction,Legend,Top*%
%TF.FilePolarity,Positive*%
%FSLAX46Y46*%
G04 Gerber Fmt 4.6, Leading zero omitted, Abs format (unit mm)*
G04 Created by KiCad (PCBNEW 6.0.6-3a73a75311~116~ubuntu21.10.1) date 2022-10-26 18:33:10*
%MOMM*%
%LPD*%
G01*
G04 APERTURE LIST*
%ADD10C,0.150000*%
%ADD11C,0.120000*%
G04 APERTURE END LIST*
D10*
%TO.C,U1*%
X99433380Y-66957304D02*
X100242904Y-66957304D01*
X100338142Y-66909685D01*
X100385761Y-66862066D01*
X100433380Y-66766828D01*
X100433380Y-66576352D01*
X100385761Y-66481114D01*
X100338142Y-66433495D01*
X100242904Y-66385876D01*
X99433380Y-66385876D01*
X100433380Y-65385876D02*
X100433380Y-65957304D01*
X100433380Y-65671590D02*
X99433380Y-65671590D01*
X99576238Y-65766828D01*
X99671476Y-65862066D01*
X99719095Y-65957304D01*
X96292218Y-79682303D02*
X96319155Y-79763115D01*
X96399967Y-79843928D01*
X96507717Y-79897802D01*
X96615467Y-79897802D01*
X96696279Y-79870865D01*
X96830966Y-79790053D01*
X96911778Y-79709241D01*
X96992590Y-79574554D01*
X97019528Y-79493741D01*
X97019528Y-79385992D01*
X96965653Y-79278242D01*
X96911778Y-79224367D01*
X96804028Y-79170493D01*
X96750154Y-79170493D01*
X96561592Y-79359054D01*
X96669341Y-79466804D01*
X96561592Y-78874181D02*
X95995906Y-79439867D01*
X95780407Y-79224367D01*
X95753470Y-79143555D01*
X95753470Y-79089680D01*
X95780407Y-79008868D01*
X95861219Y-78928056D01*
X95942032Y-78901119D01*
X95995906Y-78901119D01*
X96076719Y-78928056D01*
X96292218Y-79143555D01*
X95187784Y-78631745D02*
X95295534Y-78739494D01*
X95376346Y-78766432D01*
X95430221Y-78766432D01*
X95564908Y-78739494D01*
X95699595Y-78658682D01*
X95915094Y-78443183D01*
X95942032Y-78362371D01*
X95942032Y-78308496D01*
X95915094Y-78227684D01*
X95807345Y-78119934D01*
X95726532Y-78092997D01*
X95672658Y-78092997D01*
X95591845Y-78119934D01*
X95457158Y-78254621D01*
X95430221Y-78335433D01*
X95430221Y-78389308D01*
X95457158Y-78470120D01*
X95564908Y-78577870D01*
X95645720Y-78604807D01*
X95699595Y-78604807D01*
X95780407Y-78577870D01*
X121961592Y-54097677D02*
X121988529Y-54178489D01*
X122069341Y-54259302D01*
X122177091Y-54313176D01*
X122284841Y-54313176D01*
X122365653Y-54286239D01*
X122500340Y-54205427D01*
X122581152Y-54124615D01*
X122661964Y-53989928D01*
X122688902Y-53909115D01*
X122688902Y-53801366D01*
X122635027Y-53693616D01*
X122581152Y-53639741D01*
X122473402Y-53585867D01*
X122419528Y-53585867D01*
X122230966Y-53774428D01*
X122338715Y-53882178D01*
X122230966Y-53289555D02*
X121665280Y-53855241D01*
X121449781Y-53639741D01*
X121422844Y-53558929D01*
X121422844Y-53505054D01*
X121449781Y-53424242D01*
X121530593Y-53343430D01*
X121611406Y-53316493D01*
X121665280Y-53316493D01*
X121746093Y-53343430D01*
X121961592Y-53558929D01*
X121368969Y-52427558D02*
X121692218Y-52750807D01*
X121530593Y-52589183D02*
X120964908Y-53154868D01*
X121099595Y-53127931D01*
X121207345Y-53127931D01*
X121288157Y-53154868D01*
X120614722Y-52804682D02*
X120237598Y-52427558D01*
X121045720Y-52104310D01*
X75972218Y-79682303D02*
X75999155Y-79763115D01*
X76079967Y-79843928D01*
X76187717Y-79897802D01*
X76295467Y-79897802D01*
X76376279Y-79870865D01*
X76510966Y-79790053D01*
X76591778Y-79709241D01*
X76672590Y-79574554D01*
X76699528Y-79493741D01*
X76699528Y-79385992D01*
X76645653Y-79278242D01*
X76591778Y-79224367D01*
X76484028Y-79170493D01*
X76430154Y-79170493D01*
X76241592Y-79359054D01*
X76349341Y-79466804D01*
X76241592Y-78874181D02*
X75675906Y-79439867D01*
X75460407Y-79224367D01*
X75433470Y-79143555D01*
X75433470Y-79089680D01*
X75460407Y-79008868D01*
X75541219Y-78928056D01*
X75622032Y-78901119D01*
X75675906Y-78901119D01*
X75756719Y-78928056D01*
X75972218Y-79143555D01*
X75002471Y-78766432D02*
X74948597Y-78712557D01*
X74921659Y-78631745D01*
X74921659Y-78577870D01*
X74948597Y-78497058D01*
X75029409Y-78362371D01*
X75164096Y-78227684D01*
X75298783Y-78146871D01*
X75379595Y-78119934D01*
X75433470Y-78119934D01*
X75514282Y-78146871D01*
X75568157Y-78200746D01*
X75595094Y-78281558D01*
X75595094Y-78335433D01*
X75568157Y-78416245D01*
X75487345Y-78550932D01*
X75352658Y-78685619D01*
X75217971Y-78766432D01*
X75137158Y-78793369D01*
X75083284Y-78793369D01*
X75002471Y-78766432D01*
X81079155Y-79709241D02*
X81106093Y-79790053D01*
X81186905Y-79870865D01*
X81294654Y-79924740D01*
X81402404Y-79924740D01*
X81483216Y-79897802D01*
X81617903Y-79816990D01*
X81698715Y-79736178D01*
X81779528Y-79601491D01*
X81806465Y-79520679D01*
X81806465Y-79412929D01*
X81752590Y-79305180D01*
X81698715Y-79251305D01*
X81590966Y-79197430D01*
X81537091Y-79197430D01*
X81348529Y-79385992D01*
X81456279Y-79493741D01*
X81348529Y-78901119D02*
X80782844Y-79466804D01*
X81025280Y-78577870D01*
X80459595Y-79143555D01*
X80755906Y-78308496D02*
X80190221Y-78874181D01*
X80055534Y-78739494D01*
X80001659Y-78631745D01*
X80001659Y-78523995D01*
X80028597Y-78443183D01*
X80109409Y-78308496D01*
X80190221Y-78227684D01*
X80324908Y-78146871D01*
X80405720Y-78119934D01*
X80513470Y-78119934D01*
X80621219Y-78173809D01*
X80755906Y-78308496D01*
X94721964Y-54043802D02*
X94452590Y-53774428D01*
X94937463Y-53936053D02*
X94183216Y-54313176D01*
X94560340Y-53558929D01*
X93536719Y-53612804D02*
X93563656Y-53693616D01*
X93644468Y-53774428D01*
X93752218Y-53828303D01*
X93859967Y-53828303D01*
X93940780Y-53801366D01*
X94075467Y-53720554D01*
X94156279Y-53639741D01*
X94237091Y-53505054D01*
X94264028Y-53424242D01*
X94264028Y-53316493D01*
X94210154Y-53208743D01*
X94156279Y-53154868D01*
X94048529Y-53100993D01*
X93994654Y-53100993D01*
X93806093Y-53289555D01*
X93913842Y-53397305D01*
X93806093Y-52804682D02*
X93240407Y-53370367D01*
X93482844Y-52481433D01*
X92917158Y-53047119D01*
X93213470Y-52212059D02*
X92647784Y-52777745D01*
X92513097Y-52643058D01*
X92459223Y-52535308D01*
X92459223Y-52427558D01*
X92486160Y-52346746D01*
X92566972Y-52212059D01*
X92647784Y-52131247D01*
X92782471Y-52050435D01*
X92863284Y-52023497D01*
X92971033Y-52023497D01*
X93078783Y-52077372D01*
X93213470Y-52212059D01*
X109271592Y-54097677D02*
X109298529Y-54178489D01*
X109379341Y-54259302D01*
X109487091Y-54313176D01*
X109594841Y-54313176D01*
X109675653Y-54286239D01*
X109810340Y-54205427D01*
X109891152Y-54124615D01*
X109971964Y-53989928D01*
X109998902Y-53909115D01*
X109998902Y-53801366D01*
X109945027Y-53693616D01*
X109891152Y-53639741D01*
X109783402Y-53585867D01*
X109729528Y-53585867D01*
X109540966Y-53774428D01*
X109648715Y-53882178D01*
X109540966Y-53289555D02*
X108975280Y-53855241D01*
X108759781Y-53639741D01*
X108732844Y-53558929D01*
X108732844Y-53505054D01*
X108759781Y-53424242D01*
X108840593Y-53343430D01*
X108921406Y-53316493D01*
X108975280Y-53316493D01*
X109056093Y-53343430D01*
X109271592Y-53558929D01*
X108490407Y-53262618D02*
X108436532Y-53262618D01*
X108355720Y-53235680D01*
X108221033Y-53100993D01*
X108194096Y-53020181D01*
X108194096Y-52966306D01*
X108221033Y-52885494D01*
X108274908Y-52831619D01*
X108382658Y-52777745D01*
X109029155Y-52777745D01*
X108678969Y-52427558D01*
X108140221Y-51888810D02*
X108463470Y-52212059D01*
X108301845Y-52050435D02*
X107736160Y-52616120D01*
X107870847Y-52589183D01*
X107978597Y-52589183D01*
X108059409Y-52616120D01*
X119179155Y-54109241D02*
X119206093Y-54190053D01*
X119286905Y-54270865D01*
X119394654Y-54324740D01*
X119502404Y-54324740D01*
X119583216Y-54297802D01*
X119717903Y-54216990D01*
X119798715Y-54136178D01*
X119879528Y-54001491D01*
X119906465Y-53920679D01*
X119906465Y-53812929D01*
X119852590Y-53705180D01*
X119798715Y-53651305D01*
X119690966Y-53597430D01*
X119637091Y-53597430D01*
X119448529Y-53785992D01*
X119556279Y-53893741D01*
X119448529Y-53301119D02*
X118882844Y-53866804D01*
X119125280Y-52977870D01*
X118559595Y-53543555D01*
X118855906Y-52708496D02*
X118290221Y-53274181D01*
X118155534Y-53139494D01*
X118101659Y-53031745D01*
X118101659Y-52923995D01*
X118128597Y-52843183D01*
X118209409Y-52708496D01*
X118290221Y-52627684D01*
X118424908Y-52546871D01*
X118505720Y-52519934D01*
X118613470Y-52519934D01*
X118721219Y-52573809D01*
X118855906Y-52708496D01*
X86471592Y-54305552D02*
X86121406Y-53955366D01*
X86525467Y-53928428D01*
X86444654Y-53847616D01*
X86417717Y-53766804D01*
X86417717Y-53712929D01*
X86444654Y-53632117D01*
X86579341Y-53497430D01*
X86660154Y-53470493D01*
X86714028Y-53470493D01*
X86794841Y-53497430D01*
X86956465Y-53659054D01*
X86983402Y-53739867D01*
X86983402Y-53793741D01*
X85959781Y-53793741D02*
X86336905Y-53039494D01*
X85582658Y-53416618D01*
X85447971Y-53281931D02*
X85097784Y-52931745D01*
X85501845Y-52904807D01*
X85421033Y-52823995D01*
X85394096Y-52743183D01*
X85394096Y-52689308D01*
X85421033Y-52608496D01*
X85555720Y-52473809D01*
X85636532Y-52446871D01*
X85690407Y-52446871D01*
X85771219Y-52473809D01*
X85932844Y-52635433D01*
X85959781Y-52716245D01*
X85959781Y-52770120D01*
X89514773Y-54040611D02*
X89245399Y-53771237D01*
X89730272Y-53932862D02*
X88976025Y-54309985D01*
X89353149Y-53555738D01*
X89164587Y-53367176D02*
X88598902Y-53932862D01*
X88464215Y-53798175D01*
X88410340Y-53690425D01*
X88410340Y-53582676D01*
X88437277Y-53501863D01*
X88518089Y-53367176D01*
X88598902Y-53286364D01*
X88733589Y-53205552D01*
X88814401Y-53178615D01*
X88922150Y-53178615D01*
X89029900Y-53232489D01*
X89164587Y-53367176D01*
X88221778Y-52532117D02*
X88275653Y-52532117D01*
X88383402Y-52585992D01*
X88437277Y-52639867D01*
X88491152Y-52747616D01*
X88491152Y-52855366D01*
X88464215Y-52936178D01*
X88383402Y-53070865D01*
X88302590Y-53151677D01*
X88167903Y-53232489D01*
X88087091Y-53259427D01*
X87979341Y-53259427D01*
X87871592Y-53205552D01*
X87817717Y-53151677D01*
X87763842Y-53043928D01*
X87763842Y-52990053D01*
X88221778Y-52316618D02*
X87790780Y-51885619D01*
X87117345Y-52451305D02*
X87494468Y-51697058D01*
X86740221Y-52074181D01*
X86794096Y-50996685D02*
X86713284Y-51454621D01*
X87117345Y-51319934D02*
X86551659Y-51885619D01*
X86336160Y-51670120D01*
X86309223Y-51589308D01*
X86309223Y-51535433D01*
X86336160Y-51454621D01*
X86416972Y-51373809D01*
X86497784Y-51346871D01*
X86551659Y-51346871D01*
X86632471Y-51373809D01*
X86847971Y-51589308D01*
X86255348Y-51050560D02*
X86066786Y-50861998D01*
X86282285Y-50484875D02*
X86551659Y-50754249D01*
X85985974Y-51319934D01*
X85716600Y-51050560D01*
X85554975Y-50350188D02*
X85743537Y-50538749D01*
X86039849Y-50242438D02*
X85474163Y-50808123D01*
X85204789Y-50538749D01*
X111801592Y-54097677D02*
X111828529Y-54178489D01*
X111909341Y-54259302D01*
X112017091Y-54313176D01*
X112124841Y-54313176D01*
X112205653Y-54286239D01*
X112340340Y-54205427D01*
X112421152Y-54124615D01*
X112501964Y-53989928D01*
X112528902Y-53909115D01*
X112528902Y-53801366D01*
X112475027Y-53693616D01*
X112421152Y-53639741D01*
X112313402Y-53585867D01*
X112259528Y-53585867D01*
X112070966Y-53774428D01*
X112178715Y-53882178D01*
X112070966Y-53289555D02*
X111505280Y-53855241D01*
X111289781Y-53639741D01*
X111262844Y-53558929D01*
X111262844Y-53505054D01*
X111289781Y-53424242D01*
X111370593Y-53343430D01*
X111451406Y-53316493D01*
X111505280Y-53316493D01*
X111586093Y-53343430D01*
X111801592Y-53558929D01*
X111020407Y-53262618D02*
X110966532Y-53262618D01*
X110885720Y-53235680D01*
X110751033Y-53100993D01*
X110724096Y-53020181D01*
X110724096Y-52966306D01*
X110751033Y-52885494D01*
X110804908Y-52831619D01*
X110912658Y-52777745D01*
X111559155Y-52777745D01*
X111208969Y-52427558D01*
X110293097Y-52643058D02*
X110239223Y-52589183D01*
X110212285Y-52508371D01*
X110212285Y-52454496D01*
X110239223Y-52373684D01*
X110320035Y-52238997D01*
X110454722Y-52104310D01*
X110589409Y-52023497D01*
X110670221Y-51996560D01*
X110724096Y-51996560D01*
X110804908Y-52023497D01*
X110858783Y-52077372D01*
X110885720Y-52158184D01*
X110885720Y-52212059D01*
X110858783Y-52292871D01*
X110777971Y-52427558D01*
X110643284Y-52562245D01*
X110508597Y-52643058D01*
X110427784Y-52669995D01*
X110373910Y-52669995D01*
X110293097Y-52643058D01*
X124501592Y-54097677D02*
X124528529Y-54178489D01*
X124609341Y-54259302D01*
X124717091Y-54313176D01*
X124824841Y-54313176D01*
X124905653Y-54286239D01*
X125040340Y-54205427D01*
X125121152Y-54124615D01*
X125201964Y-53989928D01*
X125228902Y-53909115D01*
X125228902Y-53801366D01*
X125175027Y-53693616D01*
X125121152Y-53639741D01*
X125013402Y-53585867D01*
X124959528Y-53585867D01*
X124770966Y-53774428D01*
X124878715Y-53882178D01*
X124770966Y-53289555D02*
X124205280Y-53855241D01*
X123989781Y-53639741D01*
X123962844Y-53558929D01*
X123962844Y-53505054D01*
X123989781Y-53424242D01*
X124070593Y-53343430D01*
X124151406Y-53316493D01*
X124205280Y-53316493D01*
X124286093Y-53343430D01*
X124501592Y-53558929D01*
X123908969Y-52427558D02*
X124232218Y-52750807D01*
X124070593Y-52589183D02*
X123504908Y-53154868D01*
X123639595Y-53127931D01*
X123747345Y-53127931D01*
X123828157Y-53154868D01*
X122858410Y-52508371D02*
X122966160Y-52616120D01*
X123046972Y-52643058D01*
X123100847Y-52643058D01*
X123235534Y-52616120D01*
X123370221Y-52535308D01*
X123585720Y-52319809D01*
X123612658Y-52238997D01*
X123612658Y-52185122D01*
X123585720Y-52104310D01*
X123477971Y-51996560D01*
X123397158Y-51969623D01*
X123343284Y-51969623D01*
X123262471Y-51996560D01*
X123127784Y-52131247D01*
X123100847Y-52212059D01*
X123100847Y-52265934D01*
X123127784Y-52346746D01*
X123235534Y-52454496D01*
X123316346Y-52481433D01*
X123370221Y-52481433D01*
X123451033Y-52454496D01*
X93779155Y-79709241D02*
X93806093Y-79790053D01*
X93886905Y-79870865D01*
X93994654Y-79924740D01*
X94102404Y-79924740D01*
X94183216Y-79897802D01*
X94317903Y-79816990D01*
X94398715Y-79736178D01*
X94479528Y-79601491D01*
X94506465Y-79520679D01*
X94506465Y-79412929D01*
X94452590Y-79305180D01*
X94398715Y-79251305D01*
X94290966Y-79197430D01*
X94237091Y-79197430D01*
X94048529Y-79385992D01*
X94156279Y-79493741D01*
X94048529Y-78901119D02*
X93482844Y-79466804D01*
X93725280Y-78577870D01*
X93159595Y-79143555D01*
X93455906Y-78308496D02*
X92890221Y-78874181D01*
X92755534Y-78739494D01*
X92701659Y-78631745D01*
X92701659Y-78523995D01*
X92728597Y-78443183D01*
X92809409Y-78308496D01*
X92890221Y-78227684D01*
X93024908Y-78146871D01*
X93105720Y-78119934D01*
X93213470Y-78119934D01*
X93321219Y-78173809D01*
X93455906Y-78308496D01*
X104181592Y-54097677D02*
X104208529Y-54178489D01*
X104289341Y-54259302D01*
X104397091Y-54313176D01*
X104504841Y-54313176D01*
X104585653Y-54286239D01*
X104720340Y-54205427D01*
X104801152Y-54124615D01*
X104881964Y-53989928D01*
X104908902Y-53909115D01*
X104908902Y-53801366D01*
X104855027Y-53693616D01*
X104801152Y-53639741D01*
X104693402Y-53585867D01*
X104639528Y-53585867D01*
X104450966Y-53774428D01*
X104558715Y-53882178D01*
X104450966Y-53289555D02*
X103885280Y-53855241D01*
X103669781Y-53639741D01*
X103642844Y-53558929D01*
X103642844Y-53505054D01*
X103669781Y-53424242D01*
X103750593Y-53343430D01*
X103831406Y-53316493D01*
X103885280Y-53316493D01*
X103966093Y-53343430D01*
X104181592Y-53558929D01*
X103400407Y-53262618D02*
X103346532Y-53262618D01*
X103265720Y-53235680D01*
X103131033Y-53100993D01*
X103104096Y-53020181D01*
X103104096Y-52966306D01*
X103131033Y-52885494D01*
X103184908Y-52831619D01*
X103292658Y-52777745D01*
X103939155Y-52777745D01*
X103588969Y-52427558D01*
X102861659Y-52723870D02*
X102807784Y-52723870D01*
X102726972Y-52696932D01*
X102592285Y-52562245D01*
X102565348Y-52481433D01*
X102565348Y-52427558D01*
X102592285Y-52346746D01*
X102646160Y-52292871D01*
X102753910Y-52238997D01*
X103400407Y-52238997D01*
X103050221Y-51888810D01*
X91212218Y-79682303D02*
X91239155Y-79763115D01*
X91319967Y-79843928D01*
X91427717Y-79897802D01*
X91535467Y-79897802D01*
X91616279Y-79870865D01*
X91750966Y-79790053D01*
X91831778Y-79709241D01*
X91912590Y-79574554D01*
X91939528Y-79493741D01*
X91939528Y-79385992D01*
X91885653Y-79278242D01*
X91831778Y-79224367D01*
X91724028Y-79170493D01*
X91670154Y-79170493D01*
X91481592Y-79359054D01*
X91589341Y-79466804D01*
X91481592Y-78874181D02*
X90915906Y-79439867D01*
X90700407Y-79224367D01*
X90673470Y-79143555D01*
X90673470Y-79089680D01*
X90700407Y-79008868D01*
X90781219Y-78928056D01*
X90862032Y-78901119D01*
X90915906Y-78901119D01*
X90996719Y-78928056D01*
X91212218Y-79143555D01*
X90080847Y-78604807D02*
X90350221Y-78874181D01*
X90646532Y-78631745D01*
X90592658Y-78631745D01*
X90511845Y-78604807D01*
X90377158Y-78470120D01*
X90350221Y-78389308D01*
X90350221Y-78335433D01*
X90377158Y-78254621D01*
X90511845Y-78119934D01*
X90592658Y-78092997D01*
X90646532Y-78092997D01*
X90727345Y-78119934D01*
X90862032Y-78254621D01*
X90888969Y-78335433D01*
X90888969Y-78389308D01*
X78502218Y-79782303D02*
X78529155Y-79863115D01*
X78609967Y-79943928D01*
X78717717Y-79997802D01*
X78825467Y-79997802D01*
X78906279Y-79970865D01*
X79040966Y-79890053D01*
X79121778Y-79809241D01*
X79202590Y-79674554D01*
X79229528Y-79593741D01*
X79229528Y-79485992D01*
X79175653Y-79378242D01*
X79121778Y-79324367D01*
X79014028Y-79270493D01*
X78960154Y-79270493D01*
X78771592Y-79459054D01*
X78879341Y-79566804D01*
X78771592Y-78974181D02*
X78205906Y-79539867D01*
X77990407Y-79324367D01*
X77963470Y-79243555D01*
X77963470Y-79189680D01*
X77990407Y-79108868D01*
X78071219Y-79028056D01*
X78152032Y-79001119D01*
X78205906Y-79001119D01*
X78286719Y-79028056D01*
X78502218Y-79243555D01*
X77909595Y-78112184D02*
X78232844Y-78435433D01*
X78071219Y-78273809D02*
X77505534Y-78839494D01*
X77640221Y-78812557D01*
X77747971Y-78812557D01*
X77828783Y-78839494D01*
X98802218Y-79582303D02*
X98829155Y-79663115D01*
X98909967Y-79743928D01*
X99017717Y-79797802D01*
X99125467Y-79797802D01*
X99206279Y-79770865D01*
X99340966Y-79690053D01*
X99421778Y-79609241D01*
X99502590Y-79474554D01*
X99529528Y-79393741D01*
X99529528Y-79285992D01*
X99475653Y-79178242D01*
X99421778Y-79124367D01*
X99314028Y-79070493D01*
X99260154Y-79070493D01*
X99071592Y-79259054D01*
X99179341Y-79366804D01*
X99071592Y-78774181D02*
X98505906Y-79339867D01*
X98290407Y-79124367D01*
X98263470Y-79043555D01*
X98263470Y-78989680D01*
X98290407Y-78908868D01*
X98371219Y-78828056D01*
X98452032Y-78801119D01*
X98505906Y-78801119D01*
X98586719Y-78828056D01*
X98802218Y-79043555D01*
X97994096Y-78828056D02*
X97616972Y-78450932D01*
X98425094Y-78127684D01*
X83939308Y-54273268D02*
X83589122Y-53923082D01*
X83993183Y-53896144D01*
X83912370Y-53815332D01*
X83885433Y-53734520D01*
X83885433Y-53680645D01*
X83912370Y-53599833D01*
X84047057Y-53465146D01*
X84127870Y-53438209D01*
X84181744Y-53438209D01*
X84262557Y-53465146D01*
X84424181Y-53626770D01*
X84451118Y-53707583D01*
X84451118Y-53761457D01*
X83427497Y-53761457D02*
X83804621Y-53007210D01*
X83050374Y-53384334D01*
X82915687Y-53249647D02*
X82565500Y-52899461D01*
X82969561Y-52872523D01*
X82888749Y-52791711D01*
X82861812Y-52710899D01*
X82861812Y-52657024D01*
X82888749Y-52576212D01*
X83023436Y-52441525D01*
X83104248Y-52414587D01*
X83158123Y-52414587D01*
X83238935Y-52441525D01*
X83400560Y-52603149D01*
X83427497Y-52683961D01*
X83427497Y-52737836D01*
X83077311Y-52172151D02*
X82646312Y-51741152D01*
X82161439Y-51956651D02*
X81972877Y-51768090D01*
X82188377Y-51390966D02*
X82457751Y-51660340D01*
X81892065Y-52226025D01*
X81622691Y-51956651D01*
X81945940Y-51148529D02*
X81380255Y-51714215D01*
X81622691Y-50825281D01*
X81057006Y-51390966D01*
X81079155Y-54109241D02*
X81106093Y-54190053D01*
X81186905Y-54270865D01*
X81294654Y-54324740D01*
X81402404Y-54324740D01*
X81483216Y-54297802D01*
X81617903Y-54216990D01*
X81698715Y-54136178D01*
X81779528Y-54001491D01*
X81806465Y-53920679D01*
X81806465Y-53812929D01*
X81752590Y-53705180D01*
X81698715Y-53651305D01*
X81590966Y-53597430D01*
X81537091Y-53597430D01*
X81348529Y-53785992D01*
X81456279Y-53893741D01*
X81348529Y-53301119D02*
X80782844Y-53866804D01*
X81025280Y-52977870D01*
X80459595Y-53543555D01*
X80755906Y-52708496D02*
X80190221Y-53274181D01*
X80055534Y-53139494D01*
X80001659Y-53031745D01*
X80001659Y-52923995D01*
X80028597Y-52843183D01*
X80109409Y-52708496D01*
X80190221Y-52627684D01*
X80324908Y-52546871D01*
X80405720Y-52519934D01*
X80513470Y-52519934D01*
X80621219Y-52573809D01*
X80755906Y-52708496D01*
X126504809Y-73704923D02*
X126542904Y-73590638D01*
X126542904Y-73400161D01*
X126504809Y-73323971D01*
X126466714Y-73285876D01*
X126390523Y-73247780D01*
X126314333Y-73247780D01*
X126238142Y-73285876D01*
X126200047Y-73323971D01*
X126161952Y-73400161D01*
X126123857Y-73552542D01*
X126085761Y-73628733D01*
X126047666Y-73666828D01*
X125971476Y-73704923D01*
X125895285Y-73704923D01*
X125819095Y-73666828D01*
X125781000Y-73628733D01*
X125742904Y-73552542D01*
X125742904Y-73362066D01*
X125781000Y-73247780D01*
X125742904Y-72981114D02*
X126542904Y-72790638D01*
X125971476Y-72638257D01*
X126542904Y-72485876D01*
X125742904Y-72295400D01*
X126466714Y-71533495D02*
X126504809Y-71571590D01*
X126542904Y-71685876D01*
X126542904Y-71762066D01*
X126504809Y-71876352D01*
X126428619Y-71952542D01*
X126352428Y-71990638D01*
X126200047Y-72028733D01*
X126085761Y-72028733D01*
X125933380Y-71990638D01*
X125857190Y-71952542D01*
X125781000Y-71876352D01*
X125742904Y-71762066D01*
X125742904Y-71685876D01*
X125781000Y-71571590D01*
X125819095Y-71533495D01*
X126542904Y-70809685D02*
X126542904Y-71190638D01*
X125742904Y-71190638D01*
X126542904Y-70543019D02*
X125742904Y-70543019D01*
X126542904Y-70085876D02*
X126085761Y-70428733D01*
X125742904Y-70085876D02*
X126200047Y-70543019D01*
X103912218Y-79682303D02*
X103939155Y-79763115D01*
X104019967Y-79843928D01*
X104127717Y-79897802D01*
X104235467Y-79897802D01*
X104316279Y-79870865D01*
X104450966Y-79790053D01*
X104531778Y-79709241D01*
X104612590Y-79574554D01*
X104639528Y-79493741D01*
X104639528Y-79385992D01*
X104585653Y-79278242D01*
X104531778Y-79224367D01*
X104424028Y-79170493D01*
X104370154Y-79170493D01*
X104181592Y-79359054D01*
X104289341Y-79466804D01*
X104181592Y-78874181D02*
X103615906Y-79439867D01*
X103400407Y-79224367D01*
X103373470Y-79143555D01*
X103373470Y-79089680D01*
X103400407Y-79008868D01*
X103481219Y-78928056D01*
X103562032Y-78901119D01*
X103615906Y-78901119D01*
X103696719Y-78928056D01*
X103912218Y-79143555D01*
X103588969Y-78281558D02*
X103481219Y-78173809D01*
X103400407Y-78146871D01*
X103346532Y-78146871D01*
X103211845Y-78173809D01*
X103077158Y-78254621D01*
X102861659Y-78470120D01*
X102834722Y-78550932D01*
X102834722Y-78604807D01*
X102861659Y-78685619D01*
X102969409Y-78793369D01*
X103050221Y-78820306D01*
X103104096Y-78820306D01*
X103184908Y-78793369D01*
X103319595Y-78658682D01*
X103346532Y-78577870D01*
X103346532Y-78523995D01*
X103319595Y-78443183D01*
X103211845Y-78335433D01*
X103131033Y-78308496D01*
X103077158Y-78308496D01*
X102996346Y-78335433D01*
X96571592Y-54097677D02*
X96598529Y-54178489D01*
X96679341Y-54259302D01*
X96787091Y-54313176D01*
X96894841Y-54313176D01*
X96975653Y-54286239D01*
X97110340Y-54205427D01*
X97191152Y-54124615D01*
X97271964Y-53989928D01*
X97298902Y-53909115D01*
X97298902Y-53801366D01*
X97245027Y-53693616D01*
X97191152Y-53639741D01*
X97083402Y-53585867D01*
X97029528Y-53585867D01*
X96840966Y-53774428D01*
X96948715Y-53882178D01*
X96840966Y-53289555D02*
X96275280Y-53855241D01*
X96059781Y-53639741D01*
X96032844Y-53558929D01*
X96032844Y-53505054D01*
X96059781Y-53424242D01*
X96140593Y-53343430D01*
X96221406Y-53316493D01*
X96275280Y-53316493D01*
X96356093Y-53343430D01*
X96571592Y-53558929D01*
X95790407Y-53262618D02*
X95736532Y-53262618D01*
X95655720Y-53235680D01*
X95521033Y-53100993D01*
X95494096Y-53020181D01*
X95494096Y-52966306D01*
X95521033Y-52885494D01*
X95574908Y-52831619D01*
X95682658Y-52777745D01*
X96329155Y-52777745D01*
X95978969Y-52427558D01*
X95224722Y-52804682D02*
X94847598Y-52427558D01*
X95655720Y-52104310D01*
X88672218Y-79682303D02*
X88699155Y-79763115D01*
X88779967Y-79843928D01*
X88887717Y-79897802D01*
X88995467Y-79897802D01*
X89076279Y-79870865D01*
X89210966Y-79790053D01*
X89291778Y-79709241D01*
X89372590Y-79574554D01*
X89399528Y-79493741D01*
X89399528Y-79385992D01*
X89345653Y-79278242D01*
X89291778Y-79224367D01*
X89184028Y-79170493D01*
X89130154Y-79170493D01*
X88941592Y-79359054D01*
X89049341Y-79466804D01*
X88941592Y-78874181D02*
X88375906Y-79439867D01*
X88160407Y-79224367D01*
X88133470Y-79143555D01*
X88133470Y-79089680D01*
X88160407Y-79008868D01*
X88241219Y-78928056D01*
X88322032Y-78901119D01*
X88375906Y-78901119D01*
X88456719Y-78928056D01*
X88672218Y-79143555D01*
X87756346Y-78443183D02*
X88133470Y-78066059D01*
X87675534Y-78793369D02*
X88214282Y-78523995D01*
X87864096Y-78173809D01*
X83592218Y-79782303D02*
X83619155Y-79863115D01*
X83699967Y-79943928D01*
X83807717Y-79997802D01*
X83915467Y-79997802D01*
X83996279Y-79970865D01*
X84130966Y-79890053D01*
X84211778Y-79809241D01*
X84292590Y-79674554D01*
X84319528Y-79593741D01*
X84319528Y-79485992D01*
X84265653Y-79378242D01*
X84211778Y-79324367D01*
X84104028Y-79270493D01*
X84050154Y-79270493D01*
X83861592Y-79459054D01*
X83969341Y-79566804D01*
X83861592Y-78974181D02*
X83295906Y-79539867D01*
X83080407Y-79324367D01*
X83053470Y-79243555D01*
X83053470Y-79189680D01*
X83080407Y-79108868D01*
X83161219Y-79028056D01*
X83242032Y-79001119D01*
X83295906Y-79001119D01*
X83376719Y-79028056D01*
X83592218Y-79243555D01*
X82811033Y-78947244D02*
X82757158Y-78947244D01*
X82676346Y-78920306D01*
X82541659Y-78785619D01*
X82514722Y-78704807D01*
X82514722Y-78650932D01*
X82541659Y-78570120D01*
X82595534Y-78516245D01*
X82703284Y-78462371D01*
X83349781Y-78462371D01*
X82999595Y-78112184D01*
X86132218Y-79682303D02*
X86159155Y-79763115D01*
X86239967Y-79843928D01*
X86347717Y-79897802D01*
X86455467Y-79897802D01*
X86536279Y-79870865D01*
X86670966Y-79790053D01*
X86751778Y-79709241D01*
X86832590Y-79574554D01*
X86859528Y-79493741D01*
X86859528Y-79385992D01*
X86805653Y-79278242D01*
X86751778Y-79224367D01*
X86644028Y-79170493D01*
X86590154Y-79170493D01*
X86401592Y-79359054D01*
X86509341Y-79466804D01*
X86401592Y-78874181D02*
X85835906Y-79439867D01*
X85620407Y-79224367D01*
X85593470Y-79143555D01*
X85593470Y-79089680D01*
X85620407Y-79008868D01*
X85701219Y-78928056D01*
X85782032Y-78901119D01*
X85835906Y-78901119D01*
X85916719Y-78928056D01*
X86132218Y-79143555D01*
X85324096Y-78928056D02*
X84973910Y-78577870D01*
X85377971Y-78550932D01*
X85297158Y-78470120D01*
X85270221Y-78389308D01*
X85270221Y-78335433D01*
X85297158Y-78254621D01*
X85431845Y-78119934D01*
X85512658Y-78092997D01*
X85566532Y-78092997D01*
X85647345Y-78119934D01*
X85808969Y-78281558D01*
X85835906Y-78362371D01*
X85835906Y-78416245D01*
X91227592Y-54097677D02*
X91254529Y-54178489D01*
X91335341Y-54259302D01*
X91443091Y-54313176D01*
X91550841Y-54313176D01*
X91631653Y-54286239D01*
X91766340Y-54205427D01*
X91847152Y-54124615D01*
X91927964Y-53989928D01*
X91954902Y-53909115D01*
X91954902Y-53801366D01*
X91901027Y-53693616D01*
X91847152Y-53639741D01*
X91739402Y-53585867D01*
X91685528Y-53585867D01*
X91496966Y-53774428D01*
X91604715Y-53882178D01*
X91496966Y-53289555D02*
X90931280Y-53855241D01*
X90715781Y-53639741D01*
X90688844Y-53558929D01*
X90688844Y-53505054D01*
X90715781Y-53424242D01*
X90796593Y-53343430D01*
X90877406Y-53316493D01*
X90931280Y-53316493D01*
X91012093Y-53343430D01*
X91227592Y-53558929D01*
X90446407Y-53262618D02*
X90392532Y-53262618D01*
X90311720Y-53235680D01*
X90177033Y-53100993D01*
X90150096Y-53020181D01*
X90150096Y-52966306D01*
X90177033Y-52885494D01*
X90230908Y-52831619D01*
X90338658Y-52777745D01*
X90985155Y-52777745D01*
X90634969Y-52427558D01*
X89988471Y-52427558D02*
X90015409Y-52508371D01*
X90015409Y-52562245D01*
X89988471Y-52643058D01*
X89961534Y-52669995D01*
X89880722Y-52696932D01*
X89826847Y-52696932D01*
X89746035Y-52669995D01*
X89638285Y-52562245D01*
X89611348Y-52481433D01*
X89611348Y-52427558D01*
X89638285Y-52346746D01*
X89665223Y-52319809D01*
X89746035Y-52292871D01*
X89799910Y-52292871D01*
X89880722Y-52319809D01*
X89988471Y-52427558D01*
X90069284Y-52454496D01*
X90123158Y-52454496D01*
X90203971Y-52427558D01*
X90311720Y-52319809D01*
X90338658Y-52238997D01*
X90338658Y-52185122D01*
X90311720Y-52104310D01*
X90203971Y-51996560D01*
X90123158Y-51969623D01*
X90069284Y-51969623D01*
X89988471Y-51996560D01*
X89880722Y-52104310D01*
X89853784Y-52185122D01*
X89853784Y-52238997D01*
X89880722Y-52319809D01*
X126504809Y-62290638D02*
X126542904Y-62176352D01*
X126542904Y-61985876D01*
X126504809Y-61909685D01*
X126466714Y-61871590D01*
X126390523Y-61833495D01*
X126314333Y-61833495D01*
X126238142Y-61871590D01*
X126200047Y-61909685D01*
X126161952Y-61985876D01*
X126123857Y-62138257D01*
X126085761Y-62214447D01*
X126047666Y-62252542D01*
X125971476Y-62290638D01*
X125895285Y-62290638D01*
X125819095Y-62252542D01*
X125781000Y-62214447D01*
X125742904Y-62138257D01*
X125742904Y-61947780D01*
X125781000Y-61833495D01*
X125742904Y-61566828D02*
X126542904Y-61376352D01*
X125971476Y-61223971D01*
X126542904Y-61071590D01*
X125742904Y-60881114D01*
X126542904Y-60576352D02*
X125742904Y-60576352D01*
X125742904Y-60385876D01*
X125781000Y-60271590D01*
X125857190Y-60195400D01*
X125933380Y-60157304D01*
X126085761Y-60119209D01*
X126200047Y-60119209D01*
X126352428Y-60157304D01*
X126428619Y-60195400D01*
X126504809Y-60271590D01*
X126542904Y-60385876D01*
X126542904Y-60576352D01*
X126542904Y-59776352D02*
X125742904Y-59776352D01*
X125742904Y-59243019D02*
X125742904Y-59090638D01*
X125781000Y-59014447D01*
X125857190Y-58938257D01*
X126009571Y-58900161D01*
X126276238Y-58900161D01*
X126428619Y-58938257D01*
X126504809Y-59014447D01*
X126542904Y-59090638D01*
X126542904Y-59243019D01*
X126504809Y-59319209D01*
X126428619Y-59395400D01*
X126276238Y-59433495D01*
X126009571Y-59433495D01*
X125857190Y-59395400D01*
X125781000Y-59319209D01*
X125742904Y-59243019D01*
X101924435Y-53357024D02*
X101843622Y-53814960D01*
X102247683Y-53680273D02*
X101681998Y-54245958D01*
X101466499Y-54030459D01*
X101439561Y-53949647D01*
X101439561Y-53895772D01*
X101466499Y-53814960D01*
X101547311Y-53734148D01*
X101628123Y-53707210D01*
X101681998Y-53707210D01*
X101762810Y-53734148D01*
X101978309Y-53949647D01*
X101116312Y-53680273D02*
X101574248Y-53222337D01*
X101601186Y-53141525D01*
X101601186Y-53087650D01*
X101574248Y-53006838D01*
X101466499Y-52899088D01*
X101385687Y-52872151D01*
X101331812Y-52872151D01*
X101251000Y-52899088D01*
X100793064Y-53357024D01*
X101089375Y-52521964D02*
X100523690Y-53087650D01*
X100766126Y-52198716D01*
X100200441Y-52764401D01*
X76508309Y-54242270D02*
X76885433Y-53488022D01*
X76131186Y-53865146D01*
X76023436Y-53218648D02*
X75969561Y-53110899D01*
X75969561Y-53057024D01*
X75996499Y-52976212D01*
X76077311Y-52895400D01*
X76158123Y-52868462D01*
X76211998Y-52868462D01*
X76292810Y-52895400D01*
X76508309Y-53110899D01*
X75942624Y-53676584D01*
X75754062Y-53488022D01*
X75727125Y-53407210D01*
X75727125Y-53353335D01*
X75754062Y-53272523D01*
X75807937Y-53218648D01*
X75888749Y-53191711D01*
X75942624Y-53191711D01*
X76023436Y-53218648D01*
X76211998Y-53407210D01*
X75376938Y-53110899D02*
X75834874Y-52652963D01*
X75861812Y-52572151D01*
X75861812Y-52518276D01*
X75834874Y-52437464D01*
X75727125Y-52329714D01*
X75646312Y-52302777D01*
X75592438Y-52302777D01*
X75511625Y-52329714D01*
X75053690Y-52787650D01*
X75350001Y-52006465D02*
X75296126Y-51898716D01*
X75161439Y-51764029D01*
X75080627Y-51737091D01*
X75026752Y-51737091D01*
X74945940Y-51764029D01*
X74892065Y-51817903D01*
X74865128Y-51898716D01*
X74865128Y-51952590D01*
X74892065Y-52033403D01*
X74972877Y-52168090D01*
X74999815Y-52248902D01*
X74999815Y-52302777D01*
X74972877Y-52383589D01*
X74919003Y-52437464D01*
X74838190Y-52464401D01*
X74784316Y-52464401D01*
X74703503Y-52437464D01*
X74568816Y-52302777D01*
X74514942Y-52195027D01*
X101372218Y-79682303D02*
X101399155Y-79763115D01*
X101479967Y-79843928D01*
X101587717Y-79897802D01*
X101695467Y-79897802D01*
X101776279Y-79870865D01*
X101910966Y-79790053D01*
X101991778Y-79709241D01*
X102072590Y-79574554D01*
X102099528Y-79493741D01*
X102099528Y-79385992D01*
X102045653Y-79278242D01*
X101991778Y-79224367D01*
X101884028Y-79170493D01*
X101830154Y-79170493D01*
X101641592Y-79359054D01*
X101749341Y-79466804D01*
X101641592Y-78874181D02*
X101075906Y-79439867D01*
X100860407Y-79224367D01*
X100833470Y-79143555D01*
X100833470Y-79089680D01*
X100860407Y-79008868D01*
X100941219Y-78928056D01*
X101022032Y-78901119D01*
X101075906Y-78901119D01*
X101156719Y-78928056D01*
X101372218Y-79143555D01*
X100671845Y-78550932D02*
X100698783Y-78631745D01*
X100698783Y-78685619D01*
X100671845Y-78766432D01*
X100644908Y-78793369D01*
X100564096Y-78820306D01*
X100510221Y-78820306D01*
X100429409Y-78793369D01*
X100321659Y-78685619D01*
X100294722Y-78604807D01*
X100294722Y-78550932D01*
X100321659Y-78470120D01*
X100348597Y-78443183D01*
X100429409Y-78416245D01*
X100483284Y-78416245D01*
X100564096Y-78443183D01*
X100671845Y-78550932D01*
X100752658Y-78577870D01*
X100806532Y-78577870D01*
X100887345Y-78550932D01*
X100995094Y-78443183D01*
X101022032Y-78362371D01*
X101022032Y-78308496D01*
X100995094Y-78227684D01*
X100887345Y-78119934D01*
X100806532Y-78092997D01*
X100752658Y-78092997D01*
X100671845Y-78119934D01*
X100564096Y-78227684D01*
X100537158Y-78308496D01*
X100537158Y-78362371D01*
X100564096Y-78443183D01*
X99101592Y-54097677D02*
X99128529Y-54178489D01*
X99209341Y-54259302D01*
X99317091Y-54313176D01*
X99424841Y-54313176D01*
X99505653Y-54286239D01*
X99640340Y-54205427D01*
X99721152Y-54124615D01*
X99801964Y-53989928D01*
X99828902Y-53909115D01*
X99828902Y-53801366D01*
X99775027Y-53693616D01*
X99721152Y-53639741D01*
X99613402Y-53585867D01*
X99559528Y-53585867D01*
X99370966Y-53774428D01*
X99478715Y-53882178D01*
X99370966Y-53289555D02*
X98805280Y-53855241D01*
X98589781Y-53639741D01*
X98562844Y-53558929D01*
X98562844Y-53505054D01*
X98589781Y-53424242D01*
X98670593Y-53343430D01*
X98751406Y-53316493D01*
X98805280Y-53316493D01*
X98886093Y-53343430D01*
X99101592Y-53558929D01*
X98320407Y-53262618D02*
X98266532Y-53262618D01*
X98185720Y-53235680D01*
X98051033Y-53100993D01*
X98024096Y-53020181D01*
X98024096Y-52966306D01*
X98051033Y-52885494D01*
X98104908Y-52831619D01*
X98212658Y-52777745D01*
X98859155Y-52777745D01*
X98508969Y-52427558D01*
X97458410Y-52508371D02*
X97566160Y-52616120D01*
X97646972Y-52643058D01*
X97700847Y-52643058D01*
X97835534Y-52616120D01*
X97970221Y-52535308D01*
X98185720Y-52319809D01*
X98212658Y-52238997D01*
X98212658Y-52185122D01*
X98185720Y-52104310D01*
X98077971Y-51996560D01*
X97997158Y-51969623D01*
X97943284Y-51969623D01*
X97862471Y-51996560D01*
X97727784Y-52131247D01*
X97700847Y-52212059D01*
X97700847Y-52265934D01*
X97727784Y-52346746D01*
X97835534Y-52454496D01*
X97916346Y-52481433D01*
X97970221Y-52481433D01*
X98051033Y-52454496D01*
X114341592Y-54097677D02*
X114368529Y-54178489D01*
X114449341Y-54259302D01*
X114557091Y-54313176D01*
X114664841Y-54313176D01*
X114745653Y-54286239D01*
X114880340Y-54205427D01*
X114961152Y-54124615D01*
X115041964Y-53989928D01*
X115068902Y-53909115D01*
X115068902Y-53801366D01*
X115015027Y-53693616D01*
X114961152Y-53639741D01*
X114853402Y-53585867D01*
X114799528Y-53585867D01*
X114610966Y-53774428D01*
X114718715Y-53882178D01*
X114610966Y-53289555D02*
X114045280Y-53855241D01*
X113829781Y-53639741D01*
X113802844Y-53558929D01*
X113802844Y-53505054D01*
X113829781Y-53424242D01*
X113910593Y-53343430D01*
X113991406Y-53316493D01*
X114045280Y-53316493D01*
X114126093Y-53343430D01*
X114341592Y-53558929D01*
X113748969Y-52427558D02*
X114072218Y-52750807D01*
X113910593Y-52589183D02*
X113344908Y-53154868D01*
X113479595Y-53127931D01*
X113587345Y-53127931D01*
X113668157Y-53154868D01*
X113479595Y-52158184D02*
X113371845Y-52050435D01*
X113291033Y-52023497D01*
X113237158Y-52023497D01*
X113102471Y-52050435D01*
X112967784Y-52131247D01*
X112752285Y-52346746D01*
X112725348Y-52427558D01*
X112725348Y-52481433D01*
X112752285Y-52562245D01*
X112860035Y-52669995D01*
X112940847Y-52696932D01*
X112994722Y-52696932D01*
X113075534Y-52669995D01*
X113210221Y-52535308D01*
X113237158Y-52454496D01*
X113237158Y-52400621D01*
X113210221Y-52319809D01*
X113102471Y-52212059D01*
X113021659Y-52185122D01*
X112967784Y-52185122D01*
X112886972Y-52212059D01*
X79050966Y-54274926D02*
X79428089Y-53520679D01*
X78673842Y-53897802D01*
X79050966Y-53197430D02*
X78997091Y-53089680D01*
X78862404Y-52954993D01*
X78781592Y-52928056D01*
X78727717Y-52928056D01*
X78646905Y-52954993D01*
X78593030Y-53008868D01*
X78566093Y-53089680D01*
X78566093Y-53143555D01*
X78593030Y-53224367D01*
X78673842Y-53359054D01*
X78700780Y-53439867D01*
X78700780Y-53493741D01*
X78673842Y-53574554D01*
X78619967Y-53628428D01*
X78539155Y-53655366D01*
X78485280Y-53655366D01*
X78404468Y-53628428D01*
X78269781Y-53493741D01*
X78215906Y-53385992D01*
X78135094Y-52766432D02*
X78404468Y-52497058D01*
X78027345Y-53251305D02*
X78135094Y-52766432D01*
X77650221Y-52874181D01*
X78027345Y-52173809D02*
X77973470Y-52066059D01*
X77838783Y-51931372D01*
X77757971Y-51904435D01*
X77704096Y-51904435D01*
X77623284Y-51931372D01*
X77569409Y-51985247D01*
X77542471Y-52066059D01*
X77542471Y-52119934D01*
X77569409Y-52200746D01*
X77650221Y-52335433D01*
X77677158Y-52416245D01*
X77677158Y-52470120D01*
X77650221Y-52550932D01*
X77596346Y-52604807D01*
X77515534Y-52631745D01*
X77461659Y-52631745D01*
X77380847Y-52604807D01*
X77246160Y-52470120D01*
X77192285Y-52362371D01*
X106479155Y-54109241D02*
X106506093Y-54190053D01*
X106586905Y-54270865D01*
X106694654Y-54324740D01*
X106802404Y-54324740D01*
X106883216Y-54297802D01*
X107017903Y-54216990D01*
X107098715Y-54136178D01*
X107179528Y-54001491D01*
X107206465Y-53920679D01*
X107206465Y-53812929D01*
X107152590Y-53705180D01*
X107098715Y-53651305D01*
X106990966Y-53597430D01*
X106937091Y-53597430D01*
X106748529Y-53785992D01*
X106856279Y-53893741D01*
X106748529Y-53301119D02*
X106182844Y-53866804D01*
X106425280Y-52977870D01*
X105859595Y-53543555D01*
X106155906Y-52708496D02*
X105590221Y-53274181D01*
X105455534Y-53139494D01*
X105401659Y-53031745D01*
X105401659Y-52923995D01*
X105428597Y-52843183D01*
X105509409Y-52708496D01*
X105590221Y-52627684D01*
X105724908Y-52546871D01*
X105805720Y-52519934D01*
X105913470Y-52519934D01*
X106021219Y-52573809D01*
X106155906Y-52708496D01*
X116881592Y-54097677D02*
X116908529Y-54178489D01*
X116989341Y-54259302D01*
X117097091Y-54313176D01*
X117204841Y-54313176D01*
X117285653Y-54286239D01*
X117420340Y-54205427D01*
X117501152Y-54124615D01*
X117581964Y-53989928D01*
X117608902Y-53909115D01*
X117608902Y-53801366D01*
X117555027Y-53693616D01*
X117501152Y-53639741D01*
X117393402Y-53585867D01*
X117339528Y-53585867D01*
X117150966Y-53774428D01*
X117258715Y-53882178D01*
X117150966Y-53289555D02*
X116585280Y-53855241D01*
X116369781Y-53639741D01*
X116342844Y-53558929D01*
X116342844Y-53505054D01*
X116369781Y-53424242D01*
X116450593Y-53343430D01*
X116531406Y-53316493D01*
X116585280Y-53316493D01*
X116666093Y-53343430D01*
X116881592Y-53558929D01*
X116288969Y-52427558D02*
X116612218Y-52750807D01*
X116450593Y-52589183D02*
X115884908Y-53154868D01*
X116019595Y-53127931D01*
X116127345Y-53127931D01*
X116208157Y-53154868D01*
X115642471Y-52427558D02*
X115669409Y-52508371D01*
X115669409Y-52562245D01*
X115642471Y-52643058D01*
X115615534Y-52669995D01*
X115534722Y-52696932D01*
X115480847Y-52696932D01*
X115400035Y-52669995D01*
X115292285Y-52562245D01*
X115265348Y-52481433D01*
X115265348Y-52427558D01*
X115292285Y-52346746D01*
X115319223Y-52319809D01*
X115400035Y-52292871D01*
X115453910Y-52292871D01*
X115534722Y-52319809D01*
X115642471Y-52427558D01*
X115723284Y-52454496D01*
X115777158Y-52454496D01*
X115857971Y-52427558D01*
X115965720Y-52319809D01*
X115992658Y-52238997D01*
X115992658Y-52185122D01*
X115965720Y-52104310D01*
X115857971Y-51996560D01*
X115777158Y-51969623D01*
X115723284Y-51969623D01*
X115642471Y-51996560D01*
X115534722Y-52104310D01*
X115507784Y-52185122D01*
X115507784Y-52238997D01*
X115534722Y-52319809D01*
D11*
X74481000Y-55695400D02*
X74781000Y-55695400D01*
X104881000Y-55695400D02*
X105281000Y-55695400D01*
X122681000Y-76695400D02*
X123081000Y-76695400D01*
X102281000Y-55695400D02*
X102681000Y-55695400D01*
X87081000Y-76695400D02*
X87481000Y-76695400D01*
X81981000Y-76695400D02*
X82381000Y-76695400D01*
X102281000Y-76695400D02*
X102681000Y-76695400D01*
X94681000Y-76695400D02*
X95081000Y-76695400D01*
X107381000Y-55695400D02*
X107781000Y-55695400D01*
X107381000Y-76695400D02*
X107781000Y-76695400D01*
X89581000Y-55695400D02*
X89981000Y-55695400D01*
X117581000Y-55695400D02*
X117981000Y-55695400D01*
X99781000Y-55695400D02*
X100181000Y-55695400D01*
X97281000Y-55695400D02*
X97681000Y-55695400D01*
X115081000Y-76695400D02*
X115481000Y-76695400D01*
X84581000Y-55695400D02*
X84981000Y-55695400D01*
X84581000Y-76695400D02*
X84981000Y-76695400D01*
X74481000Y-76695400D02*
X74481000Y-55695400D01*
X112481000Y-55695400D02*
X112881000Y-55695400D01*
X120081000Y-55695400D02*
X120481000Y-55695400D01*
X109981000Y-76695400D02*
X110381000Y-76695400D01*
X117581000Y-76695400D02*
X117981000Y-76695400D01*
X76881000Y-55695400D02*
X77281000Y-55695400D01*
X92181000Y-55695400D02*
X92581000Y-55695400D01*
X104881000Y-76695400D02*
X105281000Y-76695400D01*
X79481000Y-55695400D02*
X79881000Y-55695400D01*
X109981000Y-55695400D02*
X110381000Y-55695400D01*
X74481000Y-76695400D02*
X74781000Y-76695400D01*
X77148000Y-73688400D02*
X74481000Y-73688400D01*
X97281000Y-76695400D02*
X97681000Y-76695400D01*
X125481000Y-69895400D02*
X125481000Y-76695400D01*
X79481000Y-76695400D02*
X79881000Y-76695400D01*
X99781000Y-76695400D02*
X100181000Y-76695400D01*
X94681000Y-55695400D02*
X95081000Y-55695400D01*
X77148000Y-76695400D02*
X77148000Y-73688400D01*
X76881000Y-76695400D02*
X77281000Y-76695400D01*
X112481000Y-76695400D02*
X112881000Y-76695400D01*
X87081000Y-55695400D02*
X87481000Y-55695400D01*
X89581000Y-76695400D02*
X89981000Y-76695400D01*
X115081000Y-55695400D02*
X115481000Y-55695400D01*
X81981000Y-55695400D02*
X82381000Y-55695400D01*
X125481000Y-55695400D02*
X125481000Y-62495400D01*
X92181000Y-76695400D02*
X92581000Y-76695400D01*
X122681000Y-55695400D02*
X123081000Y-55695400D01*
X120081000Y-76695400D02*
X120481000Y-76695400D01*
%TD*%
M02*
