M48
; DRILL file {KiCad 6.0.6-3a73a75311~116~ubuntu21.10.1} date do 20 okt 2022 16:32:39 CEST
; FORMAT={-:-/ absolute / inch / decimal}
; #@! TF.CreationDate,2022-10-20T16:32:39+02:00
; #@! TF.GenerationSoftware,Kicad,Pcbnew,6.0.6-3a73a75311~116~ubuntu21.10.1
; #@! TF.FileFunction,Plated,1,2,PTH
FMAT,2
INCH
; #@! TA.AperFunction,Plated,PTH,ViaDrill
T1C0.0157
; #@! TA.AperFunction,Plated,PTH,ComponentDrill
T2C0.0402
; #@! TA.AperFunction,Plated,PTH,ComponentDrill
T3C0.0600
; #@! TA.AperFunction,Plated,PTH,ComponentDrill
T4C0.1200
%
G90
G05
T1
X2.0978Y-1.1604
T2
X0.6749Y-0.6812
X0.6749Y-1.3812
X0.7749Y-0.6812
X0.7749Y-1.3812
X0.8749Y-0.6812
X0.8749Y-1.3812
X0.9749Y-0.6812
X0.9749Y-1.3812
X1.0749Y-0.6812
X1.0749Y-1.3812
X1.1749Y-0.6812
X1.1749Y-1.3812
X1.2749Y-0.6812
X1.2749Y-1.3812
X1.3749Y-0.6812
X1.3749Y-1.3812
X1.4749Y-0.6812
X1.4749Y-1.3812
X1.5749Y-0.6812
X1.5749Y-1.3812
X1.6749Y-0.6812
X1.6749Y-1.3812
X1.7749Y-0.6812
X1.7749Y-1.3812
X1.8749Y-0.6812
X1.8749Y-1.3812
X1.9749Y-0.6812
X1.9749Y-1.3812
X2.0749Y-0.6812
X2.0749Y-1.3812
X2.1749Y-0.6812
X2.1749Y-1.3812
X2.2749Y-0.6812
X2.2749Y-1.3812
X2.3749Y-0.6812
X2.3749Y-1.3812
X2.4749Y-0.6812
X2.4749Y-1.3812
X2.5749Y-0.6812
X2.5749Y-1.3812
T3
X0.85Y-0.9
X0.9437Y-3.8997
X1.0374Y-1.6499
X1.1Y-0.8
X1.1311Y-2.3998
X1.1937Y-3.7997
X1.2874Y-1.5499
X1.3187Y-3.1498
X1.3811Y-2.2998
X1.5687Y-3.0498
X1.6Y-0.9
X1.85Y-0.8
X1.8811Y-3.8997
X1.9749Y-1.6499
X2.1311Y-3.7997
X2.1624Y-2.3998
X2.2249Y-1.5499
X2.35Y-0.9
X2.4124Y-2.2998
X2.5373Y-3.1498
X2.6Y-0.8
X2.7248Y-1.6499
X2.7873Y-3.0498
X2.8186Y-3.8997
X2.9123Y-2.3998
X2.9748Y-1.5499
X3.0686Y-3.7997
X3.1Y-0.9
X3.1623Y-2.2998
X3.2873Y-3.1498
X3.35Y-0.8
X3.4748Y-1.6499
X3.5373Y-3.0498
X3.6623Y-2.3998
X3.7248Y-1.5499
X3.85Y-0.9
X3.9123Y-2.2998
X4.0372Y-3.1498
X4.1Y-0.8
X4.2248Y-1.6499
X4.2872Y-3.0498
X4.4123Y-2.3998
X4.4748Y-1.5499
X4.6Y-0.9
X4.6623Y-2.2998
X4.787Y-3.1498
X4.85Y-0.8
X4.9748Y-1.6499
X5.037Y-3.0498
X5.1623Y-2.3998
X5.2248Y-1.5499
X5.35Y-0.9
X5.4123Y-2.2998
X5.537Y-3.1498
X5.6Y-0.8
X5.6309Y-3.8997
X5.7248Y-1.6499
X5.787Y-3.0498
X5.8809Y-3.7997
X5.9123Y-2.3998
X5.9748Y-1.5499
X6.1Y-0.9
X6.1623Y-2.2998
X6.287Y-3.1498
X6.35Y-0.8
X6.4748Y-1.6499
X6.537Y-3.0498
X6.6623Y-2.3998
X6.7248Y-1.5499
X6.85Y-0.9
X6.9123Y-2.2998
X7.037Y-3.1498
X7.1Y-0.8
X7.2248Y-1.6499
X7.287Y-3.0498
X7.4123Y-2.3998
X7.4748Y-1.5499
X7.6Y-0.9
X7.6623Y-2.2998
X7.787Y-3.1498
X7.85Y-0.8
X7.9748Y-1.6499
X8.037Y-3.0498
X8.1623Y-2.3998
X8.2248Y-1.5499
X8.35Y-0.9
X8.4123Y-2.2998
X8.4432Y-3.8997
X8.537Y-3.1498
X8.6Y-0.8
X8.6932Y-3.7997
X8.7248Y-1.6499
X8.787Y-3.0498
X8.9123Y-2.3998
X8.9748Y-1.5499
X9.1Y-0.9
X9.1623Y-2.2998
X9.2869Y-3.1498
X9.35Y-0.8
X9.3806Y-3.9022
X9.4748Y-1.6499
X9.5369Y-3.0498
X9.6306Y-3.8022
X9.6623Y-2.3998
X9.7248Y-1.5499
X9.85Y-0.9
X9.9123Y-2.2998
X10.1Y-0.8
X10.2244Y-1.6499
X10.3181Y-3.9022
X10.4744Y-1.5499
X10.5681Y-3.8022
X10.6934Y-3.1488
X10.8806Y-2.3998
X10.9434Y-3.0488
X10.975Y-0.9
X11.1306Y-2.2998
X11.1618Y-1.6499
X11.225Y-0.8
X11.2556Y-3.9022
X11.4118Y-1.5499
X11.5056Y-3.8022
T4
X0.9999Y-2.9748
X1.9374Y-2.9748
X3.8121Y-3.7247
X7.7496Y-3.7247
X10.3746Y-2.9738
X10.5618Y-2.2248
X10.6555Y-0.7249
X11.3121Y-2.9738
X11.4993Y-2.2248
X11.593Y-0.7249
T0
M30
