%TF.GenerationSoftware,KiCad,Pcbnew,6.0.6-3a73a75311~116~ubuntu21.10.1*%
%TF.CreationDate,2022-10-20T16:32:42+02:00*%
%TF.ProjectId,Keyboard,4b657962-6f61-4726-942e-6b696361645f,rev?*%
%TF.SameCoordinates,Original*%
%TF.FileFunction,Soldermask,Bot*%
%TF.FilePolarity,Negative*%
%FSLAX46Y46*%
G04 Gerber Fmt 4.6, Leading zero omitted, Abs format (unit mm)*
G04 Created by KiCad (PCBNEW 6.0.6-3a73a75311~116~ubuntu21.10.1) date 2022-10-20 16:32:42*
%MOMM*%
%LPD*%
G01*
G04 APERTURE LIST*
%ADD10C,3.987800*%
%ADD11C,4.000000*%
%ADD12C,2.300000*%
%ADD13C,1.750000*%
%ADD14O,1.700000X1.700000*%
%ADD15R,1.700000X1.700000*%
%ADD16R,1.200000X0.900000*%
G04 APERTURE END LIST*
D10*
%TO.C,REF\u002A\u002A*%
X96828250Y-109848600D03*
D11*
X96828250Y-94608600D03*
D10*
X196840750Y-109848600D03*
D11*
X196840750Y-94608600D03*
%TD*%
%TO.C,STAB4*%
X287327750Y-75535500D03*
D10*
X263515250Y-90775500D03*
D11*
X263515250Y-75535500D03*
D10*
X287327750Y-90775500D03*
%TD*%
%TO.C,STAB3*%
X49210150Y-90799800D03*
X25397650Y-90799800D03*
D11*
X49210150Y-75559800D03*
X25397650Y-75559800D03*
%TD*%
D10*
%TO.C,STAB1*%
X294463450Y-33653400D03*
X270650950Y-33653400D03*
D11*
X270650950Y-18413400D03*
X294463450Y-18413400D03*
%TD*%
D10*
%TO.C,STAB2*%
X292082350Y-71751000D03*
X268269850Y-71751000D03*
D11*
X292082350Y-56511000D03*
X268269850Y-56511000D03*
%TD*%
D12*
%TO.C,SW33*%
X118421600Y-58415700D03*
X112071600Y-60955700D03*
D10*
X115881600Y-63495700D03*
D13*
X120961600Y-63495700D03*
X110801600Y-63495700D03*
%TD*%
%TO.C,SW58*%
X223347500Y-101593600D03*
D10*
X218267500Y-101593600D03*
D13*
X213187500Y-101593600D03*
D12*
X214457500Y-99053600D03*
X220807500Y-96513600D03*
%TD*%
D13*
%TO.C,SW56*%
X80481500Y-101593600D03*
D10*
X75401500Y-101593600D03*
D13*
X70321500Y-101593600D03*
D12*
X71591500Y-99053600D03*
X77941500Y-96513600D03*
%TD*%
D13*
%TO.C,SW55*%
X56670500Y-101593600D03*
D10*
X51590500Y-101593600D03*
D13*
X46510500Y-101593600D03*
D12*
X47780500Y-99053600D03*
X54130500Y-96513600D03*
%TD*%
D13*
%TO.C,SW54*%
X32859700Y-101593300D03*
D10*
X27779700Y-101593300D03*
D13*
X22699700Y-101593300D03*
D12*
X23969700Y-99053300D03*
X30319700Y-96513300D03*
%TD*%
%TO.C,SW31*%
X80322600Y-58416000D03*
X73972600Y-60956000D03*
D13*
X72702600Y-63496000D03*
D10*
X77782600Y-63496000D03*
D13*
X82862600Y-63496000D03*
%TD*%
%TO.C,SW29*%
X27460200Y-63496000D03*
D10*
X32540200Y-63496000D03*
D13*
X37620200Y-63496000D03*
D12*
X28730200Y-60956000D03*
X35080200Y-58416000D03*
%TD*%
D13*
%TO.C,SW28*%
X292399600Y-44446900D03*
D10*
X287319600Y-44446900D03*
D13*
X282239600Y-44446900D03*
D12*
X283509600Y-41906900D03*
X289859600Y-39366900D03*
%TD*%
%TO.C,SW16*%
X56511600Y-39367200D03*
X50161600Y-41907200D03*
D13*
X48891600Y-44447200D03*
D10*
X53971600Y-44447200D03*
D13*
X59051600Y-44447200D03*
%TD*%
D12*
%TO.C,SW15*%
X32700600Y-39367200D03*
X26350600Y-41907200D03*
D13*
X25080600Y-44447200D03*
D10*
X30160600Y-44447200D03*
D13*
X35240600Y-44447200D03*
%TD*%
D14*
%TO.C,U1*%
X17142400Y-35082100D03*
X19682400Y-35082100D03*
D15*
X22222400Y-35082100D03*
D14*
X24762400Y-35082100D03*
X27302400Y-35082100D03*
X29842400Y-35082100D03*
X32382400Y-35082100D03*
D15*
X34922400Y-35082100D03*
D14*
X37462400Y-35082100D03*
X40002400Y-35082100D03*
X42542400Y-35082100D03*
X45082400Y-35082100D03*
D15*
X47622400Y-35082100D03*
D14*
X50162400Y-35082100D03*
X52702400Y-35082100D03*
X55242400Y-35082100D03*
X57782400Y-35082100D03*
D15*
X60322400Y-35082100D03*
D14*
X62862400Y-35082100D03*
X65402400Y-35082100D03*
X65402400Y-17302100D03*
X62862400Y-17302100D03*
D15*
X60322400Y-17302100D03*
D14*
X57782400Y-17302100D03*
X55242400Y-17302100D03*
X52702400Y-17302100D03*
X50162400Y-17302100D03*
D15*
X47622400Y-17302100D03*
D14*
X45082400Y-17302100D03*
X42542400Y-17302100D03*
X40002400Y-17302100D03*
X37462400Y-17302100D03*
D15*
X34922400Y-17302100D03*
D14*
X32382400Y-17302100D03*
X29842400Y-17302100D03*
X27302400Y-17302100D03*
X24762400Y-17302100D03*
D15*
X22222400Y-17302100D03*
D14*
X19682400Y-17302100D03*
X17142400Y-17302100D03*
%TD*%
D12*
%TO.C,SW9*%
X180340000Y-20320000D03*
X173990000Y-22860000D03*
D13*
X182880000Y-25400000D03*
D10*
X177800000Y-25400000D03*
D13*
X172720000Y-25400000D03*
%TD*%
D12*
%TO.C,SW4*%
X85090000Y-20320000D03*
X78740000Y-22860000D03*
D13*
X87630000Y-25400000D03*
D10*
X82550000Y-25400000D03*
D13*
X77470000Y-25400000D03*
%TD*%
D12*
%TO.C,SW30*%
X61273800Y-58416000D03*
X54923800Y-60956000D03*
D10*
X58733800Y-63496000D03*
D13*
X63813800Y-63496000D03*
X53653800Y-63496000D03*
%TD*%
%TO.C,SW42*%
X32224100Y-82544500D03*
X42384100Y-82544500D03*
D10*
X37304100Y-82544500D03*
D12*
X33494100Y-80004500D03*
X39844100Y-77464500D03*
%TD*%
D13*
%TO.C,SW25*%
X230500600Y-44446900D03*
X220340600Y-44446900D03*
D10*
X225420600Y-44446900D03*
D12*
X221610600Y-41906900D03*
X227960600Y-39366900D03*
%TD*%
D10*
%TO.C,SW49*%
X182548600Y-82544800D03*
D13*
X187628600Y-82544800D03*
X177468600Y-82544800D03*
D12*
X178738600Y-80004800D03*
X185088600Y-77464800D03*
%TD*%
%TO.C,SW12*%
X237490000Y-20320000D03*
X231140000Y-22860000D03*
D13*
X240030000Y-25400000D03*
D10*
X234950000Y-25400000D03*
D13*
X229870000Y-25400000D03*
%TD*%
D10*
%TO.C,SW20*%
X130170600Y-44446900D03*
D13*
X125090600Y-44446900D03*
X135250600Y-44446900D03*
D12*
X126360600Y-41906900D03*
X132710600Y-39366900D03*
%TD*%
%TO.C,SW11*%
X218440000Y-20320000D03*
X212090000Y-22860000D03*
D10*
X215900000Y-25400000D03*
D13*
X220980000Y-25400000D03*
X210820000Y-25400000D03*
%TD*%
D12*
%TO.C,SW40*%
X251771600Y-58415700D03*
X245421600Y-60955700D03*
D10*
X249231600Y-63495700D03*
D13*
X244151600Y-63495700D03*
X254311600Y-63495700D03*
%TD*%
%TO.C,SW23*%
X192400600Y-44446900D03*
X182240600Y-44446900D03*
D10*
X187320600Y-44446900D03*
D12*
X183510600Y-41906900D03*
X189860600Y-39366900D03*
%TD*%
D10*
%TO.C,SW50*%
X201598600Y-82544800D03*
D13*
X206678600Y-82544800D03*
X196518600Y-82544800D03*
D12*
X197788600Y-80004800D03*
X204138600Y-77464800D03*
%TD*%
D13*
%TO.C,SW51*%
X225728600Y-82544800D03*
D10*
X220648600Y-82544800D03*
D13*
X215568600Y-82544800D03*
D12*
X216838600Y-80004800D03*
X223188600Y-77464800D03*
%TD*%
D13*
%TO.C,SW17*%
X67940600Y-44446900D03*
X78100600Y-44446900D03*
D10*
X73020600Y-44446900D03*
D12*
X69210600Y-41906900D03*
X75560600Y-39366900D03*
%TD*%
%TO.C,SW38*%
X213671600Y-58415700D03*
X207321600Y-60955700D03*
D13*
X206051600Y-63495700D03*
D10*
X211131600Y-63495700D03*
D13*
X216211600Y-63495700D03*
%TD*%
D12*
%TO.C,SW37*%
X194621600Y-58415700D03*
X188271600Y-60955700D03*
D10*
X192081600Y-63495700D03*
D13*
X197161600Y-63495700D03*
X187001600Y-63495700D03*
%TD*%
%TO.C,SW14*%
X287655000Y-25400000D03*
X277495000Y-25400000D03*
D10*
X282575000Y-25400000D03*
D12*
X278765000Y-22860000D03*
X285115000Y-20320000D03*
%TD*%
%TO.C,SW13*%
X256540000Y-20320000D03*
X250190000Y-22860000D03*
D13*
X248920000Y-25400000D03*
X259080000Y-25400000D03*
D10*
X254000000Y-25400000D03*
%TD*%
D12*
%TO.C,SW27*%
X266048600Y-39366900D03*
X259698600Y-41906900D03*
D13*
X268588600Y-44446900D03*
X258428600Y-44446900D03*
D10*
X263508600Y-44446900D03*
%TD*%
D12*
%TO.C,SW44*%
X89847200Y-77464500D03*
X83497200Y-80004500D03*
D10*
X87307200Y-82544500D03*
D13*
X92387200Y-82544500D03*
X82227200Y-82544500D03*
%TD*%
D12*
%TO.C,SW43*%
X70798200Y-77464800D03*
X64448200Y-80004800D03*
D10*
X68258200Y-82544800D03*
D13*
X63178200Y-82544800D03*
X73338200Y-82544800D03*
%TD*%
D12*
%TO.C,SW32*%
X99371600Y-58415700D03*
X93021600Y-60955700D03*
D13*
X101911600Y-63495700D03*
X91751600Y-63495700D03*
D10*
X96831600Y-63495700D03*
%TD*%
%TO.C,SW24*%
X206370600Y-44446900D03*
D13*
X201290600Y-44446900D03*
X211450600Y-44446900D03*
D12*
X202560600Y-41906900D03*
X208910600Y-39366900D03*
%TD*%
D10*
%TO.C,SW46*%
X125398600Y-82544800D03*
D13*
X120318600Y-82544800D03*
X130478600Y-82544800D03*
D12*
X121588600Y-80004800D03*
X127938600Y-77464800D03*
%TD*%
D13*
%TO.C,SW52*%
X244777400Y-82544800D03*
X234617400Y-82544800D03*
D10*
X239697400Y-82544800D03*
D12*
X235887400Y-80004800D03*
X242237400Y-77464800D03*
%TD*%
%TO.C,SW39*%
X232721600Y-58415700D03*
X226371600Y-60955700D03*
D13*
X235261600Y-63495700D03*
X225101600Y-63495700D03*
D10*
X230181600Y-63495700D03*
%TD*%
D13*
%TO.C,SW21*%
X144140600Y-44446900D03*
D10*
X149220600Y-44446900D03*
D13*
X154300600Y-44446900D03*
D12*
X145410600Y-41906900D03*
X151760600Y-39366900D03*
%TD*%
%TO.C,SW8*%
X161290000Y-20320000D03*
X154940000Y-22860000D03*
D13*
X153670000Y-25400000D03*
D10*
X158750000Y-25400000D03*
D13*
X163830000Y-25400000D03*
%TD*%
D10*
%TO.C,SW3*%
X63500000Y-25400000D03*
D13*
X68580000Y-25400000D03*
X58420000Y-25400000D03*
D12*
X59690000Y-22860000D03*
X66040000Y-20320000D03*
%TD*%
D13*
%TO.C,SW53*%
X280501500Y-82520500D03*
D10*
X275421500Y-82520500D03*
D13*
X270341500Y-82520500D03*
D12*
X271611500Y-79980500D03*
X277961500Y-77440500D03*
%TD*%
%TO.C,SW61*%
X292242200Y-96575800D03*
X285892200Y-99115800D03*
D13*
X294782200Y-101655800D03*
D10*
X289702200Y-101655800D03*
D13*
X284622200Y-101655800D03*
%TD*%
D12*
%TO.C,SW60*%
X268429700Y-96575800D03*
X262079700Y-99115800D03*
D13*
X270969700Y-101655800D03*
X260809700Y-101655800D03*
D10*
X265889700Y-101655800D03*
%TD*%
%TO.C,SW18*%
X92070600Y-44446900D03*
D13*
X97150600Y-44446900D03*
X86990600Y-44446900D03*
D12*
X88260600Y-41906900D03*
X94610600Y-39366900D03*
%TD*%
D13*
%TO.C,SW26*%
X249550600Y-44446900D03*
X239390600Y-44446900D03*
D10*
X244470600Y-44446900D03*
D12*
X240660600Y-41906900D03*
X247010600Y-39366900D03*
%TD*%
%TO.C,SW2*%
X46990000Y-20320000D03*
X40640000Y-22860000D03*
D13*
X39370000Y-25400000D03*
D10*
X44450000Y-25400000D03*
D13*
X49530000Y-25400000D03*
%TD*%
D12*
%TO.C,SW36*%
X175571600Y-58415700D03*
X169221600Y-60955700D03*
D13*
X178111600Y-63495700D03*
X167951600Y-63495700D03*
D10*
X173031600Y-63495700D03*
%TD*%
D13*
%TO.C,SW5*%
X96520000Y-25400000D03*
X106680000Y-25400000D03*
D10*
X101600000Y-25400000D03*
D12*
X97790000Y-22860000D03*
X104140000Y-20320000D03*
%TD*%
%TO.C,SW57*%
X149374500Y-96513600D03*
X143024500Y-99053600D03*
D13*
X141754500Y-101593600D03*
X151914500Y-101593600D03*
D10*
X146834500Y-101593600D03*
%TD*%
D12*
%TO.C,SW35*%
X156521600Y-58415700D03*
X150171600Y-60955700D03*
D10*
X153981600Y-63495700D03*
D13*
X148901600Y-63495700D03*
X159061600Y-63495700D03*
%TD*%
%TO.C,SW19*%
X106040600Y-44446900D03*
X116200600Y-44446900D03*
D10*
X111120600Y-44446900D03*
D12*
X107310600Y-41906900D03*
X113660600Y-39366900D03*
%TD*%
%TO.C,SW59*%
X244617200Y-96575800D03*
X238267200Y-99115800D03*
D10*
X242077200Y-101655800D03*
D13*
X236997200Y-101655800D03*
X247157200Y-101655800D03*
%TD*%
D10*
%TO.C,SW48*%
X163498600Y-82544800D03*
D13*
X168578600Y-82544800D03*
X158418600Y-82544800D03*
D12*
X159688600Y-80004800D03*
X166038600Y-77464800D03*
%TD*%
%TO.C,SW10*%
X199390000Y-20320000D03*
X193040000Y-22860000D03*
D13*
X191770000Y-25400000D03*
X201930000Y-25400000D03*
D10*
X196850000Y-25400000D03*
%TD*%
%TO.C,SW22*%
X168270600Y-44446900D03*
D13*
X173350600Y-44446900D03*
X163190600Y-44446900D03*
D12*
X164460600Y-41906900D03*
X170810600Y-39366900D03*
%TD*%
%TO.C,SW34*%
X137471600Y-58415700D03*
X131121600Y-60955700D03*
D10*
X134931600Y-63495700D03*
D13*
X129851600Y-63495700D03*
X140011600Y-63495700D03*
%TD*%
D12*
%TO.C,SW45*%
X108895800Y-77464800D03*
X102545800Y-80004800D03*
D13*
X111435800Y-82544800D03*
X101275800Y-82544800D03*
D10*
X106355800Y-82544800D03*
%TD*%
D12*
%TO.C,SW7*%
X142240000Y-20320000D03*
X135890000Y-22860000D03*
D10*
X139700000Y-25400000D03*
D13*
X134620000Y-25400000D03*
X144780000Y-25400000D03*
%TD*%
D12*
%TO.C,SW41*%
X282716100Y-58416000D03*
X276366100Y-60956000D03*
D13*
X275096100Y-63496000D03*
D10*
X280176100Y-63496000D03*
D13*
X285256100Y-63496000D03*
%TD*%
D12*
%TO.C,SW1*%
X27940000Y-20320000D03*
X21590000Y-22860000D03*
D13*
X30480000Y-25400000D03*
D10*
X25400000Y-25400000D03*
D13*
X20320000Y-25400000D03*
%TD*%
D12*
%TO.C,SW6*%
X123190000Y-20320000D03*
X116840000Y-22860000D03*
D13*
X115570000Y-25400000D03*
D10*
X120650000Y-25400000D03*
D13*
X125730000Y-25400000D03*
%TD*%
%TO.C,SW47*%
X149528600Y-82544800D03*
X139368600Y-82544800D03*
D10*
X144448600Y-82544800D03*
D12*
X140638600Y-80004800D03*
X146988600Y-77464800D03*
%TD*%
D16*
%TO.C,D61*%
X286527200Y-104768300D03*
X286527200Y-108068300D03*
%TD*%
%TO.C,D19*%
X107945600Y-50859400D03*
X107945600Y-47559400D03*
%TD*%
%TO.C,D5*%
X98425000Y-31812500D03*
X98425000Y-28512500D03*
%TD*%
%TO.C,D16*%
X50796600Y-50859700D03*
X50796600Y-47559700D03*
%TD*%
%TO.C,D52*%
X236522400Y-88957300D03*
X236522400Y-85657300D03*
%TD*%
%TO.C,D8*%
X155575000Y-31812500D03*
X155575000Y-28512500D03*
%TD*%
%TO.C,D44*%
X84132200Y-85657000D03*
X84132200Y-88957000D03*
%TD*%
%TO.C,D22*%
X165095600Y-50859400D03*
X165095600Y-47559400D03*
%TD*%
%TO.C,D42*%
X34129100Y-85657000D03*
X34129100Y-88957000D03*
%TD*%
%TO.C,D25*%
X222245600Y-50859400D03*
X222245600Y-47559400D03*
%TD*%
%TO.C,D24*%
X203195600Y-50859400D03*
X203195600Y-47559400D03*
%TD*%
%TO.C,D50*%
X198423600Y-88957300D03*
X198423600Y-85657300D03*
%TD*%
%TO.C,D45*%
X103180800Y-85657300D03*
X103180800Y-88957300D03*
%TD*%
%TO.C,D34*%
X131756600Y-66608200D03*
X131756600Y-69908200D03*
%TD*%
%TO.C,D41*%
X277001300Y-66608200D03*
X277001300Y-69908200D03*
%TD*%
%TO.C,D18*%
X88895600Y-50859400D03*
X88895600Y-47559400D03*
%TD*%
%TO.C,D2*%
X41275000Y-31812500D03*
X41275000Y-28512500D03*
%TD*%
%TO.C,D3*%
X60325000Y-28512500D03*
X60325000Y-31812500D03*
%TD*%
%TO.C,D55*%
X48415500Y-104706100D03*
X48415500Y-108006100D03*
%TD*%
%TO.C,D11*%
X212725000Y-31812500D03*
X212725000Y-28512500D03*
%TD*%
%TO.C,D13*%
X250825000Y-31812500D03*
X250825000Y-28512500D03*
%TD*%
%TO.C,D15*%
X26985600Y-47559700D03*
X26985600Y-50859700D03*
%TD*%
%TO.C,D49*%
X179373600Y-88957300D03*
X179373600Y-85657300D03*
%TD*%
%TO.C,D31*%
X74607600Y-66608500D03*
X74607600Y-69908500D03*
%TD*%
%TO.C,D38*%
X207956600Y-66608200D03*
X207956600Y-69908200D03*
%TD*%
%TO.C,D26*%
X241295600Y-50859400D03*
X241295600Y-47559400D03*
%TD*%
%TO.C,D46*%
X122223600Y-88957300D03*
X122223600Y-85657300D03*
%TD*%
%TO.C,D35*%
X150806600Y-66608200D03*
X150806600Y-69908200D03*
%TD*%
%TO.C,D17*%
X69845600Y-50859400D03*
X69845600Y-47559400D03*
%TD*%
%TO.C,D10*%
X193675000Y-31812500D03*
X193675000Y-28512500D03*
%TD*%
%TO.C,D20*%
X126995600Y-50859400D03*
X126995600Y-47559400D03*
%TD*%
%TO.C,D21*%
X146045600Y-50859400D03*
X146045600Y-47559400D03*
%TD*%
%TO.C,D1*%
X22225000Y-31812500D03*
X22225000Y-28512500D03*
%TD*%
%TO.C,D27*%
X260333600Y-47559400D03*
X260333600Y-50859400D03*
%TD*%
%TO.C,D48*%
X160323600Y-88894800D03*
X160323600Y-85594800D03*
%TD*%
%TO.C,D23*%
X184145600Y-50859400D03*
X184145600Y-47559400D03*
%TD*%
%TO.C,D56*%
X72226500Y-104706100D03*
X72226500Y-108006100D03*
%TD*%
%TO.C,D28*%
X284144600Y-47559400D03*
X284144600Y-50859400D03*
%TD*%
%TO.C,D6*%
X117475000Y-31812500D03*
X117475000Y-28512500D03*
%TD*%
%TO.C,D33*%
X112706600Y-66608200D03*
X112706600Y-69908200D03*
%TD*%
%TO.C,D40*%
X246056600Y-66608200D03*
X246056600Y-69908200D03*
%TD*%
%TO.C,D54*%
X24604700Y-104705800D03*
X24604700Y-108005800D03*
%TD*%
%TO.C,D39*%
X227006600Y-66608200D03*
X227006600Y-69908200D03*
%TD*%
%TO.C,D29*%
X29365200Y-66608500D03*
X29365200Y-69908500D03*
%TD*%
%TO.C,D60*%
X262714700Y-104705800D03*
X262714700Y-108005800D03*
%TD*%
%TO.C,D37*%
X188906600Y-66608200D03*
X188906600Y-69908200D03*
%TD*%
%TO.C,D4*%
X79375000Y-31812500D03*
X79375000Y-28512500D03*
%TD*%
%TO.C,D14*%
X279400000Y-31812500D03*
X279400000Y-28512500D03*
%TD*%
%TO.C,D47*%
X141273600Y-88957300D03*
X141273600Y-85657300D03*
%TD*%
%TO.C,D12*%
X231775000Y-31812500D03*
X231775000Y-28512500D03*
%TD*%
%TO.C,D57*%
X143659500Y-104706100D03*
X143659500Y-108006100D03*
%TD*%
%TO.C,D59*%
X238902200Y-104768300D03*
X238902200Y-108068300D03*
%TD*%
%TO.C,D30*%
X55558800Y-66608500D03*
X55558800Y-69908500D03*
%TD*%
%TO.C,D53*%
X272246500Y-88870500D03*
X272246500Y-85570500D03*
%TD*%
%TO.C,D9*%
X174625000Y-31812500D03*
X174625000Y-28512500D03*
%TD*%
%TO.C,D51*%
X217473600Y-88894800D03*
X217473600Y-85594800D03*
%TD*%
%TO.C,D58*%
X215092500Y-104706100D03*
X215092500Y-108006100D03*
%TD*%
%TO.C,D36*%
X169856600Y-66608200D03*
X169856600Y-69908200D03*
%TD*%
%TO.C,D7*%
X136525000Y-31812500D03*
X136525000Y-28512500D03*
%TD*%
%TO.C,D43*%
X65083200Y-85594800D03*
X65083200Y-88894800D03*
%TD*%
%TO.C,D32*%
X93656600Y-66608200D03*
X93656600Y-69908200D03*
%TD*%
M02*
