%TF.GenerationSoftware,KiCad,Pcbnew,6.0.6-3a73a75311~116~ubuntu21.10.1*%
%TF.CreationDate,2022-10-20T16:32:42+02:00*%
%TF.ProjectId,Keyboard,4b657962-6f61-4726-942e-6b696361645f,rev?*%
%TF.SameCoordinates,Original*%
%TF.FileFunction,Paste,Bot*%
%TF.FilePolarity,Positive*%
%FSLAX46Y46*%
G04 Gerber Fmt 4.6, Leading zero omitted, Abs format (unit mm)*
G04 Created by KiCad (PCBNEW 6.0.6-3a73a75311~116~ubuntu21.10.1) date 2022-10-20 16:32:42*
%MOMM*%
%LPD*%
G01*
G04 APERTURE LIST*
%ADD10R,1.200000X0.900000*%
G04 APERTURE END LIST*
D10*
%TO.C,D61*%
X286527200Y-104768300D03*
X286527200Y-108068300D03*
%TD*%
%TO.C,D19*%
X107945600Y-50859400D03*
X107945600Y-47559400D03*
%TD*%
%TO.C,D5*%
X98425000Y-31812500D03*
X98425000Y-28512500D03*
%TD*%
%TO.C,D16*%
X50796600Y-50859700D03*
X50796600Y-47559700D03*
%TD*%
%TO.C,D52*%
X236522400Y-88957300D03*
X236522400Y-85657300D03*
%TD*%
%TO.C,D8*%
X155575000Y-31812500D03*
X155575000Y-28512500D03*
%TD*%
%TO.C,D44*%
X84132200Y-85657000D03*
X84132200Y-88957000D03*
%TD*%
%TO.C,D22*%
X165095600Y-50859400D03*
X165095600Y-47559400D03*
%TD*%
%TO.C,D42*%
X34129100Y-85657000D03*
X34129100Y-88957000D03*
%TD*%
%TO.C,D25*%
X222245600Y-50859400D03*
X222245600Y-47559400D03*
%TD*%
%TO.C,D24*%
X203195600Y-50859400D03*
X203195600Y-47559400D03*
%TD*%
%TO.C,D50*%
X198423600Y-88957300D03*
X198423600Y-85657300D03*
%TD*%
%TO.C,D45*%
X103180800Y-85657300D03*
X103180800Y-88957300D03*
%TD*%
%TO.C,D34*%
X131756600Y-66608200D03*
X131756600Y-69908200D03*
%TD*%
%TO.C,D41*%
X277001300Y-66608200D03*
X277001300Y-69908200D03*
%TD*%
%TO.C,D18*%
X88895600Y-50859400D03*
X88895600Y-47559400D03*
%TD*%
%TO.C,D2*%
X41275000Y-31812500D03*
X41275000Y-28512500D03*
%TD*%
%TO.C,D3*%
X60325000Y-28512500D03*
X60325000Y-31812500D03*
%TD*%
%TO.C,D55*%
X48415500Y-104706100D03*
X48415500Y-108006100D03*
%TD*%
%TO.C,D11*%
X212725000Y-31812500D03*
X212725000Y-28512500D03*
%TD*%
%TO.C,D13*%
X250825000Y-31812500D03*
X250825000Y-28512500D03*
%TD*%
%TO.C,D15*%
X26985600Y-47559700D03*
X26985600Y-50859700D03*
%TD*%
%TO.C,D49*%
X179373600Y-88957300D03*
X179373600Y-85657300D03*
%TD*%
%TO.C,D31*%
X74607600Y-66608500D03*
X74607600Y-69908500D03*
%TD*%
%TO.C,D38*%
X207956600Y-66608200D03*
X207956600Y-69908200D03*
%TD*%
%TO.C,D26*%
X241295600Y-50859400D03*
X241295600Y-47559400D03*
%TD*%
%TO.C,D46*%
X122223600Y-88957300D03*
X122223600Y-85657300D03*
%TD*%
%TO.C,D35*%
X150806600Y-66608200D03*
X150806600Y-69908200D03*
%TD*%
%TO.C,D17*%
X69845600Y-50859400D03*
X69845600Y-47559400D03*
%TD*%
%TO.C,D10*%
X193675000Y-31812500D03*
X193675000Y-28512500D03*
%TD*%
%TO.C,D20*%
X126995600Y-50859400D03*
X126995600Y-47559400D03*
%TD*%
%TO.C,D21*%
X146045600Y-50859400D03*
X146045600Y-47559400D03*
%TD*%
%TO.C,D1*%
X22225000Y-31812500D03*
X22225000Y-28512500D03*
%TD*%
%TO.C,D27*%
X260333600Y-47559400D03*
X260333600Y-50859400D03*
%TD*%
%TO.C,D48*%
X160323600Y-88894800D03*
X160323600Y-85594800D03*
%TD*%
%TO.C,D23*%
X184145600Y-50859400D03*
X184145600Y-47559400D03*
%TD*%
%TO.C,D56*%
X72226500Y-104706100D03*
X72226500Y-108006100D03*
%TD*%
%TO.C,D28*%
X284144600Y-47559400D03*
X284144600Y-50859400D03*
%TD*%
%TO.C,D6*%
X117475000Y-31812500D03*
X117475000Y-28512500D03*
%TD*%
%TO.C,D33*%
X112706600Y-66608200D03*
X112706600Y-69908200D03*
%TD*%
%TO.C,D40*%
X246056600Y-66608200D03*
X246056600Y-69908200D03*
%TD*%
%TO.C,D54*%
X24604700Y-104705800D03*
X24604700Y-108005800D03*
%TD*%
%TO.C,D39*%
X227006600Y-66608200D03*
X227006600Y-69908200D03*
%TD*%
%TO.C,D29*%
X29365200Y-66608500D03*
X29365200Y-69908500D03*
%TD*%
%TO.C,D60*%
X262714700Y-104705800D03*
X262714700Y-108005800D03*
%TD*%
%TO.C,D37*%
X188906600Y-66608200D03*
X188906600Y-69908200D03*
%TD*%
%TO.C,D4*%
X79375000Y-31812500D03*
X79375000Y-28512500D03*
%TD*%
%TO.C,D14*%
X279400000Y-31812500D03*
X279400000Y-28512500D03*
%TD*%
%TO.C,D47*%
X141273600Y-88957300D03*
X141273600Y-85657300D03*
%TD*%
%TO.C,D12*%
X231775000Y-31812500D03*
X231775000Y-28512500D03*
%TD*%
%TO.C,D57*%
X143659500Y-104706100D03*
X143659500Y-108006100D03*
%TD*%
%TO.C,D59*%
X238902200Y-104768300D03*
X238902200Y-108068300D03*
%TD*%
%TO.C,D30*%
X55558800Y-66608500D03*
X55558800Y-69908500D03*
%TD*%
%TO.C,D53*%
X272246500Y-88870500D03*
X272246500Y-85570500D03*
%TD*%
%TO.C,D9*%
X174625000Y-31812500D03*
X174625000Y-28512500D03*
%TD*%
%TO.C,D51*%
X217473600Y-88894800D03*
X217473600Y-85594800D03*
%TD*%
%TO.C,D58*%
X215092500Y-104706100D03*
X215092500Y-108006100D03*
%TD*%
%TO.C,D36*%
X169856600Y-66608200D03*
X169856600Y-69908200D03*
%TD*%
%TO.C,D7*%
X136525000Y-31812500D03*
X136525000Y-28512500D03*
%TD*%
%TO.C,D43*%
X65083200Y-85594800D03*
X65083200Y-88894800D03*
%TD*%
%TO.C,D32*%
X93656600Y-66608200D03*
X93656600Y-69908200D03*
%TD*%
M02*
