%TF.GenerationSoftware,KiCad,Pcbnew,6.0.6-3a73a75311~116~ubuntu21.10.1*%
%TF.CreationDate,2022-10-20T16:32:42+02:00*%
%TF.ProjectId,Keyboard,4b657962-6f61-4726-942e-6b696361645f,rev?*%
%TF.SameCoordinates,Original*%
%TF.FileFunction,Soldermask,Top*%
%TF.FilePolarity,Negative*%
%FSLAX46Y46*%
G04 Gerber Fmt 4.6, Leading zero omitted, Abs format (unit mm)*
G04 Created by KiCad (PCBNEW 6.0.6-3a73a75311~116~ubuntu21.10.1) date 2022-10-20 16:32:42*
%MOMM*%
%LPD*%
G01*
G04 APERTURE LIST*
%ADD10C,3.987800*%
%ADD11C,1.750000*%
%ADD12O,1.700000X1.700000*%
%ADD13R,1.700000X3.500000*%
%ADD14R,1.700000X1.700000*%
G04 APERTURE END LIST*
D10*
%TO.C,REF\u002A\u002A*%
X96828250Y-109848600D03*
X196840750Y-109848600D03*
%TD*%
%TO.C,STAB4*%
X263515250Y-90775500D03*
X287327750Y-90775500D03*
%TD*%
%TO.C,STAB3*%
X49210150Y-90799800D03*
X25397650Y-90799800D03*
%TD*%
%TO.C,STAB1*%
X294463450Y-33653400D03*
X270650950Y-33653400D03*
%TD*%
%TO.C,STAB2*%
X292082350Y-71751000D03*
X268269850Y-71751000D03*
%TD*%
%TO.C,SW33*%
X115881600Y-63495700D03*
D11*
X120961600Y-63495700D03*
X110801600Y-63495700D03*
%TD*%
%TO.C,SW58*%
X223347500Y-101593600D03*
D10*
X218267500Y-101593600D03*
D11*
X213187500Y-101593600D03*
%TD*%
%TO.C,SW56*%
X80481500Y-101593600D03*
D10*
X75401500Y-101593600D03*
D11*
X70321500Y-101593600D03*
%TD*%
%TO.C,SW55*%
X56670500Y-101593600D03*
D10*
X51590500Y-101593600D03*
D11*
X46510500Y-101593600D03*
%TD*%
%TO.C,SW54*%
X32859700Y-101593300D03*
D10*
X27779700Y-101593300D03*
D11*
X22699700Y-101593300D03*
%TD*%
%TO.C,SW31*%
X72702600Y-63496000D03*
D10*
X77782600Y-63496000D03*
D11*
X82862600Y-63496000D03*
%TD*%
%TO.C,SW29*%
X27460200Y-63496000D03*
D10*
X32540200Y-63496000D03*
D11*
X37620200Y-63496000D03*
%TD*%
%TO.C,SW28*%
X292399600Y-44446900D03*
D10*
X287319600Y-44446900D03*
D11*
X282239600Y-44446900D03*
%TD*%
%TO.C,SW16*%
X48891600Y-44447200D03*
D10*
X53971600Y-44447200D03*
D11*
X59051600Y-44447200D03*
%TD*%
%TO.C,SW15*%
X25080600Y-44447200D03*
D10*
X30160600Y-44447200D03*
D11*
X35240600Y-44447200D03*
%TD*%
D12*
%TO.C,U1*%
X17142400Y-35082100D03*
D13*
X17142400Y-35982100D03*
D12*
X19682400Y-35082100D03*
D13*
X19682400Y-35982100D03*
X22222400Y-35982100D03*
D14*
X22222400Y-35082100D03*
D13*
X24762400Y-35982100D03*
D12*
X24762400Y-35082100D03*
X27302400Y-35082100D03*
D13*
X27302400Y-35982100D03*
X29842400Y-35982100D03*
D12*
X29842400Y-35082100D03*
X32382400Y-35082100D03*
D13*
X32382400Y-35982100D03*
D14*
X34922400Y-35082100D03*
D13*
X34922400Y-35982100D03*
D12*
X37462400Y-35082100D03*
D13*
X37462400Y-35982100D03*
D12*
X40002400Y-35082100D03*
D13*
X40002400Y-35982100D03*
D12*
X42542400Y-35082100D03*
D13*
X42542400Y-35982100D03*
X45082400Y-35982100D03*
D12*
X45082400Y-35082100D03*
D14*
X47622400Y-35082100D03*
D13*
X47622400Y-35982100D03*
X50162400Y-35982100D03*
D12*
X50162400Y-35082100D03*
X52702400Y-35082100D03*
D13*
X52702400Y-35982100D03*
D12*
X55242400Y-35082100D03*
D13*
X55242400Y-35982100D03*
D12*
X57782400Y-35082100D03*
D13*
X57782400Y-35982100D03*
D14*
X60322400Y-35082100D03*
D13*
X60322400Y-35982100D03*
D12*
X62862400Y-35082100D03*
D13*
X62862400Y-35982100D03*
D12*
X65402400Y-35082100D03*
D13*
X65402400Y-35982100D03*
X65402400Y-16402100D03*
D12*
X65402400Y-17302100D03*
X62862400Y-17302100D03*
D13*
X62862400Y-16402100D03*
X60322400Y-16402100D03*
D14*
X60322400Y-17302100D03*
D13*
X57782400Y-16402100D03*
D12*
X57782400Y-17302100D03*
X55242400Y-17302100D03*
D13*
X55242400Y-16402100D03*
D12*
X52702400Y-17302100D03*
D13*
X52702400Y-16402100D03*
D12*
X50162400Y-17302100D03*
D13*
X50162400Y-16402100D03*
D14*
X47622400Y-17302100D03*
D13*
X47622400Y-16402100D03*
X45082400Y-16402100D03*
D12*
X45082400Y-17302100D03*
X42542400Y-17302100D03*
D13*
X42542400Y-16402100D03*
X40002400Y-16402100D03*
D12*
X40002400Y-17302100D03*
D13*
X37462400Y-16402100D03*
D12*
X37462400Y-17302100D03*
D14*
X34922400Y-17302100D03*
D13*
X34922400Y-16402100D03*
X32382400Y-16402100D03*
D12*
X32382400Y-17302100D03*
D13*
X29842400Y-16402100D03*
D12*
X29842400Y-17302100D03*
X27302400Y-17302100D03*
D13*
X27302400Y-16402100D03*
X24762400Y-16402100D03*
D12*
X24762400Y-17302100D03*
D13*
X22222400Y-16402100D03*
D14*
X22222400Y-17302100D03*
D13*
X19682400Y-16402100D03*
D12*
X19682400Y-17302100D03*
D13*
X17142400Y-16402100D03*
D12*
X17142400Y-17302100D03*
%TD*%
D11*
%TO.C,SW9*%
X182880000Y-25400000D03*
D10*
X177800000Y-25400000D03*
D11*
X172720000Y-25400000D03*
%TD*%
%TO.C,SW4*%
X87630000Y-25400000D03*
D10*
X82550000Y-25400000D03*
D11*
X77470000Y-25400000D03*
%TD*%
D10*
%TO.C,SW30*%
X58733800Y-63496000D03*
D11*
X63813800Y-63496000D03*
X53653800Y-63496000D03*
%TD*%
%TO.C,SW42*%
X32224100Y-82544500D03*
X42384100Y-82544500D03*
D10*
X37304100Y-82544500D03*
%TD*%
D11*
%TO.C,SW25*%
X230500600Y-44446900D03*
X220340600Y-44446900D03*
D10*
X225420600Y-44446900D03*
%TD*%
%TO.C,SW49*%
X182548600Y-82544800D03*
D11*
X187628600Y-82544800D03*
X177468600Y-82544800D03*
%TD*%
%TO.C,SW12*%
X240030000Y-25400000D03*
D10*
X234950000Y-25400000D03*
D11*
X229870000Y-25400000D03*
%TD*%
D10*
%TO.C,SW20*%
X130170600Y-44446900D03*
D11*
X125090600Y-44446900D03*
X135250600Y-44446900D03*
%TD*%
D10*
%TO.C,SW11*%
X215900000Y-25400000D03*
D11*
X220980000Y-25400000D03*
X210820000Y-25400000D03*
%TD*%
D10*
%TO.C,SW40*%
X249231600Y-63495700D03*
D11*
X244151600Y-63495700D03*
X254311600Y-63495700D03*
%TD*%
%TO.C,SW23*%
X192400600Y-44446900D03*
X182240600Y-44446900D03*
D10*
X187320600Y-44446900D03*
%TD*%
%TO.C,SW50*%
X201598600Y-82544800D03*
D11*
X206678600Y-82544800D03*
X196518600Y-82544800D03*
%TD*%
%TO.C,SW51*%
X225728600Y-82544800D03*
D10*
X220648600Y-82544800D03*
D11*
X215568600Y-82544800D03*
%TD*%
%TO.C,SW17*%
X67940600Y-44446900D03*
X78100600Y-44446900D03*
D10*
X73020600Y-44446900D03*
%TD*%
D11*
%TO.C,SW38*%
X206051600Y-63495700D03*
D10*
X211131600Y-63495700D03*
D11*
X216211600Y-63495700D03*
%TD*%
D10*
%TO.C,SW37*%
X192081600Y-63495700D03*
D11*
X197161600Y-63495700D03*
X187001600Y-63495700D03*
%TD*%
%TO.C,SW14*%
X287655000Y-25400000D03*
X277495000Y-25400000D03*
D10*
X282575000Y-25400000D03*
%TD*%
D11*
%TO.C,SW13*%
X248920000Y-25400000D03*
X259080000Y-25400000D03*
D10*
X254000000Y-25400000D03*
%TD*%
D11*
%TO.C,SW27*%
X268588600Y-44446900D03*
X258428600Y-44446900D03*
D10*
X263508600Y-44446900D03*
%TD*%
%TO.C,SW44*%
X87307200Y-82544500D03*
D11*
X92387200Y-82544500D03*
X82227200Y-82544500D03*
%TD*%
D10*
%TO.C,SW43*%
X68258200Y-82544800D03*
D11*
X63178200Y-82544800D03*
X73338200Y-82544800D03*
%TD*%
%TO.C,SW32*%
X101911600Y-63495700D03*
X91751600Y-63495700D03*
D10*
X96831600Y-63495700D03*
%TD*%
%TO.C,SW24*%
X206370600Y-44446900D03*
D11*
X201290600Y-44446900D03*
X211450600Y-44446900D03*
%TD*%
D10*
%TO.C,SW46*%
X125398600Y-82544800D03*
D11*
X120318600Y-82544800D03*
X130478600Y-82544800D03*
%TD*%
%TO.C,SW52*%
X244777400Y-82544800D03*
X234617400Y-82544800D03*
D10*
X239697400Y-82544800D03*
%TD*%
D11*
%TO.C,SW39*%
X235261600Y-63495700D03*
X225101600Y-63495700D03*
D10*
X230181600Y-63495700D03*
%TD*%
D11*
%TO.C,SW21*%
X144140600Y-44446900D03*
D10*
X149220600Y-44446900D03*
D11*
X154300600Y-44446900D03*
%TD*%
%TO.C,SW8*%
X153670000Y-25400000D03*
D10*
X158750000Y-25400000D03*
D11*
X163830000Y-25400000D03*
%TD*%
D10*
%TO.C,SW3*%
X63500000Y-25400000D03*
D11*
X68580000Y-25400000D03*
X58420000Y-25400000D03*
%TD*%
%TO.C,SW53*%
X280501500Y-82520500D03*
D10*
X275421500Y-82520500D03*
D11*
X270341500Y-82520500D03*
%TD*%
%TO.C,SW61*%
X294782200Y-101655800D03*
D10*
X289702200Y-101655800D03*
D11*
X284622200Y-101655800D03*
%TD*%
%TO.C,SW60*%
X270969700Y-101655800D03*
X260809700Y-101655800D03*
D10*
X265889700Y-101655800D03*
%TD*%
%TO.C,SW18*%
X92070600Y-44446900D03*
D11*
X97150600Y-44446900D03*
X86990600Y-44446900D03*
%TD*%
%TO.C,SW26*%
X249550600Y-44446900D03*
X239390600Y-44446900D03*
D10*
X244470600Y-44446900D03*
%TD*%
D11*
%TO.C,SW2*%
X39370000Y-25400000D03*
D10*
X44450000Y-25400000D03*
D11*
X49530000Y-25400000D03*
%TD*%
%TO.C,SW36*%
X178111600Y-63495700D03*
X167951600Y-63495700D03*
D10*
X173031600Y-63495700D03*
%TD*%
D11*
%TO.C,SW5*%
X96520000Y-25400000D03*
X106680000Y-25400000D03*
D10*
X101600000Y-25400000D03*
%TD*%
D11*
%TO.C,SW57*%
X141754500Y-101593600D03*
X151914500Y-101593600D03*
D10*
X146834500Y-101593600D03*
%TD*%
%TO.C,SW35*%
X153981600Y-63495700D03*
D11*
X148901600Y-63495700D03*
X159061600Y-63495700D03*
%TD*%
%TO.C,SW19*%
X106040600Y-44446900D03*
X116200600Y-44446900D03*
D10*
X111120600Y-44446900D03*
%TD*%
%TO.C,SW59*%
X242077200Y-101655800D03*
D11*
X236997200Y-101655800D03*
X247157200Y-101655800D03*
%TD*%
D10*
%TO.C,SW48*%
X163498600Y-82544800D03*
D11*
X168578600Y-82544800D03*
X158418600Y-82544800D03*
%TD*%
%TO.C,SW10*%
X191770000Y-25400000D03*
X201930000Y-25400000D03*
D10*
X196850000Y-25400000D03*
%TD*%
%TO.C,SW22*%
X168270600Y-44446900D03*
D11*
X173350600Y-44446900D03*
X163190600Y-44446900D03*
%TD*%
D10*
%TO.C,SW34*%
X134931600Y-63495700D03*
D11*
X129851600Y-63495700D03*
X140011600Y-63495700D03*
%TD*%
%TO.C,SW45*%
X111435800Y-82544800D03*
X101275800Y-82544800D03*
D10*
X106355800Y-82544800D03*
%TD*%
%TO.C,SW7*%
X139700000Y-25400000D03*
D11*
X134620000Y-25400000D03*
X144780000Y-25400000D03*
%TD*%
%TO.C,SW41*%
X275096100Y-63496000D03*
D10*
X280176100Y-63496000D03*
D11*
X285256100Y-63496000D03*
%TD*%
%TO.C,SW1*%
X30480000Y-25400000D03*
D10*
X25400000Y-25400000D03*
D11*
X20320000Y-25400000D03*
%TD*%
%TO.C,SW6*%
X115570000Y-25400000D03*
D10*
X120650000Y-25400000D03*
D11*
X125730000Y-25400000D03*
%TD*%
%TO.C,SW47*%
X149528600Y-82544800D03*
X139368600Y-82544800D03*
D10*
X144448600Y-82544800D03*
%TD*%
M02*
