M48
; DRILL file {KiCad 6.0.6-3a73a75311~116~ubuntu21.10.1} date wo 26 okt 2022 18:33:12 CEST
; FORMAT={-:-/ absolute / inch / decimal}
; #@! TF.CreationDate,2022-10-26T18:33:12+02:00
; #@! TF.GenerationSoftware,Kicad,Pcbnew,6.0.6-3a73a75311~116~ubuntu21.10.1
; #@! TF.FileFunction,Plated,1,2,PTH
FMAT,2
INCH
; #@! TA.AperFunction,Plated,PTH,ComponentDrill
T1C0.0402
; #@! TA.AperFunction,Plated,PTH,ComponentDrill
T2C0.0600
; #@! TA.AperFunction,Plated,PTH,ComponentDrill
T3C0.1200
%
G90
G05
T1
X2.9863Y-2.2561
X2.9863Y-2.9561
X3.0863Y-2.2561
X3.0863Y-2.9561
X3.1863Y-2.2561
X3.1863Y-2.9561
X3.2863Y-2.2561
X3.2863Y-2.9561
X3.3863Y-2.2561
X3.3863Y-2.9561
X3.4863Y-2.2561
X3.4863Y-2.9561
X3.5863Y-2.2561
X3.5863Y-2.9561
X3.6863Y-2.2561
X3.6863Y-2.9561
X3.7863Y-2.2561
X3.7863Y-2.9561
X3.8863Y-2.2561
X3.8863Y-2.9561
X3.9863Y-2.2561
X3.9863Y-2.9561
X4.0863Y-2.2561
X4.0863Y-2.9561
X4.1863Y-2.2561
X4.1863Y-2.9561
X4.2863Y-2.2561
X4.2863Y-2.9561
X4.3863Y-2.2561
X4.3863Y-2.9561
X4.4863Y-2.2561
X4.4863Y-2.9561
X4.5863Y-2.2561
X4.5863Y-2.9561
X4.6863Y-2.2561
X4.6863Y-2.9561
X4.7863Y-2.2561
X4.7863Y-2.9561
X4.8863Y-2.2561
X4.8863Y-2.9561
T2
X3.1561Y-2.4749
X3.2498Y-5.4747
X3.3435Y-3.2248
X3.4061Y-2.3749
X3.4372Y-3.9748
X3.4998Y-5.3747
X3.5935Y-3.1248
X3.6248Y-4.7247
X3.6872Y-3.8748
X3.8748Y-4.6247
X3.9061Y-2.4749
X4.1561Y-2.3749
X4.1872Y-5.4747
X4.281Y-3.2248
X4.4372Y-5.3747
X4.4685Y-3.9748
X4.531Y-3.1248
X4.6561Y-2.4749
X4.7185Y-3.8748
X4.8434Y-4.7247
X4.9061Y-2.3749
X5.0309Y-3.2248
X5.0934Y-4.6247
X5.1247Y-5.4747
X5.2184Y-3.9748
X5.2809Y-3.1248
X5.3747Y-5.3747
X5.4061Y-2.4749
X5.4684Y-3.8748
X5.5934Y-4.7247
X5.6561Y-2.3749
X5.7809Y-3.2248
X5.8434Y-4.6247
X5.9684Y-3.9748
X6.0309Y-3.1248
X6.1561Y-2.4749
X6.2184Y-3.8748
X6.3433Y-4.7247
X6.4061Y-2.3749
X6.5309Y-3.2248
X6.5933Y-4.6247
X6.7184Y-3.9748
X6.7809Y-3.1248
X6.9061Y-2.4749
X6.9684Y-3.8748
X7.0931Y-4.7247
X7.1561Y-2.3749
X7.2809Y-3.2248
X7.3431Y-4.6247
X7.4684Y-3.9748
X7.5309Y-3.1248
X7.6561Y-2.4749
X7.7184Y-3.8748
X7.8431Y-4.7247
X7.9061Y-2.3749
X7.937Y-5.4747
X8.0309Y-3.2248
X8.0931Y-4.6247
X8.187Y-5.3747
X8.2184Y-3.9748
X8.2809Y-3.1248
X8.4061Y-2.4749
X8.4684Y-3.8748
X8.5931Y-4.7247
X8.6561Y-2.3749
X8.7809Y-3.2248
X8.8431Y-4.6247
X8.9684Y-3.9748
X9.0309Y-3.1248
X9.1561Y-2.4749
X9.2184Y-3.8748
X9.3431Y-4.7247
X9.4061Y-2.3749
X9.5309Y-3.2248
X9.5931Y-4.6247
X9.7184Y-3.9748
X9.7809Y-3.1248
X9.9061Y-2.4749
X9.9684Y-3.8748
X10.0931Y-4.7247
X10.1561Y-2.3749
X10.2809Y-3.2248
X10.3431Y-4.6247
X10.4684Y-3.9748
X10.5309Y-3.1248
X10.6561Y-2.4749
X10.7184Y-3.8748
X10.7493Y-5.4747
X10.8431Y-4.7247
X10.9061Y-2.3749
X10.9993Y-5.3747
X11.0309Y-3.2248
X11.0931Y-4.6247
X11.2184Y-3.9748
X11.2809Y-3.1248
X11.4061Y-2.4749
X11.4684Y-3.8748
X11.593Y-4.7247
X11.6561Y-2.3749
X11.6867Y-5.4747
X11.7809Y-3.2248
X11.843Y-4.6247
X11.9367Y-5.3747
X11.9684Y-3.9748
X12.0309Y-3.1248
X12.1561Y-2.4749
X12.2184Y-3.8748
X12.4061Y-2.3749
X12.5305Y-3.2248
X12.6242Y-5.4747
X12.7805Y-3.1248
X12.8742Y-5.3747
X12.9992Y-4.7247
X13.1867Y-3.9748
X13.2492Y-4.6247
X13.2811Y-2.4749
X13.4367Y-3.8748
X13.4679Y-3.2248
X13.5311Y-2.3749
X13.5616Y-5.4747
X13.7179Y-3.1248
X13.8116Y-5.3747
T3
X3.306Y-4.5497
X4.2435Y-4.5497
X6.1182Y-5.2997
X10.0557Y-5.2997
X12.6804Y-4.5497
X12.8679Y-3.7998
X12.9616Y-2.2999
X13.6179Y-4.5497
X13.8054Y-3.7998
X13.8991Y-2.2999
T0
M30
