M48
; DRILL file {KiCad 6.0.6-3a73a75311~116~ubuntu21.10.1} date zo 06 nov 2022 16:32:57 CET
; FORMAT={-:-/ absolute / metric / decimal}
; #@! TF.CreationDate,2022-11-06T16:32:57+01:00
; #@! TF.GenerationSoftware,Kicad,Pcbnew,6.0.6-3a73a75311~116~ubuntu21.10.1
; #@! TF.FileFunction,Plated,1,2,PTH
FMAT,2
METRIC
; #@! TA.AperFunction,Plated,PTH,ViaDrill
T1C0.400
; #@! TA.AperFunction,Plated,PTH,ComponentDrill
T2C1.020
; #@! TA.AperFunction,Plated,PTH,ComponentDrill
T3C1.100
; #@! TA.AperFunction,Plated,PTH,ComponentDrill
T4C1.524
; #@! TA.AperFunction,Plated,PTH,ComponentDrill
T5C3.048
%
G90
G05
T1
X107.943Y-69.846
X144.453Y-73.814
T2
X75.851Y-57.305
X75.851Y-75.085
X78.391Y-57.305
X78.391Y-75.085
X80.931Y-57.305
X80.931Y-75.085
X83.471Y-57.305
X83.471Y-75.085
X86.011Y-57.305
X86.011Y-75.085
X88.551Y-57.305
X88.551Y-75.085
X91.091Y-57.305
X91.091Y-75.085
X93.631Y-57.305
X93.631Y-75.085
X96.171Y-57.305
X96.171Y-75.085
X98.711Y-57.305
X98.711Y-75.085
X101.251Y-57.305
X101.251Y-75.085
X103.791Y-57.305
X103.791Y-75.085
X106.331Y-57.305
X106.331Y-75.085
X108.871Y-57.305
X108.871Y-75.085
X111.411Y-57.305
X111.411Y-75.085
X113.951Y-57.305
X113.951Y-75.085
X116.491Y-57.305
X116.491Y-75.085
X119.031Y-57.305
X119.031Y-75.085
X121.571Y-57.305
X121.571Y-75.085
X124.111Y-57.305
X124.111Y-75.085
T3
X98.55Y-81.676
X98.55Y-88.176
X103.05Y-81.676
X103.05Y-88.176
T4
X80.165Y-62.863
X82.545Y-139.057
X84.925Y-81.91
X86.515Y-60.323
X87.305Y-100.959
X88.895Y-136.517
X91.275Y-79.37
X92.069Y-120.008
X93.655Y-98.419
X98.419Y-117.468
X99.215Y-62.863
X105.565Y-60.323
X106.355Y-139.057
X108.736Y-81.91
X112.705Y-136.517
X113.499Y-100.959
X115.087Y-79.37
X118.265Y-62.863
X119.849Y-98.419
X123.023Y-120.008
X124.615Y-60.323
X127.785Y-81.91
X129.373Y-117.468
X130.166Y-139.057
X132.547Y-100.959
X134.136Y-79.37
X136.516Y-136.517
X137.315Y-62.863
X138.897Y-98.419
X142.072Y-120.008
X143.665Y-60.323
X146.835Y-81.91
X148.422Y-117.468
X151.596Y-100.959
X153.185Y-79.37
X156.365Y-62.863
X157.946Y-98.419
X161.121Y-120.008
X162.715Y-60.323
X165.885Y-81.91
X167.471Y-117.468
X170.647Y-100.959
X172.236Y-79.37
X175.415Y-62.863
X176.996Y-98.419
X180.163Y-120.008
X181.765Y-60.323
X184.935Y-81.91
X186.513Y-117.468
X189.696Y-100.959
X191.285Y-79.37
X194.465Y-62.863
X196.046Y-98.419
X199.213Y-120.008
X200.815Y-60.323
X201.599Y-139.057
X203.986Y-81.91
X205.564Y-117.468
X207.949Y-136.517
X208.746Y-100.959
X210.335Y-79.37
X213.515Y-62.863
X215.096Y-98.419
X218.263Y-120.008
X219.865Y-60.323
X223.035Y-81.91
X224.613Y-117.468
X227.796Y-100.959
X229.385Y-79.37
X232.565Y-62.863
X234.147Y-98.419
X237.313Y-120.008
X238.915Y-60.323
X242.085Y-81.91
X243.663Y-117.468
X246.846Y-100.959
X248.435Y-79.37
X251.615Y-62.863
X253.196Y-98.419
X256.363Y-120.008
X257.965Y-60.323
X261.135Y-81.91
X262.714Y-117.468
X265.897Y-100.959
X267.486Y-79.37
X270.665Y-62.863
X272.246Y-98.419
X273.032Y-139.057
X275.413Y-120.008
X277.015Y-60.323
X279.382Y-136.517
X280.185Y-81.91
X281.763Y-117.468
X284.947Y-100.959
X286.536Y-79.37
X289.715Y-62.863
X291.296Y-98.419
X294.462Y-120.008
X296.065Y-60.323
X296.842Y-139.057
X299.236Y-81.91
X300.812Y-117.468
X303.192Y-136.517
X303.996Y-100.959
X305.585Y-79.37
X308.765Y-62.863
X310.346Y-98.419
X315.115Y-60.323
X318.274Y-81.91
X320.654Y-139.057
X324.623Y-79.37
X327.004Y-136.517
X330.179Y-120.008
X334.941Y-100.959
X336.529Y-117.468
X337.34Y-62.863
X341.291Y-98.419
X342.084Y-81.91
X343.69Y-60.323
X344.465Y-139.057
X348.434Y-79.37
X350.815Y-136.517
T5
X83.973Y-115.563
X107.785Y-115.563
X155.403Y-148.582
X255.416Y-148.582
X322.083Y-115.563
X326.845Y-96.514
X329.226Y-58.417
X345.895Y-115.563
X350.657Y-96.514
X353.038Y-58.417
T0
M30
