%FSLAX45Y45*%
G04 Gerber Fmt 4.5, Leading zero omitted, Abs format (unit mm)*
G04 Created by KiCad (PCBNEW 6.0.6-3a73a75311~116~ubuntu21.10.1) date 2022-11-06 15:32:38*
%MOMM*%
%LPD*%
G01*
G04 APERTURE LIST*
%TA.AperFunction,Profile*%
%ADD10C,0.100000*%
%TD*%
%ADD11C,0.200000*%
%ADD12C,0.040000*%
%ADD13C,0.102000*%
%ADD14C,0.110000*%
%ADD15C,0.152400*%
%ADD16C,0.304800*%
G04 APERTURE END LIST*
D10*
X36027002Y-15112325D02*
X7441676Y-15112325D01*
X7441676Y-15112325D02*
X7441676Y-5559533D01*
X7441676Y-5559533D02*
X36027002Y-5559533D01*
X36027002Y-5559533D02*
X36027002Y-15112325D01*
D11*
D12*
X10774320Y-6964560D02*
X10814320Y-7004560D01*
X10814320Y-6964560D02*
X10774320Y-7004560D01*
X14425340Y-7361410D02*
X14465340Y-7401410D01*
X14465340Y-7361410D02*
X14425340Y-7401410D01*
D13*
X7636100Y-5730540D02*
G75*
G03*
X7636100Y-5730540I-51000J0D01*
G01*
X7636100Y-7508540D02*
G75*
G03*
X7636100Y-7508540I-51000J0D01*
G01*
X7890100Y-5730540D02*
G75*
G03*
X7890100Y-5730540I-51000J0D01*
G01*
X7890100Y-7508540D02*
G75*
G03*
X7890100Y-7508540I-51000J0D01*
G01*
X8144100Y-5730540D02*
G75*
G03*
X8144100Y-5730540I-51000J0D01*
G01*
X8144100Y-7508540D02*
G75*
G03*
X8144100Y-7508540I-51000J0D01*
G01*
X8398100Y-5730540D02*
G75*
G03*
X8398100Y-5730540I-51000J0D01*
G01*
X8398100Y-7508540D02*
G75*
G03*
X8398100Y-7508540I-51000J0D01*
G01*
X8652100Y-5730540D02*
G75*
G03*
X8652100Y-5730540I-51000J0D01*
G01*
X8652100Y-7508540D02*
G75*
G03*
X8652100Y-7508540I-51000J0D01*
G01*
X8906100Y-5730540D02*
G75*
G03*
X8906100Y-5730540I-51000J0D01*
G01*
X8906100Y-7508540D02*
G75*
G03*
X8906100Y-7508540I-51000J0D01*
G01*
X9160100Y-5730540D02*
G75*
G03*
X9160100Y-5730540I-51000J0D01*
G01*
X9160100Y-7508540D02*
G75*
G03*
X9160100Y-7508540I-51000J0D01*
G01*
X9414100Y-5730540D02*
G75*
G03*
X9414100Y-5730540I-51000J0D01*
G01*
X9414100Y-7508540D02*
G75*
G03*
X9414100Y-7508540I-51000J0D01*
G01*
X9668100Y-5730540D02*
G75*
G03*
X9668100Y-5730540I-51000J0D01*
G01*
X9668100Y-7508540D02*
G75*
G03*
X9668100Y-7508540I-51000J0D01*
G01*
X9922100Y-5730540D02*
G75*
G03*
X9922100Y-5730540I-51000J0D01*
G01*
X9922100Y-7508540D02*
G75*
G03*
X9922100Y-7508540I-51000J0D01*
G01*
X10176100Y-5730540D02*
G75*
G03*
X10176100Y-5730540I-51000J0D01*
G01*
X10176100Y-7508540D02*
G75*
G03*
X10176100Y-7508540I-51000J0D01*
G01*
X10430100Y-5730540D02*
G75*
G03*
X10430100Y-5730540I-51000J0D01*
G01*
X10430100Y-7508540D02*
G75*
G03*
X10430100Y-7508540I-51000J0D01*
G01*
X10684100Y-5730540D02*
G75*
G03*
X10684100Y-5730540I-51000J0D01*
G01*
X10684100Y-7508540D02*
G75*
G03*
X10684100Y-7508540I-51000J0D01*
G01*
X10938100Y-5730540D02*
G75*
G03*
X10938100Y-5730540I-51000J0D01*
G01*
X10938100Y-7508540D02*
G75*
G03*
X10938100Y-7508540I-51000J0D01*
G01*
X11192100Y-5730540D02*
G75*
G03*
X11192100Y-5730540I-51000J0D01*
G01*
X11192100Y-7508540D02*
G75*
G03*
X11192100Y-7508540I-51000J0D01*
G01*
X11446100Y-5730540D02*
G75*
G03*
X11446100Y-5730540I-51000J0D01*
G01*
X11446100Y-7508540D02*
G75*
G03*
X11446100Y-7508540I-51000J0D01*
G01*
X11700100Y-5730540D02*
G75*
G03*
X11700100Y-5730540I-51000J0D01*
G01*
X11700100Y-7508540D02*
G75*
G03*
X11700100Y-7508540I-51000J0D01*
G01*
X11954100Y-5730540D02*
G75*
G03*
X11954100Y-5730540I-51000J0D01*
G01*
X11954100Y-7508540D02*
G75*
G03*
X11954100Y-7508540I-51000J0D01*
G01*
X12208100Y-5730540D02*
G75*
G03*
X12208100Y-5730540I-51000J0D01*
G01*
X12208100Y-7508540D02*
G75*
G03*
X12208100Y-7508540I-51000J0D01*
G01*
X12462100Y-5730540D02*
G75*
G03*
X12462100Y-5730540I-51000J0D01*
G01*
X12462100Y-7508540D02*
G75*
G03*
X12462100Y-7508540I-51000J0D01*
G01*
D14*
X9854990Y-8112590D02*
X9854990Y-8222590D01*
X9799990Y-8167590D02*
X9909990Y-8167590D01*
X9854990Y-8762590D02*
X9854990Y-8872590D01*
X9799990Y-8817590D02*
X9909990Y-8817590D01*
X10304990Y-8112590D02*
X10304990Y-8222590D01*
X10249990Y-8167590D02*
X10359990Y-8167590D01*
X10304990Y-8762590D02*
X10304990Y-8872590D01*
X10249990Y-8817590D02*
X10359990Y-8817590D01*
D15*
X8070372Y-6340212D02*
X8070372Y-6232448D01*
X7962608Y-6232448D01*
X7962608Y-6340212D01*
X8070372Y-6340212D01*
X8308342Y-13959542D02*
X8308342Y-13851778D01*
X8200578Y-13851778D01*
X8200578Y-13959542D01*
X8308342Y-13959542D01*
X8546432Y-8244932D02*
X8546432Y-8137168D01*
X8438668Y-8137168D01*
X8438668Y-8244932D01*
X8546432Y-8244932D01*
X8705372Y-6086212D02*
X8705372Y-5978448D01*
X8597608Y-5978448D01*
X8597608Y-6086212D01*
X8705372Y-6086212D01*
X8784392Y-10149812D02*
X8784392Y-10042048D01*
X8676628Y-10042048D01*
X8676628Y-10149812D01*
X8784392Y-10149812D01*
X8943342Y-13705542D02*
X8943342Y-13597778D01*
X8835578Y-13597778D01*
X8835578Y-13705542D01*
X8943342Y-13705542D01*
X9181432Y-7990932D02*
X9181432Y-7883168D01*
X9073668Y-7883168D01*
X9073668Y-7990932D01*
X9181432Y-7990932D01*
X9260782Y-12054662D02*
X9260782Y-11946898D01*
X9153018Y-11946898D01*
X9153018Y-12054662D01*
X9260782Y-12054662D01*
X9419392Y-9895812D02*
X9419392Y-9788048D01*
X9311628Y-9788048D01*
X9311628Y-9895812D01*
X9419392Y-9895812D01*
X9895782Y-11800662D02*
X9895782Y-11692898D01*
X9788018Y-11692898D01*
X9788018Y-11800662D01*
X9895782Y-11800662D01*
X9975372Y-6340212D02*
X9975372Y-6232448D01*
X9867608Y-6232448D01*
X9867608Y-6340212D01*
X9975372Y-6340212D01*
X10610372Y-6086212D02*
X10610372Y-5978448D01*
X10502608Y-5978448D01*
X10502608Y-6086212D01*
X10610372Y-6086212D01*
X10689422Y-13959572D02*
X10689422Y-13851808D01*
X10581658Y-13851808D01*
X10581658Y-13959572D01*
X10689422Y-13959572D01*
X10927532Y-8244932D02*
X10927532Y-8137168D01*
X10819768Y-8137168D01*
X10819768Y-8244932D01*
X10927532Y-8244932D01*
X11324422Y-13705572D02*
X11324422Y-13597808D01*
X11216658Y-13597808D01*
X11216658Y-13705572D01*
X11324422Y-13705572D01*
X11403752Y-10149812D02*
X11403752Y-10042048D01*
X11295988Y-10042048D01*
X11295988Y-10149812D01*
X11403752Y-10149812D01*
X11562532Y-7990932D02*
X11562532Y-7883168D01*
X11454768Y-7883168D01*
X11454768Y-7990932D01*
X11562532Y-7990932D01*
X11880372Y-6340212D02*
X11880372Y-6232448D01*
X11772608Y-6232448D01*
X11772608Y-6340212D01*
X11880372Y-6340212D01*
X12038752Y-9895812D02*
X12038752Y-9788048D01*
X11930988Y-9788048D01*
X11930988Y-9895812D01*
X12038752Y-9895812D01*
X12356192Y-12054692D02*
X12356192Y-11946928D01*
X12248428Y-11946928D01*
X12248428Y-12054692D01*
X12356192Y-12054692D01*
X12515372Y-6086212D02*
X12515372Y-5978448D01*
X12407608Y-5978448D01*
X12407608Y-6086212D01*
X12515372Y-6086212D01*
X12832432Y-8244902D02*
X12832432Y-8137138D01*
X12724668Y-8137138D01*
X12724668Y-8244902D01*
X12832432Y-8244902D01*
X12991192Y-11800692D02*
X12991192Y-11692928D01*
X12883428Y-11692928D01*
X12883428Y-11800692D01*
X12991192Y-11800692D01*
X13070522Y-13959572D02*
X13070522Y-13851808D01*
X12962758Y-13851808D01*
X12962758Y-13959572D01*
X13070522Y-13959572D01*
X13308632Y-10149812D02*
X13308632Y-10042048D01*
X13200868Y-10042048D01*
X13200868Y-10149812D01*
X13308632Y-10149812D01*
X13467432Y-7990902D02*
X13467432Y-7883138D01*
X13359668Y-7883138D01*
X13359668Y-7990902D01*
X13467432Y-7990902D01*
X13705522Y-13705572D02*
X13705522Y-13597808D01*
X13597758Y-13597808D01*
X13597758Y-13705572D01*
X13705522Y-13705572D01*
X13785372Y-6340212D02*
X13785372Y-6232448D01*
X13677608Y-6232448D01*
X13677608Y-6340212D01*
X13785372Y-6340212D01*
X13943632Y-9895812D02*
X13943632Y-9788048D01*
X13835868Y-9788048D01*
X13835868Y-9895812D01*
X13943632Y-9895812D01*
X14261092Y-12054662D02*
X14261092Y-11946898D01*
X14153328Y-11946898D01*
X14153328Y-12054662D01*
X14261092Y-12054662D01*
X14420372Y-6086212D02*
X14420372Y-5978448D01*
X14312608Y-5978448D01*
X14312608Y-6086212D01*
X14420372Y-6086212D01*
X14737432Y-8244902D02*
X14737432Y-8137138D01*
X14629668Y-8137138D01*
X14629668Y-8244902D01*
X14737432Y-8244902D01*
X14896092Y-11800662D02*
X14896092Y-11692898D01*
X14788328Y-11692898D01*
X14788328Y-11800662D01*
X14896092Y-11800662D01*
X15213532Y-10149782D02*
X15213532Y-10042018D01*
X15105768Y-10042018D01*
X15105768Y-10149782D01*
X15213532Y-10149782D01*
X15372432Y-7990902D02*
X15372432Y-7883138D01*
X15264668Y-7883138D01*
X15264668Y-7990902D01*
X15372432Y-7990902D01*
X15690372Y-6340212D02*
X15690372Y-6232448D01*
X15582608Y-6232448D01*
X15582608Y-6340212D01*
X15690372Y-6340212D01*
X15848532Y-9895782D02*
X15848532Y-9788018D01*
X15740768Y-9788018D01*
X15740768Y-9895782D01*
X15848532Y-9895782D01*
X16165952Y-12054692D02*
X16165952Y-11946928D01*
X16058188Y-11946928D01*
X16058188Y-12054692D01*
X16165952Y-12054692D01*
X16325372Y-6086212D02*
X16325372Y-5978448D01*
X16217608Y-5978448D01*
X16217608Y-6086212D01*
X16325372Y-6086212D01*
X16642432Y-8244902D02*
X16642432Y-8137138D01*
X16534668Y-8137138D01*
X16534668Y-8244902D01*
X16642432Y-8244902D01*
X16800952Y-11800692D02*
X16800952Y-11692928D01*
X16693188Y-11692928D01*
X16693188Y-11800692D01*
X16800952Y-11800692D01*
X17118532Y-10149782D02*
X17118532Y-10042018D01*
X17010768Y-10042018D01*
X17010768Y-10149782D01*
X17118532Y-10149782D01*
X17277432Y-7990902D02*
X17277432Y-7883138D01*
X17169668Y-7883138D01*
X17169668Y-7990902D01*
X17277432Y-7990902D01*
X17595372Y-6340212D02*
X17595372Y-6232448D01*
X17487608Y-6232448D01*
X17487608Y-6340212D01*
X17595372Y-6340212D01*
X17753532Y-9895782D02*
X17753532Y-9788018D01*
X17645768Y-9788018D01*
X17645768Y-9895782D01*
X17753532Y-9895782D01*
X18070232Y-12054692D02*
X18070232Y-11946928D01*
X17962468Y-11946928D01*
X17962468Y-12054692D01*
X18070232Y-12054692D01*
X18230372Y-6086212D02*
X18230372Y-5978448D01*
X18122608Y-5978448D01*
X18122608Y-6086212D01*
X18230372Y-6086212D01*
X18547432Y-8244902D02*
X18547432Y-8137138D01*
X18439668Y-8137138D01*
X18439668Y-8244902D01*
X18547432Y-8244902D01*
X18705232Y-11800692D02*
X18705232Y-11692928D01*
X18597468Y-11692928D01*
X18597468Y-11800692D01*
X18705232Y-11800692D01*
X19023532Y-10149782D02*
X19023532Y-10042018D01*
X18915768Y-10042018D01*
X18915768Y-10149782D01*
X19023532Y-10149782D01*
X19182432Y-7990902D02*
X19182432Y-7883138D01*
X19074668Y-7883138D01*
X19074668Y-7990902D01*
X19182432Y-7990902D01*
X19500372Y-6340212D02*
X19500372Y-6232448D01*
X19392608Y-6232448D01*
X19392608Y-6340212D01*
X19500372Y-6340212D01*
X19658532Y-9895782D02*
X19658532Y-9788018D01*
X19550768Y-9788018D01*
X19550768Y-9895782D01*
X19658532Y-9895782D01*
X19975232Y-12054692D02*
X19975232Y-11946928D01*
X19867468Y-11946928D01*
X19867468Y-12054692D01*
X19975232Y-12054692D01*
X20135372Y-6086212D02*
X20135372Y-5978448D01*
X20027608Y-5978448D01*
X20027608Y-6086212D01*
X20135372Y-6086212D01*
X20213822Y-13959572D02*
X20213822Y-13851808D01*
X20106058Y-13851808D01*
X20106058Y-13959572D01*
X20213822Y-13959572D01*
X20452432Y-8244902D02*
X20452432Y-8137138D01*
X20344668Y-8137138D01*
X20344668Y-8244902D01*
X20452432Y-8244902D01*
X20610232Y-11800692D02*
X20610232Y-11692928D01*
X20502468Y-11692928D01*
X20502468Y-11800692D01*
X20610232Y-11800692D01*
X20848822Y-13705572D02*
X20848822Y-13597808D01*
X20741058Y-13597808D01*
X20741058Y-13705572D01*
X20848822Y-13705572D01*
X20928532Y-10149782D02*
X20928532Y-10042018D01*
X20820768Y-10042018D01*
X20820768Y-10149782D01*
X20928532Y-10149782D01*
X21087432Y-7990902D02*
X21087432Y-7883138D01*
X20979668Y-7883138D01*
X20979668Y-7990902D01*
X21087432Y-7990902D01*
X21405372Y-6340212D02*
X21405372Y-6232448D01*
X21297608Y-6232448D01*
X21297608Y-6340212D01*
X21405372Y-6340212D01*
X21563532Y-9895782D02*
X21563532Y-9788018D01*
X21455768Y-9788018D01*
X21455768Y-9895782D01*
X21563532Y-9895782D01*
X21880232Y-12054692D02*
X21880232Y-11946928D01*
X21772468Y-11946928D01*
X21772468Y-12054692D01*
X21880232Y-12054692D01*
X22040372Y-6086212D02*
X22040372Y-5978448D01*
X21932608Y-5978448D01*
X21932608Y-6086212D01*
X22040372Y-6086212D01*
X22357432Y-8244902D02*
X22357432Y-8137138D01*
X22249668Y-8137138D01*
X22249668Y-8244902D01*
X22357432Y-8244902D01*
X22515232Y-11800692D02*
X22515232Y-11692928D01*
X22407468Y-11692928D01*
X22407468Y-11800692D01*
X22515232Y-11800692D01*
X22833532Y-10149782D02*
X22833532Y-10042018D01*
X22725768Y-10042018D01*
X22725768Y-10149782D01*
X22833532Y-10149782D01*
X22992432Y-7990902D02*
X22992432Y-7883138D01*
X22884668Y-7883138D01*
X22884668Y-7990902D01*
X22992432Y-7990902D01*
X23310372Y-6340212D02*
X23310372Y-6232448D01*
X23202608Y-6232448D01*
X23202608Y-6340212D01*
X23310372Y-6340212D01*
X23468532Y-9895782D02*
X23468532Y-9788018D01*
X23360768Y-9788018D01*
X23360768Y-9895782D01*
X23468532Y-9895782D01*
X23785232Y-12054692D02*
X23785232Y-11946928D01*
X23677468Y-11946928D01*
X23677468Y-12054692D01*
X23785232Y-12054692D01*
X23945372Y-6086212D02*
X23945372Y-5978448D01*
X23837608Y-5978448D01*
X23837608Y-6086212D01*
X23945372Y-6086212D01*
X24262432Y-8244902D02*
X24262432Y-8137138D01*
X24154668Y-8137138D01*
X24154668Y-8244902D01*
X24262432Y-8244902D01*
X24420232Y-11800692D02*
X24420232Y-11692928D01*
X24312468Y-11692928D01*
X24312468Y-11800692D01*
X24420232Y-11800692D01*
X24738532Y-10149782D02*
X24738532Y-10042018D01*
X24630768Y-10042018D01*
X24630768Y-10149782D01*
X24738532Y-10149782D01*
X24897432Y-7990902D02*
X24897432Y-7883138D01*
X24789668Y-7883138D01*
X24789668Y-7990902D01*
X24897432Y-7990902D01*
X25215372Y-6340212D02*
X25215372Y-6232448D01*
X25107608Y-6232448D01*
X25107608Y-6340212D01*
X25215372Y-6340212D01*
X25373532Y-9895782D02*
X25373532Y-9788018D01*
X25265768Y-9788018D01*
X25265768Y-9895782D01*
X25373532Y-9895782D01*
X25690232Y-12054692D02*
X25690232Y-11946928D01*
X25582468Y-11946928D01*
X25582468Y-12054692D01*
X25690232Y-12054692D01*
X25850372Y-6086212D02*
X25850372Y-5978448D01*
X25742608Y-5978448D01*
X25742608Y-6086212D01*
X25850372Y-6086212D01*
X26167432Y-8244902D02*
X26167432Y-8137138D01*
X26059668Y-8137138D01*
X26059668Y-8244902D01*
X26167432Y-8244902D01*
X26325232Y-11800692D02*
X26325232Y-11692928D01*
X26217468Y-11692928D01*
X26217468Y-11800692D01*
X26325232Y-11800692D01*
X26643532Y-10149782D02*
X26643532Y-10042018D01*
X26535768Y-10042018D01*
X26535768Y-10149782D01*
X26643532Y-10149782D01*
X26802432Y-7990902D02*
X26802432Y-7883138D01*
X26694668Y-7883138D01*
X26694668Y-7990902D01*
X26802432Y-7990902D01*
X27120372Y-6340212D02*
X27120372Y-6232448D01*
X27012608Y-6232448D01*
X27012608Y-6340212D01*
X27120372Y-6340212D01*
X27278532Y-9895782D02*
X27278532Y-9788018D01*
X27170768Y-9788018D01*
X27170768Y-9895782D01*
X27278532Y-9895782D01*
X27357122Y-13959572D02*
X27357122Y-13851808D01*
X27249358Y-13851808D01*
X27249358Y-13959572D01*
X27357122Y-13959572D01*
X27595232Y-12054692D02*
X27595232Y-11946928D01*
X27487468Y-11946928D01*
X27487468Y-12054692D01*
X27595232Y-12054692D01*
X27755372Y-6086212D02*
X27755372Y-5978448D01*
X27647608Y-5978448D01*
X27647608Y-6086212D01*
X27755372Y-6086212D01*
X27992122Y-13705572D02*
X27992122Y-13597808D01*
X27884358Y-13597808D01*
X27884358Y-13705572D01*
X27992122Y-13705572D01*
X28072432Y-8244902D02*
X28072432Y-8137138D01*
X27964668Y-8137138D01*
X27964668Y-8244902D01*
X28072432Y-8244902D01*
X28230232Y-11800692D02*
X28230232Y-11692928D01*
X28122468Y-11692928D01*
X28122468Y-11800692D01*
X28230232Y-11800692D01*
X28548532Y-10149782D02*
X28548532Y-10042018D01*
X28440768Y-10042018D01*
X28440768Y-10149782D01*
X28548532Y-10149782D01*
X28707432Y-7990902D02*
X28707432Y-7883138D01*
X28599668Y-7883138D01*
X28599668Y-7990902D01*
X28707432Y-7990902D01*
X29025372Y-6340212D02*
X29025372Y-6232448D01*
X28917608Y-6232448D01*
X28917608Y-6340212D01*
X29025372Y-6340212D01*
X29183532Y-9895782D02*
X29183532Y-9788018D01*
X29075768Y-9788018D01*
X29075768Y-9895782D01*
X29183532Y-9895782D01*
X29500112Y-12054692D02*
X29500112Y-11946928D01*
X29392348Y-11946928D01*
X29392348Y-12054692D01*
X29500112Y-12054692D01*
X29660372Y-6086212D02*
X29660372Y-5978448D01*
X29552608Y-5978448D01*
X29552608Y-6086212D01*
X29660372Y-6086212D01*
X29738092Y-13959542D02*
X29738092Y-13851778D01*
X29630328Y-13851778D01*
X29630328Y-13959542D01*
X29738092Y-13959542D01*
X29977432Y-8244902D02*
X29977432Y-8137138D01*
X29869668Y-8137138D01*
X29869668Y-8244902D01*
X29977432Y-8244902D01*
X30135112Y-11800692D02*
X30135112Y-11692928D01*
X30027348Y-11692928D01*
X30027348Y-11800692D01*
X30135112Y-11800692D01*
X30373092Y-13705542D02*
X30373092Y-13597778D01*
X30265328Y-13597778D01*
X30265328Y-13705542D01*
X30373092Y-13705542D01*
X30453532Y-10149782D02*
X30453532Y-10042018D01*
X30345768Y-10042018D01*
X30345768Y-10149782D01*
X30453532Y-10149782D01*
X30612432Y-7990902D02*
X30612432Y-7883138D01*
X30504668Y-7883138D01*
X30504668Y-7990902D01*
X30612432Y-7990902D01*
X30930372Y-6340212D02*
X30930372Y-6232448D01*
X30822608Y-6232448D01*
X30822608Y-6340212D01*
X30930372Y-6340212D01*
X31088532Y-9895782D02*
X31088532Y-9788018D01*
X30980768Y-9788018D01*
X30980768Y-9895782D01*
X31088532Y-9895782D01*
X31565372Y-6086212D02*
X31565372Y-5978448D01*
X31457608Y-5978448D01*
X31457608Y-6086212D01*
X31565372Y-6086212D01*
X31881232Y-8244902D02*
X31881232Y-8137138D01*
X31773468Y-8137138D01*
X31773468Y-8244902D01*
X31881232Y-8244902D01*
X32119322Y-13959572D02*
X32119322Y-13851808D01*
X32011558Y-13851808D01*
X32011558Y-13959572D01*
X32119322Y-13959572D01*
X32516232Y-7990902D02*
X32516232Y-7883138D01*
X32408468Y-7883138D01*
X32408468Y-7990902D01*
X32516232Y-7990902D01*
X32754322Y-13705572D02*
X32754322Y-13597808D01*
X32646558Y-13597808D01*
X32646558Y-13705572D01*
X32754322Y-13705572D01*
X33071762Y-12054692D02*
X33071762Y-11946928D01*
X32963998Y-11946928D01*
X32963998Y-12054692D01*
X33071762Y-12054692D01*
X33547982Y-10149812D02*
X33547982Y-10042048D01*
X33440218Y-10042048D01*
X33440218Y-10149812D01*
X33547982Y-10149812D01*
X33706762Y-11800692D02*
X33706762Y-11692928D01*
X33598998Y-11692928D01*
X33598998Y-11800692D01*
X33706762Y-11800692D01*
X33787872Y-6340212D02*
X33787872Y-6232448D01*
X33680108Y-6232448D01*
X33680108Y-6340212D01*
X33787872Y-6340212D01*
X34182982Y-9895812D02*
X34182982Y-9788048D01*
X34075218Y-9788048D01*
X34075218Y-9895812D01*
X34182982Y-9895812D01*
X34262332Y-8244932D02*
X34262332Y-8137168D01*
X34154568Y-8137168D01*
X34154568Y-8244932D01*
X34262332Y-8244932D01*
X34422872Y-6086212D02*
X34422872Y-5978448D01*
X34315108Y-5978448D01*
X34315108Y-6086212D01*
X34422872Y-6086212D01*
X34500422Y-13959572D02*
X34500422Y-13851808D01*
X34392658Y-13851808D01*
X34392658Y-13959572D01*
X34500422Y-13959572D01*
X34897332Y-7990932D02*
X34897332Y-7883168D01*
X34789568Y-7883168D01*
X34789568Y-7990932D01*
X34897332Y-7990932D01*
X35135422Y-13705572D02*
X35135422Y-13597808D01*
X35027658Y-13597808D01*
X35027658Y-13705572D01*
X35135422Y-13705572D01*
D16*
X8397255Y-11708710D02*
X8549655Y-11556310D01*
X8397255Y-11403910D01*
X8244855Y-11556310D01*
X8397255Y-11708710D01*
X10778505Y-11708710D02*
X10930905Y-11556310D01*
X10778505Y-11403910D01*
X10626105Y-11556310D01*
X10778505Y-11708710D01*
X15540315Y-15010590D02*
X15692715Y-14858190D01*
X15540315Y-14705790D01*
X15387915Y-14858190D01*
X15540315Y-15010590D01*
X25541565Y-15010590D02*
X25693965Y-14858190D01*
X25541565Y-14705790D01*
X25389165Y-14858190D01*
X25541565Y-15010590D01*
X32208255Y-11708710D02*
X32360655Y-11556310D01*
X32208255Y-11403910D01*
X32055855Y-11556310D01*
X32208255Y-11708710D01*
X32684475Y-9803830D02*
X32836875Y-9651430D01*
X32684475Y-9499030D01*
X32532075Y-9651430D01*
X32684475Y-9803830D01*
X32922585Y-5994070D02*
X33074985Y-5841670D01*
X32922585Y-5689270D01*
X32770185Y-5841670D01*
X32922585Y-5994070D01*
X34589505Y-11708710D02*
X34741905Y-11556310D01*
X34589505Y-11403910D01*
X34437105Y-11556310D01*
X34589505Y-11708710D01*
X35065725Y-9803830D02*
X35218125Y-9651430D01*
X35065725Y-9499030D01*
X34913325Y-9651430D01*
X35065725Y-9803830D01*
X35303835Y-5994070D02*
X35456235Y-5841670D01*
X35303835Y-5689270D01*
X35151435Y-5841670D01*
X35303835Y-5994070D01*
D11*
X7694295Y-15427801D02*
X7694295Y-15227801D01*
X7741914Y-15227801D01*
X7770485Y-15237325D01*
X7789533Y-15256373D01*
X7799057Y-15275420D01*
X7808580Y-15313515D01*
X7808580Y-15342087D01*
X7799057Y-15380182D01*
X7789533Y-15399230D01*
X7770485Y-15418277D01*
X7741914Y-15427801D01*
X7694295Y-15427801D01*
X7894295Y-15427801D02*
X7894295Y-15294468D01*
X7894295Y-15332563D02*
X7903818Y-15313515D01*
X7913342Y-15303992D01*
X7932390Y-15294468D01*
X7951438Y-15294468D01*
X8018104Y-15427801D02*
X8018104Y-15294468D01*
X8018104Y-15227801D02*
X8008580Y-15237325D01*
X8018104Y-15246849D01*
X8027628Y-15237325D01*
X8018104Y-15227801D01*
X8018104Y-15246849D01*
X8141914Y-15427801D02*
X8122866Y-15418277D01*
X8113342Y-15399230D01*
X8113342Y-15227801D01*
X8246676Y-15427801D02*
X8227628Y-15418277D01*
X8218104Y-15399230D01*
X8218104Y-15227801D01*
X8475247Y-15427801D02*
X8475247Y-15227801D01*
X8541914Y-15370658D01*
X8608580Y-15227801D01*
X8608580Y-15427801D01*
X8789533Y-15427801D02*
X8789533Y-15323039D01*
X8780009Y-15303992D01*
X8760961Y-15294468D01*
X8722866Y-15294468D01*
X8703819Y-15303992D01*
X8789533Y-15418277D02*
X8770485Y-15427801D01*
X8722866Y-15427801D01*
X8703819Y-15418277D01*
X8694295Y-15399230D01*
X8694295Y-15380182D01*
X8703819Y-15361134D01*
X8722866Y-15351611D01*
X8770485Y-15351611D01*
X8789533Y-15342087D01*
X8884771Y-15294468D02*
X8884771Y-15494468D01*
X8884771Y-15303992D02*
X8903819Y-15294468D01*
X8941914Y-15294468D01*
X8960961Y-15303992D01*
X8970485Y-15313515D01*
X8980009Y-15332563D01*
X8980009Y-15389706D01*
X8970485Y-15408753D01*
X8960961Y-15418277D01*
X8941914Y-15427801D01*
X8903819Y-15427801D01*
X8884771Y-15418277D01*
X9065723Y-15408753D02*
X9075247Y-15418277D01*
X9065723Y-15427801D01*
X9056200Y-15418277D01*
X9065723Y-15408753D01*
X9065723Y-15427801D01*
X9065723Y-15303992D02*
X9075247Y-15313515D01*
X9065723Y-15323039D01*
X9056200Y-15313515D01*
X9065723Y-15303992D01*
X9065723Y-15323039D01*
D12*
X7396676Y-15737325D02*
X7436676Y-15777325D01*
X7436676Y-15737325D02*
X7396676Y-15777325D01*
D11*
X7732390Y-15647801D02*
X7751438Y-15647801D01*
X7770485Y-15657325D01*
X7780009Y-15666849D01*
X7789533Y-15685896D01*
X7799057Y-15723992D01*
X7799057Y-15771611D01*
X7789533Y-15809706D01*
X7780009Y-15828753D01*
X7770485Y-15838277D01*
X7751438Y-15847801D01*
X7732390Y-15847801D01*
X7713342Y-15838277D01*
X7703818Y-15828753D01*
X7694295Y-15809706D01*
X7684771Y-15771611D01*
X7684771Y-15723992D01*
X7694295Y-15685896D01*
X7703818Y-15666849D01*
X7713342Y-15657325D01*
X7732390Y-15647801D01*
X7884771Y-15828753D02*
X7894295Y-15838277D01*
X7884771Y-15847801D01*
X7875247Y-15838277D01*
X7884771Y-15828753D01*
X7884771Y-15847801D01*
X8065723Y-15714468D02*
X8065723Y-15847801D01*
X8018104Y-15638277D02*
X7970485Y-15781134D01*
X8094295Y-15781134D01*
X8208580Y-15647801D02*
X8227628Y-15647801D01*
X8246676Y-15657325D01*
X8256199Y-15666849D01*
X8265723Y-15685896D01*
X8275247Y-15723992D01*
X8275247Y-15771611D01*
X8265723Y-15809706D01*
X8256199Y-15828753D01*
X8246676Y-15838277D01*
X8227628Y-15847801D01*
X8208580Y-15847801D01*
X8189533Y-15838277D01*
X8180009Y-15828753D01*
X8170485Y-15809706D01*
X8160961Y-15771611D01*
X8160961Y-15723992D01*
X8170485Y-15685896D01*
X8180009Y-15666849D01*
X8189533Y-15657325D01*
X8208580Y-15647801D01*
X8399057Y-15647801D02*
X8418104Y-15647801D01*
X8437152Y-15657325D01*
X8446676Y-15666849D01*
X8456200Y-15685896D01*
X8465723Y-15723992D01*
X8465723Y-15771611D01*
X8456200Y-15809706D01*
X8446676Y-15828753D01*
X8437152Y-15838277D01*
X8418104Y-15847801D01*
X8399057Y-15847801D01*
X8380009Y-15838277D01*
X8370485Y-15828753D01*
X8360961Y-15809706D01*
X8351438Y-15771611D01*
X8351438Y-15723992D01*
X8360961Y-15685896D01*
X8370485Y-15666849D01*
X8380009Y-15657325D01*
X8399057Y-15647801D01*
X8551438Y-15847801D02*
X8551438Y-15714468D01*
X8551438Y-15733515D02*
X8560961Y-15723992D01*
X8580009Y-15714468D01*
X8608580Y-15714468D01*
X8627628Y-15723992D01*
X8637152Y-15743039D01*
X8637152Y-15847801D01*
X8637152Y-15743039D02*
X8646676Y-15723992D01*
X8665723Y-15714468D01*
X8694295Y-15714468D01*
X8713342Y-15723992D01*
X8722866Y-15743039D01*
X8722866Y-15847801D01*
X8818104Y-15847801D02*
X8818104Y-15714468D01*
X8818104Y-15733515D02*
X8827628Y-15723992D01*
X8846676Y-15714468D01*
X8875247Y-15714468D01*
X8894295Y-15723992D01*
X8903819Y-15743039D01*
X8903819Y-15847801D01*
X8903819Y-15743039D02*
X8913342Y-15723992D01*
X8932390Y-15714468D01*
X8960961Y-15714468D01*
X8980009Y-15723992D01*
X8989533Y-15743039D01*
X8989533Y-15847801D01*
X9380009Y-15638277D02*
X9208580Y-15895420D01*
X9637152Y-15647801D02*
X9656200Y-15647801D01*
X9675247Y-15657325D01*
X9684771Y-15666849D01*
X9694295Y-15685896D01*
X9703819Y-15723992D01*
X9703819Y-15771611D01*
X9694295Y-15809706D01*
X9684771Y-15828753D01*
X9675247Y-15838277D01*
X9656200Y-15847801D01*
X9637152Y-15847801D01*
X9618104Y-15838277D01*
X9608580Y-15828753D01*
X9599057Y-15809706D01*
X9589533Y-15771611D01*
X9589533Y-15723992D01*
X9599057Y-15685896D01*
X9608580Y-15666849D01*
X9618104Y-15657325D01*
X9637152Y-15647801D01*
X9789533Y-15828753D02*
X9799057Y-15838277D01*
X9789533Y-15847801D01*
X9780009Y-15838277D01*
X9789533Y-15828753D01*
X9789533Y-15847801D01*
X9922866Y-15647801D02*
X9941914Y-15647801D01*
X9960961Y-15657325D01*
X9970485Y-15666849D01*
X9980009Y-15685896D01*
X9989533Y-15723992D01*
X9989533Y-15771611D01*
X9980009Y-15809706D01*
X9970485Y-15828753D01*
X9960961Y-15838277D01*
X9941914Y-15847801D01*
X9922866Y-15847801D01*
X9903819Y-15838277D01*
X9894295Y-15828753D01*
X9884771Y-15809706D01*
X9875247Y-15771611D01*
X9875247Y-15723992D01*
X9884771Y-15685896D01*
X9894295Y-15666849D01*
X9903819Y-15657325D01*
X9922866Y-15647801D01*
X10180009Y-15847801D02*
X10065723Y-15847801D01*
X10122866Y-15847801D02*
X10122866Y-15647801D01*
X10103819Y-15676373D01*
X10084771Y-15695420D01*
X10065723Y-15704944D01*
X10360961Y-15647801D02*
X10265723Y-15647801D01*
X10256200Y-15743039D01*
X10265723Y-15733515D01*
X10284771Y-15723992D01*
X10332390Y-15723992D01*
X10351438Y-15733515D01*
X10360961Y-15743039D01*
X10370485Y-15762087D01*
X10370485Y-15809706D01*
X10360961Y-15828753D01*
X10351438Y-15838277D01*
X10332390Y-15847801D01*
X10284771Y-15847801D01*
X10265723Y-15838277D01*
X10256200Y-15828753D01*
X10437152Y-15647801D02*
X10570485Y-15647801D01*
X10484771Y-15847801D01*
X10637152Y-15647801D02*
X10637152Y-15685896D01*
X10713342Y-15647801D02*
X10713342Y-15685896D01*
X11008580Y-15923992D02*
X10999057Y-15914468D01*
X10980009Y-15885896D01*
X10970485Y-15866849D01*
X10960961Y-15838277D01*
X10951438Y-15790658D01*
X10951438Y-15752563D01*
X10960961Y-15704944D01*
X10970485Y-15676373D01*
X10980009Y-15657325D01*
X10999057Y-15628753D01*
X11008580Y-15619230D01*
X11075247Y-15666849D02*
X11084771Y-15657325D01*
X11103819Y-15647801D01*
X11151438Y-15647801D01*
X11170485Y-15657325D01*
X11180009Y-15666849D01*
X11189533Y-15685896D01*
X11189533Y-15704944D01*
X11180009Y-15733515D01*
X11065723Y-15847801D01*
X11189533Y-15847801D01*
X11427628Y-15847801D02*
X11427628Y-15647801D01*
X11513342Y-15847801D02*
X11513342Y-15743039D01*
X11503818Y-15723992D01*
X11484771Y-15714468D01*
X11456199Y-15714468D01*
X11437152Y-15723992D01*
X11427628Y-15733515D01*
X11637152Y-15847801D02*
X11618104Y-15838277D01*
X11608580Y-15828753D01*
X11599057Y-15809706D01*
X11599057Y-15752563D01*
X11608580Y-15733515D01*
X11618104Y-15723992D01*
X11637152Y-15714468D01*
X11665723Y-15714468D01*
X11684771Y-15723992D01*
X11694295Y-15733515D01*
X11703818Y-15752563D01*
X11703818Y-15809706D01*
X11694295Y-15828753D01*
X11684771Y-15838277D01*
X11665723Y-15847801D01*
X11637152Y-15847801D01*
X11818104Y-15847801D02*
X11799057Y-15838277D01*
X11789533Y-15819230D01*
X11789533Y-15647801D01*
X11970485Y-15838277D02*
X11951438Y-15847801D01*
X11913342Y-15847801D01*
X11894295Y-15838277D01*
X11884771Y-15819230D01*
X11884771Y-15743039D01*
X11894295Y-15723992D01*
X11913342Y-15714468D01*
X11951438Y-15714468D01*
X11970485Y-15723992D01*
X11980009Y-15743039D01*
X11980009Y-15762087D01*
X11884771Y-15781134D01*
X12056199Y-15838277D02*
X12075247Y-15847801D01*
X12113342Y-15847801D01*
X12132390Y-15838277D01*
X12141914Y-15819230D01*
X12141914Y-15809706D01*
X12132390Y-15790658D01*
X12113342Y-15781134D01*
X12084771Y-15781134D01*
X12065723Y-15771611D01*
X12056199Y-15752563D01*
X12056199Y-15743039D01*
X12065723Y-15723992D01*
X12084771Y-15714468D01*
X12113342Y-15714468D01*
X12132390Y-15723992D01*
X12208580Y-15923992D02*
X12218104Y-15914468D01*
X12237152Y-15885896D01*
X12246676Y-15866849D01*
X12256199Y-15838277D01*
X12265723Y-15790658D01*
X12265723Y-15752563D01*
X12256199Y-15704944D01*
X12246676Y-15676373D01*
X12237152Y-15657325D01*
X12218104Y-15628753D01*
X12208580Y-15619230D01*
D13*
X7436676Y-16021325D02*
G75*
G03*
X7436676Y-16021325I-51000J0D01*
G01*
D11*
X7799057Y-16111801D02*
X7684771Y-16111801D01*
X7741914Y-16111801D02*
X7741914Y-15911801D01*
X7722866Y-15940373D01*
X7703818Y-15959420D01*
X7684771Y-15968944D01*
X7884771Y-16092753D02*
X7894295Y-16102277D01*
X7884771Y-16111801D01*
X7875247Y-16102277D01*
X7884771Y-16092753D01*
X7884771Y-16111801D01*
X8018104Y-15911801D02*
X8037152Y-15911801D01*
X8056199Y-15921325D01*
X8065723Y-15930849D01*
X8075247Y-15949896D01*
X8084771Y-15987992D01*
X8084771Y-16035611D01*
X8075247Y-16073706D01*
X8065723Y-16092753D01*
X8056199Y-16102277D01*
X8037152Y-16111801D01*
X8018104Y-16111801D01*
X7999057Y-16102277D01*
X7989533Y-16092753D01*
X7980009Y-16073706D01*
X7970485Y-16035611D01*
X7970485Y-15987992D01*
X7980009Y-15949896D01*
X7989533Y-15930849D01*
X7999057Y-15921325D01*
X8018104Y-15911801D01*
X8160961Y-15930849D02*
X8170485Y-15921325D01*
X8189533Y-15911801D01*
X8237152Y-15911801D01*
X8256199Y-15921325D01*
X8265723Y-15930849D01*
X8275247Y-15949896D01*
X8275247Y-15968944D01*
X8265723Y-15997515D01*
X8151438Y-16111801D01*
X8275247Y-16111801D01*
X8399057Y-15911801D02*
X8418104Y-15911801D01*
X8437152Y-15921325D01*
X8446676Y-15930849D01*
X8456200Y-15949896D01*
X8465723Y-15987992D01*
X8465723Y-16035611D01*
X8456200Y-16073706D01*
X8446676Y-16092753D01*
X8437152Y-16102277D01*
X8418104Y-16111801D01*
X8399057Y-16111801D01*
X8380009Y-16102277D01*
X8370485Y-16092753D01*
X8360961Y-16073706D01*
X8351438Y-16035611D01*
X8351438Y-15987992D01*
X8360961Y-15949896D01*
X8370485Y-15930849D01*
X8380009Y-15921325D01*
X8399057Y-15911801D01*
X8551438Y-16111801D02*
X8551438Y-15978468D01*
X8551438Y-15997515D02*
X8560961Y-15987992D01*
X8580009Y-15978468D01*
X8608580Y-15978468D01*
X8627628Y-15987992D01*
X8637152Y-16007039D01*
X8637152Y-16111801D01*
X8637152Y-16007039D02*
X8646676Y-15987992D01*
X8665723Y-15978468D01*
X8694295Y-15978468D01*
X8713342Y-15987992D01*
X8722866Y-16007039D01*
X8722866Y-16111801D01*
X8818104Y-16111801D02*
X8818104Y-15978468D01*
X8818104Y-15997515D02*
X8827628Y-15987992D01*
X8846676Y-15978468D01*
X8875247Y-15978468D01*
X8894295Y-15987992D01*
X8903819Y-16007039D01*
X8903819Y-16111801D01*
X8903819Y-16007039D02*
X8913342Y-15987992D01*
X8932390Y-15978468D01*
X8960961Y-15978468D01*
X8980009Y-15987992D01*
X8989533Y-16007039D01*
X8989533Y-16111801D01*
X9380009Y-15902277D02*
X9208580Y-16159420D01*
X9637152Y-15911801D02*
X9656200Y-15911801D01*
X9675247Y-15921325D01*
X9684771Y-15930849D01*
X9694295Y-15949896D01*
X9703819Y-15987992D01*
X9703819Y-16035611D01*
X9694295Y-16073706D01*
X9684771Y-16092753D01*
X9675247Y-16102277D01*
X9656200Y-16111801D01*
X9637152Y-16111801D01*
X9618104Y-16102277D01*
X9608580Y-16092753D01*
X9599057Y-16073706D01*
X9589533Y-16035611D01*
X9589533Y-15987992D01*
X9599057Y-15949896D01*
X9608580Y-15930849D01*
X9618104Y-15921325D01*
X9637152Y-15911801D01*
X9789533Y-16092753D02*
X9799057Y-16102277D01*
X9789533Y-16111801D01*
X9780009Y-16102277D01*
X9789533Y-16092753D01*
X9789533Y-16111801D01*
X9922866Y-15911801D02*
X9941914Y-15911801D01*
X9960961Y-15921325D01*
X9970485Y-15930849D01*
X9980009Y-15949896D01*
X9989533Y-15987992D01*
X9989533Y-16035611D01*
X9980009Y-16073706D01*
X9970485Y-16092753D01*
X9960961Y-16102277D01*
X9941914Y-16111801D01*
X9922866Y-16111801D01*
X9903819Y-16102277D01*
X9894295Y-16092753D01*
X9884771Y-16073706D01*
X9875247Y-16035611D01*
X9875247Y-15987992D01*
X9884771Y-15949896D01*
X9894295Y-15930849D01*
X9903819Y-15921325D01*
X9922866Y-15911801D01*
X10160961Y-15978468D02*
X10160961Y-16111801D01*
X10113342Y-15902277D02*
X10065723Y-16045134D01*
X10189533Y-16045134D01*
X10303819Y-15911801D02*
X10322866Y-15911801D01*
X10341914Y-15921325D01*
X10351438Y-15930849D01*
X10360961Y-15949896D01*
X10370485Y-15987992D01*
X10370485Y-16035611D01*
X10360961Y-16073706D01*
X10351438Y-16092753D01*
X10341914Y-16102277D01*
X10322866Y-16111801D01*
X10303819Y-16111801D01*
X10284771Y-16102277D01*
X10275247Y-16092753D01*
X10265723Y-16073706D01*
X10256200Y-16035611D01*
X10256200Y-15987992D01*
X10265723Y-15949896D01*
X10275247Y-15930849D01*
X10284771Y-15921325D01*
X10303819Y-15911801D01*
X10446676Y-15930849D02*
X10456200Y-15921325D01*
X10475247Y-15911801D01*
X10522866Y-15911801D01*
X10541914Y-15921325D01*
X10551438Y-15930849D01*
X10560961Y-15949896D01*
X10560961Y-15968944D01*
X10551438Y-15997515D01*
X10437152Y-16111801D01*
X10560961Y-16111801D01*
X10637152Y-15911801D02*
X10637152Y-15949896D01*
X10713342Y-15911801D02*
X10713342Y-15949896D01*
X11008580Y-16187992D02*
X10999057Y-16178468D01*
X10980009Y-16149896D01*
X10970485Y-16130849D01*
X10960961Y-16102277D01*
X10951438Y-16054658D01*
X10951438Y-16016563D01*
X10960961Y-15968944D01*
X10970485Y-15940373D01*
X10980009Y-15921325D01*
X10999057Y-15892753D01*
X11008580Y-15883230D01*
X11170485Y-15978468D02*
X11170485Y-16111801D01*
X11122866Y-15902277D02*
X11075247Y-16045134D01*
X11199057Y-16045134D01*
X11313342Y-15911801D02*
X11332390Y-15911801D01*
X11351438Y-15921325D01*
X11360961Y-15930849D01*
X11370485Y-15949896D01*
X11380009Y-15987992D01*
X11380009Y-16035611D01*
X11370485Y-16073706D01*
X11360961Y-16092753D01*
X11351438Y-16102277D01*
X11332390Y-16111801D01*
X11313342Y-16111801D01*
X11294295Y-16102277D01*
X11284771Y-16092753D01*
X11275247Y-16073706D01*
X11265723Y-16035611D01*
X11265723Y-15987992D01*
X11275247Y-15949896D01*
X11284771Y-15930849D01*
X11294295Y-15921325D01*
X11313342Y-15911801D01*
X11618104Y-16111801D02*
X11618104Y-15911801D01*
X11703818Y-16111801D02*
X11703818Y-16007039D01*
X11694295Y-15987992D01*
X11675247Y-15978468D01*
X11646676Y-15978468D01*
X11627628Y-15987992D01*
X11618104Y-15997515D01*
X11827628Y-16111801D02*
X11808580Y-16102277D01*
X11799057Y-16092753D01*
X11789533Y-16073706D01*
X11789533Y-16016563D01*
X11799057Y-15997515D01*
X11808580Y-15987992D01*
X11827628Y-15978468D01*
X11856199Y-15978468D01*
X11875247Y-15987992D01*
X11884771Y-15997515D01*
X11894295Y-16016563D01*
X11894295Y-16073706D01*
X11884771Y-16092753D01*
X11875247Y-16102277D01*
X11856199Y-16111801D01*
X11827628Y-16111801D01*
X12008580Y-16111801D02*
X11989533Y-16102277D01*
X11980009Y-16083230D01*
X11980009Y-15911801D01*
X12160961Y-16102277D02*
X12141914Y-16111801D01*
X12103818Y-16111801D01*
X12084771Y-16102277D01*
X12075247Y-16083230D01*
X12075247Y-16007039D01*
X12084771Y-15987992D01*
X12103818Y-15978468D01*
X12141914Y-15978468D01*
X12160961Y-15987992D01*
X12170485Y-16007039D01*
X12170485Y-16026087D01*
X12075247Y-16045134D01*
X12246676Y-16102277D02*
X12265723Y-16111801D01*
X12303818Y-16111801D01*
X12322866Y-16102277D01*
X12332390Y-16083230D01*
X12332390Y-16073706D01*
X12322866Y-16054658D01*
X12303818Y-16045134D01*
X12275247Y-16045134D01*
X12256199Y-16035611D01*
X12246676Y-16016563D01*
X12246676Y-16007039D01*
X12256199Y-15987992D01*
X12275247Y-15978468D01*
X12303818Y-15978468D01*
X12322866Y-15987992D01*
X12399057Y-16187992D02*
X12408580Y-16178468D01*
X12427628Y-16149896D01*
X12437152Y-16130849D01*
X12446676Y-16102277D01*
X12456199Y-16054658D01*
X12456199Y-16016563D01*
X12446676Y-15968944D01*
X12437152Y-15940373D01*
X12427628Y-15921325D01*
X12408580Y-15892753D01*
X12399057Y-15883230D01*
D14*
X7381676Y-16230325D02*
X7381676Y-16340325D01*
X7326676Y-16285325D02*
X7436676Y-16285325D01*
D11*
X7799057Y-16375801D02*
X7684771Y-16375801D01*
X7741914Y-16375801D02*
X7741914Y-16175801D01*
X7722866Y-16204373D01*
X7703818Y-16223420D01*
X7684771Y-16232944D01*
X7884771Y-16356753D02*
X7894295Y-16366277D01*
X7884771Y-16375801D01*
X7875247Y-16366277D01*
X7884771Y-16356753D01*
X7884771Y-16375801D01*
X8084771Y-16375801D02*
X7970485Y-16375801D01*
X8027628Y-16375801D02*
X8027628Y-16175801D01*
X8008580Y-16204373D01*
X7989533Y-16223420D01*
X7970485Y-16232944D01*
X8208580Y-16175801D02*
X8227628Y-16175801D01*
X8246676Y-16185325D01*
X8256199Y-16194849D01*
X8265723Y-16213896D01*
X8275247Y-16251992D01*
X8275247Y-16299611D01*
X8265723Y-16337706D01*
X8256199Y-16356753D01*
X8246676Y-16366277D01*
X8227628Y-16375801D01*
X8208580Y-16375801D01*
X8189533Y-16366277D01*
X8180009Y-16356753D01*
X8170485Y-16337706D01*
X8160961Y-16299611D01*
X8160961Y-16251992D01*
X8170485Y-16213896D01*
X8180009Y-16194849D01*
X8189533Y-16185325D01*
X8208580Y-16175801D01*
X8399057Y-16175801D02*
X8418104Y-16175801D01*
X8437152Y-16185325D01*
X8446676Y-16194849D01*
X8456200Y-16213896D01*
X8465723Y-16251992D01*
X8465723Y-16299611D01*
X8456200Y-16337706D01*
X8446676Y-16356753D01*
X8437152Y-16366277D01*
X8418104Y-16375801D01*
X8399057Y-16375801D01*
X8380009Y-16366277D01*
X8370485Y-16356753D01*
X8360961Y-16337706D01*
X8351438Y-16299611D01*
X8351438Y-16251992D01*
X8360961Y-16213896D01*
X8370485Y-16194849D01*
X8380009Y-16185325D01*
X8399057Y-16175801D01*
X8551438Y-16375801D02*
X8551438Y-16242468D01*
X8551438Y-16261515D02*
X8560961Y-16251992D01*
X8580009Y-16242468D01*
X8608580Y-16242468D01*
X8627628Y-16251992D01*
X8637152Y-16271039D01*
X8637152Y-16375801D01*
X8637152Y-16271039D02*
X8646676Y-16251992D01*
X8665723Y-16242468D01*
X8694295Y-16242468D01*
X8713342Y-16251992D01*
X8722866Y-16271039D01*
X8722866Y-16375801D01*
X8818104Y-16375801D02*
X8818104Y-16242468D01*
X8818104Y-16261515D02*
X8827628Y-16251992D01*
X8846676Y-16242468D01*
X8875247Y-16242468D01*
X8894295Y-16251992D01*
X8903819Y-16271039D01*
X8903819Y-16375801D01*
X8903819Y-16271039D02*
X8913342Y-16251992D01*
X8932390Y-16242468D01*
X8960961Y-16242468D01*
X8980009Y-16251992D01*
X8989533Y-16271039D01*
X8989533Y-16375801D01*
X9380009Y-16166277D02*
X9208580Y-16423420D01*
X9637152Y-16175801D02*
X9656200Y-16175801D01*
X9675247Y-16185325D01*
X9684771Y-16194849D01*
X9694295Y-16213896D01*
X9703819Y-16251992D01*
X9703819Y-16299611D01*
X9694295Y-16337706D01*
X9684771Y-16356753D01*
X9675247Y-16366277D01*
X9656200Y-16375801D01*
X9637152Y-16375801D01*
X9618104Y-16366277D01*
X9608580Y-16356753D01*
X9599057Y-16337706D01*
X9589533Y-16299611D01*
X9589533Y-16251992D01*
X9599057Y-16213896D01*
X9608580Y-16194849D01*
X9618104Y-16185325D01*
X9637152Y-16175801D01*
X9789533Y-16356753D02*
X9799057Y-16366277D01*
X9789533Y-16375801D01*
X9780009Y-16366277D01*
X9789533Y-16356753D01*
X9789533Y-16375801D01*
X9922866Y-16175801D02*
X9941914Y-16175801D01*
X9960961Y-16185325D01*
X9970485Y-16194849D01*
X9980009Y-16213896D01*
X9989533Y-16251992D01*
X9989533Y-16299611D01*
X9980009Y-16337706D01*
X9970485Y-16356753D01*
X9960961Y-16366277D01*
X9941914Y-16375801D01*
X9922866Y-16375801D01*
X9903819Y-16366277D01*
X9894295Y-16356753D01*
X9884771Y-16337706D01*
X9875247Y-16299611D01*
X9875247Y-16251992D01*
X9884771Y-16213896D01*
X9894295Y-16194849D01*
X9903819Y-16185325D01*
X9922866Y-16175801D01*
X10160961Y-16242468D02*
X10160961Y-16375801D01*
X10113342Y-16166277D02*
X10065723Y-16309134D01*
X10189533Y-16309134D01*
X10246676Y-16175801D02*
X10370485Y-16175801D01*
X10303819Y-16251992D01*
X10332390Y-16251992D01*
X10351438Y-16261515D01*
X10360961Y-16271039D01*
X10370485Y-16290087D01*
X10370485Y-16337706D01*
X10360961Y-16356753D01*
X10351438Y-16366277D01*
X10332390Y-16375801D01*
X10275247Y-16375801D01*
X10256200Y-16366277D01*
X10246676Y-16356753D01*
X10437152Y-16175801D02*
X10560961Y-16175801D01*
X10494295Y-16251992D01*
X10522866Y-16251992D01*
X10541914Y-16261515D01*
X10551438Y-16271039D01*
X10560961Y-16290087D01*
X10560961Y-16337706D01*
X10551438Y-16356753D01*
X10541914Y-16366277D01*
X10522866Y-16375801D01*
X10465723Y-16375801D01*
X10446676Y-16366277D01*
X10437152Y-16356753D01*
X10637152Y-16175801D02*
X10637152Y-16213896D01*
X10713342Y-16175801D02*
X10713342Y-16213896D01*
X11008580Y-16451992D02*
X10999057Y-16442468D01*
X10980009Y-16413896D01*
X10970485Y-16394849D01*
X10960961Y-16366277D01*
X10951438Y-16318658D01*
X10951438Y-16280563D01*
X10960961Y-16232944D01*
X10970485Y-16204373D01*
X10980009Y-16185325D01*
X10999057Y-16156753D01*
X11008580Y-16147230D01*
X11170485Y-16242468D02*
X11170485Y-16375801D01*
X11122866Y-16166277D02*
X11075247Y-16309134D01*
X11199057Y-16309134D01*
X11427628Y-16375801D02*
X11427628Y-16175801D01*
X11513342Y-16375801D02*
X11513342Y-16271039D01*
X11503818Y-16251992D01*
X11484771Y-16242468D01*
X11456199Y-16242468D01*
X11437152Y-16251992D01*
X11427628Y-16261515D01*
X11637152Y-16375801D02*
X11618104Y-16366277D01*
X11608580Y-16356753D01*
X11599057Y-16337706D01*
X11599057Y-16280563D01*
X11608580Y-16261515D01*
X11618104Y-16251992D01*
X11637152Y-16242468D01*
X11665723Y-16242468D01*
X11684771Y-16251992D01*
X11694295Y-16261515D01*
X11703818Y-16280563D01*
X11703818Y-16337706D01*
X11694295Y-16356753D01*
X11684771Y-16366277D01*
X11665723Y-16375801D01*
X11637152Y-16375801D01*
X11818104Y-16375801D02*
X11799057Y-16366277D01*
X11789533Y-16347230D01*
X11789533Y-16175801D01*
X11970485Y-16366277D02*
X11951438Y-16375801D01*
X11913342Y-16375801D01*
X11894295Y-16366277D01*
X11884771Y-16347230D01*
X11884771Y-16271039D01*
X11894295Y-16251992D01*
X11913342Y-16242468D01*
X11951438Y-16242468D01*
X11970485Y-16251992D01*
X11980009Y-16271039D01*
X11980009Y-16290087D01*
X11884771Y-16309134D01*
X12056199Y-16366277D02*
X12075247Y-16375801D01*
X12113342Y-16375801D01*
X12132390Y-16366277D01*
X12141914Y-16347230D01*
X12141914Y-16337706D01*
X12132390Y-16318658D01*
X12113342Y-16309134D01*
X12084771Y-16309134D01*
X12065723Y-16299611D01*
X12056199Y-16280563D01*
X12056199Y-16271039D01*
X12065723Y-16251992D01*
X12084771Y-16242468D01*
X12113342Y-16242468D01*
X12132390Y-16251992D01*
X12208580Y-16451992D02*
X12218104Y-16442468D01*
X12237152Y-16413896D01*
X12246676Y-16394849D01*
X12256199Y-16366277D01*
X12265723Y-16318658D01*
X12265723Y-16280563D01*
X12256199Y-16232944D01*
X12246676Y-16204373D01*
X12237152Y-16185325D01*
X12218104Y-16156753D01*
X12208580Y-16147230D01*
D15*
X7414358Y-16603207D02*
X7414358Y-16495443D01*
X7306594Y-16495443D01*
X7306594Y-16603207D01*
X7414358Y-16603207D01*
D11*
X7799057Y-16639801D02*
X7684771Y-16639801D01*
X7741914Y-16639801D02*
X7741914Y-16439801D01*
X7722866Y-16468373D01*
X7703818Y-16487420D01*
X7684771Y-16496944D01*
X7884771Y-16620753D02*
X7894295Y-16630277D01*
X7884771Y-16639801D01*
X7875247Y-16630277D01*
X7884771Y-16620753D01*
X7884771Y-16639801D01*
X8075247Y-16439801D02*
X7980009Y-16439801D01*
X7970485Y-16535039D01*
X7980009Y-16525515D01*
X7999057Y-16515992D01*
X8046676Y-16515992D01*
X8065723Y-16525515D01*
X8075247Y-16535039D01*
X8084771Y-16554087D01*
X8084771Y-16601706D01*
X8075247Y-16620753D01*
X8065723Y-16630277D01*
X8046676Y-16639801D01*
X7999057Y-16639801D01*
X7980009Y-16630277D01*
X7970485Y-16620753D01*
X8160961Y-16458849D02*
X8170485Y-16449325D01*
X8189533Y-16439801D01*
X8237152Y-16439801D01*
X8256199Y-16449325D01*
X8265723Y-16458849D01*
X8275247Y-16477896D01*
X8275247Y-16496944D01*
X8265723Y-16525515D01*
X8151438Y-16639801D01*
X8275247Y-16639801D01*
X8446676Y-16506468D02*
X8446676Y-16639801D01*
X8399057Y-16430277D02*
X8351438Y-16573134D01*
X8475247Y-16573134D01*
X8551438Y-16639801D02*
X8551438Y-16506468D01*
X8551438Y-16525515D02*
X8560961Y-16515992D01*
X8580009Y-16506468D01*
X8608580Y-16506468D01*
X8627628Y-16515992D01*
X8637152Y-16535039D01*
X8637152Y-16639801D01*
X8637152Y-16535039D02*
X8646676Y-16515992D01*
X8665723Y-16506468D01*
X8694295Y-16506468D01*
X8713342Y-16515992D01*
X8722866Y-16535039D01*
X8722866Y-16639801D01*
X8818104Y-16639801D02*
X8818104Y-16506468D01*
X8818104Y-16525515D02*
X8827628Y-16515992D01*
X8846676Y-16506468D01*
X8875247Y-16506468D01*
X8894295Y-16515992D01*
X8903819Y-16535039D01*
X8903819Y-16639801D01*
X8903819Y-16535039D02*
X8913342Y-16515992D01*
X8932390Y-16506468D01*
X8960961Y-16506468D01*
X8980009Y-16515992D01*
X8989533Y-16535039D01*
X8989533Y-16639801D01*
X9380009Y-16430277D02*
X9208580Y-16687420D01*
X9637152Y-16439801D02*
X9656200Y-16439801D01*
X9675247Y-16449325D01*
X9684771Y-16458849D01*
X9694295Y-16477896D01*
X9703819Y-16515992D01*
X9703819Y-16563611D01*
X9694295Y-16601706D01*
X9684771Y-16620753D01*
X9675247Y-16630277D01*
X9656200Y-16639801D01*
X9637152Y-16639801D01*
X9618104Y-16630277D01*
X9608580Y-16620753D01*
X9599057Y-16601706D01*
X9589533Y-16563611D01*
X9589533Y-16515992D01*
X9599057Y-16477896D01*
X9608580Y-16458849D01*
X9618104Y-16449325D01*
X9637152Y-16439801D01*
X9789533Y-16620753D02*
X9799057Y-16630277D01*
X9789533Y-16639801D01*
X9780009Y-16630277D01*
X9789533Y-16620753D01*
X9789533Y-16639801D01*
X9922866Y-16439801D02*
X9941914Y-16439801D01*
X9960961Y-16449325D01*
X9970485Y-16458849D01*
X9980009Y-16477896D01*
X9989533Y-16515992D01*
X9989533Y-16563611D01*
X9980009Y-16601706D01*
X9970485Y-16620753D01*
X9960961Y-16630277D01*
X9941914Y-16639801D01*
X9922866Y-16639801D01*
X9903819Y-16630277D01*
X9894295Y-16620753D01*
X9884771Y-16601706D01*
X9875247Y-16563611D01*
X9875247Y-16515992D01*
X9884771Y-16477896D01*
X9894295Y-16458849D01*
X9903819Y-16449325D01*
X9922866Y-16439801D01*
X10160961Y-16439801D02*
X10122866Y-16439801D01*
X10103819Y-16449325D01*
X10094295Y-16458849D01*
X10075247Y-16487420D01*
X10065723Y-16525515D01*
X10065723Y-16601706D01*
X10075247Y-16620753D01*
X10084771Y-16630277D01*
X10103819Y-16639801D01*
X10141914Y-16639801D01*
X10160961Y-16630277D01*
X10170485Y-16620753D01*
X10180009Y-16601706D01*
X10180009Y-16554087D01*
X10170485Y-16535039D01*
X10160961Y-16525515D01*
X10141914Y-16515992D01*
X10103819Y-16515992D01*
X10084771Y-16525515D01*
X10075247Y-16535039D01*
X10065723Y-16554087D01*
X10303819Y-16439801D02*
X10322866Y-16439801D01*
X10341914Y-16449325D01*
X10351438Y-16458849D01*
X10360961Y-16477896D01*
X10370485Y-16515992D01*
X10370485Y-16563611D01*
X10360961Y-16601706D01*
X10351438Y-16620753D01*
X10341914Y-16630277D01*
X10322866Y-16639801D01*
X10303819Y-16639801D01*
X10284771Y-16630277D01*
X10275247Y-16620753D01*
X10265723Y-16601706D01*
X10256200Y-16563611D01*
X10256200Y-16515992D01*
X10265723Y-16477896D01*
X10275247Y-16458849D01*
X10284771Y-16449325D01*
X10303819Y-16439801D01*
X10494295Y-16439801D02*
X10513342Y-16439801D01*
X10532390Y-16449325D01*
X10541914Y-16458849D01*
X10551438Y-16477896D01*
X10560961Y-16515992D01*
X10560961Y-16563611D01*
X10551438Y-16601706D01*
X10541914Y-16620753D01*
X10532390Y-16630277D01*
X10513342Y-16639801D01*
X10494295Y-16639801D01*
X10475247Y-16630277D01*
X10465723Y-16620753D01*
X10456200Y-16601706D01*
X10446676Y-16563611D01*
X10446676Y-16515992D01*
X10456200Y-16477896D01*
X10465723Y-16458849D01*
X10475247Y-16449325D01*
X10494295Y-16439801D01*
X10637152Y-16439801D02*
X10637152Y-16477896D01*
X10713342Y-16439801D02*
X10713342Y-16477896D01*
X11008580Y-16715992D02*
X10999057Y-16706468D01*
X10980009Y-16677896D01*
X10970485Y-16658849D01*
X10960961Y-16630277D01*
X10951438Y-16582658D01*
X10951438Y-16544563D01*
X10960961Y-16496944D01*
X10970485Y-16468373D01*
X10980009Y-16449325D01*
X10999057Y-16420753D01*
X11008580Y-16411230D01*
X11189533Y-16639801D02*
X11075247Y-16639801D01*
X11132390Y-16639801D02*
X11132390Y-16439801D01*
X11113342Y-16468373D01*
X11094295Y-16487420D01*
X11075247Y-16496944D01*
X11265723Y-16458849D02*
X11275247Y-16449325D01*
X11294295Y-16439801D01*
X11341914Y-16439801D01*
X11360961Y-16449325D01*
X11370485Y-16458849D01*
X11380009Y-16477896D01*
X11380009Y-16496944D01*
X11370485Y-16525515D01*
X11256199Y-16639801D01*
X11380009Y-16639801D01*
X11456199Y-16458849D02*
X11465723Y-16449325D01*
X11484771Y-16439801D01*
X11532390Y-16439801D01*
X11551438Y-16449325D01*
X11560961Y-16458849D01*
X11570485Y-16477896D01*
X11570485Y-16496944D01*
X11560961Y-16525515D01*
X11446676Y-16639801D01*
X11570485Y-16639801D01*
X11808580Y-16639801D02*
X11808580Y-16439801D01*
X11894295Y-16639801D02*
X11894295Y-16535039D01*
X11884771Y-16515992D01*
X11865723Y-16506468D01*
X11837152Y-16506468D01*
X11818104Y-16515992D01*
X11808580Y-16525515D01*
X12018104Y-16639801D02*
X11999057Y-16630277D01*
X11989533Y-16620753D01*
X11980009Y-16601706D01*
X11980009Y-16544563D01*
X11989533Y-16525515D01*
X11999057Y-16515992D01*
X12018104Y-16506468D01*
X12046676Y-16506468D01*
X12065723Y-16515992D01*
X12075247Y-16525515D01*
X12084771Y-16544563D01*
X12084771Y-16601706D01*
X12075247Y-16620753D01*
X12065723Y-16630277D01*
X12046676Y-16639801D01*
X12018104Y-16639801D01*
X12199057Y-16639801D02*
X12180009Y-16630277D01*
X12170485Y-16611230D01*
X12170485Y-16439801D01*
X12351438Y-16630277D02*
X12332390Y-16639801D01*
X12294295Y-16639801D01*
X12275247Y-16630277D01*
X12265723Y-16611230D01*
X12265723Y-16535039D01*
X12275247Y-16515992D01*
X12294295Y-16506468D01*
X12332390Y-16506468D01*
X12351438Y-16515992D01*
X12360961Y-16535039D01*
X12360961Y-16554087D01*
X12265723Y-16573134D01*
X12437152Y-16630277D02*
X12456199Y-16639801D01*
X12494295Y-16639801D01*
X12513342Y-16630277D01*
X12522866Y-16611230D01*
X12522866Y-16601706D01*
X12513342Y-16582658D01*
X12494295Y-16573134D01*
X12465723Y-16573134D01*
X12446676Y-16563611D01*
X12437152Y-16544563D01*
X12437152Y-16535039D01*
X12446676Y-16515992D01*
X12465723Y-16506468D01*
X12494295Y-16506468D01*
X12513342Y-16515992D01*
X12589533Y-16715992D02*
X12599057Y-16706468D01*
X12618104Y-16677896D01*
X12627628Y-16658849D01*
X12637152Y-16630277D01*
X12646676Y-16582658D01*
X12646676Y-16544563D01*
X12637152Y-16496944D01*
X12627628Y-16468373D01*
X12618104Y-16449325D01*
X12599057Y-16420753D01*
X12589533Y-16411230D01*
X7336676Y-16921725D02*
X7436676Y-16821725D01*
X7336676Y-16721725D01*
X7236676Y-16821725D01*
X7336676Y-16921725D01*
X7675247Y-16712201D02*
X7799057Y-16712201D01*
X7732390Y-16788392D01*
X7760961Y-16788392D01*
X7780009Y-16797915D01*
X7789533Y-16807439D01*
X7799057Y-16826487D01*
X7799057Y-16874106D01*
X7789533Y-16893154D01*
X7780009Y-16902677D01*
X7760961Y-16912201D01*
X7703818Y-16912201D01*
X7684771Y-16902677D01*
X7675247Y-16893154D01*
X7884771Y-16893154D02*
X7894295Y-16902677D01*
X7884771Y-16912201D01*
X7875247Y-16902677D01*
X7884771Y-16893154D01*
X7884771Y-16912201D01*
X8018104Y-16712201D02*
X8037152Y-16712201D01*
X8056199Y-16721725D01*
X8065723Y-16731249D01*
X8075247Y-16750296D01*
X8084771Y-16788392D01*
X8084771Y-16836011D01*
X8075247Y-16874106D01*
X8065723Y-16893154D01*
X8056199Y-16902677D01*
X8037152Y-16912201D01*
X8018104Y-16912201D01*
X7999057Y-16902677D01*
X7989533Y-16893154D01*
X7980009Y-16874106D01*
X7970485Y-16836011D01*
X7970485Y-16788392D01*
X7980009Y-16750296D01*
X7989533Y-16731249D01*
X7999057Y-16721725D01*
X8018104Y-16712201D01*
X8256199Y-16778868D02*
X8256199Y-16912201D01*
X8208580Y-16702677D02*
X8160961Y-16845535D01*
X8284771Y-16845535D01*
X8389533Y-16797915D02*
X8370485Y-16788392D01*
X8360961Y-16778868D01*
X8351438Y-16759820D01*
X8351438Y-16750296D01*
X8360961Y-16731249D01*
X8370485Y-16721725D01*
X8389533Y-16712201D01*
X8427628Y-16712201D01*
X8446676Y-16721725D01*
X8456200Y-16731249D01*
X8465723Y-16750296D01*
X8465723Y-16759820D01*
X8456200Y-16778868D01*
X8446676Y-16788392D01*
X8427628Y-16797915D01*
X8389533Y-16797915D01*
X8370485Y-16807439D01*
X8360961Y-16816963D01*
X8351438Y-16836011D01*
X8351438Y-16874106D01*
X8360961Y-16893154D01*
X8370485Y-16902677D01*
X8389533Y-16912201D01*
X8427628Y-16912201D01*
X8446676Y-16902677D01*
X8456200Y-16893154D01*
X8465723Y-16874106D01*
X8465723Y-16836011D01*
X8456200Y-16816963D01*
X8446676Y-16807439D01*
X8427628Y-16797915D01*
X8551438Y-16912201D02*
X8551438Y-16778868D01*
X8551438Y-16797915D02*
X8560961Y-16788392D01*
X8580009Y-16778868D01*
X8608580Y-16778868D01*
X8627628Y-16788392D01*
X8637152Y-16807439D01*
X8637152Y-16912201D01*
X8637152Y-16807439D02*
X8646676Y-16788392D01*
X8665723Y-16778868D01*
X8694295Y-16778868D01*
X8713342Y-16788392D01*
X8722866Y-16807439D01*
X8722866Y-16912201D01*
X8818104Y-16912201D02*
X8818104Y-16778868D01*
X8818104Y-16797915D02*
X8827628Y-16788392D01*
X8846676Y-16778868D01*
X8875247Y-16778868D01*
X8894295Y-16788392D01*
X8903819Y-16807439D01*
X8903819Y-16912201D01*
X8903819Y-16807439D02*
X8913342Y-16788392D01*
X8932390Y-16778868D01*
X8960961Y-16778868D01*
X8980009Y-16788392D01*
X8989533Y-16807439D01*
X8989533Y-16912201D01*
X9380009Y-16702677D02*
X9208580Y-16959820D01*
X9637152Y-16712201D02*
X9656200Y-16712201D01*
X9675247Y-16721725D01*
X9684771Y-16731249D01*
X9694295Y-16750296D01*
X9703819Y-16788392D01*
X9703819Y-16836011D01*
X9694295Y-16874106D01*
X9684771Y-16893154D01*
X9675247Y-16902677D01*
X9656200Y-16912201D01*
X9637152Y-16912201D01*
X9618104Y-16902677D01*
X9608580Y-16893154D01*
X9599057Y-16874106D01*
X9589533Y-16836011D01*
X9589533Y-16788392D01*
X9599057Y-16750296D01*
X9608580Y-16731249D01*
X9618104Y-16721725D01*
X9637152Y-16712201D01*
X9789533Y-16893154D02*
X9799057Y-16902677D01*
X9789533Y-16912201D01*
X9780009Y-16902677D01*
X9789533Y-16893154D01*
X9789533Y-16912201D01*
X9989533Y-16912201D02*
X9875247Y-16912201D01*
X9932390Y-16912201D02*
X9932390Y-16712201D01*
X9913342Y-16740773D01*
X9894295Y-16759820D01*
X9875247Y-16769344D01*
X10065723Y-16731249D02*
X10075247Y-16721725D01*
X10094295Y-16712201D01*
X10141914Y-16712201D01*
X10160961Y-16721725D01*
X10170485Y-16731249D01*
X10180009Y-16750296D01*
X10180009Y-16769344D01*
X10170485Y-16797915D01*
X10056200Y-16912201D01*
X10180009Y-16912201D01*
X10303819Y-16712201D02*
X10322866Y-16712201D01*
X10341914Y-16721725D01*
X10351438Y-16731249D01*
X10360961Y-16750296D01*
X10370485Y-16788392D01*
X10370485Y-16836011D01*
X10360961Y-16874106D01*
X10351438Y-16893154D01*
X10341914Y-16902677D01*
X10322866Y-16912201D01*
X10303819Y-16912201D01*
X10284771Y-16902677D01*
X10275247Y-16893154D01*
X10265723Y-16874106D01*
X10256200Y-16836011D01*
X10256200Y-16788392D01*
X10265723Y-16750296D01*
X10275247Y-16731249D01*
X10284771Y-16721725D01*
X10303819Y-16712201D01*
X10494295Y-16712201D02*
X10513342Y-16712201D01*
X10532390Y-16721725D01*
X10541914Y-16731249D01*
X10551438Y-16750296D01*
X10560961Y-16788392D01*
X10560961Y-16836011D01*
X10551438Y-16874106D01*
X10541914Y-16893154D01*
X10532390Y-16902677D01*
X10513342Y-16912201D01*
X10494295Y-16912201D01*
X10475247Y-16902677D01*
X10465723Y-16893154D01*
X10456200Y-16874106D01*
X10446676Y-16836011D01*
X10446676Y-16788392D01*
X10456200Y-16750296D01*
X10465723Y-16731249D01*
X10475247Y-16721725D01*
X10494295Y-16712201D01*
X10637152Y-16712201D02*
X10637152Y-16750296D01*
X10713342Y-16712201D02*
X10713342Y-16750296D01*
X11008580Y-16988392D02*
X10999057Y-16978868D01*
X10980009Y-16950296D01*
X10970485Y-16931249D01*
X10960961Y-16902677D01*
X10951438Y-16855058D01*
X10951438Y-16816963D01*
X10960961Y-16769344D01*
X10970485Y-16740773D01*
X10980009Y-16721725D01*
X10999057Y-16693153D01*
X11008580Y-16683630D01*
X11189533Y-16912201D02*
X11075247Y-16912201D01*
X11132390Y-16912201D02*
X11132390Y-16712201D01*
X11113342Y-16740773D01*
X11094295Y-16759820D01*
X11075247Y-16769344D01*
X11313342Y-16712201D02*
X11332390Y-16712201D01*
X11351438Y-16721725D01*
X11360961Y-16731249D01*
X11370485Y-16750296D01*
X11380009Y-16788392D01*
X11380009Y-16836011D01*
X11370485Y-16874106D01*
X11360961Y-16893154D01*
X11351438Y-16902677D01*
X11332390Y-16912201D01*
X11313342Y-16912201D01*
X11294295Y-16902677D01*
X11284771Y-16893154D01*
X11275247Y-16874106D01*
X11265723Y-16836011D01*
X11265723Y-16788392D01*
X11275247Y-16750296D01*
X11284771Y-16731249D01*
X11294295Y-16721725D01*
X11313342Y-16712201D01*
X11618104Y-16912201D02*
X11618104Y-16712201D01*
X11703818Y-16912201D02*
X11703818Y-16807439D01*
X11694295Y-16788392D01*
X11675247Y-16778868D01*
X11646676Y-16778868D01*
X11627628Y-16788392D01*
X11618104Y-16797915D01*
X11827628Y-16912201D02*
X11808580Y-16902677D01*
X11799057Y-16893154D01*
X11789533Y-16874106D01*
X11789533Y-16816963D01*
X11799057Y-16797915D01*
X11808580Y-16788392D01*
X11827628Y-16778868D01*
X11856199Y-16778868D01*
X11875247Y-16788392D01*
X11884771Y-16797915D01*
X11894295Y-16816963D01*
X11894295Y-16874106D01*
X11884771Y-16893154D01*
X11875247Y-16902677D01*
X11856199Y-16912201D01*
X11827628Y-16912201D01*
X12008580Y-16912201D02*
X11989533Y-16902677D01*
X11980009Y-16883630D01*
X11980009Y-16712201D01*
X12160961Y-16902677D02*
X12141914Y-16912201D01*
X12103818Y-16912201D01*
X12084771Y-16902677D01*
X12075247Y-16883630D01*
X12075247Y-16807439D01*
X12084771Y-16788392D01*
X12103818Y-16778868D01*
X12141914Y-16778868D01*
X12160961Y-16788392D01*
X12170485Y-16807439D01*
X12170485Y-16826487D01*
X12075247Y-16845535D01*
X12246676Y-16902677D02*
X12265723Y-16912201D01*
X12303818Y-16912201D01*
X12322866Y-16902677D01*
X12332390Y-16883630D01*
X12332390Y-16874106D01*
X12322866Y-16855058D01*
X12303818Y-16845535D01*
X12275247Y-16845535D01*
X12256199Y-16836011D01*
X12246676Y-16816963D01*
X12246676Y-16807439D01*
X12256199Y-16788392D01*
X12275247Y-16778868D01*
X12303818Y-16778868D01*
X12322866Y-16788392D01*
X12399057Y-16988392D02*
X12408580Y-16978868D01*
X12427628Y-16950296D01*
X12437152Y-16931249D01*
X12446676Y-16902677D01*
X12456199Y-16855058D01*
X12456199Y-16816963D01*
X12446676Y-16769344D01*
X12437152Y-16740773D01*
X12427628Y-16721725D01*
X12408580Y-16693153D01*
X12399057Y-16683630D01*
M02*
