M48
; DRILL file {KiCad 6.0.6-3a73a75311~116~ubuntu21.10.1} date zo 06 nov 2022 16:32:57 CET
; FORMAT={-:-/ absolute / metric / decimal}
; #@! TF.CreationDate,2022-11-06T16:32:57+01:00
; #@! TF.GenerationSoftware,Kicad,Pcbnew,6.0.6-3a73a75311~116~ubuntu21.10.1
; #@! TF.FileFunction,NonPlated,1,2,NPTH
FMAT,2
METRIC
; #@! TA.AperFunction,NonPlated,NPTH,ComponentDrill
T1C1.750
; #@! TA.AperFunction,NonPlated,NPTH,ComponentDrill
T2C3.000
; #@! TA.AperFunction,NonPlated,NPTH,ComponentDrill
T3C3.988
%
G90
G05
T1
X78.895Y-65.403
X81.275Y-141.597
X83.655Y-84.45
X86.035Y-103.499
X89.055Y-65.403
X90.799Y-122.548
X91.435Y-141.597
X93.816Y-84.45
X96.195Y-103.499
X97.945Y-65.403
X100.959Y-122.548
X105.085Y-141.597
X107.466Y-84.45
X108.105Y-65.403
X112.229Y-103.499
X115.245Y-141.597
X116.995Y-65.403
X117.626Y-84.45
X121.753Y-122.548
X122.389Y-103.499
X126.515Y-84.45
X127.155Y-65.403
X128.896Y-141.597
X131.278Y-103.499
X131.913Y-122.548
X136.045Y-65.403
X136.675Y-84.45
X139.056Y-141.597
X140.802Y-122.548
X141.438Y-103.499
X145.565Y-84.45
X146.205Y-65.403
X150.326Y-103.499
X150.962Y-122.548
X155.095Y-65.403
X155.725Y-84.45
X159.851Y-122.548
X160.487Y-103.499
X164.615Y-84.45
X165.255Y-65.403
X169.376Y-103.499
X170.011Y-122.548
X174.145Y-65.403
X174.775Y-84.45
X178.893Y-122.548
X179.536Y-103.499
X183.665Y-84.45
X184.305Y-65.403
X188.427Y-103.499
X189.053Y-122.548
X193.195Y-65.403
X193.826Y-84.45
X197.944Y-122.548
X198.587Y-103.499
X200.329Y-141.597
X202.715Y-84.45
X203.355Y-65.403
X207.476Y-103.499
X208.103Y-122.548
X210.489Y-141.597
X212.245Y-65.403
X212.875Y-84.45
X216.993Y-122.548
X217.636Y-103.499
X221.766Y-84.45
X222.405Y-65.403
X226.526Y-103.499
X227.153Y-122.548
X231.295Y-65.403
X231.925Y-84.45
X236.043Y-122.548
X236.686Y-103.499
X240.815Y-84.45
X241.455Y-65.403
X245.576Y-103.499
X246.203Y-122.548
X250.345Y-65.403
X250.975Y-84.45
X255.093Y-122.548
X255.736Y-103.499
X259.865Y-84.45
X260.505Y-65.403
X264.626Y-103.499
X265.253Y-122.548
X269.395Y-65.403
X270.025Y-84.45
X271.762Y-141.597
X274.143Y-122.548
X274.786Y-103.499
X278.916Y-84.45
X279.555Y-65.403
X281.922Y-141.597
X283.676Y-103.499
X284.303Y-122.548
X288.445Y-65.403
X289.075Y-84.45
X293.192Y-122.548
X293.837Y-103.499
X295.572Y-141.597
X297.965Y-84.45
X298.605Y-65.403
X302.726Y-103.499
X303.352Y-122.548
X305.732Y-141.597
X307.495Y-65.403
X308.125Y-84.45
X312.887Y-103.499
X317.003Y-84.45
X317.655Y-65.403
X319.384Y-141.597
X327.163Y-84.45
X328.909Y-122.548
X329.544Y-141.597
X333.671Y-103.499
X336.07Y-65.403
X339.069Y-122.548
X340.815Y-84.45
X343.195Y-141.597
X343.831Y-103.499
X346.23Y-65.403
X350.974Y-84.45
X353.355Y-141.597
T2
X103.975Y-103.975
X174.614Y-142.866
X319.067Y-103.975
T3
X83.973Y-130.803
X83.975Y-65.403
X86.355Y-141.597
X88.736Y-84.45
X91.115Y-103.499
X95.879Y-122.548
X103.025Y-65.403
X107.785Y-130.803
X110.165Y-141.597
X112.546Y-84.45
X117.309Y-103.499
X122.075Y-65.403
X126.833Y-122.548
X131.595Y-84.45
X133.976Y-141.597
X136.357Y-103.499
X141.125Y-65.403
X145.882Y-122.548
X150.645Y-84.45
X155.403Y-133.342
X155.406Y-103.499
X160.175Y-65.403
X164.931Y-122.548
X169.695Y-84.45
X174.457Y-103.499
X179.225Y-65.403
X183.974Y-122.548
X188.745Y-84.45
X193.506Y-103.499
X198.275Y-65.403
X203.023Y-122.548
X205.409Y-141.597
X207.796Y-84.45
X212.556Y-103.499
X217.325Y-65.403
X222.073Y-122.548
X226.845Y-84.45
X231.606Y-103.499
X236.375Y-65.403
X241.123Y-122.548
X245.895Y-84.45
X250.656Y-103.499
X255.416Y-133.342
X255.425Y-65.403
X260.173Y-122.548
X264.945Y-84.45
X269.707Y-103.499
X274.475Y-65.403
X276.842Y-141.597
X279.224Y-122.548
X283.995Y-84.45
X288.756Y-103.499
X293.525Y-65.403
X298.272Y-122.548
X300.652Y-141.597
X303.046Y-84.45
X307.806Y-103.499
X312.575Y-65.403
X322.083Y-130.803
X322.083Y-84.45
X324.464Y-141.597
X326.845Y-111.754
X329.226Y-73.657
X333.989Y-122.548
X338.751Y-103.499
X341.15Y-65.403
X345.894Y-84.45
X345.895Y-130.803
X348.275Y-141.597
X350.657Y-111.754
X353.038Y-73.657
T0
M30
