%TF.GenerationSoftware,KiCad,Pcbnew,6.0.6-3a73a75311~116~ubuntu21.10.1*%
%TF.CreationDate,2022-11-06T15:30:45+01:00*%
%TF.ProjectId,Keyboard,4b657962-6f61-4726-942e-6b696361645f,v1*%
%TF.SameCoordinates,Original*%
%TF.FileFunction,Legend,Top*%
%TF.FilePolarity,Positive*%
%FSLAX46Y46*%
G04 Gerber Fmt 4.6, Leading zero omitted, Abs format (unit mm)*
G04 Created by KiCad (PCBNEW 6.0.6-3a73a75311~116~ubuntu21.10.1) date 2022-11-06 15:30:45*
%MOMM*%
%LPD*%
G01*
G04 APERTURE LIST*
%ADD10C,0.250000*%
%ADD11C,0.150000*%
%ADD12C,0.120000*%
%ADD13C,2.000000*%
%ADD14C,1.750000*%
%ADD15C,3.987800*%
%ADD16C,3.000000*%
%ADD17O,1.700000X1.700000*%
%ADD18R,1.700000X1.700000*%
G04 APERTURE END LIST*
D10*
X80037699Y-146719371D02*
X80037699Y-145219371D01*
X80394842Y-145219371D01*
X80609128Y-145290800D01*
X80751985Y-145433657D01*
X80823414Y-145576514D01*
X80894842Y-145862228D01*
X80894842Y-146076514D01*
X80823414Y-146362228D01*
X80751985Y-146505085D01*
X80609128Y-146647942D01*
X80394842Y-146719371D01*
X80037699Y-146719371D01*
X82109128Y-146647942D02*
X81966271Y-146719371D01*
X81680557Y-146719371D01*
X81537699Y-146647942D01*
X81466271Y-146505085D01*
X81466271Y-145933657D01*
X81537699Y-145790800D01*
X81680557Y-145719371D01*
X81966271Y-145719371D01*
X82109128Y-145790800D01*
X82180557Y-145933657D01*
X82180557Y-146076514D01*
X81466271Y-146219371D01*
X82751985Y-146647942D02*
X82894842Y-146719371D01*
X83180557Y-146719371D01*
X83323414Y-146647942D01*
X83394842Y-146505085D01*
X83394842Y-146433657D01*
X83323414Y-146290800D01*
X83180557Y-146219371D01*
X82966271Y-146219371D01*
X82823414Y-146147942D01*
X82751985Y-146005085D01*
X82751985Y-145933657D01*
X82823414Y-145790800D01*
X82966271Y-145719371D01*
X83180557Y-145719371D01*
X83323414Y-145790800D01*
X84037699Y-146719371D02*
X84037699Y-145719371D01*
X84037699Y-145219371D02*
X83966271Y-145290800D01*
X84037699Y-145362228D01*
X84109128Y-145290800D01*
X84037699Y-145219371D01*
X84037699Y-145362228D01*
X85394842Y-145719371D02*
X85394842Y-146933657D01*
X85323414Y-147076514D01*
X85251985Y-147147942D01*
X85109128Y-147219371D01*
X84894842Y-147219371D01*
X84751985Y-147147942D01*
X85394842Y-146647942D02*
X85251985Y-146719371D01*
X84966271Y-146719371D01*
X84823414Y-146647942D01*
X84751985Y-146576514D01*
X84680557Y-146433657D01*
X84680557Y-146005085D01*
X84751985Y-145862228D01*
X84823414Y-145790800D01*
X84966271Y-145719371D01*
X85251985Y-145719371D01*
X85394842Y-145790800D01*
X86109128Y-145719371D02*
X86109128Y-146719371D01*
X86109128Y-145862228D02*
X86180557Y-145790800D01*
X86323414Y-145719371D01*
X86537699Y-145719371D01*
X86680557Y-145790800D01*
X86751985Y-145933657D01*
X86751985Y-146719371D01*
X88037700Y-146647942D02*
X87894842Y-146719371D01*
X87609128Y-146719371D01*
X87466271Y-146647942D01*
X87394842Y-146505085D01*
X87394842Y-145933657D01*
X87466271Y-145790800D01*
X87609128Y-145719371D01*
X87894842Y-145719371D01*
X88037700Y-145790800D01*
X88109128Y-145933657D01*
X88109128Y-146076514D01*
X87394842Y-146219371D01*
X89394842Y-146719371D02*
X89394842Y-145219371D01*
X89394842Y-146647942D02*
X89251985Y-146719371D01*
X88966271Y-146719371D01*
X88823414Y-146647942D01*
X88751985Y-146576514D01*
X88680557Y-146433657D01*
X88680557Y-146005085D01*
X88751985Y-145862228D01*
X88823414Y-145790800D01*
X88966271Y-145719371D01*
X89251985Y-145719371D01*
X89394842Y-145790800D01*
X91251985Y-146719371D02*
X91251985Y-145719371D01*
X91251985Y-145219371D02*
X91180557Y-145290800D01*
X91251985Y-145362228D01*
X91323414Y-145290800D01*
X91251985Y-145219371D01*
X91251985Y-145362228D01*
X91966271Y-145719371D02*
X91966271Y-146719371D01*
X91966271Y-145862228D02*
X92037699Y-145790800D01*
X92180557Y-145719371D01*
X92394842Y-145719371D01*
X92537699Y-145790800D01*
X92609128Y-145933657D01*
X92609128Y-146719371D01*
X94251985Y-145219371D02*
X95109128Y-145219371D01*
X94680557Y-146719371D02*
X94680557Y-145219371D01*
X95609128Y-146719371D02*
X95609128Y-145219371D01*
X96251985Y-146719371D02*
X96251985Y-145933657D01*
X96180557Y-145790800D01*
X96037699Y-145719371D01*
X95823414Y-145719371D01*
X95680557Y-145790800D01*
X95609128Y-145862228D01*
X97537699Y-146647942D02*
X97394842Y-146719371D01*
X97109128Y-146719371D01*
X96966271Y-146647942D01*
X96894842Y-146505085D01*
X96894842Y-145933657D01*
X96966271Y-145790800D01*
X97109128Y-145719371D01*
X97394842Y-145719371D01*
X97537699Y-145790800D01*
X97609128Y-145933657D01*
X97609128Y-146076514D01*
X96894842Y-146219371D01*
X99394842Y-146719371D02*
X99394842Y-145219371D01*
X100251985Y-146719371D01*
X100251985Y-145219371D01*
X101537699Y-146647942D02*
X101394842Y-146719371D01*
X101109128Y-146719371D01*
X100966271Y-146647942D01*
X100894842Y-146505085D01*
X100894842Y-145933657D01*
X100966271Y-145790800D01*
X101109128Y-145719371D01*
X101394842Y-145719371D01*
X101537699Y-145790800D01*
X101609128Y-145933657D01*
X101609128Y-146076514D01*
X100894842Y-146219371D01*
X102037699Y-145719371D02*
X102609128Y-145719371D01*
X102251985Y-145219371D02*
X102251985Y-146505085D01*
X102323414Y-146647942D01*
X102466271Y-146719371D01*
X102609128Y-146719371D01*
X103109128Y-146719371D02*
X103109128Y-145219371D01*
X103751985Y-146719371D02*
X103751985Y-145933657D01*
X103680557Y-145790800D01*
X103537700Y-145719371D01*
X103323414Y-145719371D01*
X103180557Y-145790800D01*
X103109128Y-145862228D01*
X105037700Y-146647942D02*
X104894842Y-146719371D01*
X104609128Y-146719371D01*
X104466271Y-146647942D01*
X104394842Y-146505085D01*
X104394842Y-145933657D01*
X104466271Y-145790800D01*
X104609128Y-145719371D01*
X104894842Y-145719371D01*
X105037700Y-145790800D01*
X105109128Y-145933657D01*
X105109128Y-146076514D01*
X104394842Y-146219371D01*
X105751985Y-146719371D02*
X105751985Y-145719371D01*
X105751985Y-146005085D02*
X105823414Y-145862228D01*
X105894842Y-145790800D01*
X106037700Y-145719371D01*
X106180557Y-145719371D01*
X106894842Y-146719371D02*
X106751985Y-146647942D01*
X106680557Y-146505085D01*
X106680557Y-145219371D01*
X108109128Y-146719371D02*
X108109128Y-145933657D01*
X108037700Y-145790800D01*
X107894842Y-145719371D01*
X107609128Y-145719371D01*
X107466271Y-145790800D01*
X108109128Y-146647942D02*
X107966271Y-146719371D01*
X107609128Y-146719371D01*
X107466271Y-146647942D01*
X107394842Y-146505085D01*
X107394842Y-146362228D01*
X107466271Y-146219371D01*
X107609128Y-146147942D01*
X107966271Y-146147942D01*
X108109128Y-146076514D01*
X108823414Y-145719371D02*
X108823414Y-146719371D01*
X108823414Y-145862228D02*
X108894842Y-145790800D01*
X109037700Y-145719371D01*
X109251985Y-145719371D01*
X109394842Y-145790800D01*
X109466271Y-145933657D01*
X109466271Y-146719371D01*
X110823414Y-146719371D02*
X110823414Y-145219371D01*
X110823414Y-146647942D02*
X110680557Y-146719371D01*
X110394842Y-146719371D01*
X110251985Y-146647942D01*
X110180557Y-146576514D01*
X110109128Y-146433657D01*
X110109128Y-146005085D01*
X110180557Y-145862228D01*
X110251985Y-145790800D01*
X110394842Y-145719371D01*
X110680557Y-145719371D01*
X110823414Y-145790800D01*
X111466271Y-146647942D02*
X111609128Y-146719371D01*
X111894842Y-146719371D01*
X112037700Y-146647942D01*
X112109128Y-146505085D01*
X112109128Y-146433657D01*
X112037700Y-146290800D01*
X111894842Y-146219371D01*
X111680557Y-146219371D01*
X111537700Y-146147942D01*
X111466271Y-146005085D01*
X111466271Y-145933657D01*
X111537700Y-145790800D01*
X111680557Y-145719371D01*
X111894842Y-145719371D01*
X112037700Y-145790800D01*
X223847800Y-136834671D02*
X223562085Y-136834671D01*
X223419228Y-136906100D01*
X223347800Y-136977528D01*
X223204942Y-137191814D01*
X223133514Y-137477528D01*
X223133514Y-138048957D01*
X223204942Y-138191814D01*
X223276371Y-138263242D01*
X223419228Y-138334671D01*
X223704942Y-138334671D01*
X223847800Y-138263242D01*
X223919228Y-138191814D01*
X223990657Y-138048957D01*
X223990657Y-137691814D01*
X223919228Y-137548957D01*
X223847800Y-137477528D01*
X223704942Y-137406100D01*
X223419228Y-137406100D01*
X223276371Y-137477528D01*
X223204942Y-137548957D01*
X223133514Y-137691814D01*
X224919228Y-136834671D02*
X225062085Y-136834671D01*
X225204942Y-136906100D01*
X225276371Y-136977528D01*
X225347800Y-137120385D01*
X225419228Y-137406100D01*
X225419228Y-137763242D01*
X225347800Y-138048957D01*
X225276371Y-138191814D01*
X225204942Y-138263242D01*
X225062085Y-138334671D01*
X224919228Y-138334671D01*
X224776371Y-138263242D01*
X224704942Y-138191814D01*
X224633514Y-138048957D01*
X224562085Y-137763242D01*
X224562085Y-137406100D01*
X224633514Y-137120385D01*
X224704942Y-136977528D01*
X224776371Y-136906100D01*
X224919228Y-136834671D01*
X225990657Y-138334671D02*
X227133514Y-136834671D01*
X226204942Y-136834671D02*
X226347800Y-136906100D01*
X226419228Y-137048957D01*
X226347800Y-137191814D01*
X226204942Y-137263242D01*
X226062085Y-137191814D01*
X225990657Y-137048957D01*
X226062085Y-136906100D01*
X226204942Y-136834671D01*
X227062085Y-138263242D02*
X227133514Y-138120385D01*
X227062085Y-137977528D01*
X226919228Y-137906100D01*
X226776371Y-137977528D01*
X226704942Y-138120385D01*
X226776371Y-138263242D01*
X226919228Y-138334671D01*
X227062085Y-138263242D01*
X228919228Y-138334671D02*
X228919228Y-136834671D01*
X229776371Y-138334671D02*
X229133514Y-137477528D01*
X229776371Y-136834671D02*
X228919228Y-137691814D01*
X230990657Y-138263242D02*
X230847800Y-138334671D01*
X230562085Y-138334671D01*
X230419228Y-138263242D01*
X230347800Y-138120385D01*
X230347800Y-137548957D01*
X230419228Y-137406100D01*
X230562085Y-137334671D01*
X230847800Y-137334671D01*
X230990657Y-137406100D01*
X231062085Y-137548957D01*
X231062085Y-137691814D01*
X230347800Y-137834671D01*
X231562085Y-137334671D02*
X231919228Y-138334671D01*
X232276371Y-137334671D02*
X231919228Y-138334671D01*
X231776371Y-138691814D01*
X231704942Y-138763242D01*
X231562085Y-138834671D01*
X232847800Y-138334671D02*
X232847800Y-136834671D01*
X232847800Y-137406100D02*
X232990657Y-137334671D01*
X233276371Y-137334671D01*
X233419228Y-137406100D01*
X233490657Y-137477528D01*
X233562085Y-137620385D01*
X233562085Y-138048957D01*
X233490657Y-138191814D01*
X233419228Y-138263242D01*
X233276371Y-138334671D01*
X232990657Y-138334671D01*
X232847800Y-138263242D01*
X234419228Y-138334671D02*
X234276371Y-138263242D01*
X234204942Y-138191814D01*
X234133514Y-138048957D01*
X234133514Y-137620385D01*
X234204942Y-137477528D01*
X234276371Y-137406100D01*
X234419228Y-137334671D01*
X234633514Y-137334671D01*
X234776371Y-137406100D01*
X234847800Y-137477528D01*
X234919228Y-137620385D01*
X234919228Y-138048957D01*
X234847800Y-138191814D01*
X234776371Y-138263242D01*
X234633514Y-138334671D01*
X234419228Y-138334671D01*
X236204942Y-138334671D02*
X236204942Y-137548957D01*
X236133514Y-137406100D01*
X235990657Y-137334671D01*
X235704942Y-137334671D01*
X235562085Y-137406100D01*
X236204942Y-138263242D02*
X236062085Y-138334671D01*
X235704942Y-138334671D01*
X235562085Y-138263242D01*
X235490657Y-138120385D01*
X235490657Y-137977528D01*
X235562085Y-137834671D01*
X235704942Y-137763242D01*
X236062085Y-137763242D01*
X236204942Y-137691814D01*
X236919228Y-138334671D02*
X236919228Y-137334671D01*
X236919228Y-137620385D02*
X236990657Y-137477528D01*
X237062085Y-137406100D01*
X237204942Y-137334671D01*
X237347800Y-137334671D01*
X238490657Y-138334671D02*
X238490657Y-136834671D01*
X238490657Y-138263242D02*
X238347800Y-138334671D01*
X238062085Y-138334671D01*
X237919228Y-138263242D01*
X237847800Y-138191814D01*
X237776371Y-138048957D01*
X237776371Y-137620385D01*
X237847800Y-137477528D01*
X237919228Y-137406100D01*
X238062085Y-137334671D01*
X238347800Y-137334671D01*
X238490657Y-137406100D01*
X240133514Y-136834671D02*
X240633514Y-138334671D01*
X241133514Y-136834671D01*
X242419228Y-138334671D02*
X241562085Y-138334671D01*
X241990657Y-138334671D02*
X241990657Y-136834671D01*
X241847800Y-137048957D01*
X241704942Y-137191814D01*
X241562085Y-137263242D01*
X220276371Y-140606814D02*
X220204942Y-140678242D01*
X219990657Y-140749671D01*
X219847800Y-140749671D01*
X219633514Y-140678242D01*
X219490657Y-140535385D01*
X219419228Y-140392528D01*
X219347800Y-140106814D01*
X219347800Y-139892528D01*
X219419228Y-139606814D01*
X219490657Y-139463957D01*
X219633514Y-139321100D01*
X219847800Y-139249671D01*
X219990657Y-139249671D01*
X220204942Y-139321100D01*
X220276371Y-139392528D01*
X221133514Y-140749671D02*
X220990657Y-140678242D01*
X220919228Y-140535385D01*
X220919228Y-139249671D01*
X222276371Y-140678242D02*
X222133514Y-140749671D01*
X221847800Y-140749671D01*
X221704942Y-140678242D01*
X221633514Y-140535385D01*
X221633514Y-139963957D01*
X221704942Y-139821100D01*
X221847800Y-139749671D01*
X222133514Y-139749671D01*
X222276371Y-139821100D01*
X222347800Y-139963957D01*
X222347800Y-140106814D01*
X221633514Y-140249671D01*
X222990657Y-140749671D02*
X222990657Y-139749671D01*
X222990657Y-139892528D02*
X223062085Y-139821100D01*
X223204942Y-139749671D01*
X223419228Y-139749671D01*
X223562085Y-139821100D01*
X223633514Y-139963957D01*
X223633514Y-140749671D01*
X223633514Y-139963957D02*
X223704942Y-139821100D01*
X223847800Y-139749671D01*
X224062085Y-139749671D01*
X224204942Y-139821100D01*
X224276371Y-139963957D01*
X224276371Y-140749671D01*
X225562085Y-140678242D02*
X225419228Y-140749671D01*
X225133514Y-140749671D01*
X224990657Y-140678242D01*
X224919228Y-140535385D01*
X224919228Y-139963957D01*
X224990657Y-139821100D01*
X225133514Y-139749671D01*
X225419228Y-139749671D01*
X225562085Y-139821100D01*
X225633514Y-139963957D01*
X225633514Y-140106814D01*
X224919228Y-140249671D01*
X226276371Y-139749671D02*
X226276371Y-140749671D01*
X226276371Y-139892528D02*
X226347800Y-139821100D01*
X226490657Y-139749671D01*
X226704942Y-139749671D01*
X226847800Y-139821100D01*
X226919228Y-139963957D01*
X226919228Y-140749671D01*
X227562085Y-140678242D02*
X227704942Y-140749671D01*
X227990657Y-140749671D01*
X228133514Y-140678242D01*
X228204942Y-140535385D01*
X228204942Y-140463957D01*
X228133514Y-140321100D01*
X227990657Y-140249671D01*
X227776371Y-140249671D01*
X227633514Y-140178242D01*
X227562085Y-140035385D01*
X227562085Y-139963957D01*
X227633514Y-139821100D01*
X227776371Y-139749671D01*
X227990657Y-139749671D01*
X228133514Y-139821100D01*
X230847800Y-140749671D02*
X230347800Y-140035385D01*
X229990657Y-140749671D02*
X229990657Y-139249671D01*
X230562085Y-139249671D01*
X230704942Y-139321100D01*
X230776371Y-139392528D01*
X230847800Y-139535385D01*
X230847800Y-139749671D01*
X230776371Y-139892528D01*
X230704942Y-139963957D01*
X230562085Y-140035385D01*
X229990657Y-140035385D01*
X232062085Y-140678242D02*
X231919228Y-140749671D01*
X231633514Y-140749671D01*
X231490657Y-140678242D01*
X231419228Y-140535385D01*
X231419228Y-139963957D01*
X231490657Y-139821100D01*
X231633514Y-139749671D01*
X231919228Y-139749671D01*
X232062085Y-139821100D01*
X232133514Y-139963957D01*
X232133514Y-140106814D01*
X231419228Y-140249671D01*
X232562085Y-139749671D02*
X233133514Y-139749671D01*
X232776371Y-139249671D02*
X232776371Y-140535385D01*
X232847800Y-140678242D01*
X232990657Y-140749671D01*
X233133514Y-140749671D01*
X233633514Y-140749671D02*
X233633514Y-139749671D01*
X233633514Y-140035385D02*
X233704942Y-139892528D01*
X233776371Y-139821100D01*
X233919228Y-139749671D01*
X234062085Y-139749671D01*
X235204942Y-140749671D02*
X235204942Y-139963957D01*
X235133514Y-139821100D01*
X234990657Y-139749671D01*
X234704942Y-139749671D01*
X234562085Y-139821100D01*
X235204942Y-140678242D02*
X235062085Y-140749671D01*
X234704942Y-140749671D01*
X234562085Y-140678242D01*
X234490657Y-140535385D01*
X234490657Y-140392528D01*
X234562085Y-140249671D01*
X234704942Y-140178242D01*
X235062085Y-140178242D01*
X235204942Y-140106814D01*
X237062085Y-140749671D02*
X237062085Y-139249671D01*
X237919228Y-140749671D01*
X237919228Y-139249671D01*
X238847800Y-140749671D02*
X238704942Y-140678242D01*
X238633514Y-140606814D01*
X238562085Y-140463957D01*
X238562085Y-140035385D01*
X238633514Y-139892528D01*
X238704942Y-139821100D01*
X238847800Y-139749671D01*
X239062085Y-139749671D01*
X239204942Y-139821100D01*
X239276371Y-139892528D01*
X239347800Y-140035385D01*
X239347800Y-140463957D01*
X239276371Y-140606814D01*
X239204942Y-140678242D01*
X239062085Y-140749671D01*
X238847800Y-140749671D01*
X239847800Y-139749671D02*
X240204942Y-140749671D01*
X240562085Y-139749671D01*
X242204942Y-139392528D02*
X242276371Y-139321100D01*
X242419228Y-139249671D01*
X242776371Y-139249671D01*
X242919228Y-139321100D01*
X242990657Y-139392528D01*
X243062085Y-139535385D01*
X243062085Y-139678242D01*
X242990657Y-139892528D01*
X242133514Y-140749671D01*
X243062085Y-140749671D01*
X243990657Y-139249671D02*
X244133514Y-139249671D01*
X244276371Y-139321100D01*
X244347800Y-139392528D01*
X244419228Y-139535385D01*
X244490657Y-139821100D01*
X244490657Y-140178242D01*
X244419228Y-140463957D01*
X244347800Y-140606814D01*
X244276371Y-140678242D01*
X244133514Y-140749671D01*
X243990657Y-140749671D01*
X243847800Y-140678242D01*
X243776371Y-140606814D01*
X243704942Y-140463957D01*
X243633514Y-140178242D01*
X243633514Y-139821100D01*
X243704942Y-139535385D01*
X243776371Y-139392528D01*
X243847800Y-139321100D01*
X243990657Y-139249671D01*
X245062085Y-139392528D02*
X245133514Y-139321100D01*
X245276371Y-139249671D01*
X245633514Y-139249671D01*
X245776371Y-139321100D01*
X245847800Y-139392528D01*
X245919228Y-139535385D01*
X245919228Y-139678242D01*
X245847800Y-139892528D01*
X244990657Y-140749671D01*
X245919228Y-140749671D01*
X246490657Y-139392528D02*
X246562085Y-139321100D01*
X246704942Y-139249671D01*
X247062085Y-139249671D01*
X247204942Y-139321100D01*
X247276371Y-139392528D01*
X247347800Y-139535385D01*
X247347800Y-139678242D01*
X247276371Y-139892528D01*
X246419228Y-140749671D01*
X247347800Y-140749671D01*
X217669228Y-142164671D02*
X217669228Y-143378957D01*
X217597800Y-143521814D01*
X217526371Y-143593242D01*
X217383514Y-143664671D01*
X217169228Y-143664671D01*
X217026371Y-143593242D01*
X217669228Y-143093242D02*
X217526371Y-143164671D01*
X217240657Y-143164671D01*
X217097800Y-143093242D01*
X217026371Y-143021814D01*
X216954942Y-142878957D01*
X216954942Y-142450385D01*
X217026371Y-142307528D01*
X217097800Y-142236100D01*
X217240657Y-142164671D01*
X217526371Y-142164671D01*
X217669228Y-142236100D01*
X218383514Y-143164671D02*
X218383514Y-142164671D01*
X218383514Y-141664671D02*
X218312085Y-141736100D01*
X218383514Y-141807528D01*
X218454942Y-141736100D01*
X218383514Y-141664671D01*
X218383514Y-141807528D01*
X218883514Y-142164671D02*
X219454942Y-142164671D01*
X219097800Y-141664671D02*
X219097800Y-142950385D01*
X219169228Y-143093242D01*
X219312085Y-143164671D01*
X219454942Y-143164671D01*
X219954942Y-143164671D02*
X219954942Y-141664671D01*
X220597800Y-143164671D02*
X220597800Y-142378957D01*
X220526371Y-142236100D01*
X220383514Y-142164671D01*
X220169228Y-142164671D01*
X220026371Y-142236100D01*
X219954942Y-142307528D01*
X221954942Y-142164671D02*
X221954942Y-143164671D01*
X221312085Y-142164671D02*
X221312085Y-142950385D01*
X221383514Y-143093242D01*
X221526371Y-143164671D01*
X221740657Y-143164671D01*
X221883514Y-143093242D01*
X221954942Y-143021814D01*
X222669228Y-143164671D02*
X222669228Y-141664671D01*
X222669228Y-142236100D02*
X222812085Y-142164671D01*
X223097800Y-142164671D01*
X223240657Y-142236100D01*
X223312085Y-142307528D01*
X223383514Y-142450385D01*
X223383514Y-142878957D01*
X223312085Y-143021814D01*
X223240657Y-143093242D01*
X223097800Y-143164671D01*
X222812085Y-143164671D01*
X222669228Y-143093242D01*
X224026371Y-143021814D02*
X224097800Y-143093242D01*
X224026371Y-143164671D01*
X223954942Y-143093242D01*
X224026371Y-143021814D01*
X224026371Y-143164671D01*
X225383514Y-143093242D02*
X225240657Y-143164671D01*
X224954942Y-143164671D01*
X224812085Y-143093242D01*
X224740657Y-143021814D01*
X224669228Y-142878957D01*
X224669228Y-142450385D01*
X224740657Y-142307528D01*
X224812085Y-142236100D01*
X224954942Y-142164671D01*
X225240657Y-142164671D01*
X225383514Y-142236100D01*
X226240657Y-143164671D02*
X226097800Y-143093242D01*
X226026371Y-143021814D01*
X225954942Y-142878957D01*
X225954942Y-142450385D01*
X226026371Y-142307528D01*
X226097800Y-142236100D01*
X226240657Y-142164671D01*
X226454942Y-142164671D01*
X226597800Y-142236100D01*
X226669228Y-142307528D01*
X226740657Y-142450385D01*
X226740657Y-142878957D01*
X226669228Y-143021814D01*
X226597800Y-143093242D01*
X226454942Y-143164671D01*
X226240657Y-143164671D01*
X227383514Y-143164671D02*
X227383514Y-142164671D01*
X227383514Y-142307528D02*
X227454942Y-142236100D01*
X227597800Y-142164671D01*
X227812085Y-142164671D01*
X227954942Y-142236100D01*
X228026371Y-142378957D01*
X228026371Y-143164671D01*
X228026371Y-142378957D02*
X228097800Y-142236100D01*
X228240657Y-142164671D01*
X228454942Y-142164671D01*
X228597800Y-142236100D01*
X228669228Y-142378957D01*
X228669228Y-143164671D01*
X230454942Y-141593242D02*
X229169228Y-143521814D01*
X230954942Y-142378957D02*
X231454942Y-142378957D01*
X231669228Y-143164671D02*
X230954942Y-143164671D01*
X230954942Y-141664671D01*
X231669228Y-141664671D01*
X232312085Y-142164671D02*
X232312085Y-143664671D01*
X232312085Y-142236100D02*
X232454942Y-142164671D01*
X232740657Y-142164671D01*
X232883514Y-142236100D01*
X232954942Y-142307528D01*
X233026371Y-142450385D01*
X233026371Y-142878957D01*
X232954942Y-143021814D01*
X232883514Y-143093242D01*
X232740657Y-143164671D01*
X232454942Y-143164671D01*
X232312085Y-143093242D01*
X233669228Y-143164671D02*
X233669228Y-142164671D01*
X233669228Y-141664671D02*
X233597800Y-141736100D01*
X233669228Y-141807528D01*
X233740657Y-141736100D01*
X233669228Y-141664671D01*
X233669228Y-141807528D01*
X235026371Y-143093242D02*
X234883514Y-143164671D01*
X234597800Y-143164671D01*
X234454942Y-143093242D01*
X234383514Y-143021814D01*
X234312085Y-142878957D01*
X234312085Y-142450385D01*
X234383514Y-142307528D01*
X234454942Y-142236100D01*
X234597800Y-142164671D01*
X234883514Y-142164671D01*
X235026371Y-142236100D01*
X235669228Y-143164671D02*
X235669228Y-141664671D01*
X236526371Y-143164671D02*
X235883514Y-142307528D01*
X236526371Y-141664671D02*
X235669228Y-142521814D01*
X237169228Y-143164671D02*
X237169228Y-142164671D01*
X237169228Y-141664671D02*
X237097800Y-141736100D01*
X237169228Y-141807528D01*
X237240657Y-141736100D01*
X237169228Y-141664671D01*
X237169228Y-141807528D01*
X237740657Y-142164671D02*
X238026371Y-143164671D01*
X238312085Y-142450385D01*
X238597800Y-143164671D01*
X238883514Y-142164671D01*
X239454942Y-143164671D02*
X239454942Y-142164671D01*
X239454942Y-141664671D02*
X239383514Y-141736100D01*
X239454942Y-141807528D01*
X239526371Y-141736100D01*
X239454942Y-141664671D01*
X239454942Y-141807528D01*
X240169228Y-143164671D02*
X240169228Y-141664671D01*
X240740657Y-141664671D01*
X240883514Y-141736100D01*
X240954942Y-141807528D01*
X241026371Y-141950385D01*
X241026371Y-142164671D01*
X240954942Y-142307528D01*
X240883514Y-142378957D01*
X240740657Y-142450385D01*
X240169228Y-142450385D01*
X241669228Y-143164671D02*
X241669228Y-142164671D01*
X241669228Y-142450385D02*
X241740657Y-142307528D01*
X241812085Y-142236100D01*
X241954942Y-142164671D01*
X242097800Y-142164671D01*
X242812085Y-143164671D02*
X242669228Y-143093242D01*
X242597800Y-143021814D01*
X242526371Y-142878957D01*
X242526371Y-142450385D01*
X242597800Y-142307528D01*
X242669228Y-142236100D01*
X242812085Y-142164671D01*
X243026371Y-142164671D01*
X243169228Y-142236100D01*
X243240657Y-142307528D01*
X243312085Y-142450385D01*
X243312085Y-142878957D01*
X243240657Y-143021814D01*
X243169228Y-143093242D01*
X243026371Y-143164671D01*
X242812085Y-143164671D01*
X244812085Y-143021814D02*
X244740657Y-143093242D01*
X244526371Y-143164671D01*
X244383514Y-143164671D01*
X244169228Y-143093242D01*
X244026371Y-142950385D01*
X243954942Y-142807528D01*
X243883514Y-142521814D01*
X243883514Y-142307528D01*
X243954942Y-142021814D01*
X244026371Y-141878957D01*
X244169228Y-141736100D01*
X244383514Y-141664671D01*
X244526371Y-141664671D01*
X244740657Y-141736100D01*
X244812085Y-141807528D01*
X245669228Y-143164671D02*
X245526371Y-143093242D01*
X245454942Y-143021814D01*
X245383514Y-142878957D01*
X245383514Y-142450385D01*
X245454942Y-142307528D01*
X245526371Y-142236100D01*
X245669228Y-142164671D01*
X245883514Y-142164671D01*
X246026371Y-142236100D01*
X246097800Y-142307528D01*
X246169228Y-142450385D01*
X246169228Y-142878957D01*
X246097800Y-143021814D01*
X246026371Y-143093242D01*
X245883514Y-143164671D01*
X245669228Y-143164671D01*
X247454942Y-143164671D02*
X247454942Y-141664671D01*
X247454942Y-143093242D02*
X247312085Y-143164671D01*
X247026371Y-143164671D01*
X246883514Y-143093242D01*
X246812085Y-143021814D01*
X246740657Y-142878957D01*
X246740657Y-142450385D01*
X246812085Y-142307528D01*
X246883514Y-142236100D01*
X247026371Y-142164671D01*
X247312085Y-142164671D01*
X247454942Y-142236100D01*
X248740657Y-143093242D02*
X248597800Y-143164671D01*
X248312085Y-143164671D01*
X248169228Y-143093242D01*
X248097800Y-142950385D01*
X248097800Y-142378957D01*
X248169228Y-142236100D01*
X248312085Y-142164671D01*
X248597800Y-142164671D01*
X248740657Y-142236100D01*
X248812085Y-142378957D01*
X248812085Y-142521814D01*
X248097800Y-142664671D01*
X249454942Y-143164671D02*
X249454942Y-142164671D01*
X249454942Y-142450385D02*
X249526371Y-142307528D01*
X249597800Y-142236100D01*
X249740657Y-142164671D01*
X249883514Y-142164671D01*
X218669228Y-144008242D02*
X217383514Y-145936814D01*
X219169228Y-145579671D02*
X219169228Y-144079671D01*
X219669228Y-145151100D01*
X220169228Y-144079671D01*
X220169228Y-145579671D01*
X221454942Y-145508242D02*
X221312085Y-145579671D01*
X221026371Y-145579671D01*
X220883514Y-145508242D01*
X220812085Y-145365385D01*
X220812085Y-144793957D01*
X220883514Y-144651100D01*
X221026371Y-144579671D01*
X221312085Y-144579671D01*
X221454942Y-144651100D01*
X221526371Y-144793957D01*
X221526371Y-144936814D01*
X220812085Y-145079671D01*
X222812085Y-145508242D02*
X222669228Y-145579671D01*
X222383514Y-145579671D01*
X222240657Y-145508242D01*
X222169228Y-145436814D01*
X222097800Y-145293957D01*
X222097800Y-144865385D01*
X222169228Y-144722528D01*
X222240657Y-144651100D01*
X222383514Y-144579671D01*
X222669228Y-144579671D01*
X222812085Y-144651100D01*
X223454942Y-145579671D02*
X223454942Y-144079671D01*
X224097800Y-145579671D02*
X224097800Y-144793957D01*
X224026371Y-144651100D01*
X223883514Y-144579671D01*
X223669228Y-144579671D01*
X223526371Y-144651100D01*
X223454942Y-144722528D01*
X225454942Y-145579671D02*
X225454942Y-144793957D01*
X225383514Y-144651100D01*
X225240657Y-144579671D01*
X224954942Y-144579671D01*
X224812085Y-144651100D01*
X225454942Y-145508242D02*
X225312085Y-145579671D01*
X224954942Y-145579671D01*
X224812085Y-145508242D01*
X224740657Y-145365385D01*
X224740657Y-145222528D01*
X224812085Y-145079671D01*
X224954942Y-145008242D01*
X225312085Y-145008242D01*
X225454942Y-144936814D01*
X226169228Y-144579671D02*
X226169228Y-145579671D01*
X226169228Y-144722528D02*
X226240657Y-144651100D01*
X226383514Y-144579671D01*
X226597800Y-144579671D01*
X226740657Y-144651100D01*
X226812085Y-144793957D01*
X226812085Y-145579671D01*
X227526371Y-145579671D02*
X227526371Y-144579671D01*
X227526371Y-144079671D02*
X227454942Y-144151100D01*
X227526371Y-144222528D01*
X227597800Y-144151100D01*
X227526371Y-144079671D01*
X227526371Y-144222528D01*
X228883514Y-145508242D02*
X228740657Y-145579671D01*
X228454942Y-145579671D01*
X228312085Y-145508242D01*
X228240657Y-145436814D01*
X228169228Y-145293957D01*
X228169228Y-144865385D01*
X228240657Y-144722528D01*
X228312085Y-144651100D01*
X228454942Y-144579671D01*
X228740657Y-144579671D01*
X228883514Y-144651100D01*
X230169228Y-145579671D02*
X230169228Y-144793957D01*
X230097800Y-144651100D01*
X229954942Y-144579671D01*
X229669228Y-144579671D01*
X229526371Y-144651100D01*
X230169228Y-145508242D02*
X230026371Y-145579671D01*
X229669228Y-145579671D01*
X229526371Y-145508242D01*
X229454942Y-145365385D01*
X229454942Y-145222528D01*
X229526371Y-145079671D01*
X229669228Y-145008242D01*
X230026371Y-145008242D01*
X230169228Y-144936814D01*
X231097800Y-145579671D02*
X230954942Y-145508242D01*
X230883514Y-145365385D01*
X230883514Y-144079671D01*
X231669228Y-145008242D02*
X232812085Y-145008242D01*
X233526371Y-145579671D02*
X233526371Y-144079671D01*
X234383514Y-145579671D02*
X233740657Y-144722528D01*
X234383514Y-144079671D02*
X233526371Y-144936814D01*
X235597800Y-145508242D02*
X235454942Y-145579671D01*
X235169228Y-145579671D01*
X235026371Y-145508242D01*
X234954942Y-145365385D01*
X234954942Y-144793957D01*
X235026371Y-144651100D01*
X235169228Y-144579671D01*
X235454942Y-144579671D01*
X235597800Y-144651100D01*
X235669228Y-144793957D01*
X235669228Y-144936814D01*
X234954942Y-145079671D01*
X236169228Y-144579671D02*
X236526371Y-145579671D01*
X236883514Y-144579671D02*
X236526371Y-145579671D01*
X236383514Y-145936814D01*
X236312085Y-146008242D01*
X236169228Y-146079671D01*
X237454942Y-145579671D02*
X237454942Y-144079671D01*
X237454942Y-144651100D02*
X237597800Y-144579671D01*
X237883514Y-144579671D01*
X238026371Y-144651100D01*
X238097800Y-144722528D01*
X238169228Y-144865385D01*
X238169228Y-145293957D01*
X238097800Y-145436814D01*
X238026371Y-145508242D01*
X237883514Y-145579671D01*
X237597800Y-145579671D01*
X237454942Y-145508242D01*
X239026371Y-145579671D02*
X238883514Y-145508242D01*
X238812085Y-145436814D01*
X238740657Y-145293957D01*
X238740657Y-144865385D01*
X238812085Y-144722528D01*
X238883514Y-144651100D01*
X239026371Y-144579671D01*
X239240657Y-144579671D01*
X239383514Y-144651100D01*
X239454942Y-144722528D01*
X239526371Y-144865385D01*
X239526371Y-145293957D01*
X239454942Y-145436814D01*
X239383514Y-145508242D01*
X239240657Y-145579671D01*
X239026371Y-145579671D01*
X240812085Y-145579671D02*
X240812085Y-144793957D01*
X240740657Y-144651100D01*
X240597800Y-144579671D01*
X240312085Y-144579671D01*
X240169228Y-144651100D01*
X240812085Y-145508242D02*
X240669228Y-145579671D01*
X240312085Y-145579671D01*
X240169228Y-145508242D01*
X240097800Y-145365385D01*
X240097800Y-145222528D01*
X240169228Y-145079671D01*
X240312085Y-145008242D01*
X240669228Y-145008242D01*
X240812085Y-144936814D01*
X241526371Y-145579671D02*
X241526371Y-144579671D01*
X241526371Y-144865385D02*
X241597800Y-144722528D01*
X241669228Y-144651100D01*
X241812085Y-144579671D01*
X241954942Y-144579671D01*
X243097800Y-145579671D02*
X243097800Y-144079671D01*
X243097800Y-145508242D02*
X242954942Y-145579671D01*
X242669228Y-145579671D01*
X242526371Y-145508242D01*
X242454942Y-145436814D01*
X242383514Y-145293957D01*
X242383514Y-144865385D01*
X242454942Y-144722528D01*
X242526371Y-144651100D01*
X242669228Y-144579671D01*
X242954942Y-144579671D01*
X243097800Y-144651100D01*
X243812085Y-145008242D02*
X244954942Y-145008242D01*
X245669228Y-145579671D02*
X245669228Y-144079671D01*
X246240657Y-144079671D01*
X246383514Y-144151100D01*
X246454942Y-144222528D01*
X246526371Y-144365385D01*
X246526371Y-144579671D01*
X246454942Y-144722528D01*
X246383514Y-144793957D01*
X246240657Y-144865385D01*
X245669228Y-144865385D01*
X247812085Y-145508242D02*
X247669228Y-145579671D01*
X247383514Y-145579671D01*
X247240657Y-145508242D01*
X247169228Y-145436814D01*
X247097800Y-145293957D01*
X247097800Y-144865385D01*
X247169228Y-144722528D01*
X247240657Y-144651100D01*
X247383514Y-144579671D01*
X247669228Y-144579671D01*
X247812085Y-144651100D01*
X248454942Y-145579671D02*
X248454942Y-144079671D01*
X248454942Y-144651100D02*
X248597800Y-144579671D01*
X248883514Y-144579671D01*
X249026371Y-144651100D01*
X249097800Y-144722528D01*
X249169228Y-144865385D01*
X249169228Y-145293957D01*
X249097800Y-145436814D01*
X249026371Y-145508242D01*
X248883514Y-145579671D01*
X248597800Y-145579671D01*
X248454942Y-145508242D01*
D11*
%TO.C,U1*%
X99433380Y-66957304D02*
X100242904Y-66957304D01*
X100338142Y-66909685D01*
X100385761Y-66862066D01*
X100433380Y-66766828D01*
X100433380Y-66576352D01*
X100385761Y-66481114D01*
X100338142Y-66433495D01*
X100242904Y-66385876D01*
X99433380Y-66385876D01*
X100433380Y-65385876D02*
X100433380Y-65957304D01*
X100433380Y-65671590D02*
X99433380Y-65671590D01*
X99576238Y-65766828D01*
X99671476Y-65862066D01*
X99719095Y-65957304D01*
D12*
X120081000Y-76695400D02*
X120481000Y-76695400D01*
X122681000Y-55695400D02*
X123081000Y-55695400D01*
X92181000Y-76695400D02*
X92581000Y-76695400D01*
X125481000Y-55695400D02*
X125481000Y-62495400D01*
X81981000Y-55695400D02*
X82381000Y-55695400D01*
X115081000Y-55695400D02*
X115481000Y-55695400D01*
X89581000Y-76695400D02*
X89981000Y-76695400D01*
X87081000Y-55695400D02*
X87481000Y-55695400D01*
X112481000Y-76695400D02*
X112881000Y-76695400D01*
X76881000Y-76695400D02*
X77281000Y-76695400D01*
X77148000Y-76695400D02*
X77148000Y-73688400D01*
X94681000Y-55695400D02*
X95081000Y-55695400D01*
X99781000Y-76695400D02*
X100181000Y-76695400D01*
X79481000Y-76695400D02*
X79881000Y-76695400D01*
X125481000Y-69895400D02*
X125481000Y-76695400D01*
X97281000Y-76695400D02*
X97681000Y-76695400D01*
X77148000Y-73688400D02*
X74481000Y-73688400D01*
X74481000Y-76695400D02*
X74781000Y-76695400D01*
X109981000Y-55695400D02*
X110381000Y-55695400D01*
X79481000Y-55695400D02*
X79881000Y-55695400D01*
X104881000Y-76695400D02*
X105281000Y-76695400D01*
X92181000Y-55695400D02*
X92581000Y-55695400D01*
X76881000Y-55695400D02*
X77281000Y-55695400D01*
X117581000Y-76695400D02*
X117981000Y-76695400D01*
X109981000Y-76695400D02*
X110381000Y-76695400D01*
X120081000Y-55695400D02*
X120481000Y-55695400D01*
X112481000Y-55695400D02*
X112881000Y-55695400D01*
X74481000Y-76695400D02*
X74481000Y-55695400D01*
X84581000Y-76695400D02*
X84981000Y-76695400D01*
X84581000Y-55695400D02*
X84981000Y-55695400D01*
X115081000Y-76695400D02*
X115481000Y-76695400D01*
X97281000Y-55695400D02*
X97681000Y-55695400D01*
X99781000Y-55695400D02*
X100181000Y-55695400D01*
X117581000Y-55695400D02*
X117981000Y-55695400D01*
X89581000Y-55695400D02*
X89981000Y-55695400D01*
X107381000Y-76695400D02*
X107781000Y-76695400D01*
X107381000Y-55695400D02*
X107781000Y-55695400D01*
X94681000Y-76695400D02*
X95081000Y-76695400D01*
X102281000Y-76695400D02*
X102681000Y-76695400D01*
X81981000Y-76695400D02*
X82381000Y-76695400D01*
X87081000Y-76695400D02*
X87481000Y-76695400D01*
X102281000Y-55695400D02*
X102681000Y-55695400D01*
X122681000Y-76695400D02*
X123081000Y-76695400D01*
X104881000Y-55695400D02*
X105281000Y-55695400D01*
X74481000Y-55695400D02*
X74781000Y-55695400D01*
%TD*%
%LPC*%
D13*
%TO.C,SW62*%
X103049900Y-81675900D03*
X103049900Y-88175900D03*
X98549900Y-81675900D03*
X98549900Y-88175900D03*
%TD*%
D14*
%TO.C,SW9*%
X231294900Y-65403300D03*
D15*
X236374900Y-65403300D03*
D14*
X241454900Y-65403300D03*
%TD*%
%TO.C,SW33*%
X169376500Y-103499000D03*
X179536500Y-103499000D03*
D15*
X174456500Y-103499000D03*
%TD*%
D14*
%TO.C,SW4*%
X136044900Y-65403300D03*
D15*
X141124900Y-65403300D03*
D14*
X146204900Y-65403300D03*
%TD*%
%TO.C,SW30*%
X112228700Y-103499300D03*
X122388700Y-103499300D03*
D15*
X117308700Y-103499300D03*
%TD*%
D14*
%TO.C,SW42*%
X90799000Y-122547800D03*
X100959000Y-122547800D03*
D15*
X95879000Y-122547800D03*
%TD*%
D14*
%TO.C,SW25*%
X289075500Y-84450200D03*
X278915500Y-84450200D03*
D15*
X283995500Y-84450200D03*
%TD*%
D14*
%TO.C,SW28*%
X340814500Y-84450500D03*
X350974500Y-84450500D03*
D15*
X345894500Y-84450500D03*
%TD*%
%TO.C,SW49*%
X241123500Y-122548100D03*
D14*
X246203500Y-122548100D03*
X236043500Y-122548100D03*
%TD*%
%TO.C,SW12*%
X288444900Y-65403300D03*
D15*
X293524900Y-65403300D03*
D14*
X298604900Y-65403300D03*
%TD*%
D15*
%TO.C,SW20*%
X188745500Y-84450200D03*
D14*
X183665500Y-84450200D03*
X193825500Y-84450200D03*
%TD*%
%TO.C,SW11*%
X269394900Y-65403300D03*
X279554900Y-65403300D03*
D15*
X274474900Y-65403300D03*
%TD*%
D16*
%TO.C,M1*%
X103974700Y-103974700D03*
%TD*%
D14*
%TO.C,SW40*%
X312886500Y-103499000D03*
X302726500Y-103499000D03*
D15*
X307806500Y-103499000D03*
%TD*%
D17*
%TO.C,U1*%
X75851000Y-75085400D03*
X78391000Y-75085400D03*
D18*
X80931000Y-75085400D03*
D17*
X83471000Y-75085400D03*
X86011000Y-75085400D03*
X88551000Y-75085400D03*
X91091000Y-75085400D03*
D18*
X93631000Y-75085400D03*
D17*
X96171000Y-75085400D03*
X98711000Y-75085400D03*
X101251000Y-75085400D03*
X103791000Y-75085400D03*
D18*
X106331000Y-75085400D03*
D17*
X108871000Y-75085400D03*
X111411000Y-75085400D03*
X113951000Y-75085400D03*
X116491000Y-75085400D03*
D18*
X119031000Y-75085400D03*
D17*
X121571000Y-75085400D03*
X124111000Y-75085400D03*
X124111000Y-57305400D03*
X121571000Y-57305400D03*
D18*
X119031000Y-57305400D03*
D17*
X116491000Y-57305400D03*
X113951000Y-57305400D03*
X111411000Y-57305400D03*
X108871000Y-57305400D03*
D18*
X106331000Y-57305400D03*
D17*
X103791000Y-57305400D03*
X101251000Y-57305400D03*
X98711000Y-57305400D03*
X96171000Y-57305400D03*
D18*
X93631000Y-57305400D03*
D17*
X91091000Y-57305400D03*
X88551000Y-57305400D03*
X86011000Y-57305400D03*
X83471000Y-57305400D03*
D18*
X80931000Y-57305400D03*
D17*
X78391000Y-57305400D03*
X75851000Y-57305400D03*
%TD*%
D14*
%TO.C,SW23*%
X250975500Y-84450200D03*
X240815500Y-84450200D03*
D15*
X245895500Y-84450200D03*
%TD*%
D14*
%TO.C,SW31*%
X131277500Y-103499300D03*
D15*
X136357500Y-103499300D03*
D14*
X141437500Y-103499300D03*
%TD*%
D15*
%TO.C,SW50*%
X260173500Y-122548100D03*
D14*
X265253500Y-122548100D03*
X255093500Y-122548100D03*
%TD*%
%TO.C,SW51*%
X284303500Y-122548100D03*
D15*
X279223500Y-122548100D03*
D14*
X274143500Y-122548100D03*
%TD*%
%TO.C,SW17*%
X126515500Y-84450200D03*
X136675500Y-84450200D03*
D15*
X131595500Y-84450200D03*
%TD*%
D14*
%TO.C,SW38*%
X274786500Y-103499000D03*
D15*
X269706500Y-103499000D03*
D14*
X264626500Y-103499000D03*
%TD*%
%TO.C,SW37*%
X245576500Y-103499000D03*
X255736500Y-103499000D03*
D15*
X250656500Y-103499000D03*
%TD*%
D14*
%TO.C,SW55*%
X115245400Y-141596900D03*
X105085400Y-141596900D03*
D15*
X110165400Y-141596900D03*
%TD*%
D14*
%TO.C,SW14*%
X346229900Y-65403300D03*
X336069900Y-65403300D03*
D15*
X341149900Y-65403300D03*
%TD*%
%TO.C,SW13*%
X312574900Y-65403300D03*
D14*
X317654900Y-65403300D03*
X307494900Y-65403300D03*
%TD*%
D15*
%TO.C,SW27*%
X322083500Y-84450200D03*
D14*
X317003500Y-84450200D03*
X327163500Y-84450200D03*
%TD*%
D15*
%TO.C,SW16*%
X112546500Y-84450500D03*
D14*
X117626500Y-84450500D03*
X107466500Y-84450500D03*
%TD*%
%TO.C,SW44*%
X140802100Y-122547800D03*
X150962100Y-122547800D03*
D15*
X145882100Y-122547800D03*
%TD*%
D14*
%TO.C,SW43*%
X131913100Y-122548100D03*
X121753100Y-122548100D03*
D15*
X126833100Y-122548100D03*
%TD*%
%TO.C,SW32*%
X155406500Y-103499000D03*
D14*
X150326500Y-103499000D03*
X160486500Y-103499000D03*
%TD*%
D15*
%TO.C,SW24*%
X264945500Y-84450200D03*
D14*
X259865500Y-84450200D03*
X270025500Y-84450200D03*
%TD*%
D15*
%TO.C,SW46*%
X183973500Y-122548100D03*
D14*
X178893500Y-122548100D03*
X189053500Y-122548100D03*
%TD*%
%TO.C,SW52*%
X303352300Y-122548100D03*
X293192300Y-122548100D03*
D15*
X298272300Y-122548100D03*
%TD*%
%TO.C,SW39*%
X288756500Y-103499000D03*
D14*
X283676500Y-103499000D03*
X293836500Y-103499000D03*
%TD*%
D15*
%TO.C,SW15*%
X88735500Y-84450500D03*
D14*
X83655500Y-84450500D03*
X93815500Y-84450500D03*
%TD*%
%TO.C,SW21*%
X202715500Y-84450200D03*
D15*
X207795500Y-84450200D03*
D14*
X212875500Y-84450200D03*
%TD*%
%TO.C,SW8*%
X222404900Y-65403300D03*
D15*
X217324900Y-65403300D03*
D14*
X212244900Y-65403300D03*
%TD*%
D15*
%TO.C,SW3*%
X122074900Y-65403300D03*
D14*
X127154900Y-65403300D03*
X116994900Y-65403300D03*
%TD*%
%TO.C,SW29*%
X86035100Y-103499300D03*
D15*
X91115100Y-103499300D03*
D14*
X96195100Y-103499300D03*
%TD*%
%TO.C,SW58*%
X271762400Y-141596900D03*
D15*
X276842400Y-141596900D03*
D14*
X281922400Y-141596900D03*
%TD*%
%TO.C,SW53*%
X339068800Y-122548100D03*
D15*
X333988800Y-122548100D03*
D14*
X328908800Y-122548100D03*
%TD*%
D15*
%TO.C,STAB4*%
X345895050Y-130803100D03*
X322082550Y-130803100D03*
%TD*%
D14*
%TO.C,SW61*%
X343195400Y-141596900D03*
D15*
X348275400Y-141596900D03*
D14*
X353355400Y-141596900D03*
%TD*%
D15*
%TO.C,SW60*%
X324464400Y-141596900D03*
D14*
X319384400Y-141596900D03*
X329544400Y-141596900D03*
%TD*%
D15*
%TO.C,SW18*%
X150645500Y-84450200D03*
D14*
X155725500Y-84450200D03*
X145565500Y-84450200D03*
%TD*%
%TO.C,SW26*%
X308125500Y-84450200D03*
X297965500Y-84450200D03*
D15*
X303045500Y-84450200D03*
%TD*%
%TO.C,STAB1*%
X329225850Y-73656700D03*
X353038350Y-73656700D03*
%TD*%
%TO.C,SW54*%
X86354600Y-141596600D03*
D14*
X81274600Y-141596600D03*
X91434600Y-141596600D03*
%TD*%
%TO.C,SW2*%
X108104900Y-65403300D03*
D15*
X103024900Y-65403300D03*
D14*
X97944900Y-65403300D03*
%TD*%
D15*
%TO.C,SW36*%
X231606500Y-103499000D03*
D14*
X226526500Y-103499000D03*
X236686500Y-103499000D03*
%TD*%
%TO.C,SW5*%
X155094900Y-65403300D03*
X165254900Y-65403300D03*
D15*
X160174900Y-65403300D03*
%TD*%
%TO.C,SW57*%
X205409400Y-141596900D03*
D14*
X210489400Y-141596900D03*
X200329400Y-141596900D03*
%TD*%
%TO.C,SW35*%
X217636500Y-103499000D03*
X207476500Y-103499000D03*
D15*
X212556500Y-103499000D03*
%TD*%
D14*
%TO.C,SW19*%
X164615500Y-84450200D03*
X174775500Y-84450200D03*
D15*
X169695500Y-84450200D03*
%TD*%
D14*
%TO.C,SW59*%
X305732100Y-141596600D03*
X295572100Y-141596600D03*
D15*
X300652100Y-141596600D03*
%TD*%
%TO.C,SW48*%
X222073500Y-122548100D03*
D14*
X227153500Y-122548100D03*
X216993500Y-122548100D03*
%TD*%
D15*
%TO.C,SW10*%
X255424900Y-65403300D03*
D14*
X260504900Y-65403300D03*
X250344900Y-65403300D03*
%TD*%
D15*
%TO.C,SW22*%
X226845500Y-84450200D03*
D14*
X231925500Y-84450200D03*
X221765500Y-84450200D03*
%TD*%
D15*
%TO.C,STAB3*%
X107785050Y-130803100D03*
X83972550Y-130803100D03*
%TD*%
D14*
%TO.C,SW34*%
X198586500Y-103499000D03*
X188426500Y-103499000D03*
D15*
X193506500Y-103499000D03*
%TD*%
D16*
%TO.C,M3*%
X319067400Y-103974700D03*
%TD*%
D15*
%TO.C,STAB2*%
X350657250Y-111754300D03*
X326844750Y-111754300D03*
%TD*%
%TO.C,SW45*%
X164930700Y-122548100D03*
D14*
X159850700Y-122548100D03*
X170010700Y-122548100D03*
%TD*%
%TO.C,SW7*%
X203354900Y-65403300D03*
X193194900Y-65403300D03*
D15*
X198274900Y-65403300D03*
%TD*%
%TO.C,REF\u002A\u002A*%
X255415650Y-133341900D03*
X155403150Y-133341900D03*
%TD*%
D14*
%TO.C,SW41*%
X343831000Y-103499300D03*
D15*
X338751000Y-103499300D03*
D14*
X333671000Y-103499300D03*
%TD*%
%TO.C,SW1*%
X78894900Y-65403300D03*
D15*
X83974900Y-65403300D03*
D14*
X89054900Y-65403300D03*
%TD*%
%TO.C,SW6*%
X184304900Y-65403300D03*
D15*
X179224900Y-65403300D03*
D14*
X174144900Y-65403300D03*
%TD*%
D16*
%TO.C,M2*%
X174614000Y-142866000D03*
%TD*%
D14*
%TO.C,SW47*%
X208103500Y-122548100D03*
X197943500Y-122548100D03*
D15*
X203023500Y-122548100D03*
%TD*%
D14*
%TO.C,SW56*%
X139056400Y-141596900D03*
D15*
X133976400Y-141596900D03*
D14*
X128896400Y-141596900D03*
%TD*%
M02*
