%FSLAX45Y45*%
G04 Gerber Fmt 4.5, Leading zero omitted, Abs format (unit mm)*
G04 Created by KiCad (PCBNEW 6.0.6-3a73a75311~116~ubuntu21.10.1) date 2022-11-06 15:32:38*
%MOMM*%
%LPD*%
G01*
G04 APERTURE LIST*
%TA.AperFunction,Profile*%
%ADD10C,0.100000*%
%TD*%
%ADD11C,0.200000*%
%ADD12C,0.175000*%
%ADD13C,0.300000*%
%ADD14C,0.398780*%
G04 APERTURE END LIST*
D10*
X36027002Y-15112325D02*
X7441676Y-15112325D01*
X7441676Y-15112325D02*
X7441676Y-5559533D01*
X7441676Y-5559533D02*
X36027002Y-5559533D01*
X36027002Y-5559533D02*
X36027002Y-15112325D01*
D11*
D12*
X7801990Y-6452830D02*
X7976990Y-6627830D01*
X7976990Y-6452830D02*
X7801990Y-6627830D01*
X8039960Y-14072160D02*
X8214960Y-14247160D01*
X8214960Y-14072160D02*
X8039960Y-14247160D01*
X8278050Y-8357550D02*
X8453050Y-8532550D01*
X8453050Y-8357550D02*
X8278050Y-8532550D01*
X8516010Y-10262430D02*
X8691010Y-10437430D01*
X8691010Y-10262430D02*
X8516010Y-10437430D01*
X8817990Y-6452830D02*
X8992990Y-6627830D01*
X8992990Y-6452830D02*
X8817990Y-6627830D01*
X8992400Y-12167280D02*
X9167400Y-12342280D01*
X9167400Y-12167280D02*
X8992400Y-12342280D01*
X9055960Y-14072160D02*
X9230960Y-14247160D01*
X9230960Y-14072160D02*
X9055960Y-14247160D01*
X9294050Y-8357550D02*
X9469050Y-8532550D01*
X9469050Y-8357550D02*
X9294050Y-8532550D01*
X9532010Y-10262430D02*
X9707010Y-10437430D01*
X9707010Y-10262430D02*
X9532010Y-10437430D01*
X9706990Y-6452830D02*
X9881990Y-6627830D01*
X9881990Y-6452830D02*
X9706990Y-6627830D01*
X10008400Y-12167280D02*
X10183400Y-12342280D01*
X10183400Y-12167280D02*
X10008400Y-12342280D01*
X10421040Y-14072190D02*
X10596040Y-14247190D01*
X10596040Y-14072190D02*
X10421040Y-14247190D01*
X10659150Y-8357550D02*
X10834150Y-8532550D01*
X10834150Y-8357550D02*
X10659150Y-8532550D01*
X10722990Y-6452830D02*
X10897990Y-6627830D01*
X10897990Y-6452830D02*
X10722990Y-6627830D01*
X11135370Y-10262430D02*
X11310370Y-10437430D01*
X11310370Y-10262430D02*
X11135370Y-10437430D01*
X11437040Y-14072190D02*
X11612040Y-14247190D01*
X11612040Y-14072190D02*
X11437040Y-14247190D01*
X11611990Y-6452830D02*
X11786990Y-6627830D01*
X11786990Y-6452830D02*
X11611990Y-6627830D01*
X11675150Y-8357550D02*
X11850150Y-8532550D01*
X11850150Y-8357550D02*
X11675150Y-8532550D01*
X12087810Y-12167310D02*
X12262810Y-12342310D01*
X12262810Y-12167310D02*
X12087810Y-12342310D01*
X12151370Y-10262430D02*
X12326370Y-10437430D01*
X12326370Y-10262430D02*
X12151370Y-10437430D01*
X12564050Y-8357520D02*
X12739050Y-8532520D01*
X12739050Y-8357520D02*
X12564050Y-8532520D01*
X12627990Y-6452830D02*
X12802990Y-6627830D01*
X12802990Y-6452830D02*
X12627990Y-6627830D01*
X12802140Y-14072190D02*
X12977140Y-14247190D01*
X12977140Y-14072190D02*
X12802140Y-14247190D01*
X13040250Y-10262430D02*
X13215250Y-10437430D01*
X13215250Y-10262430D02*
X13040250Y-10437430D01*
X13103810Y-12167310D02*
X13278810Y-12342310D01*
X13278810Y-12167310D02*
X13103810Y-12342310D01*
X13516990Y-6452830D02*
X13691990Y-6627830D01*
X13691990Y-6452830D02*
X13516990Y-6627830D01*
X13580050Y-8357520D02*
X13755050Y-8532520D01*
X13755050Y-8357520D02*
X13580050Y-8532520D01*
X13818140Y-14072190D02*
X13993140Y-14247190D01*
X13993140Y-14072190D02*
X13818140Y-14247190D01*
X13992710Y-12167280D02*
X14167710Y-12342280D01*
X14167710Y-12167280D02*
X13992710Y-12342280D01*
X14056250Y-10262430D02*
X14231250Y-10437430D01*
X14231250Y-10262430D02*
X14056250Y-10437430D01*
X14469050Y-8357520D02*
X14644050Y-8532520D01*
X14644050Y-8357520D02*
X14469050Y-8532520D01*
X14532990Y-6452830D02*
X14707990Y-6627830D01*
X14707990Y-6452830D02*
X14532990Y-6627830D01*
X14945150Y-10262400D02*
X15120150Y-10437400D01*
X15120150Y-10262400D02*
X14945150Y-10437400D01*
X15008710Y-12167280D02*
X15183710Y-12342280D01*
X15183710Y-12167280D02*
X15008710Y-12342280D01*
X15421990Y-6452830D02*
X15596990Y-6627830D01*
X15596990Y-6452830D02*
X15421990Y-6627830D01*
X15485050Y-8357520D02*
X15660050Y-8532520D01*
X15660050Y-8357520D02*
X15485050Y-8532520D01*
X15897570Y-12167310D02*
X16072570Y-12342310D01*
X16072570Y-12167310D02*
X15897570Y-12342310D01*
X15961150Y-10262400D02*
X16136150Y-10437400D01*
X16136150Y-10262400D02*
X15961150Y-10437400D01*
X16374050Y-8357520D02*
X16549050Y-8532520D01*
X16549050Y-8357520D02*
X16374050Y-8532520D01*
X16437990Y-6452830D02*
X16612990Y-6627830D01*
X16612990Y-6452830D02*
X16437990Y-6627830D01*
X16850150Y-10262400D02*
X17025150Y-10437400D01*
X17025150Y-10262400D02*
X16850150Y-10437400D01*
X16913570Y-12167310D02*
X17088570Y-12342310D01*
X17088570Y-12167310D02*
X16913570Y-12342310D01*
X17326990Y-6452830D02*
X17501990Y-6627830D01*
X17501990Y-6452830D02*
X17326990Y-6627830D01*
X17390050Y-8357520D02*
X17565050Y-8532520D01*
X17565050Y-8357520D02*
X17390050Y-8532520D01*
X17801850Y-12167310D02*
X17976850Y-12342310D01*
X17976850Y-12167310D02*
X17801850Y-12342310D01*
X17866150Y-10262400D02*
X18041150Y-10437400D01*
X18041150Y-10262400D02*
X17866150Y-10437400D01*
X18279050Y-8357520D02*
X18454050Y-8532520D01*
X18454050Y-8357520D02*
X18279050Y-8532520D01*
X18342990Y-6452830D02*
X18517990Y-6627830D01*
X18517990Y-6452830D02*
X18342990Y-6627830D01*
X18755150Y-10262400D02*
X18930150Y-10437400D01*
X18930150Y-10262400D02*
X18755150Y-10437400D01*
X18817850Y-12167310D02*
X18992850Y-12342310D01*
X18992850Y-12167310D02*
X18817850Y-12342310D01*
X19231990Y-6452830D02*
X19406990Y-6627830D01*
X19406990Y-6452830D02*
X19231990Y-6627830D01*
X19295050Y-8357520D02*
X19470050Y-8532520D01*
X19470050Y-8357520D02*
X19295050Y-8532520D01*
X19706850Y-12167310D02*
X19881850Y-12342310D01*
X19881850Y-12167310D02*
X19706850Y-12342310D01*
X19771150Y-10262400D02*
X19946150Y-10437400D01*
X19946150Y-10262400D02*
X19771150Y-10437400D01*
X19945440Y-14072190D02*
X20120440Y-14247190D01*
X20120440Y-14072190D02*
X19945440Y-14247190D01*
X20184050Y-8357520D02*
X20359050Y-8532520D01*
X20359050Y-8357520D02*
X20184050Y-8532520D01*
X20247990Y-6452830D02*
X20422990Y-6627830D01*
X20422990Y-6452830D02*
X20247990Y-6627830D01*
X20660150Y-10262400D02*
X20835150Y-10437400D01*
X20835150Y-10262400D02*
X20660150Y-10437400D01*
X20722850Y-12167310D02*
X20897850Y-12342310D01*
X20897850Y-12167310D02*
X20722850Y-12342310D01*
X20961440Y-14072190D02*
X21136440Y-14247190D01*
X21136440Y-14072190D02*
X20961440Y-14247190D01*
X21136990Y-6452830D02*
X21311990Y-6627830D01*
X21311990Y-6452830D02*
X21136990Y-6627830D01*
X21200050Y-8357520D02*
X21375050Y-8532520D01*
X21375050Y-8357520D02*
X21200050Y-8532520D01*
X21611850Y-12167310D02*
X21786850Y-12342310D01*
X21786850Y-12167310D02*
X21611850Y-12342310D01*
X21676150Y-10262400D02*
X21851150Y-10437400D01*
X21851150Y-10262400D02*
X21676150Y-10437400D01*
X22089050Y-8357520D02*
X22264050Y-8532520D01*
X22264050Y-8357520D02*
X22089050Y-8532520D01*
X22152990Y-6452830D02*
X22327990Y-6627830D01*
X22327990Y-6452830D02*
X22152990Y-6627830D01*
X22565150Y-10262400D02*
X22740150Y-10437400D01*
X22740150Y-10262400D02*
X22565150Y-10437400D01*
X22627850Y-12167310D02*
X22802850Y-12342310D01*
X22802850Y-12167310D02*
X22627850Y-12342310D01*
X23041990Y-6452830D02*
X23216990Y-6627830D01*
X23216990Y-6452830D02*
X23041990Y-6627830D01*
X23105050Y-8357520D02*
X23280050Y-8532520D01*
X23280050Y-8357520D02*
X23105050Y-8532520D01*
X23516850Y-12167310D02*
X23691850Y-12342310D01*
X23691850Y-12167310D02*
X23516850Y-12342310D01*
X23581150Y-10262400D02*
X23756150Y-10437400D01*
X23756150Y-10262400D02*
X23581150Y-10437400D01*
X23994050Y-8357520D02*
X24169050Y-8532520D01*
X24169050Y-8357520D02*
X23994050Y-8532520D01*
X24057990Y-6452830D02*
X24232990Y-6627830D01*
X24232990Y-6452830D02*
X24057990Y-6627830D01*
X24470150Y-10262400D02*
X24645150Y-10437400D01*
X24645150Y-10262400D02*
X24470150Y-10437400D01*
X24532850Y-12167310D02*
X24707850Y-12342310D01*
X24707850Y-12167310D02*
X24532850Y-12342310D01*
X24946990Y-6452830D02*
X25121990Y-6627830D01*
X25121990Y-6452830D02*
X24946990Y-6627830D01*
X25010050Y-8357520D02*
X25185050Y-8532520D01*
X25185050Y-8357520D02*
X25010050Y-8532520D01*
X25421850Y-12167310D02*
X25596850Y-12342310D01*
X25596850Y-12167310D02*
X25421850Y-12342310D01*
X25486150Y-10262400D02*
X25661150Y-10437400D01*
X25661150Y-10262400D02*
X25486150Y-10437400D01*
X25899050Y-8357520D02*
X26074050Y-8532520D01*
X26074050Y-8357520D02*
X25899050Y-8532520D01*
X25962990Y-6452830D02*
X26137990Y-6627830D01*
X26137990Y-6452830D02*
X25962990Y-6627830D01*
X26375150Y-10262400D02*
X26550150Y-10437400D01*
X26550150Y-10262400D02*
X26375150Y-10437400D01*
X26437850Y-12167310D02*
X26612850Y-12342310D01*
X26612850Y-12167310D02*
X26437850Y-12342310D01*
X26851990Y-6452830D02*
X27026990Y-6627830D01*
X27026990Y-6452830D02*
X26851990Y-6627830D01*
X26915050Y-8357520D02*
X27090050Y-8532520D01*
X27090050Y-8357520D02*
X26915050Y-8532520D01*
X27088740Y-14072190D02*
X27263740Y-14247190D01*
X27263740Y-14072190D02*
X27088740Y-14247190D01*
X27326850Y-12167310D02*
X27501850Y-12342310D01*
X27501850Y-12167310D02*
X27326850Y-12342310D01*
X27391150Y-10262400D02*
X27566150Y-10437400D01*
X27566150Y-10262400D02*
X27391150Y-10437400D01*
X27804050Y-8357520D02*
X27979050Y-8532520D01*
X27979050Y-8357520D02*
X27804050Y-8532520D01*
X27867990Y-6452830D02*
X28042990Y-6627830D01*
X28042990Y-6452830D02*
X27867990Y-6627830D01*
X28104740Y-14072190D02*
X28279740Y-14247190D01*
X28279740Y-14072190D02*
X28104740Y-14247190D01*
X28280150Y-10262400D02*
X28455150Y-10437400D01*
X28455150Y-10262400D02*
X28280150Y-10437400D01*
X28342850Y-12167310D02*
X28517850Y-12342310D01*
X28517850Y-12167310D02*
X28342850Y-12342310D01*
X28756990Y-6452830D02*
X28931990Y-6627830D01*
X28931990Y-6452830D02*
X28756990Y-6627830D01*
X28820050Y-8357520D02*
X28995050Y-8532520D01*
X28995050Y-8357520D02*
X28820050Y-8532520D01*
X29231730Y-12167310D02*
X29406730Y-12342310D01*
X29406730Y-12167310D02*
X29231730Y-12342310D01*
X29296150Y-10262400D02*
X29471150Y-10437400D01*
X29471150Y-10262400D02*
X29296150Y-10437400D01*
X29469710Y-14072160D02*
X29644710Y-14247160D01*
X29644710Y-14072160D02*
X29469710Y-14247160D01*
X29709050Y-8357520D02*
X29884050Y-8532520D01*
X29884050Y-8357520D02*
X29709050Y-8532520D01*
X29772990Y-6452830D02*
X29947990Y-6627830D01*
X29947990Y-6452830D02*
X29772990Y-6627830D01*
X30185150Y-10262400D02*
X30360150Y-10437400D01*
X30360150Y-10262400D02*
X30185150Y-10437400D01*
X30247730Y-12167310D02*
X30422730Y-12342310D01*
X30422730Y-12167310D02*
X30247730Y-12342310D01*
X30485710Y-14072160D02*
X30660710Y-14247160D01*
X30660710Y-14072160D02*
X30485710Y-14247160D01*
X30661990Y-6452830D02*
X30836990Y-6627830D01*
X30836990Y-6452830D02*
X30661990Y-6627830D01*
X30725050Y-8357520D02*
X30900050Y-8532520D01*
X30900050Y-8357520D02*
X30725050Y-8532520D01*
X31201150Y-10262400D02*
X31376150Y-10437400D01*
X31376150Y-10262400D02*
X31201150Y-10437400D01*
X31612850Y-8357520D02*
X31787850Y-8532520D01*
X31787850Y-8357520D02*
X31612850Y-8532520D01*
X31677990Y-6452830D02*
X31852990Y-6627830D01*
X31852990Y-6452830D02*
X31677990Y-6627830D01*
X31850940Y-14072190D02*
X32025940Y-14247190D01*
X32025940Y-14072190D02*
X31850940Y-14247190D01*
X32628850Y-8357520D02*
X32803850Y-8532520D01*
X32803850Y-8357520D02*
X32628850Y-8532520D01*
X32803380Y-12167310D02*
X32978380Y-12342310D01*
X32978380Y-12167310D02*
X32803380Y-12342310D01*
X32866940Y-14072190D02*
X33041940Y-14247190D01*
X33041940Y-14072190D02*
X32866940Y-14247190D01*
X33279600Y-10262430D02*
X33454600Y-10437430D01*
X33454600Y-10262430D02*
X33279600Y-10437430D01*
X33519490Y-6452830D02*
X33694490Y-6627830D01*
X33694490Y-6452830D02*
X33519490Y-6627830D01*
X33819380Y-12167310D02*
X33994380Y-12342310D01*
X33994380Y-12167310D02*
X33819380Y-12342310D01*
X33993950Y-8357550D02*
X34168950Y-8532550D01*
X34168950Y-8357550D02*
X33993950Y-8532550D01*
X34232040Y-14072190D02*
X34407040Y-14247190D01*
X34407040Y-14072190D02*
X34232040Y-14247190D01*
X34295600Y-10262430D02*
X34470600Y-10437430D01*
X34470600Y-10262430D02*
X34295600Y-10437430D01*
X34535490Y-6452830D02*
X34710490Y-6627830D01*
X34710490Y-6452830D02*
X34535490Y-6627830D01*
X35009950Y-8357550D02*
X35184950Y-8532550D01*
X35184950Y-8357550D02*
X35009950Y-8532550D01*
X35248040Y-14072190D02*
X35423040Y-14247190D01*
X35423040Y-14072190D02*
X35248040Y-14247190D01*
D13*
X10547470Y-10397470D02*
G75*
G03*
X10547470Y-10397470I-150000J0D01*
G01*
X17611400Y-14286600D02*
G75*
G03*
X17611400Y-14286600I-150000J0D01*
G01*
X32056740Y-10397470D02*
G75*
G03*
X32056740Y-10397470I-150000J0D01*
G01*
D14*
X8397255Y-12880920D02*
X8397255Y-13279700D01*
X8197865Y-13080310D02*
X8596645Y-13080310D01*
X8397490Y-6340940D02*
X8397490Y-6739720D01*
X8198100Y-6540330D02*
X8596880Y-6540330D01*
X8635460Y-13960270D02*
X8635460Y-14359050D01*
X8436070Y-14159660D02*
X8834850Y-14159660D01*
X8873550Y-8245660D02*
X8873550Y-8644440D01*
X8674160Y-8445050D02*
X9072940Y-8445050D01*
X9111510Y-10150540D02*
X9111510Y-10549320D01*
X8912120Y-10349930D02*
X9310900Y-10349930D01*
X9587900Y-12055390D02*
X9587900Y-12454170D01*
X9388510Y-12254780D02*
X9787290Y-12254780D01*
X10302490Y-6340940D02*
X10302490Y-6739720D01*
X10103100Y-6540330D02*
X10501880Y-6540330D01*
X10778505Y-12880920D02*
X10778505Y-13279700D01*
X10579115Y-13080310D02*
X10977895Y-13080310D01*
X11016540Y-13960300D02*
X11016540Y-14359080D01*
X10817150Y-14159690D02*
X11215930Y-14159690D01*
X11254650Y-8245660D02*
X11254650Y-8644440D01*
X11055260Y-8445050D02*
X11454040Y-8445050D01*
X11730870Y-10150540D02*
X11730870Y-10549320D01*
X11531480Y-10349930D02*
X11930260Y-10349930D01*
X12207490Y-6340940D02*
X12207490Y-6739720D01*
X12008100Y-6540330D02*
X12406880Y-6540330D01*
X12683310Y-12055420D02*
X12683310Y-12454200D01*
X12483920Y-12254810D02*
X12882700Y-12254810D01*
X13159550Y-8245630D02*
X13159550Y-8644410D01*
X12960160Y-8445020D02*
X13358940Y-8445020D01*
X13397640Y-13960300D02*
X13397640Y-14359080D01*
X13198250Y-14159690D02*
X13597030Y-14159690D01*
X13635750Y-10150540D02*
X13635750Y-10549320D01*
X13436360Y-10349930D02*
X13835140Y-10349930D01*
X14112490Y-6340940D02*
X14112490Y-6739720D01*
X13913100Y-6540330D02*
X14311880Y-6540330D01*
X14588210Y-12055390D02*
X14588210Y-12454170D01*
X14388820Y-12254780D02*
X14787600Y-12254780D01*
X15064550Y-8245630D02*
X15064550Y-8644410D01*
X14865160Y-8445020D02*
X15263940Y-8445020D01*
X15540315Y-13134800D02*
X15540315Y-13533580D01*
X15340925Y-13334190D02*
X15739705Y-13334190D01*
X15540650Y-10150510D02*
X15540650Y-10549290D01*
X15341260Y-10349900D02*
X15740040Y-10349900D01*
X16017490Y-6340940D02*
X16017490Y-6739720D01*
X15818100Y-6540330D02*
X16216880Y-6540330D01*
X16493070Y-12055420D02*
X16493070Y-12454200D01*
X16293680Y-12254810D02*
X16692460Y-12254810D01*
X16969550Y-8245630D02*
X16969550Y-8644410D01*
X16770160Y-8445020D02*
X17168940Y-8445020D01*
X17445650Y-10150510D02*
X17445650Y-10549290D01*
X17246260Y-10349900D02*
X17645040Y-10349900D01*
X17922490Y-6340940D02*
X17922490Y-6739720D01*
X17723100Y-6540330D02*
X18121880Y-6540330D01*
X18397350Y-12055420D02*
X18397350Y-12454200D01*
X18197960Y-12254810D02*
X18596740Y-12254810D01*
X18874550Y-8245630D02*
X18874550Y-8644410D01*
X18675160Y-8445020D02*
X19073940Y-8445020D01*
X19350650Y-10150510D02*
X19350650Y-10549290D01*
X19151260Y-10349900D02*
X19550040Y-10349900D01*
X19827490Y-6340940D02*
X19827490Y-6739720D01*
X19628100Y-6540330D02*
X20026880Y-6540330D01*
X20302350Y-12055420D02*
X20302350Y-12454200D01*
X20102960Y-12254810D02*
X20501740Y-12254810D01*
X20540940Y-13960300D02*
X20540940Y-14359080D01*
X20341550Y-14159690D02*
X20740330Y-14159690D01*
X20779550Y-8245630D02*
X20779550Y-8644410D01*
X20580160Y-8445020D02*
X20978940Y-8445020D01*
X21255650Y-10150510D02*
X21255650Y-10549290D01*
X21056260Y-10349900D02*
X21455040Y-10349900D01*
X21732490Y-6340940D02*
X21732490Y-6739720D01*
X21533100Y-6540330D02*
X21931880Y-6540330D01*
X22207350Y-12055420D02*
X22207350Y-12454200D01*
X22007960Y-12254810D02*
X22406740Y-12254810D01*
X22684550Y-8245630D02*
X22684550Y-8644410D01*
X22485160Y-8445020D02*
X22883940Y-8445020D01*
X23160650Y-10150510D02*
X23160650Y-10549290D01*
X22961260Y-10349900D02*
X23360040Y-10349900D01*
X23637490Y-6340940D02*
X23637490Y-6739720D01*
X23438100Y-6540330D02*
X23836880Y-6540330D01*
X24112350Y-12055420D02*
X24112350Y-12454200D01*
X23912960Y-12254810D02*
X24311740Y-12254810D01*
X24589550Y-8245630D02*
X24589550Y-8644410D01*
X24390160Y-8445020D02*
X24788940Y-8445020D01*
X25065650Y-10150510D02*
X25065650Y-10549290D01*
X24866260Y-10349900D02*
X25265040Y-10349900D01*
X25541565Y-13134800D02*
X25541565Y-13533580D01*
X25342175Y-13334190D02*
X25740955Y-13334190D01*
X25542490Y-6340940D02*
X25542490Y-6739720D01*
X25343100Y-6540330D02*
X25741880Y-6540330D01*
X26017350Y-12055420D02*
X26017350Y-12454200D01*
X25817960Y-12254810D02*
X26216740Y-12254810D01*
X26494550Y-8245630D02*
X26494550Y-8644410D01*
X26295160Y-8445020D02*
X26693940Y-8445020D01*
X26970650Y-10150510D02*
X26970650Y-10549290D01*
X26771260Y-10349900D02*
X27170040Y-10349900D01*
X27447490Y-6340940D02*
X27447490Y-6739720D01*
X27248100Y-6540330D02*
X27646880Y-6540330D01*
X27684240Y-13960300D02*
X27684240Y-14359080D01*
X27484850Y-14159690D02*
X27883630Y-14159690D01*
X27922350Y-12055420D02*
X27922350Y-12454200D01*
X27722960Y-12254810D02*
X28121740Y-12254810D01*
X28399550Y-8245630D02*
X28399550Y-8644410D01*
X28200160Y-8445020D02*
X28598940Y-8445020D01*
X28875650Y-10150510D02*
X28875650Y-10549290D01*
X28676260Y-10349900D02*
X29075040Y-10349900D01*
X29352490Y-6340940D02*
X29352490Y-6739720D01*
X29153100Y-6540330D02*
X29551880Y-6540330D01*
X29827230Y-12055420D02*
X29827230Y-12454200D01*
X29627840Y-12254810D02*
X30026620Y-12254810D01*
X30065210Y-13960270D02*
X30065210Y-14359050D01*
X29865820Y-14159660D02*
X30264600Y-14159660D01*
X30304550Y-8245630D02*
X30304550Y-8644410D01*
X30105160Y-8445020D02*
X30503940Y-8445020D01*
X30780650Y-10150510D02*
X30780650Y-10549290D01*
X30581260Y-10349900D02*
X30980040Y-10349900D01*
X31257490Y-6340940D02*
X31257490Y-6739720D01*
X31058100Y-6540330D02*
X31456880Y-6540330D01*
X32208255Y-12880920D02*
X32208255Y-13279700D01*
X32008865Y-13080310D02*
X32407645Y-13080310D01*
X32208350Y-8245630D02*
X32208350Y-8644410D01*
X32008960Y-8445020D02*
X32407740Y-8445020D01*
X32446440Y-13960300D02*
X32446440Y-14359080D01*
X32247050Y-14159690D02*
X32645830Y-14159690D01*
X32684475Y-10976040D02*
X32684475Y-11374820D01*
X32485085Y-11175430D02*
X32883865Y-11175430D01*
X32922585Y-7166280D02*
X32922585Y-7565060D01*
X32723195Y-7365670D02*
X33121975Y-7365670D01*
X33398880Y-12055420D02*
X33398880Y-12454200D01*
X33199490Y-12254810D02*
X33598270Y-12254810D01*
X33875100Y-10150540D02*
X33875100Y-10549320D01*
X33675710Y-10349930D02*
X34074490Y-10349930D01*
X34114990Y-6340940D02*
X34114990Y-6739720D01*
X33915600Y-6540330D02*
X34314380Y-6540330D01*
X34589450Y-8245660D02*
X34589450Y-8644440D01*
X34390060Y-8445050D02*
X34788840Y-8445050D01*
X34589505Y-12880920D02*
X34589505Y-13279700D01*
X34390115Y-13080310D02*
X34788895Y-13080310D01*
X34827540Y-13960300D02*
X34827540Y-14359080D01*
X34628150Y-14159690D02*
X35026930Y-14159690D01*
X35065725Y-10976040D02*
X35065725Y-11374820D01*
X34866335Y-11175430D02*
X35265115Y-11175430D01*
X35303835Y-7166280D02*
X35303835Y-7565060D01*
X35104445Y-7365670D02*
X35503225Y-7365670D01*
D11*
X7694295Y-15427801D02*
X7694295Y-15227801D01*
X7741914Y-15227801D01*
X7770485Y-15237325D01*
X7789533Y-15256373D01*
X7799057Y-15275420D01*
X7808580Y-15313515D01*
X7808580Y-15342087D01*
X7799057Y-15380182D01*
X7789533Y-15399230D01*
X7770485Y-15418277D01*
X7741914Y-15427801D01*
X7694295Y-15427801D01*
X7894295Y-15427801D02*
X7894295Y-15294468D01*
X7894295Y-15332563D02*
X7903818Y-15313515D01*
X7913342Y-15303992D01*
X7932390Y-15294468D01*
X7951438Y-15294468D01*
X8018104Y-15427801D02*
X8018104Y-15294468D01*
X8018104Y-15227801D02*
X8008580Y-15237325D01*
X8018104Y-15246849D01*
X8027628Y-15237325D01*
X8018104Y-15227801D01*
X8018104Y-15246849D01*
X8141914Y-15427801D02*
X8122866Y-15418277D01*
X8113342Y-15399230D01*
X8113342Y-15227801D01*
X8246676Y-15427801D02*
X8227628Y-15418277D01*
X8218104Y-15399230D01*
X8218104Y-15227801D01*
X8475247Y-15427801D02*
X8475247Y-15227801D01*
X8541914Y-15370658D01*
X8608580Y-15227801D01*
X8608580Y-15427801D01*
X8789533Y-15427801D02*
X8789533Y-15323039D01*
X8780009Y-15303992D01*
X8760961Y-15294468D01*
X8722866Y-15294468D01*
X8703819Y-15303992D01*
X8789533Y-15418277D02*
X8770485Y-15427801D01*
X8722866Y-15427801D01*
X8703819Y-15418277D01*
X8694295Y-15399230D01*
X8694295Y-15380182D01*
X8703819Y-15361134D01*
X8722866Y-15351611D01*
X8770485Y-15351611D01*
X8789533Y-15342087D01*
X8884771Y-15294468D02*
X8884771Y-15494468D01*
X8884771Y-15303992D02*
X8903819Y-15294468D01*
X8941914Y-15294468D01*
X8960961Y-15303992D01*
X8970485Y-15313515D01*
X8980009Y-15332563D01*
X8980009Y-15389706D01*
X8970485Y-15408753D01*
X8960961Y-15418277D01*
X8941914Y-15427801D01*
X8903819Y-15427801D01*
X8884771Y-15418277D01*
X9065723Y-15408753D02*
X9075247Y-15418277D01*
X9065723Y-15427801D01*
X9056200Y-15418277D01*
X9065723Y-15408753D01*
X9065723Y-15427801D01*
X9065723Y-15303992D02*
X9075247Y-15313515D01*
X9065723Y-15323039D01*
X9056200Y-15313515D01*
X9065723Y-15303992D01*
X9065723Y-15323039D01*
D12*
X7261676Y-15669825D02*
X7436676Y-15844825D01*
X7436676Y-15669825D02*
X7261676Y-15844825D01*
D11*
X7799057Y-15847801D02*
X7684771Y-15847801D01*
X7741914Y-15847801D02*
X7741914Y-15647801D01*
X7722866Y-15676373D01*
X7703818Y-15695420D01*
X7684771Y-15704944D01*
X7884771Y-15828753D02*
X7894295Y-15838277D01*
X7884771Y-15847801D01*
X7875247Y-15838277D01*
X7884771Y-15828753D01*
X7884771Y-15847801D01*
X7960961Y-15647801D02*
X8094295Y-15647801D01*
X8008580Y-15847801D01*
X8265723Y-15647801D02*
X8170485Y-15647801D01*
X8160961Y-15743039D01*
X8170485Y-15733515D01*
X8189533Y-15723992D01*
X8237152Y-15723992D01*
X8256199Y-15733515D01*
X8265723Y-15743039D01*
X8275247Y-15762087D01*
X8275247Y-15809706D01*
X8265723Y-15828753D01*
X8256199Y-15838277D01*
X8237152Y-15847801D01*
X8189533Y-15847801D01*
X8170485Y-15838277D01*
X8160961Y-15828753D01*
X8399057Y-15647801D02*
X8418104Y-15647801D01*
X8437152Y-15657325D01*
X8446676Y-15666849D01*
X8456200Y-15685896D01*
X8465723Y-15723992D01*
X8465723Y-15771611D01*
X8456200Y-15809706D01*
X8446676Y-15828753D01*
X8437152Y-15838277D01*
X8418104Y-15847801D01*
X8399057Y-15847801D01*
X8380009Y-15838277D01*
X8370485Y-15828753D01*
X8360961Y-15809706D01*
X8351438Y-15771611D01*
X8351438Y-15723992D01*
X8360961Y-15685896D01*
X8370485Y-15666849D01*
X8380009Y-15657325D01*
X8399057Y-15647801D01*
X8551438Y-15847801D02*
X8551438Y-15714468D01*
X8551438Y-15733515D02*
X8560961Y-15723992D01*
X8580009Y-15714468D01*
X8608580Y-15714468D01*
X8627628Y-15723992D01*
X8637152Y-15743039D01*
X8637152Y-15847801D01*
X8637152Y-15743039D02*
X8646676Y-15723992D01*
X8665723Y-15714468D01*
X8694295Y-15714468D01*
X8713342Y-15723992D01*
X8722866Y-15743039D01*
X8722866Y-15847801D01*
X8818104Y-15847801D02*
X8818104Y-15714468D01*
X8818104Y-15733515D02*
X8827628Y-15723992D01*
X8846676Y-15714468D01*
X8875247Y-15714468D01*
X8894295Y-15723992D01*
X8903819Y-15743039D01*
X8903819Y-15847801D01*
X8903819Y-15743039D02*
X8913342Y-15723992D01*
X8932390Y-15714468D01*
X8960961Y-15714468D01*
X8980009Y-15723992D01*
X8989533Y-15743039D01*
X8989533Y-15847801D01*
X9380009Y-15638277D02*
X9208580Y-15895420D01*
X9637152Y-15647801D02*
X9656200Y-15647801D01*
X9675247Y-15657325D01*
X9684771Y-15666849D01*
X9694295Y-15685896D01*
X9703819Y-15723992D01*
X9703819Y-15771611D01*
X9694295Y-15809706D01*
X9684771Y-15828753D01*
X9675247Y-15838277D01*
X9656200Y-15847801D01*
X9637152Y-15847801D01*
X9618104Y-15838277D01*
X9608580Y-15828753D01*
X9599057Y-15809706D01*
X9589533Y-15771611D01*
X9589533Y-15723992D01*
X9599057Y-15685896D01*
X9608580Y-15666849D01*
X9618104Y-15657325D01*
X9637152Y-15647801D01*
X9789533Y-15828753D02*
X9799057Y-15838277D01*
X9789533Y-15847801D01*
X9780009Y-15838277D01*
X9789533Y-15828753D01*
X9789533Y-15847801D01*
X9922866Y-15647801D02*
X9941914Y-15647801D01*
X9960961Y-15657325D01*
X9970485Y-15666849D01*
X9980009Y-15685896D01*
X9989533Y-15723992D01*
X9989533Y-15771611D01*
X9980009Y-15809706D01*
X9970485Y-15828753D01*
X9960961Y-15838277D01*
X9941914Y-15847801D01*
X9922866Y-15847801D01*
X9903819Y-15838277D01*
X9894295Y-15828753D01*
X9884771Y-15809706D01*
X9875247Y-15771611D01*
X9875247Y-15723992D01*
X9884771Y-15685896D01*
X9894295Y-15666849D01*
X9903819Y-15657325D01*
X9922866Y-15647801D01*
X10160961Y-15647801D02*
X10122866Y-15647801D01*
X10103819Y-15657325D01*
X10094295Y-15666849D01*
X10075247Y-15695420D01*
X10065723Y-15733515D01*
X10065723Y-15809706D01*
X10075247Y-15828753D01*
X10084771Y-15838277D01*
X10103819Y-15847801D01*
X10141914Y-15847801D01*
X10160961Y-15838277D01*
X10170485Y-15828753D01*
X10180009Y-15809706D01*
X10180009Y-15762087D01*
X10170485Y-15743039D01*
X10160961Y-15733515D01*
X10141914Y-15723992D01*
X10103819Y-15723992D01*
X10084771Y-15733515D01*
X10075247Y-15743039D01*
X10065723Y-15762087D01*
X10294295Y-15733515D02*
X10275247Y-15723992D01*
X10265723Y-15714468D01*
X10256200Y-15695420D01*
X10256200Y-15685896D01*
X10265723Y-15666849D01*
X10275247Y-15657325D01*
X10294295Y-15647801D01*
X10332390Y-15647801D01*
X10351438Y-15657325D01*
X10360961Y-15666849D01*
X10370485Y-15685896D01*
X10370485Y-15695420D01*
X10360961Y-15714468D01*
X10351438Y-15723992D01*
X10332390Y-15733515D01*
X10294295Y-15733515D01*
X10275247Y-15743039D01*
X10265723Y-15752563D01*
X10256200Y-15771611D01*
X10256200Y-15809706D01*
X10265723Y-15828753D01*
X10275247Y-15838277D01*
X10294295Y-15847801D01*
X10332390Y-15847801D01*
X10351438Y-15838277D01*
X10360961Y-15828753D01*
X10370485Y-15809706D01*
X10370485Y-15771611D01*
X10360961Y-15752563D01*
X10351438Y-15743039D01*
X10332390Y-15733515D01*
X10465723Y-15847801D02*
X10503819Y-15847801D01*
X10522866Y-15838277D01*
X10532390Y-15828753D01*
X10551438Y-15800182D01*
X10560961Y-15762087D01*
X10560961Y-15685896D01*
X10551438Y-15666849D01*
X10541914Y-15657325D01*
X10522866Y-15647801D01*
X10484771Y-15647801D01*
X10465723Y-15657325D01*
X10456200Y-15666849D01*
X10446676Y-15685896D01*
X10446676Y-15733515D01*
X10456200Y-15752563D01*
X10465723Y-15762087D01*
X10484771Y-15771611D01*
X10522866Y-15771611D01*
X10541914Y-15762087D01*
X10551438Y-15752563D01*
X10560961Y-15733515D01*
X10637152Y-15647801D02*
X10637152Y-15685896D01*
X10713342Y-15647801D02*
X10713342Y-15685896D01*
X11008580Y-15923992D02*
X10999057Y-15914468D01*
X10980009Y-15885896D01*
X10970485Y-15866849D01*
X10960961Y-15838277D01*
X10951438Y-15790658D01*
X10951438Y-15752563D01*
X10960961Y-15704944D01*
X10970485Y-15676373D01*
X10980009Y-15657325D01*
X10999057Y-15628753D01*
X11008580Y-15619230D01*
X11189533Y-15847801D02*
X11075247Y-15847801D01*
X11132390Y-15847801D02*
X11132390Y-15647801D01*
X11113342Y-15676373D01*
X11094295Y-15695420D01*
X11075247Y-15704944D01*
X11265723Y-15666849D02*
X11275247Y-15657325D01*
X11294295Y-15647801D01*
X11341914Y-15647801D01*
X11360961Y-15657325D01*
X11370485Y-15666849D01*
X11380009Y-15685896D01*
X11380009Y-15704944D01*
X11370485Y-15733515D01*
X11256199Y-15847801D01*
X11380009Y-15847801D01*
X11456199Y-15666849D02*
X11465723Y-15657325D01*
X11484771Y-15647801D01*
X11532390Y-15647801D01*
X11551438Y-15657325D01*
X11560961Y-15666849D01*
X11570485Y-15685896D01*
X11570485Y-15704944D01*
X11560961Y-15733515D01*
X11446676Y-15847801D01*
X11570485Y-15847801D01*
X11808580Y-15847801D02*
X11808580Y-15647801D01*
X11894295Y-15847801D02*
X11894295Y-15743039D01*
X11884771Y-15723992D01*
X11865723Y-15714468D01*
X11837152Y-15714468D01*
X11818104Y-15723992D01*
X11808580Y-15733515D01*
X12018104Y-15847801D02*
X11999057Y-15838277D01*
X11989533Y-15828753D01*
X11980009Y-15809706D01*
X11980009Y-15752563D01*
X11989533Y-15733515D01*
X11999057Y-15723992D01*
X12018104Y-15714468D01*
X12046676Y-15714468D01*
X12065723Y-15723992D01*
X12075247Y-15733515D01*
X12084771Y-15752563D01*
X12084771Y-15809706D01*
X12075247Y-15828753D01*
X12065723Y-15838277D01*
X12046676Y-15847801D01*
X12018104Y-15847801D01*
X12199057Y-15847801D02*
X12180009Y-15838277D01*
X12170485Y-15819230D01*
X12170485Y-15647801D01*
X12351438Y-15838277D02*
X12332390Y-15847801D01*
X12294295Y-15847801D01*
X12275247Y-15838277D01*
X12265723Y-15819230D01*
X12265723Y-15743039D01*
X12275247Y-15723992D01*
X12294295Y-15714468D01*
X12332390Y-15714468D01*
X12351438Y-15723992D01*
X12360961Y-15743039D01*
X12360961Y-15762087D01*
X12265723Y-15781134D01*
X12437152Y-15838277D02*
X12456199Y-15847801D01*
X12494295Y-15847801D01*
X12513342Y-15838277D01*
X12522866Y-15819230D01*
X12522866Y-15809706D01*
X12513342Y-15790658D01*
X12494295Y-15781134D01*
X12465723Y-15781134D01*
X12446676Y-15771611D01*
X12437152Y-15752563D01*
X12437152Y-15743039D01*
X12446676Y-15723992D01*
X12465723Y-15714468D01*
X12494295Y-15714468D01*
X12513342Y-15723992D01*
X12589533Y-15923992D02*
X12599057Y-15914468D01*
X12618104Y-15885896D01*
X12627628Y-15866849D01*
X12637152Y-15838277D01*
X12646676Y-15790658D01*
X12646676Y-15752563D01*
X12637152Y-15704944D01*
X12627628Y-15676373D01*
X12618104Y-15657325D01*
X12599057Y-15628753D01*
X12589533Y-15619230D01*
X12951438Y-15923992D02*
X12941914Y-15914468D01*
X12922866Y-15885896D01*
X12913342Y-15866849D01*
X12903818Y-15838277D01*
X12894295Y-15790658D01*
X12894295Y-15752563D01*
X12903818Y-15704944D01*
X12913342Y-15676373D01*
X12922866Y-15657325D01*
X12941914Y-15628753D01*
X12951438Y-15619230D01*
X13027628Y-15714468D02*
X13027628Y-15847801D01*
X13027628Y-15733515D02*
X13037152Y-15723992D01*
X13056199Y-15714468D01*
X13084771Y-15714468D01*
X13103818Y-15723992D01*
X13113342Y-15743039D01*
X13113342Y-15847801D01*
X13237152Y-15847801D02*
X13218104Y-15838277D01*
X13208580Y-15828753D01*
X13199057Y-15809706D01*
X13199057Y-15752563D01*
X13208580Y-15733515D01*
X13218104Y-15723992D01*
X13237152Y-15714468D01*
X13265723Y-15714468D01*
X13284771Y-15723992D01*
X13294295Y-15733515D01*
X13303818Y-15752563D01*
X13303818Y-15809706D01*
X13294295Y-15828753D01*
X13284771Y-15838277D01*
X13265723Y-15847801D01*
X13237152Y-15847801D01*
X13360961Y-15714468D02*
X13437152Y-15714468D01*
X13389533Y-15647801D02*
X13389533Y-15819230D01*
X13399057Y-15838277D01*
X13418104Y-15847801D01*
X13437152Y-15847801D01*
X13656199Y-15714468D02*
X13656199Y-15914468D01*
X13656199Y-15723992D02*
X13675247Y-15714468D01*
X13713342Y-15714468D01*
X13732390Y-15723992D01*
X13741914Y-15733515D01*
X13751438Y-15752563D01*
X13751438Y-15809706D01*
X13741914Y-15828753D01*
X13732390Y-15838277D01*
X13713342Y-15847801D01*
X13675247Y-15847801D01*
X13656199Y-15838277D01*
X13865723Y-15847801D02*
X13846676Y-15838277D01*
X13837152Y-15819230D01*
X13837152Y-15647801D01*
X14027628Y-15847801D02*
X14027628Y-15743039D01*
X14018104Y-15723992D01*
X13999057Y-15714468D01*
X13960961Y-15714468D01*
X13941914Y-15723992D01*
X14027628Y-15838277D02*
X14008580Y-15847801D01*
X13960961Y-15847801D01*
X13941914Y-15838277D01*
X13932390Y-15819230D01*
X13932390Y-15800182D01*
X13941914Y-15781134D01*
X13960961Y-15771611D01*
X14008580Y-15771611D01*
X14027628Y-15762087D01*
X14094295Y-15714468D02*
X14170485Y-15714468D01*
X14122866Y-15647801D02*
X14122866Y-15819230D01*
X14132390Y-15838277D01*
X14151438Y-15847801D01*
X14170485Y-15847801D01*
X14313342Y-15838277D02*
X14294295Y-15847801D01*
X14256199Y-15847801D01*
X14237152Y-15838277D01*
X14227628Y-15819230D01*
X14227628Y-15743039D01*
X14237152Y-15723992D01*
X14256199Y-15714468D01*
X14294295Y-15714468D01*
X14313342Y-15723992D01*
X14322866Y-15743039D01*
X14322866Y-15762087D01*
X14227628Y-15781134D01*
X14494295Y-15847801D02*
X14494295Y-15647801D01*
X14494295Y-15838277D02*
X14475247Y-15847801D01*
X14437152Y-15847801D01*
X14418104Y-15838277D01*
X14408580Y-15828753D01*
X14399057Y-15809706D01*
X14399057Y-15752563D01*
X14408580Y-15733515D01*
X14418104Y-15723992D01*
X14437152Y-15714468D01*
X14475247Y-15714468D01*
X14494295Y-15723992D01*
X14570485Y-15923992D02*
X14580009Y-15914468D01*
X14599057Y-15885896D01*
X14608580Y-15866849D01*
X14618104Y-15838277D01*
X14627628Y-15790658D01*
X14627628Y-15752563D01*
X14618104Y-15704944D01*
X14608580Y-15676373D01*
X14599057Y-15657325D01*
X14580009Y-15628753D01*
X14570485Y-15619230D01*
X7436676Y-16052325D02*
G75*
G03*
X7436676Y-16052325I-100000J0D01*
G01*
X7675247Y-15942801D02*
X7799057Y-15942801D01*
X7732390Y-16018992D01*
X7760961Y-16018992D01*
X7780009Y-16028515D01*
X7789533Y-16038039D01*
X7799057Y-16057087D01*
X7799057Y-16104706D01*
X7789533Y-16123753D01*
X7780009Y-16133277D01*
X7760961Y-16142801D01*
X7703818Y-16142801D01*
X7684771Y-16133277D01*
X7675247Y-16123753D01*
X7884771Y-16123753D02*
X7894295Y-16133277D01*
X7884771Y-16142801D01*
X7875247Y-16133277D01*
X7884771Y-16123753D01*
X7884771Y-16142801D01*
X8018104Y-15942801D02*
X8037152Y-15942801D01*
X8056199Y-15952325D01*
X8065723Y-15961849D01*
X8075247Y-15980896D01*
X8084771Y-16018992D01*
X8084771Y-16066611D01*
X8075247Y-16104706D01*
X8065723Y-16123753D01*
X8056199Y-16133277D01*
X8037152Y-16142801D01*
X8018104Y-16142801D01*
X7999057Y-16133277D01*
X7989533Y-16123753D01*
X7980009Y-16104706D01*
X7970485Y-16066611D01*
X7970485Y-16018992D01*
X7980009Y-15980896D01*
X7989533Y-15961849D01*
X7999057Y-15952325D01*
X8018104Y-15942801D01*
X8208580Y-15942801D02*
X8227628Y-15942801D01*
X8246676Y-15952325D01*
X8256199Y-15961849D01*
X8265723Y-15980896D01*
X8275247Y-16018992D01*
X8275247Y-16066611D01*
X8265723Y-16104706D01*
X8256199Y-16123753D01*
X8246676Y-16133277D01*
X8227628Y-16142801D01*
X8208580Y-16142801D01*
X8189533Y-16133277D01*
X8180009Y-16123753D01*
X8170485Y-16104706D01*
X8160961Y-16066611D01*
X8160961Y-16018992D01*
X8170485Y-15980896D01*
X8180009Y-15961849D01*
X8189533Y-15952325D01*
X8208580Y-15942801D01*
X8399057Y-15942801D02*
X8418104Y-15942801D01*
X8437152Y-15952325D01*
X8446676Y-15961849D01*
X8456200Y-15980896D01*
X8465723Y-16018992D01*
X8465723Y-16066611D01*
X8456200Y-16104706D01*
X8446676Y-16123753D01*
X8437152Y-16133277D01*
X8418104Y-16142801D01*
X8399057Y-16142801D01*
X8380009Y-16133277D01*
X8370485Y-16123753D01*
X8360961Y-16104706D01*
X8351438Y-16066611D01*
X8351438Y-16018992D01*
X8360961Y-15980896D01*
X8370485Y-15961849D01*
X8380009Y-15952325D01*
X8399057Y-15942801D01*
X8551438Y-16142801D02*
X8551438Y-16009468D01*
X8551438Y-16028515D02*
X8560961Y-16018992D01*
X8580009Y-16009468D01*
X8608580Y-16009468D01*
X8627628Y-16018992D01*
X8637152Y-16038039D01*
X8637152Y-16142801D01*
X8637152Y-16038039D02*
X8646676Y-16018992D01*
X8665723Y-16009468D01*
X8694295Y-16009468D01*
X8713342Y-16018992D01*
X8722866Y-16038039D01*
X8722866Y-16142801D01*
X8818104Y-16142801D02*
X8818104Y-16009468D01*
X8818104Y-16028515D02*
X8827628Y-16018992D01*
X8846676Y-16009468D01*
X8875247Y-16009468D01*
X8894295Y-16018992D01*
X8903819Y-16038039D01*
X8903819Y-16142801D01*
X8903819Y-16038039D02*
X8913342Y-16018992D01*
X8932390Y-16009468D01*
X8960961Y-16009468D01*
X8980009Y-16018992D01*
X8989533Y-16038039D01*
X8989533Y-16142801D01*
X9380009Y-15933277D02*
X9208580Y-16190420D01*
X9637152Y-15942801D02*
X9656200Y-15942801D01*
X9675247Y-15952325D01*
X9684771Y-15961849D01*
X9694295Y-15980896D01*
X9703819Y-16018992D01*
X9703819Y-16066611D01*
X9694295Y-16104706D01*
X9684771Y-16123753D01*
X9675247Y-16133277D01*
X9656200Y-16142801D01*
X9637152Y-16142801D01*
X9618104Y-16133277D01*
X9608580Y-16123753D01*
X9599057Y-16104706D01*
X9589533Y-16066611D01*
X9589533Y-16018992D01*
X9599057Y-15980896D01*
X9608580Y-15961849D01*
X9618104Y-15952325D01*
X9637152Y-15942801D01*
X9789533Y-16123753D02*
X9799057Y-16133277D01*
X9789533Y-16142801D01*
X9780009Y-16133277D01*
X9789533Y-16123753D01*
X9789533Y-16142801D01*
X9989533Y-16142801D02*
X9875247Y-16142801D01*
X9932390Y-16142801D02*
X9932390Y-15942801D01*
X9913342Y-15971373D01*
X9894295Y-15990420D01*
X9875247Y-15999944D01*
X10180009Y-16142801D02*
X10065723Y-16142801D01*
X10122866Y-16142801D02*
X10122866Y-15942801D01*
X10103819Y-15971373D01*
X10084771Y-15990420D01*
X10065723Y-15999944D01*
X10294295Y-16028515D02*
X10275247Y-16018992D01*
X10265723Y-16009468D01*
X10256200Y-15990420D01*
X10256200Y-15980896D01*
X10265723Y-15961849D01*
X10275247Y-15952325D01*
X10294295Y-15942801D01*
X10332390Y-15942801D01*
X10351438Y-15952325D01*
X10360961Y-15961849D01*
X10370485Y-15980896D01*
X10370485Y-15990420D01*
X10360961Y-16009468D01*
X10351438Y-16018992D01*
X10332390Y-16028515D01*
X10294295Y-16028515D01*
X10275247Y-16038039D01*
X10265723Y-16047563D01*
X10256200Y-16066611D01*
X10256200Y-16104706D01*
X10265723Y-16123753D01*
X10275247Y-16133277D01*
X10294295Y-16142801D01*
X10332390Y-16142801D01*
X10351438Y-16133277D01*
X10360961Y-16123753D01*
X10370485Y-16104706D01*
X10370485Y-16066611D01*
X10360961Y-16047563D01*
X10351438Y-16038039D01*
X10332390Y-16028515D01*
X10560961Y-16142801D02*
X10446676Y-16142801D01*
X10503819Y-16142801D02*
X10503819Y-15942801D01*
X10484771Y-15971373D01*
X10465723Y-15990420D01*
X10446676Y-15999944D01*
X10637152Y-15942801D02*
X10637152Y-15980896D01*
X10713342Y-15942801D02*
X10713342Y-15980896D01*
X11008580Y-16218992D02*
X10999057Y-16209468D01*
X10980009Y-16180896D01*
X10970485Y-16161849D01*
X10960961Y-16133277D01*
X10951438Y-16085658D01*
X10951438Y-16047563D01*
X10960961Y-15999944D01*
X10970485Y-15971373D01*
X10980009Y-15952325D01*
X10999057Y-15923753D01*
X11008580Y-15914230D01*
X11065723Y-15942801D02*
X11189533Y-15942801D01*
X11122866Y-16018992D01*
X11151438Y-16018992D01*
X11170485Y-16028515D01*
X11180009Y-16038039D01*
X11189533Y-16057087D01*
X11189533Y-16104706D01*
X11180009Y-16123753D01*
X11170485Y-16133277D01*
X11151438Y-16142801D01*
X11094295Y-16142801D01*
X11075247Y-16133277D01*
X11065723Y-16123753D01*
X11427628Y-16142801D02*
X11427628Y-15942801D01*
X11513342Y-16142801D02*
X11513342Y-16038039D01*
X11503818Y-16018992D01*
X11484771Y-16009468D01*
X11456199Y-16009468D01*
X11437152Y-16018992D01*
X11427628Y-16028515D01*
X11637152Y-16142801D02*
X11618104Y-16133277D01*
X11608580Y-16123753D01*
X11599057Y-16104706D01*
X11599057Y-16047563D01*
X11608580Y-16028515D01*
X11618104Y-16018992D01*
X11637152Y-16009468D01*
X11665723Y-16009468D01*
X11684771Y-16018992D01*
X11694295Y-16028515D01*
X11703818Y-16047563D01*
X11703818Y-16104706D01*
X11694295Y-16123753D01*
X11684771Y-16133277D01*
X11665723Y-16142801D01*
X11637152Y-16142801D01*
X11818104Y-16142801D02*
X11799057Y-16133277D01*
X11789533Y-16114230D01*
X11789533Y-15942801D01*
X11970485Y-16133277D02*
X11951438Y-16142801D01*
X11913342Y-16142801D01*
X11894295Y-16133277D01*
X11884771Y-16114230D01*
X11884771Y-16038039D01*
X11894295Y-16018992D01*
X11913342Y-16009468D01*
X11951438Y-16009468D01*
X11970485Y-16018992D01*
X11980009Y-16038039D01*
X11980009Y-16057087D01*
X11884771Y-16076134D01*
X12056199Y-16133277D02*
X12075247Y-16142801D01*
X12113342Y-16142801D01*
X12132390Y-16133277D01*
X12141914Y-16114230D01*
X12141914Y-16104706D01*
X12132390Y-16085658D01*
X12113342Y-16076134D01*
X12084771Y-16076134D01*
X12065723Y-16066611D01*
X12056199Y-16047563D01*
X12056199Y-16038039D01*
X12065723Y-16018992D01*
X12084771Y-16009468D01*
X12113342Y-16009468D01*
X12132390Y-16018992D01*
X12208580Y-16218992D02*
X12218104Y-16209468D01*
X12237152Y-16180896D01*
X12246676Y-16161849D01*
X12256199Y-16133277D01*
X12265723Y-16085658D01*
X12265723Y-16047563D01*
X12256199Y-15999944D01*
X12246676Y-15971373D01*
X12237152Y-15952325D01*
X12218104Y-15923753D01*
X12208580Y-15914230D01*
X12570485Y-16218992D02*
X12560961Y-16209468D01*
X12541914Y-16180896D01*
X12532390Y-16161849D01*
X12522866Y-16133277D01*
X12513342Y-16085658D01*
X12513342Y-16047563D01*
X12522866Y-15999944D01*
X12532390Y-15971373D01*
X12541914Y-15952325D01*
X12560961Y-15923753D01*
X12570485Y-15914230D01*
X12646676Y-16009468D02*
X12646676Y-16142801D01*
X12646676Y-16028515D02*
X12656199Y-16018992D01*
X12675247Y-16009468D01*
X12703818Y-16009468D01*
X12722866Y-16018992D01*
X12732390Y-16038039D01*
X12732390Y-16142801D01*
X12856199Y-16142801D02*
X12837152Y-16133277D01*
X12827628Y-16123753D01*
X12818104Y-16104706D01*
X12818104Y-16047563D01*
X12827628Y-16028515D01*
X12837152Y-16018992D01*
X12856199Y-16009468D01*
X12884771Y-16009468D01*
X12903818Y-16018992D01*
X12913342Y-16028515D01*
X12922866Y-16047563D01*
X12922866Y-16104706D01*
X12913342Y-16123753D01*
X12903818Y-16133277D01*
X12884771Y-16142801D01*
X12856199Y-16142801D01*
X12980009Y-16009468D02*
X13056199Y-16009468D01*
X13008580Y-15942801D02*
X13008580Y-16114230D01*
X13018104Y-16133277D01*
X13037152Y-16142801D01*
X13056199Y-16142801D01*
X13275247Y-16009468D02*
X13275247Y-16209468D01*
X13275247Y-16018992D02*
X13294295Y-16009468D01*
X13332390Y-16009468D01*
X13351438Y-16018992D01*
X13360961Y-16028515D01*
X13370485Y-16047563D01*
X13370485Y-16104706D01*
X13360961Y-16123753D01*
X13351438Y-16133277D01*
X13332390Y-16142801D01*
X13294295Y-16142801D01*
X13275247Y-16133277D01*
X13484771Y-16142801D02*
X13465723Y-16133277D01*
X13456199Y-16114230D01*
X13456199Y-15942801D01*
X13646676Y-16142801D02*
X13646676Y-16038039D01*
X13637152Y-16018992D01*
X13618104Y-16009468D01*
X13580009Y-16009468D01*
X13560961Y-16018992D01*
X13646676Y-16133277D02*
X13627628Y-16142801D01*
X13580009Y-16142801D01*
X13560961Y-16133277D01*
X13551438Y-16114230D01*
X13551438Y-16095182D01*
X13560961Y-16076134D01*
X13580009Y-16066611D01*
X13627628Y-16066611D01*
X13646676Y-16057087D01*
X13713342Y-16009468D02*
X13789533Y-16009468D01*
X13741914Y-15942801D02*
X13741914Y-16114230D01*
X13751438Y-16133277D01*
X13770485Y-16142801D01*
X13789533Y-16142801D01*
X13932390Y-16133277D02*
X13913342Y-16142801D01*
X13875247Y-16142801D01*
X13856199Y-16133277D01*
X13846676Y-16114230D01*
X13846676Y-16038039D01*
X13856199Y-16018992D01*
X13875247Y-16009468D01*
X13913342Y-16009468D01*
X13932390Y-16018992D01*
X13941914Y-16038039D01*
X13941914Y-16057087D01*
X13846676Y-16076134D01*
X14113342Y-16142801D02*
X14113342Y-15942801D01*
X14113342Y-16133277D02*
X14094295Y-16142801D01*
X14056199Y-16142801D01*
X14037152Y-16133277D01*
X14027628Y-16123753D01*
X14018104Y-16104706D01*
X14018104Y-16047563D01*
X14027628Y-16028515D01*
X14037152Y-16018992D01*
X14056199Y-16009468D01*
X14094295Y-16009468D01*
X14113342Y-16018992D01*
X14189533Y-16218992D02*
X14199057Y-16209468D01*
X14218104Y-16180896D01*
X14227628Y-16161849D01*
X14237152Y-16133277D01*
X14246676Y-16085658D01*
X14246676Y-16047563D01*
X14237152Y-15999944D01*
X14227628Y-15971373D01*
X14218104Y-15952325D01*
X14199057Y-15923753D01*
X14189533Y-15914230D01*
X7336676Y-16272325D02*
X7336676Y-16472325D01*
X7236676Y-16372325D02*
X7436676Y-16372325D01*
X7675247Y-16262801D02*
X7799057Y-16262801D01*
X7732390Y-16338992D01*
X7760961Y-16338992D01*
X7780009Y-16348515D01*
X7789533Y-16358039D01*
X7799057Y-16377087D01*
X7799057Y-16424706D01*
X7789533Y-16443753D01*
X7780009Y-16453277D01*
X7760961Y-16462801D01*
X7703818Y-16462801D01*
X7684771Y-16453277D01*
X7675247Y-16443753D01*
X7884771Y-16443753D02*
X7894295Y-16453277D01*
X7884771Y-16462801D01*
X7875247Y-16453277D01*
X7884771Y-16443753D01*
X7884771Y-16462801D01*
X7989533Y-16462801D02*
X8027628Y-16462801D01*
X8046676Y-16453277D01*
X8056199Y-16443753D01*
X8075247Y-16415182D01*
X8084771Y-16377087D01*
X8084771Y-16300896D01*
X8075247Y-16281849D01*
X8065723Y-16272325D01*
X8046676Y-16262801D01*
X8008580Y-16262801D01*
X7989533Y-16272325D01*
X7980009Y-16281849D01*
X7970485Y-16300896D01*
X7970485Y-16348515D01*
X7980009Y-16367563D01*
X7989533Y-16377087D01*
X8008580Y-16386611D01*
X8046676Y-16386611D01*
X8065723Y-16377087D01*
X8075247Y-16367563D01*
X8084771Y-16348515D01*
X8199057Y-16348515D02*
X8180009Y-16338992D01*
X8170485Y-16329468D01*
X8160961Y-16310420D01*
X8160961Y-16300896D01*
X8170485Y-16281849D01*
X8180009Y-16272325D01*
X8199057Y-16262801D01*
X8237152Y-16262801D01*
X8256199Y-16272325D01*
X8265723Y-16281849D01*
X8275247Y-16300896D01*
X8275247Y-16310420D01*
X8265723Y-16329468D01*
X8256199Y-16338992D01*
X8237152Y-16348515D01*
X8199057Y-16348515D01*
X8180009Y-16358039D01*
X8170485Y-16367563D01*
X8160961Y-16386611D01*
X8160961Y-16424706D01*
X8170485Y-16443753D01*
X8180009Y-16453277D01*
X8199057Y-16462801D01*
X8237152Y-16462801D01*
X8256199Y-16453277D01*
X8265723Y-16443753D01*
X8275247Y-16424706D01*
X8275247Y-16386611D01*
X8265723Y-16367563D01*
X8256199Y-16358039D01*
X8237152Y-16348515D01*
X8389533Y-16348515D02*
X8370485Y-16338992D01*
X8360961Y-16329468D01*
X8351438Y-16310420D01*
X8351438Y-16300896D01*
X8360961Y-16281849D01*
X8370485Y-16272325D01*
X8389533Y-16262801D01*
X8427628Y-16262801D01*
X8446676Y-16272325D01*
X8456200Y-16281849D01*
X8465723Y-16300896D01*
X8465723Y-16310420D01*
X8456200Y-16329468D01*
X8446676Y-16338992D01*
X8427628Y-16348515D01*
X8389533Y-16348515D01*
X8370485Y-16358039D01*
X8360961Y-16367563D01*
X8351438Y-16386611D01*
X8351438Y-16424706D01*
X8360961Y-16443753D01*
X8370485Y-16453277D01*
X8389533Y-16462801D01*
X8427628Y-16462801D01*
X8446676Y-16453277D01*
X8456200Y-16443753D01*
X8465723Y-16424706D01*
X8465723Y-16386611D01*
X8456200Y-16367563D01*
X8446676Y-16358039D01*
X8427628Y-16348515D01*
X8551438Y-16462801D02*
X8551438Y-16329468D01*
X8551438Y-16348515D02*
X8560961Y-16338992D01*
X8580009Y-16329468D01*
X8608580Y-16329468D01*
X8627628Y-16338992D01*
X8637152Y-16358039D01*
X8637152Y-16462801D01*
X8637152Y-16358039D02*
X8646676Y-16338992D01*
X8665723Y-16329468D01*
X8694295Y-16329468D01*
X8713342Y-16338992D01*
X8722866Y-16358039D01*
X8722866Y-16462801D01*
X8818104Y-16462801D02*
X8818104Y-16329468D01*
X8818104Y-16348515D02*
X8827628Y-16338992D01*
X8846676Y-16329468D01*
X8875247Y-16329468D01*
X8894295Y-16338992D01*
X8903819Y-16358039D01*
X8903819Y-16462801D01*
X8903819Y-16358039D02*
X8913342Y-16338992D01*
X8932390Y-16329468D01*
X8960961Y-16329468D01*
X8980009Y-16338992D01*
X8989533Y-16358039D01*
X8989533Y-16462801D01*
X9380009Y-16253277D02*
X9208580Y-16510420D01*
X9637152Y-16262801D02*
X9656200Y-16262801D01*
X9675247Y-16272325D01*
X9684771Y-16281849D01*
X9694295Y-16300896D01*
X9703819Y-16338992D01*
X9703819Y-16386611D01*
X9694295Y-16424706D01*
X9684771Y-16443753D01*
X9675247Y-16453277D01*
X9656200Y-16462801D01*
X9637152Y-16462801D01*
X9618104Y-16453277D01*
X9608580Y-16443753D01*
X9599057Y-16424706D01*
X9589533Y-16386611D01*
X9589533Y-16338992D01*
X9599057Y-16300896D01*
X9608580Y-16281849D01*
X9618104Y-16272325D01*
X9637152Y-16262801D01*
X9789533Y-16443753D02*
X9799057Y-16453277D01*
X9789533Y-16462801D01*
X9780009Y-16453277D01*
X9789533Y-16443753D01*
X9789533Y-16462801D01*
X9989533Y-16462801D02*
X9875247Y-16462801D01*
X9932390Y-16462801D02*
X9932390Y-16262801D01*
X9913342Y-16291373D01*
X9894295Y-16310420D01*
X9875247Y-16319944D01*
X10170485Y-16262801D02*
X10075247Y-16262801D01*
X10065723Y-16358039D01*
X10075247Y-16348515D01*
X10094295Y-16338992D01*
X10141914Y-16338992D01*
X10160961Y-16348515D01*
X10170485Y-16358039D01*
X10180009Y-16377087D01*
X10180009Y-16424706D01*
X10170485Y-16443753D01*
X10160961Y-16453277D01*
X10141914Y-16462801D01*
X10094295Y-16462801D01*
X10075247Y-16453277D01*
X10065723Y-16443753D01*
X10246676Y-16262801D02*
X10380009Y-16262801D01*
X10294295Y-16462801D01*
X10494295Y-16262801D02*
X10513342Y-16262801D01*
X10532390Y-16272325D01*
X10541914Y-16281849D01*
X10551438Y-16300896D01*
X10560961Y-16338992D01*
X10560961Y-16386611D01*
X10551438Y-16424706D01*
X10541914Y-16443753D01*
X10532390Y-16453277D01*
X10513342Y-16462801D01*
X10494295Y-16462801D01*
X10475247Y-16453277D01*
X10465723Y-16443753D01*
X10456200Y-16424706D01*
X10446676Y-16386611D01*
X10446676Y-16338992D01*
X10456200Y-16300896D01*
X10465723Y-16281849D01*
X10475247Y-16272325D01*
X10494295Y-16262801D01*
X10637152Y-16262801D02*
X10637152Y-16300896D01*
X10713342Y-16262801D02*
X10713342Y-16300896D01*
X11008580Y-16538992D02*
X10999057Y-16529468D01*
X10980009Y-16500896D01*
X10970485Y-16481849D01*
X10960961Y-16453277D01*
X10951438Y-16405658D01*
X10951438Y-16367563D01*
X10960961Y-16319944D01*
X10970485Y-16291373D01*
X10980009Y-16272325D01*
X10999057Y-16243753D01*
X11008580Y-16234230D01*
X11065723Y-16262801D02*
X11199057Y-16262801D01*
X11113342Y-16462801D01*
X11380009Y-16462801D02*
X11265723Y-16462801D01*
X11322866Y-16462801D02*
X11322866Y-16262801D01*
X11303818Y-16291373D01*
X11284771Y-16310420D01*
X11265723Y-16319944D01*
X11618104Y-16462801D02*
X11618104Y-16262801D01*
X11703818Y-16462801D02*
X11703818Y-16358039D01*
X11694295Y-16338992D01*
X11675247Y-16329468D01*
X11646676Y-16329468D01*
X11627628Y-16338992D01*
X11618104Y-16348515D01*
X11827628Y-16462801D02*
X11808580Y-16453277D01*
X11799057Y-16443753D01*
X11789533Y-16424706D01*
X11789533Y-16367563D01*
X11799057Y-16348515D01*
X11808580Y-16338992D01*
X11827628Y-16329468D01*
X11856199Y-16329468D01*
X11875247Y-16338992D01*
X11884771Y-16348515D01*
X11894295Y-16367563D01*
X11894295Y-16424706D01*
X11884771Y-16443753D01*
X11875247Y-16453277D01*
X11856199Y-16462801D01*
X11827628Y-16462801D01*
X12008580Y-16462801D02*
X11989533Y-16453277D01*
X11980009Y-16434230D01*
X11980009Y-16262801D01*
X12160961Y-16453277D02*
X12141914Y-16462801D01*
X12103818Y-16462801D01*
X12084771Y-16453277D01*
X12075247Y-16434230D01*
X12075247Y-16358039D01*
X12084771Y-16338992D01*
X12103818Y-16329468D01*
X12141914Y-16329468D01*
X12160961Y-16338992D01*
X12170485Y-16358039D01*
X12170485Y-16377087D01*
X12075247Y-16396134D01*
X12246676Y-16453277D02*
X12265723Y-16462801D01*
X12303818Y-16462801D01*
X12322866Y-16453277D01*
X12332390Y-16434230D01*
X12332390Y-16424706D01*
X12322866Y-16405658D01*
X12303818Y-16396134D01*
X12275247Y-16396134D01*
X12256199Y-16386611D01*
X12246676Y-16367563D01*
X12246676Y-16358039D01*
X12256199Y-16338992D01*
X12275247Y-16329468D01*
X12303818Y-16329468D01*
X12322866Y-16338992D01*
X12399057Y-16538992D02*
X12408580Y-16529468D01*
X12427628Y-16500896D01*
X12437152Y-16481849D01*
X12446676Y-16453277D01*
X12456199Y-16405658D01*
X12456199Y-16367563D01*
X12446676Y-16319944D01*
X12437152Y-16291373D01*
X12427628Y-16272325D01*
X12408580Y-16243753D01*
X12399057Y-16234230D01*
X12760961Y-16538992D02*
X12751438Y-16529468D01*
X12732390Y-16500896D01*
X12722866Y-16481849D01*
X12713342Y-16453277D01*
X12703818Y-16405658D01*
X12703818Y-16367563D01*
X12713342Y-16319944D01*
X12722866Y-16291373D01*
X12732390Y-16272325D01*
X12751438Y-16243753D01*
X12760961Y-16234230D01*
X12837152Y-16329468D02*
X12837152Y-16462801D01*
X12837152Y-16348515D02*
X12846676Y-16338992D01*
X12865723Y-16329468D01*
X12894295Y-16329468D01*
X12913342Y-16338992D01*
X12922866Y-16358039D01*
X12922866Y-16462801D01*
X13046676Y-16462801D02*
X13027628Y-16453277D01*
X13018104Y-16443753D01*
X13008580Y-16424706D01*
X13008580Y-16367563D01*
X13018104Y-16348515D01*
X13027628Y-16338992D01*
X13046676Y-16329468D01*
X13075247Y-16329468D01*
X13094295Y-16338992D01*
X13103818Y-16348515D01*
X13113342Y-16367563D01*
X13113342Y-16424706D01*
X13103818Y-16443753D01*
X13094295Y-16453277D01*
X13075247Y-16462801D01*
X13046676Y-16462801D01*
X13170485Y-16329468D02*
X13246676Y-16329468D01*
X13199057Y-16262801D02*
X13199057Y-16434230D01*
X13208580Y-16453277D01*
X13227628Y-16462801D01*
X13246676Y-16462801D01*
X13465723Y-16329468D02*
X13465723Y-16529468D01*
X13465723Y-16338992D02*
X13484771Y-16329468D01*
X13522866Y-16329468D01*
X13541914Y-16338992D01*
X13551438Y-16348515D01*
X13560961Y-16367563D01*
X13560961Y-16424706D01*
X13551438Y-16443753D01*
X13541914Y-16453277D01*
X13522866Y-16462801D01*
X13484771Y-16462801D01*
X13465723Y-16453277D01*
X13675247Y-16462801D02*
X13656199Y-16453277D01*
X13646676Y-16434230D01*
X13646676Y-16262801D01*
X13837152Y-16462801D02*
X13837152Y-16358039D01*
X13827628Y-16338992D01*
X13808580Y-16329468D01*
X13770485Y-16329468D01*
X13751438Y-16338992D01*
X13837152Y-16453277D02*
X13818104Y-16462801D01*
X13770485Y-16462801D01*
X13751438Y-16453277D01*
X13741914Y-16434230D01*
X13741914Y-16415182D01*
X13751438Y-16396134D01*
X13770485Y-16386611D01*
X13818104Y-16386611D01*
X13837152Y-16377087D01*
X13903818Y-16329468D02*
X13980009Y-16329468D01*
X13932390Y-16262801D02*
X13932390Y-16434230D01*
X13941914Y-16453277D01*
X13960961Y-16462801D01*
X13980009Y-16462801D01*
X14122866Y-16453277D02*
X14103818Y-16462801D01*
X14065723Y-16462801D01*
X14046676Y-16453277D01*
X14037152Y-16434230D01*
X14037152Y-16358039D01*
X14046676Y-16338992D01*
X14065723Y-16329468D01*
X14103818Y-16329468D01*
X14122866Y-16338992D01*
X14132390Y-16358039D01*
X14132390Y-16377087D01*
X14037152Y-16396134D01*
X14303818Y-16462801D02*
X14303818Y-16262801D01*
X14303818Y-16453277D02*
X14284771Y-16462801D01*
X14246676Y-16462801D01*
X14227628Y-16453277D01*
X14218104Y-16443753D01*
X14208580Y-16424706D01*
X14208580Y-16367563D01*
X14218104Y-16348515D01*
X14227628Y-16338992D01*
X14246676Y-16329468D01*
X14284771Y-16329468D01*
X14303818Y-16338992D01*
X14380009Y-16538992D02*
X14389533Y-16529468D01*
X14408580Y-16500896D01*
X14418104Y-16481849D01*
X14427628Y-16453277D01*
X14437152Y-16405658D01*
X14437152Y-16367563D01*
X14427628Y-16319944D01*
X14418104Y-16291373D01*
X14408580Y-16272325D01*
X14389533Y-16243753D01*
X14380009Y-16234230D01*
M02*
